<svg width="172" height="172" viewBox="0 0 172 172" fill="none" xmlns="http://www.w3.org/2000/svg">
<path d="M157.011 -6.55177e-07L172 13.0902L172 70.6539L164.807 79.415L164.66 100.703L172 107.959L172 163.634L164.66 172L5.73365 172L-7.27129e-06 166.348L0.949447 9.86959L10.8715 -7.04315e-06L91.9523 -3.499e-06L97.5652 5.54893L129.861 5.54894L135.473 -1.59663e-06L157.011 -6.55177e-07Z" fill="#3A3A3A"/>
<path d="M88.1957 92.5181C88.1957 103.564 79.1975 112.518 68.0978 112.518C56.9981 112.518 48 103.564 48 92.5181C48 81.4724 56.9981 72.5181 68.0978 72.5181C79.1975 72.5181 88.1957 81.4724 88.1957 92.5181Z" fill="#D9D9D9"/>
<path d="M91 92.5181C91 103.564 82.0019 112.518 70.9022 112.518C59.8025 112.518 50.8043 103.564 50.8043 92.5181C50.8043 81.4724 59.8025 72.5181 70.9022 72.5181C82.0019 72.5181 91 81.4724 91 92.5181Z" fill="white"/>
<path d="M87.2609 92.5181C87.2609 101.509 79.9368 108.797 70.9022 108.797C61.8675 108.797 54.5435 101.509 54.5435 92.5181C54.5435 83.5274 61.8675 76.239 70.9022 76.239C79.9368 76.239 87.2609 83.5274 87.2609 92.5181Z" fill="#D9D9D9"/>
<path d="M85.8587 92.5181C85.8587 101.509 78.8485 108.797 70.2011 108.797C61.5536 108.797 54.5435 101.509 54.5435 92.5181C54.5435 83.5274 61.5536 76.239 70.2011 76.239C78.8485 76.239 85.8587 83.5274 85.8587 92.5181Z" fill="#303030"/>
<path d="M63.4239 88.761V87.6878L65.5809 85.5413H66.6593L70.6685 89.531L74.6777 85.5413H75.7561L77.913 87.6877V88.7609L73.9039 92.7506L77.913 96.7403V97.8135L75.7561 99.9599H74.6777L70.6685 95.9703L66.6593 99.9599L63.424 99.9599V96.7403L67.4331 92.7506L63.4239 88.761Z" fill="white"/>
<path d="M115.338 79.1141C112.032 89.6534 100.767 95.504 90.1758 92.1817C79.5849 88.8595 73.6794 77.6224 76.9855 67.0831C80.2916 56.5438 91.5573 50.6932 102.148 54.0155C112.739 57.3377 118.644 68.5748 115.338 79.1141Z" fill="#D9D9D9"/>
<path d="M118.014 79.9534C114.708 90.4928 103.442 96.3433 92.8515 93.0211C82.2607 89.6988 76.3552 78.4618 79.6613 67.9225C82.9674 57.3832 94.2331 51.5326 104.824 54.8548C115.415 58.1771 121.32 69.4141 118.014 79.9534Z" fill="white"/>
<path d="M114.446 78.8343C111.755 87.4128 102.586 92.1749 93.9653 89.4707C85.3448 86.7666 80.538 77.6202 83.229 69.0416C85.92 60.4631 95.0897 55.701 103.71 58.4052C112.331 61.1093 117.137 70.2558 114.446 78.8343Z" fill="#D9D9D9"/>
<path d="M113.109 78.4146C110.418 86.9931 101.547 91.8492 93.2963 89.2609C85.0453 86.6726 80.538 77.6202 83.229 69.0416C85.92 60.4631 94.7902 55.6071 103.041 58.1953C111.292 60.7836 115.8 69.8361 113.109 78.4146Z" fill="#303030"/>
<path d="M92.8268 68.1148L93.1481 67.0908L95.8486 65.6884L96.8776 66.0111L99.5088 71.0179L104.528 68.4111L105.557 68.7339L106.973 71.4275L106.652 72.4515L101.632 75.0583L104.263 80.065L103.942 81.089L101.242 82.4915L100.213 82.1687L97.5815 77.1619L92.562 79.7687L89.4749 78.8003L90.4386 75.7283L95.4581 73.1216L92.8268 68.1148Z" fill="white"/>
<path d="M90.5661 96.4255C101.61 96.6076 110.436 104.48 110.279 114.008C110.122 123.537 101.041 131.114 89.9973 130.932C78.9531 130.75 70.1273 122.878 70.2844 113.349C70.4415 103.82 79.522 96.2434 90.5661 96.4255Z" fill="#D9D9D9"/>
<path d="M90.6058 94.0181C101.65 94.2002 110.476 102.072 110.319 111.601C110.162 121.129 101.081 128.706 90.037 128.524C78.9928 128.342 70.167 120.47 70.3241 110.942C70.4812 101.413 79.5616 93.836 90.6058 94.0181Z" fill="white"/>
<path d="M90.5529 97.228C99.5424 97.3762 106.726 103.784 106.598 111.54C106.47 119.295 99.0794 125.463 90.0899 125.314C81.1004 125.166 73.9167 118.759 74.0445 111.003C74.1724 103.247 81.5635 97.0798 90.5529 97.228Z" fill="#D9D9D9"/>
<path d="M90.5331 98.4317C99.5225 98.5799 106.711 104.718 106.588 112.141C106.466 119.565 99.0794 125.463 90.0899 125.314C81.1004 125.166 73.9122 119.028 74.0346 111.605C74.157 104.181 81.5436 98.2835 90.5331 98.4317Z" fill="#303030"/>
<path d="M86.459 117.629L85.3859 117.611L83.2703 115.724L83.2856 114.799L87.3314 111.423L83.399 107.915L83.4143 106.989L85.591 105.173L86.664 105.191L90.5964 108.698L94.6423 105.322L95.7153 105.34L97.8309 107.227L97.8157 108.153L93.7698 111.529L97.7022 115.036L97.6564 117.814L94.4372 117.761L90.5048 114.253L86.459 117.629Z" fill="white"/>
<path d="M93.6179 92.34C104.662 92.5221 113.488 100.394 113.331 109.923C113.174 119.451 104.093 127.028 93.049 126.846C82.0048 126.664 73.1791 118.792 73.3362 109.263C73.4933 99.7349 82.5737 92.158 93.6179 92.34Z" fill="#D9D9D9"/>
<path d="M93.6576 89.9326C104.702 90.1147 113.528 97.9868 113.37 107.515C113.213 117.044 104.133 124.621 93.0887 124.439C82.0445 124.257 73.2188 116.385 73.3759 106.856C73.533 97.3274 82.6134 89.7506 93.6576 89.9326Z" fill="white"/>
<path d="M93.6047 93.1425C102.594 93.2907 109.778 99.6982 109.65 107.454C109.522 115.21 102.131 121.377 93.1416 121.229C84.1522 121.081 76.9684 114.673 77.0963 106.917C77.2242 99.1615 84.6152 92.9943 93.6047 93.1425Z" fill="#D9D9D9"/>
<path d="M93.5848 94.3462C102.574 94.4944 109.762 100.632 109.64 108.056C109.518 115.479 102.131 121.377 93.1416 121.229C84.1522 121.081 76.964 114.943 77.0864 107.519C77.2088 100.096 84.5954 94.198 93.5848 94.3462Z" fill="#303030"/>
<path d="M89.5107 113.544L88.4377 113.526L86.3221 111.639L86.3373 110.713L90.3832 107.337L86.4508 103.83L86.4661 102.904L88.6427 101.088L89.7158 101.105L93.6482 104.613L97.694 101.237L98.7671 101.255L100.883 103.141L100.867 104.067L96.8216 107.443L100.754 110.951L100.708 113.728L97.489 113.675L93.5566 110.168L89.5107 113.544Z" fill="white"/>
<path d="M96.6697 88.2551C107.714 88.4372 116.54 96.3092 116.383 105.838C116.225 115.367 107.145 122.943 96.1008 122.761C85.0566 122.579 76.2309 114.707 76.3879 105.179C76.545 95.6499 85.6255 88.073 96.6697 88.2551Z" fill="#D9D9D9"/>
<path d="M96.7094 85.8477C107.754 86.0297 116.579 93.9018 116.422 103.43C116.265 112.959 107.185 120.536 96.1405 120.354C85.0963 120.172 76.2705 112.3 76.4276 102.771C76.5847 93.2425 85.6652 85.6656 96.7094 85.8477Z" fill="white"/>
<path d="M96.6564 89.0576C105.646 89.2057 112.83 95.6133 112.702 103.369C112.574 111.125 105.183 117.292 96.1934 117.144C87.2039 116.996 80.0202 110.588 80.1481 102.832C80.2759 95.0766 87.667 88.9094 96.6564 89.0576Z" fill="#D9D9D9"/>
<path d="M96.6366 90.2613C105.626 90.4095 112.814 96.5475 112.692 103.971C112.569 111.394 105.183 117.292 96.1934 117.144C87.2039 116.996 80.0158 110.858 80.1381 103.434C80.2605 96.0108 87.6471 90.1131 96.6366 90.2613Z" fill="#303030"/>
<path d="M92.5625 109.459L91.4894 109.441L89.3738 107.554L89.3891 106.628L93.435 103.252L89.5026 99.7447L89.5178 98.8189L91.6945 97.0026L92.7675 97.0203L96.6999 100.528L100.746 97.1519L101.819 97.1695L103.934 99.0565L103.919 99.9823L99.8733 103.358L103.806 106.866L103.76 109.643L100.541 109.59L96.6084 106.083L92.5625 109.459Z" fill="white"/>
</svg>
