<svg width="172" height="172" viewBox="0 0 172 172" fill="none" xmlns="http://www.w3.org/2000/svg">
<path d="M157.011 -6.55177e-07L172 13.0902L172 70.6539L164.807 79.415L164.66 100.703L172 107.959L172 163.634L164.66 172L5.73365 172L-7.27129e-06 166.348L0.949447 9.86959L10.8715 -7.04315e-06L91.9523 -3.499e-06L97.5652 5.54893L129.861 5.54894L135.473 -1.59663e-06L157.011 -6.55177e-07Z" fill="#3A3A3A"/>
<path d="M40.6621 111.72V55.9828L94.9022 52.4888L132.671 57.1474V112.885L72.2745 124.033L40.6621 111.72Z" fill="#191919"/>
<path d="M72.7734 64.4681L40.3291 58.312V99.9072L72.7734 114.549V64.4681Z" fill="#0F0F0F"/>
<path d="M72.94 71.1235L38 64.9674L38.1664 51.6569L41.494 48.3293L94.9022 46L132.671 49.3276L135 51.6569V65.9657L72.94 71.1235Z" fill="#8115A8"/>
<path d="M38 96.0806H40.6621L72.7736 108.559L82.7564 107.561L84.9194 108.559V124.033L72.7736 126.362L38 111.055V96.0806Z" fill="#8115A8"/>
<path d="M38.166 64.6346V51.8232L72.2741 57.813V70.957L38.166 64.6346Z" fill="#630385"/>
<path d="M38 111.055V96.2471L72.7736 111.055V126.196L38 111.055Z" fill="#630385"/>
<path d="M134.503 113.55L130.841 114.382L129.51 113.55V100.074L132.673 99.4081V97.9106L134.503 98.5762V113.55Z" fill="#8115A8"/>
<path d="M112.241 93.9013L117.044 98.2522L116.268 99.0215L111.513 94.6542L109.265 92.5888L107.239 94.8734L101.601 101.233H101.266H101.266L100.898 101.233V100.449L106.532 94.6831L108.73 92.434L106.38 90.3444L101.391 85.9093L102.196 85.1125L106.852 89.0966L108.994 90.9286L110.956 88.906L116.34 83.3556L117.156 84.1639L112.06 89.6327L109.986 91.8587L112.241 93.9013Z" stroke="#8115A8" stroke-width="6"/>
<path d="M134.002 69.1999L132.671 68.9604V69.4596L130.156 69.6012V75.2829L130.841 75.6086L134.002 74.8993V69.1999Z" fill="white"/>
<path d="M134.002 78.85L132.671 78.6105V79.1097L130.156 79.2513V84.933L130.841 85.2587L134.002 84.5494V78.85Z" fill="white"/>
<path d="M134.002 88.5001L132.671 88.2606V88.7598L130.156 88.9014V94.5831L130.841 94.9088L134.002 94.1995V88.5001Z" fill="white"/>
<path d="M67.6162 74.4545L68.643 74.2847L72.774 75.2744L76.7672 74.4545L77.5991 74.6318V81.8926L73.6059 82.9295L72.9214 82.9365L67.6162 81.4007V74.4545Z" fill="white"/>
<path d="M67.6162 84.4374L68.643 84.2675L72.774 85.2573L76.7672 84.4374L77.5991 84.6146V91.8755L73.6059 92.9123L72.9214 92.9193L67.6162 91.3835V84.4374Z" fill="white"/>
<path d="M67.6162 94.4202L68.643 94.2504L72.774 95.2401L76.7672 94.4202L77.5991 94.5975V101.858L73.6059 102.895L72.9214 102.902L67.6162 101.366V94.4202Z" fill="white"/>
<path d="M39.3311 68.4578L40.3579 68.2949L45.3208 69.4348V75.6228L44.6362 75.9484L39.3311 74.1572V68.4578Z" fill="white"/>
<path d="M39.3311 77.4426L40.3579 77.2798L45.3208 78.9082V84.6076L44.6362 84.9333L39.3311 83.1421V77.4426Z" fill="white"/>
<path d="M39.3311 86.427L40.3579 86.2642L45.3208 87.8926V93.592L44.6362 93.9177L39.3311 92.1264V86.427Z" fill="white"/>
<path d="M41.1613 103.901L45.0831 103.568L45.6535 106.563L45.0831 109.558L41.1613 108.892L40.6621 106.23L41.1613 103.901Z" fill="black"/>
<path d="M49.1476 107.228L53.0694 106.896L53.6399 109.89L53.0694 112.885L49.1476 112.22L48.6484 109.558L49.1476 107.228Z" fill="black"/>
<path d="M45.321 102.902L43.6572 103.235V103.734H44.1564L44.6555 106.563L43.99 109.315H43.6687L43.8236 109.724L45.1547 110.057L45.9866 106.729L45.321 102.902Z" fill="#6A6A6A"/>
<path d="M53.3074 106.23L51.6436 106.563V107.062H52.1427L52.6418 109.89L51.9763 112.643H51.6551L51.8099 113.052L53.141 113.384L53.9729 110.057L53.3074 106.23Z" fill="#6A6A6A"/>
<path d="M57.7999 110.556L61.7218 110.223L62.2922 113.218L61.7218 116.213L57.7999 115.547L57.3008 112.885L57.7999 110.556Z" fill="black"/>
<path d="M61.9587 109.557L60.2949 109.89V110.389H60.7941L61.2932 113.218L60.6277 115.97H60.3064L60.4613 116.379L61.7923 116.712L62.6243 113.384L61.9587 109.557Z" fill="#6A6A6A"/>
<path d="M98.2295 119.208L101.89 121.59H104.386V109.327L106.216 106.729L103.886 106.998L102.223 109.327V118.542L98.2295 119.208Z" fill="#E0E0E0"/>
<path d="M113.869 119.54L114.868 118.043V108.393L112.705 106.23L106.216 106.729L104.386 109.327V121.59L113.869 119.54Z" fill="white"/>
<path fill-rule="evenodd" clip-rule="evenodd" d="M92.9058 46.9985L75.7686 47.9968L100.892 50.6589L105.384 54.3193V76.9471L108.213 79.3804L113.87 78.7773L115.866 75.4497V52.4891L112.372 48.9951L92.9058 46.9985Z" fill="white"/>
<path d="M103.055 76.9471L105.883 79.3804H108.213L105.384 76.9471V54.3193L100.892 50.6589L75.7686 47.9968L75.9349 50.1598L99.3946 52.4891L103.055 55.484V76.9471Z" fill="#E0E0E0"/>
</svg>
