<svg width="172" height="172" viewBox="0 0 172 172" fill="none" xmlns="http://www.w3.org/2000/svg">
<path d="M157.011 -6.55177e-07L172 13.0902L172 70.6539L164.807 79.415L164.66 100.703L172 107.959L172 163.634L164.66 172L5.73365 172L-7.27129e-06 166.348L0.949447 9.86959L10.8715 -7.04315e-06L91.9523 -3.499e-06L97.5652 5.54893L129.861 5.54894L135.473 -1.59663e-06L157.011 -6.55177e-07Z" fill="#3A3A3A"/>
<path d="M39.6895 111.398V55.0857L94.4888 51.5557L132.647 56.2624V112.575L71.6277 123.837L39.6895 111.398Z" fill="#808080"/>
<path d="M72.1313 63.6585L39.3525 57.439V99.463L72.1313 114.255V63.6585Z" fill="#6F6F6F"/>
<path d="M72.3002 70.3825L37 64.163L37.1681 50.7153L40.53 47.3533L94.4888 45L132.647 48.3619L135 50.7153V65.1715L72.3002 70.3825Z" fill="white"/>
<path d="M37 95.5972H39.6895L72.1321 108.204L82.2178 107.196L84.4031 108.204V123.837L72.1321 126.191L37 110.726V95.5972Z" fill="white"/>
<path d="M37.1689 63.8267V50.8833L71.6286 56.9348V70.2143L37.1689 63.8267Z" fill="#DEDEDE"/>
<path d="M37 110.726V95.7651L72.1321 110.726V126.022L37 110.726Z" fill="#DEDEDE"/>
<path d="M84.5713 121.484L89.1099 124.005L90.7908 123.619L90.2866 90.2177L94.3209 85.7437L91.9675 86.0153L88.6056 89.7134V120.643L84.5713 121.484Z" fill="#2B2B2B"/>
<path d="M126.427 115.432L127.94 112.238V84.1662L125.419 81.981L94.3209 85.7437L90.2866 90.2177L90.7908 123.619L126.427 115.432Z" fill="#585858"/>
<path d="M104.238 98.2262V97.3023L106.09 95.4544H107.016L110.458 98.2262L113.9 94.4199H114.826L116.677 96.2678V97.1917L113.235 100.627L116.677 104.061V104.985L114.826 106.833H113.9L110.458 104.061L107.016 107.868H106.09L104.238 107.868V105.096L107.68 101.661L104.238 98.2262Z" fill="white"/>
<path d="M134.497 113.247L130.797 114.087L129.452 113.247V99.631L132.648 98.9587V97.4458L134.497 98.1182V113.247Z" fill="white"/>
<path d="M39.6 103.333L44.3143 103L45 106L44.3143 109L39.6 108.333L39 105.667L39.6 103.333Z" fill="black"/>
<path d="M44.4286 102L43 102.372V102.93H43.4286L43.8571 106.093L43.2857 109.171H43.0099L43.1429 109.628L44.2857 110L45 106.279L44.4286 102Z" fill="#6A6A6A"/>
</svg>
