<svg width="200" height="200" viewBox="0 0 200 200" fill="none" xmlns="http://www.w3.org/2000/svg">
<path d="M182.571 -7.61834e-07L200 15.2211L200 82.1557L191.636 92.343L191.465 117.097L200 125.534L200 190.273L191.465 200L6.66704 200L-8.45499e-06 193.428L1.104 11.4763L12.6413 -8.18971e-06L106.921 -4.0686e-06L113.448 6.45225L151.001 6.45225L157.527 -1.85655e-06L182.571 -7.61834e-07Z" fill="#343434"/>
<path d="M84.208 110.664V105.672C84.208 103.965 84.6133 102.408 85.424 101C86.2773 99.592 87.408 98.4827 88.816 97.672C90.224 96.8187 91.7813 96.392 93.488 96.392H108.016V86.792H78V77H108.464C110.171 77 111.728 77.4267 113.136 78.28C114.544 79.0907 115.675 80.2 116.528 81.608C117.381 83.016 117.808 84.5733 117.808 86.28V96.904C117.808 98.6107 117.381 100.168 116.528 101.576C115.675 102.984 114.544 104.115 113.136 104.968C111.728 105.821 110.171 106.248 108.464 106.248H94.064V110.664H84.208ZM84.208 123.08V113.288H94.064V123.08H84.208Z" fill="white"/>
</svg>