<svg width="172" height="172" viewBox="0 0 172 172" fill="none" xmlns="http://www.w3.org/2000/svg">
<path d="M157.011 -6.55177e-07L172 13.0902L172 70.6539L164.807 79.415L164.66 100.703L172 107.959L172 163.634L164.66 172L5.73365 172L-7.27129e-06 166.348L0.949447 9.86959L10.8715 -7.04315e-06L91.9523 -3.499e-06L97.5652 5.54893L129.861 5.54894L135.473 -1.59663e-06L157.011 -6.55177e-07Z" fill="#3A3A3A"/>
<path d="M37.7822 119.696V61.4349L94.4779 57.7827L133.956 62.6523V120.913L70.8257 132.565L37.7822 119.696Z" fill="#808080"/>
<path d="M71.3476 70.3044L37.4346 63.8696V107.348L71.3476 122.652V70.3044Z" fill="#6F6F6F"/>
<path d="M71.5217 77.2609L35 70.8261L35.1739 56.913L38.6522 53.4348L94.4783 51L133.957 54.4783L136.391 56.913V71.8696L71.5217 77.2609Z" fill="#FAFF00"/>
<path d="M35 103.348H37.7826L71.3478 116.391L81.7826 115.348L84.0435 116.391V132.565L71.3478 135L35 119V103.348Z" fill="#FAFF00"/>
<path d="M35.1738 70.4782V57.0869L70.826 63.3478V77.0869L35.1738 70.4782Z" fill="#C6CA00"/>
<path d="M35 119V103.522L71.3478 119V134.826L35 119Z" fill="#C6CA00"/>
<path fill-rule="evenodd" clip-rule="evenodd" d="M100.913 88.0437L94.3047 88.8062L90.1308 93.435L90.6526 132.34L127.522 123.87L129.087 120.565V86.8263L126.479 84.5654L119.87 85.2611L116.913 90.3046L104.74 91.8698L100.913 88.0437Z" fill="#3E3E3E"/>
<path d="M84.2178 130.131L88.9134 132.739L90.6526 132.34L90.1308 93.435L94.3047 88.8062L91.8699 89.0872L88.3917 92.9133V129.261L84.2178 130.131Z" fill="#2B2B2B"/>
<path d="M112.814 109.614L115.79 112.583L114.984 113.388L111.941 110.937L110.838 110.049L109.888 111.099L106.773 114.543H106.481H106.481L106.065 114.543V113.798L109.186 110.684L110.25 109.622L109.186 108.56L106.21 105.59L107.016 104.786L110.059 107.237L111.163 108.125L112.113 107.074L115.071 103.803L115.79 104.52L112.814 107.49L111.75 108.552L112.814 109.614Z" stroke="#FAFF00" stroke-width="3"/>
<path d="M135.871 121.609L132.044 122.478L130.652 121.609V107.522L133.958 106.826V105.261L135.871 105.956V121.609Z" fill="#FAFF00"/>
<path fill-rule="evenodd" clip-rule="evenodd" d="M91.9502 52L74 53.0482L100.315 55.8433L105.021 59.6866V83.4451L107.983 86L113.909 85.3667L116 81.8728V57.7649L112.34 54.0963L91.9502 52Z" fill="#3E3E3E"/>
<path d="M102.581 83.4451L105.544 86H107.983L105.021 83.4451V59.6866L100.315 55.8433L74 53.0482L74.1743 55.3192L98.7469 57.7649L102.581 60.9094V83.4451Z" fill="#2B2B2B"/>
<path d="M135 75.2491L133.616 75V75.5194L131 75.6667V81.5787L131.712 81.9176L135 81.1796V75.2491Z" fill="#3E3E3E"/>
<path d="M135 85.2903L133.616 85.0412V85.5606L131 85.7079V91.6199L131.712 91.9588L135 91.2208V85.2903Z" fill="#3E3E3E"/>
<path d="M135 95.3315L133.616 95.0824V95.6018L131 95.7491V101.661L131.712 102L135 101.262V95.3315Z" fill="#3E3E3E"/>
<path d="M66 81.1721L67.0286 81L71.1667 82.003L75.1667 81.1721L76 81.3518V88.7097L72 89.7604L71.3143 89.7674L66 88.2111V81.1721Z" fill="#3E3E3E"/>
<path d="M66 91.2884L67.0286 91.1163L71.1667 92.1193L75.1667 91.2884L76 91.468V98.8259L72 99.8767L71.3143 99.8837L66 98.3274V91.2884Z" fill="#3E3E3E"/>
<path d="M66 101.405L67.0286 101.233L71.1667 102.236L75.1667 101.405L76 101.584V108.942L72 109.993L71.3143 110L66 108.444V101.405Z" fill="#3E3E3E"/>
</svg>
