<svg width="172" height="172" viewBox="0 0 172 172" fill="none" xmlns="http://www.w3.org/2000/svg">
<path d="M157.011 -6.55177e-07L172 13.0902L172 70.6539L164.807 79.415L164.66 100.703L172 107.959L172 163.634L164.66 172L5.73365 172L-7.27129e-06 166.348L0.949447 9.86959L10.8715 -7.04315e-06L91.9523 -3.499e-06L97.5652 5.54893L129.861 5.54894L135.473 -1.59663e-06L157.011 -6.55177e-07Z" fill="#E1E1E1"/>
<path d="M32.1562 124.916V58.8352L96.4616 54.6929L141.239 60.216V126.297L69.6348 139.513L32.1562 124.916Z" fill="#808080"/>
<path d="M70.2256 68.8954L31.7607 61.5969V110.911L70.2256 128.269V68.8954Z" fill="#6F6F6F"/>
<path d="M70.4237 76.7856L29 69.4871L29.1973 53.7067L33.1424 49.7616L96.4614 47L141.238 50.9451L144 53.7067V70.6707L70.4237 76.7856Z" fill="#FAFF00"/>
<path d="M29 106.374H32.1561L70.2264 121.168L82.0618 119.985L84.6261 121.168V139.513L70.2264 142.275L29 124.127V106.374Z" fill="#FAFF00"/>
<path d="M29.1973 69.0925V53.9038L69.6347 61.005V76.5882L29.1973 69.0925Z" fill="#C6CA00"/>
<path d="M29 124.127V106.571L70.2264 124.127V142.077L29 124.127Z" fill="#C6CA00"/>
<path fill-rule="evenodd" clip-rule="evenodd" d="M103.76 89.0154L96.2641 89.8803L91.5299 95.1303L92.1217 139.257L133.94 129.65L135.715 125.902V87.6346L132.756 85.0703L125.261 85.8593L121.907 91.5797L108.099 93.355L103.76 89.0154Z" fill="#3E3E3E"/>
<path d="M84.8232 136.751L90.1491 139.71L92.1217 139.257L91.5299 95.1303L96.2641 89.8803L93.5025 90.199L89.5574 94.5386V135.765L84.8232 136.751Z" fill="#2B2B2B"/>
<path d="M107.902 109.46V108.376L110.075 106.207H111.162L115.201 109.46L119.24 104.993H120.326L122.499 107.162V108.246L118.46 112.276L122.499 116.307V117.391L120.326 119.56H119.24L115.201 116.307L111.162 120.774H110.075L107.902 120.774V117.521L111.941 113.49L107.902 109.46Z" fill="#FAFF00"/>
<path d="M143.41 127.086L139.068 128.072L137.49 127.086V111.108L141.24 110.319V108.544L143.41 109.333V127.086Z" fill="#FAFF00"/>
<path fill-rule="evenodd" clip-rule="evenodd" d="M94.0947 48.1836L73.7773 49.3671L103.563 52.5232L108.889 56.8628V83.6896L112.242 86.5745L118.949 85.8594L121.316 81.9143V54.693L117.174 50.5507L94.0947 48.1836Z" fill="#3E3E3E"/>
<path d="M106.127 83.6896L109.481 87.0429L112.242 86.5745L108.889 83.6896V56.8628L103.563 52.5232L73.7773 49.3671L73.9746 51.9315L101.788 54.693L106.127 58.2436V83.6896Z" fill="#2B2B2B"/>
<path d="M30.5781 73.6254L31.7955 73.4324L37.6793 74.7838V82.12L36.8678 82.5061L30.5781 80.3825V73.6254Z" fill="#3E3E3E"/>
<path d="M142.816 74.5051L141.238 74.2212V74.813L138.257 74.9808V81.7169L139.068 82.103L142.816 81.2621V74.5051Z" fill="#3E3E3E"/>
<path d="M142.816 85.9459L141.238 85.662V86.2538L138.257 86.4217V93.1577L139.068 93.5438L142.816 92.7029V85.9459Z" fill="#3E3E3E"/>
<path d="M142.816 97.3867L141.238 97.1028V97.6946L138.257 97.8625V104.599L139.068 104.985L142.816 104.144V97.3867Z" fill="#3E3E3E"/>
<path d="M64.1113 80.7348L65.3287 80.5334L70.2263 81.7069L74.9604 80.7348L75.9467 80.945V89.5532L71.2125 90.7825L70.401 90.7907L64.1113 88.97V80.7348Z" fill="#3E3E3E"/>
<path d="M64.1113 92.5702L65.3287 92.3688L70.2263 93.5422L74.9604 92.5702L75.9467 92.7803V101.389L71.2125 102.618L70.401 102.626L64.1113 100.805V92.5702Z" fill="#3E3E3E"/>
<path d="M64.1113 104.406L65.3287 104.204L70.2263 105.378L74.9604 104.406L75.9467 104.616V113.224L71.2125 114.453L70.401 114.461L64.1113 112.641V104.406Z" fill="#3E3E3E"/>
<path d="M30.5781 84.277L31.7955 84.084L37.6793 86.0146V92.7716L36.8678 93.1577L30.5781 91.0341V84.277Z" fill="#3E3E3E"/>
<path d="M30.5781 94.9289L31.7955 94.7358L37.6793 96.6664V103.423L36.8678 103.81L30.5781 101.686V94.9289Z" fill="#3E3E3E"/>
<path d="M32.748 115.645L37.3976 115.25L38.0739 118.801L37.3976 122.352L32.748 121.563L32.1562 118.407L32.748 115.645Z" fill="black"/>
<path d="M42.2158 119.59L46.8654 119.196L47.5417 122.746L46.8654 126.297L42.2158 125.508L41.624 122.352L42.2158 119.59Z" fill="black"/>
<path d="M37.6786 114.461L35.7061 114.856V115.448H36.2978L36.8896 118.801L36.1006 122.065H35.7197L35.9033 122.549L37.4814 122.943L38.4676 118.998L37.6786 114.461Z" fill="#6A6A6A"/>
<path d="M47.1483 118.406L45.1758 118.801V119.393H45.7675L46.3593 122.746L45.5703 126.01H45.1894L45.373 126.494L46.9511 126.888L47.9374 122.943L47.1483 118.406Z" fill="#6A6A6A"/>
</svg>
