<svg width="200" height="185" viewBox="0 0 200 185" fill="none" xmlns="http://www.w3.org/2000/svg">
<circle cx="126" cy="56" r="49" fill="black" stroke="#FAFF00" stroke-width="2"/>
<path d="M136.793 18.8816L137.35 16.935L137.171 17.061L136.358 16.8283L137.592 15.9968L138.228 16.1791L137.406 19.0571L136.793 18.8816Z" fill="white"/>
<path d="M141.181 20.4949C141.08 20.4494 141 20.3801 140.941 20.287C140.884 20.1914 140.85 20.0879 140.839 19.9767C140.829 19.863 140.846 19.7568 140.89 19.6581L141.598 18.0801C141.643 17.9789 141.71 17.8967 141.799 17.8335C141.889 17.7702 141.986 17.732 142.093 17.7189C142.2 17.7033 142.304 17.7182 142.406 17.7636L143.982 18.4707C144.084 18.5161 144.164 18.5841 144.224 18.6747C144.285 18.7628 144.321 18.8612 144.334 18.9699C144.346 19.0786 144.329 19.1835 144.284 19.2847L143.576 20.8627C143.532 20.9613 143.464 21.0448 143.373 21.1131C143.282 21.1789 143.182 21.2222 143.073 21.2428C142.964 21.261 142.859 21.2474 142.758 21.2019L141.181 20.4949ZM141.797 20.0282L143.009 20.5717L143.464 19.555L141.797 20.0282ZM141.71 19.3877L143.377 18.9146L142.165 18.3711L141.71 19.3877Z" fill="white"/>
<path d="M146.083 23.0192C145.99 22.9598 145.92 22.8799 145.875 22.7794C145.832 22.6766 145.813 22.5693 145.818 22.4577C145.824 22.3437 145.857 22.2411 145.914 22.1497L146.839 20.6886C146.899 20.595 146.977 20.5232 147.074 20.4732C147.172 20.4233 147.274 20.3994 147.381 20.4016C147.49 20.4014 147.591 20.431 147.685 20.4903L149.145 21.4142C149.239 21.4736 149.309 21.5524 149.355 21.6505C149.403 21.7463 149.425 21.8489 149.421 21.9582C149.418 22.0675 149.386 22.1689 149.327 22.2626L148.402 23.7237C148.344 23.815 148.265 23.888 148.165 23.9426C148.066 23.9949 147.961 24.0234 147.849 24.0283C147.739 24.0309 147.637 24.0024 147.544 23.9431L146.083 23.0192ZM146.759 22.6448L147.881 23.355L148.477 22.4137L146.759 22.6448ZM146.764 21.9986L148.482 21.7675L147.36 21.0574L146.764 21.9986Z" fill="white"/>
<path d="M154.174 29.5648L155.046 28.7996C155.129 28.7265 155.224 28.6805 155.329 28.6619C155.434 28.6432 155.537 28.6509 155.637 28.6849C155.739 28.7171 155.827 28.7749 155.9 28.8582L157.022 30.1335L157.469 29.7413L156.367 28.4879L156.185 28.647L155.765 28.1688L155.971 27.9877C156.054 27.9146 156.149 27.8687 156.254 27.85C156.359 27.8314 156.462 27.839 156.562 27.873C156.664 27.9052 156.752 27.963 156.826 28.0464L157.967 29.3435C158.04 29.4268 158.086 29.5212 158.105 29.6265C158.126 29.73 158.12 29.8328 158.088 29.9348C158.056 30.0368 157.998 30.1244 157.915 30.1975L157.418 30.6336C157.335 30.7068 157.24 30.7527 157.135 30.7713C157.029 30.79 156.926 30.7833 156.824 30.7511C156.721 30.7189 156.634 30.6611 156.56 30.5777L155.438 29.3025L155.073 29.6234L156.596 31.355L156.118 31.7746L154.174 29.5648Z" fill="white"/>
<path d="M157.987 34.3511C157.926 34.2582 157.894 34.1582 157.89 34.0513C157.886 33.9444 157.908 33.8428 157.954 33.7464C158 33.65 158.069 33.5722 158.159 33.5132L158.355 33.3861L158.703 33.9192L158.536 34.0281L159.449 35.4253L159.919 35.1188L158.658 33.1886L160.163 32.2079L161.773 34.6712L161.24 35.0185L159.978 33.0883L159.543 33.3721L160.472 34.7936C160.532 34.8865 160.565 34.9864 160.568 35.0934C160.574 35.1988 160.554 35.2997 160.508 35.3961C160.461 35.4925 160.392 35.5709 160.299 35.6315L159.769 35.9765C159.679 36.0355 159.58 36.0668 159.473 36.0703C159.366 36.0738 159.264 36.0523 159.167 36.0059C159.071 35.9595 158.992 35.8899 158.931 35.797L157.987 34.3511Z" fill="white"/>
<path d="M160.743 39.1137C160.697 39.0131 160.681 38.9085 160.698 38.7998C160.717 38.69 160.759 38.5895 160.824 38.4984C160.891 38.406 160.973 38.3371 161.072 38.2916L162.641 37.5631C162.742 37.5164 162.847 37.4984 162.956 37.509C163.065 37.5196 163.164 37.5547 163.253 37.6143C163.344 37.6728 163.413 37.7523 163.46 37.8529L164.19 39.4182C164.236 39.5187 164.253 39.6228 164.239 39.7303C164.227 39.8366 164.19 39.9348 164.128 40.0247C164.066 40.1147 163.985 40.1831 163.884 40.2298L162.314 40.9582C162.216 41.0037 162.11 41.0224 161.996 41.0141C161.885 41.0047 161.781 40.9719 161.684 40.9158C161.59 40.8585 161.52 40.7795 161.473 40.679L160.743 39.1137ZM161.515 39.1639L162.076 40.3671L163.087 39.8978L161.515 39.1639ZM161.869 38.6235L163.441 39.3574L162.88 38.1542L161.869 38.6235Z" fill="white"/>
<path d="M164.107 49.606C164.091 49.4963 164.103 49.3921 164.144 49.2934C164.185 49.1947 164.247 49.1112 164.329 49.0427C164.411 48.9743 164.506 48.9321 164.613 48.916L166.383 48.6505C166.492 48.634 166.597 48.6464 166.696 48.6877C166.794 48.7289 166.877 48.7908 166.943 48.8735C167.011 48.9557 167.054 49.0517 167.07 49.1613L167.352 51.0201L166.723 51.1146L166.445 49.2846L165.931 49.3618L166.185 51.0396C166.202 51.1493 166.189 51.2535 166.148 51.3522C166.11 51.4505 166.05 51.5338 165.967 51.6022C165.885 51.6707 165.789 51.7131 165.679 51.7296L165.054 51.8234C164.947 51.8395 164.844 51.8269 164.745 51.7857C164.646 51.7444 164.562 51.6827 164.494 51.6004C164.425 51.5182 164.383 51.4222 164.366 51.3126L164.107 49.606ZM164.741 49.5403L164.991 51.1893L165.547 51.1059L165.297 49.4569L164.741 49.5403Z" fill="white"/>
<path d="M164.633 55.0596C164.632 54.9487 164.662 54.8473 164.722 54.7555C164.785 54.6636 164.865 54.5896 164.962 54.5336C165.061 54.4775 165.165 54.4491 165.273 54.4484L167.005 54.4376C167.116 54.4369 167.219 54.464 167.314 54.5189C167.408 54.5737 167.484 54.6467 167.54 54.7378C167.599 54.829 167.629 54.93 167.63 55.0408L167.643 56.7666C167.644 56.8774 167.615 56.9788 167.558 57.0707C167.503 57.1625 167.429 57.2364 167.335 57.2925C167.241 57.3485 167.138 57.3769 167.027 57.3775L165.296 57.3884C165.187 57.3891 165.083 57.362 164.983 57.3072C164.885 57.2523 164.804 57.1794 164.74 57.0883C164.678 56.9972 164.647 56.8962 164.646 56.7853L164.633 55.0596ZM165.314 55.4254L165.324 56.7519L166.44 56.745L165.314 55.4254ZM165.861 55.081L166.987 56.4005L166.976 55.074L165.861 55.081Z" fill="white"/>
<path d="M164.376 60.5598C164.391 60.4499 164.435 60.3538 164.508 60.2715C164.584 60.1895 164.673 60.1277 164.777 60.086C164.884 60.0446 164.99 60.0313 165.098 60.046L166.813 60.2815C166.923 60.2966 167.021 60.338 167.107 60.4058C167.193 60.4735 167.258 60.5565 167.3 60.6547C167.346 60.7533 167.361 60.8575 167.346 60.9673L167.113 62.677C167.098 62.7869 167.056 62.8831 166.986 62.9658C166.918 63.0489 166.834 63.1115 166.733 63.1536C166.632 63.1957 166.527 63.2092 166.417 63.1941L164.701 62.9587C164.594 62.944 164.494 62.9023 164.403 62.8338C164.314 62.7657 164.244 62.682 164.193 62.5827C164.145 62.4837 164.129 62.3793 164.144 62.2695L164.376 60.5598ZM164.999 61.0187L164.82 62.3329L165.925 62.4846L164.999 61.0187ZM165.589 60.7556L166.516 62.2215L166.695 60.9073L165.589 60.7556Z" fill="white"/>
<path d="M161.633 70.9677C161.678 70.8665 161.745 70.7856 161.833 70.7248C161.921 70.6641 162.018 70.6272 162.124 70.6141C162.231 70.601 162.333 70.6166 162.432 70.6609L162.645 70.7563L162.385 71.3367L162.202 71.2549L161.52 72.7761L162.026 73.0027L162.767 71.3487L163.348 71.6094L162.653 73.1609L163.139 73.379L163.775 71.9603L163.562 71.8649L163.823 71.2845L164.066 71.3935C164.167 71.4389 164.248 71.5057 164.309 71.5938C164.37 71.6818 164.406 71.7784 164.416 71.8834C164.43 71.9896 164.414 72.0932 164.368 72.1944L163.707 73.67C163.662 73.7712 163.595 73.8521 163.507 73.9128C163.421 73.9747 163.326 74.0109 163.221 74.0215C163.114 74.0346 163.011 74.0184 162.909 73.973L162.362 73.7277C162.334 73.7152 162.305 73.699 162.275 73.6792C162.245 73.663 162.22 73.6455 162.198 73.6265C162.135 73.644 162.068 73.6505 161.997 73.646C161.929 73.6426 161.862 73.6262 161.796 73.5967L161.23 73.3428C161.131 73.2985 161.051 73.2323 160.99 73.1443C160.928 73.0587 160.891 72.9629 160.877 72.8567C160.864 72.7505 160.88 72.6469 160.925 72.5457L161.633 70.9677Z" fill="white"/>
<path d="M159.022 76.0638C159.081 75.9702 159.161 75.901 159.262 75.8564C159.365 75.8133 159.472 75.7943 159.584 75.7994C159.698 75.806 159.8 75.8382 159.892 75.8961L161.356 76.8222C161.45 76.8816 161.522 76.9599 161.572 77.0572C161.622 77.1545 161.646 77.2566 161.644 77.3636C161.644 77.472 161.615 77.5731 161.555 77.6667L160.632 79.1243C160.573 79.218 160.494 79.2879 160.396 79.334C160.3 79.3816 160.198 79.4035 160.088 79.3999C159.979 79.3963 159.877 79.3648 159.783 79.3054L158.32 78.3793C158.228 78.3214 158.155 78.2423 158.1 78.1421C158.048 78.0433 158.019 77.9382 158.014 77.8268C158.011 77.7169 158.04 77.6151 158.099 77.5214L159.022 76.0638ZM159.397 76.7393L158.688 77.8597L159.631 78.4563L159.397 76.7393ZM160.044 76.7452L160.278 78.4622L160.987 77.3418L160.044 76.7452Z" fill="white"/>
<path d="M155.829 80.5486C155.901 80.4643 155.99 80.4073 156.096 80.3774C156.204 80.3493 156.313 80.3458 156.423 80.3667C156.535 80.3895 156.632 80.436 156.715 80.5063L158.032 81.6309C158.116 81.703 158.176 81.7908 158.212 81.8942C158.248 81.9976 158.257 82.1021 158.24 82.2076C158.225 82.315 158.181 82.4108 158.109 82.4951L156.988 83.8063C156.916 83.8906 156.828 83.9486 156.724 83.9802C156.622 84.0137 156.518 84.0209 156.41 84.0017C156.302 83.9826 156.206 83.9369 156.122 83.8649L154.804 82.7402C154.722 82.6699 154.661 82.5813 154.621 82.4743C154.583 82.3691 154.57 82.261 154.58 82.15C154.593 82.0408 154.636 81.9441 154.708 81.8599L155.829 80.5486ZM156.105 81.2705L155.243 82.2784L156.092 83.0029L156.105 81.2705ZM156.745 81.3682L156.731 83.1007L157.593 82.0927L156.745 81.3682Z" fill="white"/>
<path d="M147.701 87.936C147.794 87.8755 147.894 87.8435 148.001 87.84C148.108 87.8365 148.21 87.8579 148.306 87.9043C148.403 87.9507 148.481 88.0192 148.54 88.1098L148.886 88.6394C148.912 88.6789 148.932 88.7221 148.946 88.7692C148.962 88.8186 148.974 88.8671 148.982 88.9149C149.022 88.9415 149.061 88.9707 149.099 89.0026C149.137 89.0369 149.171 89.0749 149.198 89.1167L149.519 89.608C149.58 89.7009 149.612 89.8008 149.615 89.9077C149.619 90.0146 149.597 90.1151 149.549 90.2092C149.503 90.3056 149.433 90.3841 149.34 90.4446L147.894 91.3867C147.811 91.4412 147.721 91.4733 147.624 91.483C147.53 91.4951 147.437 91.4857 147.348 91.4547C147.258 91.4238 147.18 91.3734 147.115 91.3035L146.734 90.7216C146.681 90.6403 146.649 90.5473 146.636 90.4426C146.551 90.3987 146.48 90.3326 146.422 90.2443L146.076 89.7147C146.017 89.6241 145.986 89.5254 145.982 89.4185C145.978 89.3115 146 89.2099 146.046 89.1135C146.092 89.0171 146.162 88.9386 146.255 88.8781L147.701 87.936ZM148.025 88.485L146.628 89.3953L146.935 89.8656L148.332 88.9553L148.025 88.485ZM148.66 89.4571L147.263 90.3673L147.568 90.8342L148.965 89.9239L148.66 89.4571Z" fill="white"/>
<path d="M142.923 90.6917C143.024 90.645 143.127 90.6275 143.234 90.6393C143.34 90.6511 143.438 90.6868 143.527 90.7464C143.616 90.806 143.683 90.8849 143.729 90.9829L143.827 91.1942L143.25 91.4621L143.166 91.281L141.653 91.9832L141.89 92.4924L143.98 91.5223L144.74 93.1517L142.072 94.3897L141.803 93.8126L143.893 92.8425L143.674 92.3711L142.134 93.0855C142.034 93.1322 141.93 93.1497 141.824 93.1379C141.718 93.1287 141.621 93.0942 141.532 93.0346C141.443 92.975 141.375 92.8949 141.329 92.7943L141.061 92.221C141.016 92.1229 140.999 92.0207 141.01 91.9144C141.022 91.8081 141.058 91.7105 141.117 91.6217C141.177 91.5329 141.257 91.4651 141.357 91.4184L142.923 90.6917Z" fill="white"/>
<path d="M137.816 92.7337C137.922 92.7018 138.028 92.7019 138.133 92.734C138.239 92.7687 138.333 92.8246 138.414 92.9016C138.496 92.9812 138.553 93.0728 138.584 93.1763L139.084 94.8331C139.116 94.9393 139.119 95.0455 139.094 95.1517C139.068 95.2579 139.019 95.3507 138.947 95.4302C138.876 95.5122 138.788 95.5692 138.682 95.6011L137.028 96.0977C136.922 96.1296 136.816 96.1308 136.712 96.1014C136.608 96.0746 136.516 96.0241 136.436 95.9498C136.355 95.8754 136.299 95.7852 136.267 95.679L135.767 94.0222C135.735 93.9187 135.732 93.8112 135.756 93.6996C135.781 93.5907 135.828 93.4926 135.897 93.4052C135.967 93.3205 136.056 93.2622 136.162 93.2303L137.816 92.7337ZM137.657 93.4894L136.386 93.871L136.708 94.9384L137.657 93.4894ZM138.143 93.9169L137.194 95.3659L138.465 94.9843L138.143 93.9169Z" fill="white"/>
<path d="M126.966 94.5531C127.077 94.5524 127.178 94.5795 127.27 94.6343C127.362 94.6892 127.436 94.7622 127.493 94.8533C127.549 94.9445 127.577 95.0441 127.578 95.1522L127.58 95.3851L126.943 95.3891L126.942 95.1895L125.272 95.1999L125.277 95.7613L127.583 95.7468L127.596 97.5432L124.653 97.5617L124.649 96.9254L126.955 96.911L126.951 96.3912L125.252 96.4018C125.141 96.4025 125.04 96.3754 124.948 96.3206C124.856 96.2685 124.782 96.1969 124.726 96.1057C124.67 96.0146 124.641 95.9136 124.64 95.8027L124.635 95.1706C124.635 95.0625 124.662 94.9625 124.716 94.8707C124.771 94.7789 124.844 94.7049 124.935 94.6489C125.026 94.5929 125.128 94.5646 125.239 94.5639L126.966 94.5531Z" fill="white"/>
<path d="M121.468 94.2898C121.578 94.3049 121.674 94.3489 121.757 94.4218C121.839 94.4974 121.901 94.587 121.943 94.6907C121.984 94.7971 121.998 94.9039 121.983 95.011L121.75 96.7248C121.735 96.8346 121.693 96.9325 121.626 97.0183C121.558 97.1042 121.475 97.1683 121.377 97.2108C121.278 97.256 121.174 97.2711 121.064 97.256L119.352 97.0211C119.242 97.006 119.146 96.9634 119.063 96.8933C118.98 96.8259 118.917 96.7417 118.875 96.6408C118.832 96.5399 118.819 96.4345 118.834 96.3246L119.067 94.6108C119.082 94.5037 119.123 94.4045 119.192 94.3132C119.26 94.2246 119.344 94.1549 119.443 94.1042C119.542 94.0562 119.646 94.0398 119.756 94.0549L121.468 94.2898ZM121.009 94.9109L119.694 94.7304L119.543 95.8345L121.009 94.9109ZM121.274 95.5012L119.807 96.4247L121.123 96.6052L121.274 95.5012Z" fill="white"/>
<path d="M111.391 91.6898L110.917 92.7481C110.871 92.8493 110.804 92.9302 110.716 92.991C110.628 93.0517 110.532 93.0873 110.427 93.0979C110.32 93.111 110.217 93.0948 110.115 93.0494L108.565 92.3543L108.322 92.8967L109.845 93.5799L109.944 93.3599L110.525 93.6206L110.413 93.8709C110.368 93.9721 110.301 94.0531 110.213 94.1138C110.125 94.1745 110.028 94.2102 109.923 94.2207C109.817 94.2338 109.713 94.2177 109.612 94.1722L108.035 93.4652C107.934 93.4198 107.853 93.353 107.792 93.2649C107.73 93.1794 107.692 93.0836 107.679 92.9774C107.666 92.8712 107.682 92.7676 107.727 92.6664L107.997 92.0633C108.043 91.9621 108.109 91.8811 108.198 91.8204C108.286 91.7597 108.383 91.7228 108.489 91.7097C108.595 91.6966 108.699 91.7127 108.8 91.7582L110.351 92.4533L110.549 92.0095L108.445 91.0656L108.705 90.4852L111.391 91.6898Z" fill="white"/>
<path d="M105.942 88.9201C106.036 88.9795 106.105 89.0594 106.15 89.1599C106.193 89.2627 106.212 89.37 106.207 89.4816C106.201 89.5956 106.169 89.6982 106.111 89.7895L105.186 91.2506C105.126 91.3443 105.048 91.4161 104.951 91.466C104.853 91.516 104.751 91.5398 104.644 91.5377C104.536 91.5379 104.434 91.5083 104.341 91.4489L102.88 90.525C102.787 90.4657 102.717 90.3869 102.67 90.2888C102.622 90.193 102.6 90.0904 102.604 89.9811C102.607 89.8718 102.639 89.7703 102.698 89.6767L103.623 88.2156C103.681 88.1242 103.76 88.0513 103.86 87.9967C103.959 87.9444 104.064 87.9158 104.176 87.9109C104.286 87.9084 104.388 87.9368 104.482 87.9962L105.942 88.9201ZM105.266 89.2945L104.144 88.5843L103.548 89.5256L105.266 89.2945ZM105.261 89.9406L103.543 90.1717L104.665 90.8819L105.261 89.9406Z" fill="white"/>
<path d="M101.448 85.725C101.533 85.7971 101.59 85.886 101.62 85.9919C101.648 86.0998 101.652 86.2086 101.631 86.3184C101.609 86.4303 101.562 86.5273 101.492 86.6094L100.368 87.9239C100.296 88.0081 100.208 88.0681 100.105 88.1036C100.001 88.1392 99.8965 88.1483 99.7908 88.131C99.6834 88.1157 99.5874 88.0721 99.503 88L98.1889 86.878C98.1045 86.8059 98.0463 86.718 98.0145 86.6143C97.9809 86.5127 97.9736 86.4081 97.9926 86.3004C98.0116 86.1928 98.0572 86.0968 98.1292 86.0125L99.2533 84.6981C99.3235 84.616 99.4122 84.555 99.5192 84.5152C99.6245 84.4775 99.7327 84.4642 99.8438 84.4752C99.9531 84.4883 100.05 84.531 100.134 84.6031L101.448 85.725ZM100.726 85.9994L99.7161 85.137L98.992 85.9838L100.726 85.9994ZM100.629 86.6382L98.8949 86.6226L99.905 87.485L100.629 86.6382Z" fill="white"/>
<path d="M94.1645 77.7808C94.2252 77.8737 94.2574 77.9736 94.261 78.0805C94.2646 78.1874 94.2433 78.2891 94.197 78.3855C94.1507 78.4819 94.0822 78.5596 93.9916 78.6186L93.7965 78.7457L93.4482 78.2127L93.6154 78.1037L92.7024 76.7066L92.2389 77.0085L93.2316 78.5276L92.6985 78.8749L91.7673 77.4499L91.3212 77.7404L92.1728 79.0435L92.3679 78.9164L92.7163 79.4495L92.4933 79.5947C92.4004 79.6553 92.3004 79.6873 92.1934 79.6908C92.0863 79.6943 91.9857 79.6721 91.8915 79.6242C91.7949 79.5778 91.7163 79.5081 91.6556 79.4152L90.7699 78.0599C90.7092 77.967 90.677 77.8671 90.6734 77.7601C90.6674 77.6547 90.6883 77.555 90.7362 77.4609C90.7825 77.3645 90.8521 77.2861 90.945 77.2255L91.4468 76.8986C91.4723 76.882 91.5017 76.8661 91.535 76.8511C91.5644 76.8353 91.593 76.8233 91.6207 76.8151C91.6398 76.753 91.6704 76.6934 91.7125 76.6362C91.7522 76.5804 91.8023 76.5329 91.8627 76.4936L92.3819 76.1553C92.4725 76.0963 92.5713 76.0651 92.6783 76.0616C92.7838 76.0558 92.8849 76.076 92.9814 76.1224C93.078 76.1688 93.1566 76.2385 93.2173 76.3314L94.1645 77.7808Z" fill="white"/>
<path d="M91.2784 72.8182C91.3252 72.9188 91.3429 73.0222 91.3312 73.1286C91.3196 73.2349 91.284 73.3325 91.2244 73.4213C91.1648 73.5101 91.086 73.5773 90.9879 73.6228L90.7766 73.7209L90.5077 73.1438L90.6888 73.0597L89.9839 71.5473L89.4745 71.7837L90.4483 73.8732L88.8183 74.6297L87.5756 71.9631L88.1529 71.6951L89.1267 73.7847L89.5983 73.5658L88.8811 72.0269C88.8343 71.9263 88.8167 71.8229 88.8283 71.7166C88.8374 71.6114 88.8718 71.5144 88.9313 71.4256C88.9909 71.3368 89.071 71.269 89.1716 71.2223L89.7451 70.9562C89.8432 70.9106 89.9455 70.8938 90.052 70.9055C90.1584 70.9173 90.2561 70.953 90.3451 71.0126C90.4341 71.0722 90.502 71.1524 90.5489 71.2529L91.2784 72.8182Z" fill="white"/>
<path d="M89.2275 67.713C89.2596 67.8192 89.2597 67.9249 89.2277 68.03C89.193 68.136 89.1372 68.2295 89.0603 68.3105C88.9807 68.3923 88.8891 68.4488 88.7855 68.4799L87.1278 68.9777C87.0215 69.0096 86.9152 69.0125 86.8088 68.9866C86.7025 68.9606 86.6095 68.9118 86.5299 68.8401C86.4476 68.7692 86.3905 68.6807 86.3584 68.5745L85.8592 66.9217C85.8271 66.8155 85.8257 66.7102 85.8551 66.6059C85.8817 66.5023 85.9322 66.4104 86.0065 66.3302C86.0808 66.25 86.1711 66.1939 86.2773 66.162L87.935 65.6642C88.0386 65.6331 88.1463 65.6298 88.258 65.6542C88.367 65.6793 88.4653 65.7266 88.5528 65.7958C88.6377 65.8659 88.6963 65.954 88.7283 66.0602L89.2275 67.713ZM88.4709 67.5536L88.0872 66.2832L87.0192 66.6038L88.4709 67.5536ZM88.0436 68.0381L86.5919 67.0883L86.9756 68.3588L88.0436 68.0381Z" fill="white"/>
<path d="M87.3923 56.8797C87.3932 56.9906 87.3662 57.0919 87.3114 57.1838C87.2566 57.2756 87.1836 57.3495 87.0924 57.4055C87.0013 57.4616 86.9016 57.4899 86.7934 57.4906L86.1607 57.4945C86.1135 57.4948 86.0663 57.4882 86.019 57.4746C85.969 57.4611 85.9217 57.4447 85.8771 57.4256C85.8329 57.4453 85.7872 57.4622 85.7401 57.4764C85.6903 57.4905 85.6404 57.4978 85.5904 57.4981L85.0035 57.5018C84.8925 57.5025 84.7911 57.4754 84.6991 57.4205C84.6071 57.3656 84.5344 57.2926 84.4809 57.2015C84.4248 57.1103 84.3962 57.0093 84.3954 56.8984L84.3823 55.1727C84.3816 55.0729 84.4031 54.9799 84.4468 54.8937C84.4878 54.8075 84.5455 54.7351 84.62 54.6764C84.6945 54.6177 84.7788 54.5797 84.8731 54.5625L85.5682 54.5582C85.6653 54.5576 85.7612 54.5805 85.8559 54.6271C85.9388 54.5794 86.033 54.5553 86.1384 54.5546L86.7711 54.5506C86.8793 54.55 86.9794 54.5771 87.0714 54.6319C87.1634 54.6868 87.2375 54.7598 87.2937 54.8509C87.3499 54.9421 87.3784 55.0431 87.3792 55.154L87.3923 56.8797ZM86.7553 56.8546L86.7426 55.1871L86.1807 55.1906L86.1933 56.8581L86.7553 56.8546ZM85.5939 56.8618L85.5813 55.1943L85.0236 55.1978L85.0362 56.8653L85.5939 56.8618Z" fill="white"/>
<path d="M87.6485 51.3794C87.6335 51.4893 87.5897 51.5854 87.5168 51.6677C87.4412 51.7496 87.3516 51.8115 87.2478 51.8532C87.1414 51.8946 87.0345 51.9079 86.9273 51.8932L85.2115 51.6577C85.1015 51.6426 85.0035 51.6012 84.9175 51.5334C84.8315 51.4656 84.7672 51.3827 84.7245 51.2845C84.6791 51.1859 84.6639 51.0817 84.6789 50.9719L84.9118 49.2622C84.9267 49.1523 84.9693 49.056 85.0394 48.9733C85.1067 48.8903 85.1908 48.8277 85.2918 48.7856C85.3928 48.7435 85.4983 48.73 85.6083 48.7451L87.324 48.9805C87.4313 48.9952 87.5307 49.0369 87.6222 49.1054C87.7109 49.1735 87.7807 49.2572 87.8316 49.3565C87.8798 49.4555 87.8964 49.5599 87.8814 49.6697L87.6485 51.3794ZM87.0262 50.9205L87.2052 49.6063L86.0998 49.4546L87.0262 50.9205ZM86.4357 51.1836L85.5094 49.7177L85.3303 51.0319L86.4357 51.1836Z" fill="white"/>
<path d="M88.8182 45.9578C88.7877 46.0644 88.7306 46.1533 88.6467 46.2244C88.5602 46.2948 88.4627 46.3432 88.354 46.3698C88.2428 46.3955 88.1351 46.3935 88.031 46.3637L86.3659 45.8867C86.2592 45.8562 86.168 45.8012 86.0925 45.7219C86.017 45.6427 85.9652 45.5514 85.9369 45.4482C85.906 45.3442 85.9058 45.2389 85.9363 45.1323L86.4104 43.4735C86.4409 43.3669 86.4967 43.2776 86.5779 43.2057C86.6564 43.1331 86.7486 43.0831 86.8546 43.0558C86.9605 43.0285 87.0669 43.0301 87.1736 43.0607L88.8387 43.5377C88.9428 43.5675 89.0352 43.6228 89.1161 43.7036C89.1942 43.7837 89.2514 43.8764 89.2877 43.982C89.3212 44.0867 89.3228 44.1924 89.2923 44.299L88.8182 45.9578ZM88.2674 45.4152L88.6319 44.1401L87.5592 43.8328L88.2674 45.4152ZM87.6454 45.5916L86.9372 44.0092L86.5727 45.2843L87.6454 45.5916Z" fill="white"/>
<path d="M93.0031 35.8757C92.9498 35.96 92.8766 36.0236 92.7838 36.0665C92.6886 36.1079 92.5848 36.1291 92.4724 36.1302C92.3577 36.1298 92.2447 36.1058 92.1334 36.0584L93.3721 34.1021L92.9217 33.8171L92.0144 35.2501C91.9551 35.3438 91.8775 35.4144 91.7817 35.462C91.6859 35.5096 91.5844 35.5323 91.4773 35.5301C91.3703 35.528 91.2698 35.4972 91.176 35.4379L90.6552 35.1084C90.5614 35.049 90.4906 34.9714 90.4429 34.8756C90.3951 34.7798 90.3734 34.6792 90.3777 34.5737C90.3798 34.4667 90.4104 34.3664 90.4697 34.2728L91.3948 32.8117C91.4541 32.718 91.5317 32.6474 91.6276 32.5998C91.7211 32.5507 91.8206 32.5284 91.9262 32.5329C92.0332 32.5351 92.1337 32.5658 92.2275 32.6252L93.7405 33.5825C93.832 33.6404 93.9016 33.7172 93.9494 33.813C93.9986 33.9065 94.0222 34.0067 94.0202 34.1137C94.0182 34.2206 93.9876 34.3209 93.9283 34.4146L93.0031 35.8757ZM91.4903 34.8792L92.3799 33.4743L91.9154 33.1804L91.0259 34.5853L91.4903 34.8792Z" fill="white"/>
<path d="M96.2009 31.3844C96.1288 31.4687 96.042 31.5276 95.9403 31.561C95.8387 31.5945 95.735 31.6026 95.6293 31.5852C95.5236 31.5679 95.4296 31.5241 95.3473 31.4538L95.17 31.3024L95.5834 30.8189L95.7354 30.9487L96.8188 29.6817L96.3914 29.3167L94.8945 31.0672L93.5266 29.8993L95.4369 27.6654L95.9214 28.079L94.4245 29.8295L94.8203 30.1674L95.9227 28.8783C95.9947 28.794 96.0816 28.7351 96.1833 28.7017C96.2828 28.6664 96.3854 28.6574 96.4911 28.6748C96.5968 28.6921 96.6919 28.7368 96.7763 28.8089L97.2576 29.2199C97.3399 29.2902 97.3979 29.3761 97.4315 29.4777C97.4652 29.5793 97.4734 29.6829 97.4561 29.7885C97.4389 29.894 97.3943 29.9889 97.3222 30.0732L96.2009 31.3844Z" fill="white"/>
<path d="M99.9952 27.4062C99.9118 27.4794 99.8156 27.5232 99.7066 27.5377C99.5956 27.5501 99.4873 27.5381 99.3815 27.5018C99.2738 27.4633 99.1842 27.4035 99.1127 27.3222L97.9689 26.022C97.8956 25.9386 97.8486 25.8432 97.8279 25.7358C97.8073 25.6284 97.813 25.5237 97.8451 25.4217C97.8753 25.3176 97.9321 25.2289 98.0155 25.1558L99.3124 24.0175C99.3957 23.9444 99.491 23.8995 99.5983 23.8829C99.7037 23.8643 99.8084 23.8721 99.9124 23.9064C100.016 23.9406 100.105 23.9995 100.178 24.0828L101.322 25.3831C101.394 25.4643 101.442 25.5608 101.466 25.6723C101.488 25.7818 101.486 25.8907 101.46 25.999C101.431 26.1052 101.375 26.1948 101.292 26.268L99.9952 27.4062ZM99.8251 26.6526L100.822 25.7777L100.085 24.94L99.8251 26.6526ZM99.2059 26.465L99.4659 24.7524L98.469 25.6273L99.2059 26.465Z" fill="white"/>
<path d="M19.1951 78.1173L31.4489 156.795L52.9799 163.659L72.1983 113.135L111.397 102.843L149.104 132.043L168.705 117.479L136.016 39.5171L103.666 43.6599L91.8675 59.3342L60.3592 69.6336L43.8288 67.0599L19.1951 78.1173Z" fill="black" stroke="white" stroke-width="4"/>
<path d="M43.8685 85.9711L50.9324 87.5081L56.1304 96.8209L48.4601 102.951L40.6305 99.3322L38.3897 90.3496L43.8685 85.9711Z" fill="white"/>
<path d="M62.0008 109.256L65.7816 101.409L73.8577 99.706L79.3673 106.842L74.4504 115.584L66.4397 115.72L62.0008 109.256Z" fill="white"/>
<path d="M100.351 100.498L103.603 94.0417L113.918 91.3333L117.939 100.291L112.481 106.969L103.223 106.897L100.351 100.498Z" fill="white"/>
<path d="M119.235 65.4997L117.467 58.9904L125.079 57.1108L126.384 63.4438L119.235 65.4997Z" fill="white"/>
<path d="M119.163 74.7573L118.817 67.9936L109.063 68.5281L108.24 76.9696L119.163 74.7573Z" fill="white"/>
<path d="M137.672 63.7581L129.244 66.3885L130.549 72.7214L138.527 73.3684L137.672 63.7581Z" fill="white"/>
<path d="M129.171 75.6461L121.591 76.7423L123.118 85.2819L131.194 83.5786L129.171 75.6461Z" fill="white"/>
<path fill-rule="evenodd" clip-rule="evenodd" d="M40.5686 81.2071L30.9638 93.206L37.5696 107.922L54.4071 106.899L64.6062 91.9424L51.1714 79.1385L40.5686 81.2071ZM36.5716 97.992L38.002 90.0467L39.3471 87.9054L49.2646 83.4538L56.3411 90.6555L54.5252 100.311L41.9702 104.025L36.5716 97.992Z" fill="#444444"/>
<path d="M80.5049 87.1127L75.2754 88.307L73.0032 90.0957L73.5122 92.9422L80.5504 89.783L80.5049 87.1127Z" fill="#444444"/>
<path d="M88.4829 87.7598L87.3341 85.2004L91.813 83.19L98.4658 81.7412L98.1586 85.3385L88.4829 87.7598Z" fill="#444444"/>
<path d="M75.7607 73.5742L75.5072 72.8887L76.3709 71.0107L77.0563 70.7572L80.5471 72.3626L82.1525 68.8718L82.8379 68.6182L84.7159 69.4819L84.9695 70.1673L83.3641 73.6581L86.8549 75.2635L87.1084 75.9489L86.2447 77.8269L85.5593 78.0805L82.0686 76.4751L80.4632 79.9659L79.7777 80.2195L78.4069 80.7266L77.6461 78.6704L79.2515 75.1796L75.7607 73.5742Z" fill="#FAFF00"/>
<path fill-rule="evenodd" clip-rule="evenodd" d="M90.0417 138.035L118.462 146.612L189.199 100.053L90.0417 138.035ZM186.876 104.389L120.043 148.379L128.27 173.459L131.098 155.354L131.468 154.667L186.876 104.389ZM130.308 175.611L143.881 164.513L133.136 157.508L130.308 175.611ZM134.17 155.382L175.217 182.143L196.75 98.5966L134.17 155.382ZM145.943 165.857L175.304 185L177.081 184.311L200 95.3872L198.444 94L86 137.072L86.0808 139.289L117.725 148.839L127.561 178.826L129.419 179.368L145.943 165.857Z" fill="#FAFF00"/>
<path d="M118.462 146.612L90.0417 138.035L189.199 100.053L118.462 146.612Z" fill="black"/>
<path d="M120.043 148.379L186.876 104.389L131.468 154.667L131.098 155.354L128.27 173.459L120.043 148.379Z" fill="black"/>
<path d="M196.75 98.5966L175.217 182.143L134.17 155.382L196.75 98.5966Z" fill="black"/>
<path d="M131.224 2.35887L128.507 0.474877L99.2101 6.76986L97.5069 9.60364L99.551 19.1169L106.325 23.6231L128.943 18.7633L133.268 11.8722L131.224 2.35887Z" fill="#FAFF00"/>
<path d="M122.841 12.8707C122.693 12.9025 122.55 12.8916 122.411 12.8379C122.271 12.7805 122.15 12.6953 122.046 12.5825C121.945 12.465 121.879 12.3341 121.848 12.1898L121.328 9.76783C121.296 9.61967 121.303 9.47515 121.348 9.33427C121.397 9.19257 121.474 9.07067 121.579 8.96856C121.685 8.86646 121.811 8.79949 121.96 8.76765L124.387 8.24603C124.535 8.2142 124.678 8.22321 124.816 8.27307C124.954 8.32293 125.073 8.40279 125.172 8.51265C125.275 8.62169 125.342 8.7503 125.374 8.89846L125.894 11.3204C125.925 11.4648 125.917 11.6116 125.87 11.7609C125.825 11.9056 125.751 12.0327 125.648 12.1425C125.543 12.2484 125.417 12.3172 125.269 12.3491L122.841 12.8707ZM123.067 11.922L125.05 11.4959C125.057 11.4943 125.065 11.4907 125.071 11.4853C125.077 11.4761 125.079 11.4658 125.077 11.4544L124.722 9.80176L123.067 11.922ZM122.501 11.2865L124.156 9.1662L122.173 9.59231C122.165 9.59394 122.158 9.59937 122.152 9.60861C122.145 9.61404 122.143 9.62245 122.146 9.63385L122.501 11.2865Z" fill="black"/>
<path d="M116.515 14.2302C116.367 14.262 116.224 14.2549 116.087 14.2088C115.949 14.159 115.829 14.0814 115.727 13.9762C115.629 13.8701 115.564 13.7449 115.533 13.6005L115.47 13.3042L116.279 13.1303L116.334 13.3868C116.335 13.3944 116.341 13.4012 116.35 13.4071C116.359 13.4131 116.368 13.4153 116.375 13.4136L118.735 12.9067C118.742 12.9051 118.749 12.8996 118.755 12.8904C118.761 12.8812 118.763 12.8728 118.761 12.8652L118.59 12.0673C118.588 12.0559 118.582 12.0492 118.574 12.047C118.564 12.041 118.556 12.0389 118.548 12.0405L115.346 12.7287L114.824 10.301L118.87 9.43165L119.044 10.2409L115.841 10.929C115.834 10.9306 115.827 10.9361 115.821 10.9453C115.815 10.9545 115.813 10.963 115.815 10.9706L115.973 11.7057C115.974 11.7133 115.98 11.7201 115.989 11.726C115.997 11.7282 116.005 11.7285 116.013 11.7268L118.406 11.2125C118.551 11.1815 118.691 11.189 118.829 11.2351C118.969 11.2804 119.089 11.3579 119.189 11.4678C119.291 11.573 119.358 11.6997 119.389 11.8479L119.579 12.7312C119.61 12.8755 119.601 13.0167 119.551 13.1546C119.505 13.2916 119.427 13.4116 119.318 13.5146C119.212 13.6129 119.087 13.6775 118.943 13.7086L116.515 14.2302Z" fill="black"/>
<path d="M109.38 15.7632L109.039 14.179C109.007 14.0308 109.015 13.8882 109.061 13.7511C109.11 13.6132 109.188 13.4951 109.294 13.3968C109.401 13.2985 109.528 13.2334 109.676 13.2016L112.069 12.6873C112.077 12.6857 112.084 12.6802 112.09 12.671C112.096 12.6618 112.098 12.6534 112.096 12.6458L111.916 11.8081C111.914 11.8005 111.909 11.7937 111.9 11.7877C111.891 11.7817 111.882 11.7796 111.875 11.7812L109.515 12.2881C109.508 12.2898 109.501 12.2952 109.495 12.3044C109.489 12.3137 109.487 12.3221 109.488 12.3297L109.555 12.6374L108.745 12.8113L108.671 12.4637C108.639 12.3155 108.646 12.1729 108.692 12.0358C108.742 11.8979 108.82 11.7798 108.926 11.6815C109.032 11.5832 109.159 11.5181 109.307 11.4863L111.735 10.9647C111.879 10.9336 112.02 10.9412 112.157 10.9872C112.298 11.0325 112.418 11.1081 112.516 11.2142C112.618 11.3194 112.685 11.4461 112.717 11.5943L112.914 12.5118C112.946 12.6599 112.937 12.803 112.887 12.9409C112.841 13.078 112.763 13.198 112.654 13.3009C112.548 13.3992 112.423 13.4638 112.279 13.4949L109.885 14.0091C109.878 14.0108 109.871 14.0162 109.865 14.0254C109.859 14.0347 109.857 14.0431 109.858 14.0507L110.008 14.7459C110.009 14.7535 110.015 14.7603 110.024 14.7663C110.033 14.7722 110.042 14.7744 110.049 14.7728L113.252 14.0846L113.426 14.8938L109.38 15.7632Z" fill="black"/>
<path d="M106.567 16.3675L105.945 13.4726L105.761 13.8399L104.684 14.0713L105.634 12.2755L106.5 12.0894L107.382 16.1924L106.567 16.3675Z" fill="black"/>
</svg>
