<svg width="212" height="202" viewBox="0 0 212 202" fill="none" xmlns="http://www.w3.org/2000/svg">
<path d="M3.79492 36.134L5.86134 32.0012L11.0882 30.2994L20.934 34.0676L30.2937 41.3608L26.4039 47.6816H12.4252L3.79492 36.134Z" fill="black"/>
<path fill-rule="evenodd" clip-rule="evenodd" d="M15.1673 8.33917L25.7664 10.7416L33.9142 23.7782L41.3298 31.4292L54.3702 39.4256L67.9392 62.3312L69.7887 71.5787L64.5493 82.609H59.2944L57.1555 85.0331L54.8965 83.9036L53.1726 84.8888L51.4456 83.9677L47.8852 86.5491L47.2711 92.4852L48.9572 95.7276L47.9621 98.2864V100.476L45.9851 102.947L45.4141 112.198L46.0395 118.453L44.4678 123.651L44.9412 127.084L43.6871 134.266L44.3562 135.031L44.8652 138.466L46.7959 141.813L45.1711 155.217L39.0612 157.723L33.0778 155.388L31.6737 153.282L29.9918 144.356L30.3639 141.627L30.0721 139.099L26.5686 134.895V136.791L28.1219 139.898L29.4383 157.012L24.0133 159.642L17.5909 157.999L16.3969 155.611V154.718L15.8375 154.065L15.4787 152.989H14.209V150.71L11.8994 148.035V142.372L10.8455 139.211L8.73904 136.578V133.541L6.71671 132.097L7.8581 129.162L7.10159 122.029L4.85326 119.781L6.9056 116.086L6.16463 113.864L8.73904 84.9321V77.7941L8.0845 73.9908L5.82551 73.539L2.25219 74.6674L1.17809 68.5808L2.06132 63.8703L4.02835 62.3173L2.70238 57.566L7.67861 45.0069L0.982422 36.3628L4.24155 28.5409V20.8638L15.1673 8.33917ZM10.3908 46.306L5.86342 57.7323L7.45475 63.4345L4.80273 65.5282L4.22731 68.5971L4.61186 70.7762L5.65758 70.446L10.6918 71.4528L11.739 77.5378V85.0653L9.20818 113.507L10.169 116.39L8.5747 119.259L9.97298 120.658L10.9182 129.57L10.3579 131.011L11.739 131.997V135.525L13.5223 137.754L14.8994 141.886V146.919L17.209 149.594V149.989H17.641L18.4977 152.559L19.3969 153.608V154.903L19.6616 155.432L23.6928 156.463L26.2904 155.204L25.1758 140.714L23.5686 137.499V134.686L22.4711 133.479L21.5031 128.962L23.5094 126.579L22.9402 121.229L25.6484 110.889L28.4993 119.726L29.332 133.525L32.9498 137.866L33.3874 141.658L33.0301 144.279L34.5087 152.126L35.0494 152.937L39.0334 154.492L42.4047 153.109L43.6972 142.445L41.9813 139.471L41.5178 136.343L40.4852 135.162L41.9053 127.029L41.4063 123.411L42.9949 118.156L42.4048 112.255L43.0493 101.815L44.9621 99.4237V97.7236L45.6688 95.9064L44.1944 93.0712L45.039 84.907L51.2029 80.4383L53.1225 81.4621L54.8021 80.5023L56.4329 81.3177L57.9406 79.609H62.6531L66.6517 71.1908L65.0977 63.4206L52.168 41.5944L39.439 33.7888L31.5388 25.6378L23.8846 13.3912L16.2507 11.6608L7.24155 21.9884V29.1409L6.42148 31.109H15.1373L29.8159 42.7411L24.0683 47.9662H11.6994L10.3908 46.306ZM6.00491 35.8956L13.1546 44.9662H22.9085L25.1835 42.898L14.0927 34.109H6.7442L6.00491 35.8956ZM26.3094 133.241L26.0093 128.268L24.7444 129.77L25.235 132.06L26.3094 133.241ZM44.3395 64.4324L49.4063 68.1659L55.0464 69.4192L51.1225 73.3431V75.5607L48.9531 76.4284L48.5483 77.4404L42.8825 81.6569L45.7718 72.6168L44.3395 64.4324ZM48.637 71.586L49.0607 71.1622L48.5427 71.0471L48.637 71.586Z" fill="white"/>
<path d="M43.666 33.7031L38.0746 30.9073L37.4668 38.6868L37.7099 44.2783H40.3841L40.8703 40.5101L44.76 36.3773L49.3791 37.8359L43.666 33.7031Z" fill="#444444"/>
<path d="M39.5332 59.5941L37.7099 46.8309L40.3841 46.1016L41.8427 54.8535L40.8703 57.4061L43.3014 63.2407L41.235 64.0916L39.5332 59.5941Z" fill="#444444"/>
<path d="M40.7477 65.0639L43.665 64.213L44.6375 66.2794L47.7979 68.7105L50.229 72.7218L47.7979 75.1529L46.947 77.2193L42.3279 79.7719L38.4382 79.0426L37.1011 77.2193L40.7477 65.0639Z" fill="#444444"/>
<path d="M32.9683 103.718H26.1613L27.0122 114.901H33.4545L32.9683 103.718Z" fill="#444444"/>
<path d="M38.9244 119.885L41.234 117.454L46.947 116.724L47.7979 120.614L46.947 127.907L43.4219 129.974H38.9244V119.885Z" fill="#444444"/>
<path d="M32.9683 119.885L27.2553 119.52L27.6199 123.774L32.239 124.018L37.1011 123.167V118.791L32.9683 119.885Z" fill="#444444"/>
<path d="M38.9244 155.743L32.9683 153.069L33.9407 155.743L32.9683 158.296L34.4269 159.876L33.4545 161.335L33.9407 163.158V165.467V169.357L31.2665 178.838L30.2941 186.739L32.9683 189.657L40.5046 189.049L43.4219 181.512L42.2064 170.208L42.8142 167.169L42.2064 164.738L42.8142 163.158V160.848L43.7866 159.39L43.4219 157.445L43.7866 153.434L42.2064 154.771L38.9244 155.743Z" fill="#444444"/>
<path d="M22.6362 157.445L18.1387 155.743V158.296L19.2327 163.766L15.9508 169.357L5.98334 176.407L7.32043 181.026H15.9508L21.5422 177.744H25.5535L31.2665 174.341L30.9019 170.694L30.2941 165.467L29.2001 163.158V161.335L28.3493 158.296V157.445L27.6199 154.771L25.5535 157.445H22.6362Z" fill="#444444"/>
<path d="M20.8129 90.2255L29.5648 92.0488H31.0234L33.4545 94.2368H37.1011L39.7753 94.9661H20.8129L13.155 92.0488V87.0651L20.8129 90.2255Z" fill="#444444"/>
<path d="M10.4808 102.016L12.6688 87.6729L7.19888 85.3634L5.74023 99.8283L10.4808 102.016Z" fill="#444444"/>
<path d="M14.7352 103.718L16.9232 94.2368H17.8956L15.8292 103.718L16.3154 113.442H15.2214L14.7352 103.718Z" fill="#444444"/>
<path d="M24.2164 103.718L25.6751 95.817V95.4524H27.2553L25.0673 103.718L24.2164 112.105H23.6087L24.2164 103.718Z" fill="#444444"/>
<path d="M28.8359 88.1591L32.6041 86.3358L36.4938 93.8722L35.3998 94.723H32.6041L29.2006 91.0764L29.9299 89.3747L28.8359 88.7669V88.1591Z" fill="white"/>
<path d="M5.13363 86.7004L2.33789 84.7556L10.2389 81.4736V83.6616L11.576 85.728L10.2389 86.2142L8.65869 85.2418L7.92937 87.3082L5.13363 86.7004Z" fill="white"/>
<path d="M45.2456 83.0539L41.9636 79.8935L38.6817 81.8383L33.3333 84.1479L30.5376 88.5238L34.5489 93.2644L36.4937 94.3584L40.7481 91.8057L42.693 90.104L43.3007 88.5238L47.0689 86.3358L45.2456 83.0539Z" fill="#FAFF00"/>
<path d="M6.46992 71.6278L3.06642 73.0865L2.45865 76.49L1 79.2857L1.97243 84.9987L7.44235 84.1479V83.0539L10.7243 81.8383L8.901 76.49V71.6278H6.46992Z" fill="#FAFF00"/>
<path d="M147.854 16.5162L154.285 22.9473L177.086 30.1092L188.048 27.6245L194.917 19.7318L189.802 7.60039L177.817 0.584645L163.347 0L149.461 6.72342L147.854 16.5162Z" fill="#FAFF00"/>
<path d="M162.032 10.5235L161.302 23.0934L168.025 26.4551H172.556V25.7243L176.356 23.9704L181.326 17.1008L182.641 6.72335L177.525 2.33851L169.779 1.90002L162.032 10.5235Z" fill="white"/>
<path d="M139.231 87.989L139.816 82.4349L143.908 81.1194L146.393 83.8965L144.931 88.5736L144.201 92.2277L145.955 101.144V103.19L145.37 104.944L146.685 105.821L144.201 107.282V108.159L141.57 107.575H140.547L139.816 106.844L137.916 100.413L139.231 87.989Z" fill="white"/>
<path d="M136.893 164.285L139.816 149.669L150.924 153.323L143.178 167.501L138.939 168.085L136.893 164.285Z" fill="white"/>
<path d="M190.095 150.984L188.926 144.115L200.765 145.138L200.034 153.323L199.303 165.893L194.626 169.108L191.995 166.331V157.562L190.095 150.984Z" fill="white"/>
<path fill-rule="evenodd" clip-rule="evenodd" d="M161.492 21.2023L168.442 25.309H173.391L176.467 28.2311L184.593 31.5416L186.115 35.6505L188.023 37.2412V41.6389L191.904 47.3106L189.263 57.7105H187.756L187.255 59.2987L187.682 59.868L189.762 60.9079L202.042 79.9284L203.228 107.712L202.668 111.27L205.916 119.932L203.035 121.966L202.098 124.191L202.64 126.764V131.486L204.247 132.217V137.248L207.57 142.493L203.058 143.882L202.452 146.303L195.754 147.476L187.496 145.371L186.833 142.385L183.977 139.079V134.568L186.754 132.376V128.909L181.992 124.445L183.069 118.752L182.077 115.776V108.341L179.911 102.564L179.838 102.064L177.33 106.383L174.788 109.631L172.886 117.237L168.258 123.022L167.355 132.2L162.306 134.656L163.841 138.186L159.269 139.492L158.486 144.715L157.18 152.715H153.279L151.818 155.492H144.704L138.813 150.42V145.692L137.418 143.212L138.98 138.006L142.831 136.08L146.161 127.954L144.486 124.909L146.268 122.319V120.208L149.284 118.097L150.229 113.103L152.439 99.2518L158.89 84.5269L156.252 82.622L157.73 79.3385L156.169 75.35L160.156 74.1872L160.707 71.6503L159.245 66.4667L154.611 62.2667L153.014 58.3023L153.545 63.0794L147.13 85.767L143.407 83.3469L138.813 84.2302V69.8409L141.717 61.5658L140.264 48.9299L142.704 35.6669L159.433 23.8229L161.492 21.2023ZM161.983 23.8152L160.826 25.2872L144.523 36.829L142.286 48.9981L143.756 61.7942L140.813 70.1815V81.8089L143.821 81.2306L145.944 82.6107L151.514 62.9115L150.22 51.2668L152.142 50.7828L156.294 61.0933L161.014 65.3707L162.768 71.5876L161.858 75.7742L158.829 76.6576L159.899 79.3926L158.745 81.9555L161.37 83.8508L154.374 99.8198L152.199 113.447L151.098 119.269L148.268 121.25V122.94L146.833 125.026L148.374 127.828L144.397 137.533L140.647 139.408L139.578 142.972L140.813 145.168V149.503L145.446 153.492H150.61L152.072 150.715H155.48L156.51 144.405L156.512 144.392L157.482 137.922L161.096 136.89L159.708 133.696L165.474 130.891L166.326 122.236L171.052 116.329L172.95 108.734L175.67 105.259L178.177 100.941L179.023 96.1464L180.997 96.1754L181.859 102.062L184.077 107.978V115.451L185.131 118.613L184.162 123.737L188.754 128.042V133.345L185.977 135.538V138.335L188.676 141.46L189.182 143.736L195.832 145.432L200.827 144.557L201.391 142.302L204.479 141.352L202.247 137.828V133.504L200.64 132.774V126.972L200.012 123.991L201.414 120.662L203.502 119.188L200.611 111.48L201.221 107.598L200.067 80.5566L188.378 62.4521L186.365 61.4457L185.038 59.6765L186.291 55.7105H187.707L189.743 47.6941L186.023 42.2576V38.1779L184.424 36.8454L183.023 33.0616L175.363 29.941L172.593 27.309H167.895L161.983 23.8152Z" fill="white"/>
<path d="M175.625 12.4237L165.832 10.8159L162.178 16.37L168.17 24.9936L171.532 26.0167L176.209 24.4089L180.156 17.6855L175.625 12.4237Z" fill="black"/>
<path d="M170.217 5.99275L174.894 3.06953L178.987 3.9465L181.618 6.43124L180.887 14.4701L178.256 20.6089L172.556 25.7245L171.971 29.3786L173.871 30.9863L178.548 30.694L180.302 23.3859L181.618 21.7782L184.541 12.1315L182.056 4.38498L178.548 3.06953L176.21 1.16943H166.709L161.009 7.45437L154.724 20.6089L149.609 25.1399L143.908 32.3018L147.416 30.2555L143.908 37.4174L146.247 35.3712L143.031 51.4489L148.585 38.2944L153.116 32.3018L156.478 31.4248L159.401 27.4785L159.986 29.9632L158.524 35.3712L163.348 29.9632L162.471 26.6015L163.348 15.4932L164.078 16.8087L165.102 13.447L164.663 20.9012L167.148 13.447L170.217 5.99275Z" fill="#444444"/>
<path d="M142.885 87.6967H139.085L137.77 91.0584L137.477 93.397L136.747 94.5663L137.185 96.6125L135.723 99.9742L137.185 102.459L137.77 104.505L139.67 107.136L140.254 106.844V105.382H141.862L142.885 104.213L142.447 103.336L143.178 102.02L146.393 101.144L146.101 96.6125L144.639 92.6662L145.662 88.866L142.885 87.6967Z" fill="#444444"/>
<path d="M139.231 166.77L136.308 163.701L131.339 170.132V177.001L130.169 179.778L129 187.525L130.9 191.91L142.008 192.787L145.224 191.179L144.785 186.209L143.031 178.171L143.908 171.593L143.47 166.77H139.231Z" fill="#444444"/>
<path d="M192.434 166.77L191.703 162.97L190.68 164.139L190.388 166.478L189.279 168.524L188.926 171.593L188.049 172.616L185.857 178.171L190.68 182.848H193.749L196.38 186.209L204.712 188.548L211.581 186.794L210.996 179.778L207.342 175.393L202.227 168.524L201.204 164.139L199.742 163.701L199.157 165.893L195.65 167.939L192.434 166.77Z" fill="#444444"/>
<path d="M149.17 91.4969L150.486 85.0658H153.994L160.571 88.866L159.694 91.0584L156.771 93.8355L151.217 91.0584L149.17 91.4969Z" fill="#444444"/>
<path d="M164.079 90.4738L164.663 89.3045L165.54 87.2582L167.879 88.866L166.71 91.0584L164.079 90.4738Z" fill="#444444"/>
<path d="M197.111 85.0658L189.365 69.1342L190.388 68.2572L199.304 83.8965L201.204 97.3433L203.104 108.305H201.642L199.304 98.2203L197.111 85.0658Z" fill="#444444"/>
<path d="M204.565 123.652L202.519 112.836L203.981 112.106L207.635 122.775V130.668H204.565V123.652Z" fill="#444444"/>
<path d="M166.71 64.457L159.694 65.7725L161.448 71.4728L169.633 70.3035L172.848 69.1342L186.734 60.803L185.857 58.7568L179.864 56.8567L166.71 64.457Z" fill="#444444"/>
<path d="M167.148 37.4172L157.648 28.7937L155.894 30.84L165.102 39.7558L171.387 44.5791L176.649 58.1721L179.279 56.7105L174.018 42.8252L167.148 37.4172Z" fill="#444444"/>
<path d="M150.047 47.0639V42.8252L162.471 39.7558L161.448 46.4792L155.163 48.964L150.047 47.0639Z" fill="#444444"/>
<path d="M185.857 37.4172H175.772L178.841 42.0944L184.834 43.556L186.734 42.0944L185.857 37.4172Z" fill="#444444"/>
<path d="M164.079 91.0584L161.155 89.3045L160.132 91.4969L157.209 94.5663L153.117 96.6125L151.217 111.229L160.571 112.836L167.879 91.7892L164.079 91.0584Z" fill="#444444"/>
<path d="M172.41 115.467L162.179 111.229L163.056 108.89L173.872 110.79L172.41 115.467Z" fill="#444444"/>
<path d="M166.71 98.9511L177.526 104.505L179.426 101.144L167.879 95.5894L166.71 98.9511Z" fill="#444444"/>
<path d="M104.204 98.2932L65.7637 112.032L67.2253 115.833L105.666 101.509L155.799 89.6697L148.052 87.6234L104.204 98.2932Z" fill="#444444"/>
<path fill-rule="evenodd" clip-rule="evenodd" d="M100.064 138.293L98.2628 157.303L112.216 174.345L100.17 179.164L95.0935 176.467L60.5312 170.682L54.6094 159.007L62.8778 149.747L100.064 138.293ZM64.5593 152.368L58.2116 159.477L62.5211 167.973L96.07 173.589L100.348 175.861L107.303 173.08L95.1598 158.248L96.6536 142.482L64.5593 152.368Z" fill="white"/>
<path d="M95.2881 147.403L98.2109 145.275L96.7498 157.781L111.366 172.689L96.7498 159.801L71.9023 160.119L95.2881 157.781V147.403Z" fill="#444444"/>
<path fill-rule="evenodd" clip-rule="evenodd" d="M95.1559 77.3655L104.675 88.9473L107.115 96.9455L115.735 98.1968L125.863 108.481L131.933 130.539L141.209 152.382L133.442 170.134L123.828 171.248V175.459L126.57 182.039L115.93 184.797L108.698 173.006L95.3962 158.21V147.049L99.9446 143.948L91.1302 141.123L82.9195 133.067L79.8892 126.042L73.4443 124.578L71.209 119.176L74.5871 104.782L72.9176 99.4698L83.1849 79.5574L95.1559 77.3655ZM85.1755 82.2428L76.1496 99.7477L77.6956 104.667L74.3503 118.921L75.6228 121.996L82.0402 123.455L85.4409 131.338L92.7233 138.483L106.71 142.966L98.3962 148.635V157.06L111.112 171.204L117.326 181.336L122.471 180.002L120.828 176.059V168.576L131.385 167.352L137.942 152.364L129.094 131.528L123.178 110.03L114.306 101.021L104.801 99.641L101.979 90.3922L93.9594 80.6345L85.1755 82.2428Z" fill="white"/>
<path d="M107.275 149.45L99.8203 147.988L102.305 145.211L109.613 146.819L115.606 152.081L113.413 154.565L107.275 149.45Z" fill="#444444"/>
<path d="M111.221 146.234L106.836 144.48L108.736 142.434L114.144 144.48L118.675 149.45L116.775 151.35L111.221 146.234Z" fill="#444444"/>
<path d="M100.697 134.834L106.104 123.433L112.536 121.094L122.036 124.602L114.29 144.48L96.8963 149.596L81.5494 154.419L74.5337 151.934L78.0415 146.819L100.697 134.834Z" fill="white"/>
<path d="M65.9102 137.464L53.9249 128.549H49.2478L46.4707 132.787L65.9102 150.765H69.5642L87.542 133.957L83.3033 129.718L81.9879 125.625L80.234 123.433L74.5337 122.41L65.9102 137.464Z" fill="white"/>
<path d="M88.712 89.3774L96.6047 90.2544L97.6279 95.8085V106.04L92.5122 113.494H87.1043L81.2578 101.363L81.6963 92.593L88.712 89.3774Z" fill="#979393"/>
<path d="M89.0032 103.993L81.2567 102.97L80.5259 99.7548L80.8178 96.5393L89.0032 98.0009L97.7729 96.1008L98.3576 99.6086L98.0652 102.678L89.0032 103.993Z" fill="#FAFF00"/>
<path d="M63.4258 110.425L63.7181 112.617V112.909L65.6182 116.417L67.5183 118.025L68.3953 117.733L67.5183 113.64L64.4489 109.986L63.4258 110.425Z" fill="black"/>
<path d="M66.3479 116.563L33.9001 129.864L32.4385 128.11L32 126.21L64.3016 112.325L65.7632 114.225L66.3479 116.563Z" fill="#878787"/>
<path d="M97.4806 183.798L99.0884 176.489L103.327 175.905L109.612 172.982L113.594 181.167L114.289 178.682L116.92 181.167L121.159 179.559L122.474 175.905L124.667 176.489L128.759 186.282L121.159 199.875L114.874 201.775L109.612 199.875V197.244L112.389 186.282L106.543 192.129L92.2188 193.883L90.4648 189.206L97.4806 183.798Z" fill="#444444"/>
<path d="M53.9247 124.456V129.133L50.8553 132.933H46.7628L41.9395 126.502L50.8553 122.556L56.9941 118.025L58.6018 118.756L53.9247 124.456Z" fill="#444444"/>
<path d="M42.3793 116.125L48.3719 114.809L52.3183 117.587L50.4182 118.61V121.387L42.3793 124.164L39.8945 123.433L39.0176 121.387L42.3793 116.125Z" fill="#444444"/>
<path d="M62.2191 162.806L65.3394 154.814L65.9319 154.244L65.481 152.545L69.4174 148.301L76.0824 147.424L78.7718 146.255L82.1335 149.68L82.572 154.244L77.881 156.578L76.0824 158.555L74.1341 165.4L72.3118 165.174L72.1513 161.681L71.4611 163.306L70.4146 167.383L68.7258 167.488L67.9769 166.348L67.1182 167.079L65.493 166.389L65.8893 160.939L63.7281 163.447L62.2191 162.806Z" fill="#444444"/>
<path d="M104.656 140.925L112.503 121.094L116.335 122.368L114.145 128.19L115.605 129.827L112.503 137.65L114.693 130.191L113.233 128.554L115.24 123.278L114.145 122.732L109.948 133.102L111.226 134.739L108.306 142.199V145.474L107.576 142.199L110.496 135.103L109.218 133.466L113.598 122.368L112.868 122.004L105.204 141.471L91.1528 147.111L86.2259 145.474L91.1528 146.565L104.656 140.925Z" fill="#444444"/>
<path d="M80.2332 123.433L76.8715 122.848L72.3405 131.764L70.002 132.933L72.3405 132.203L77.4562 123.433L78.9178 123.725L70.7328 136.734L70.002 141.471L71.1712 136.734L80.2332 123.433Z" fill="#444444"/>
</svg>
