<svg width="183" height="157" viewBox="0 0 183 157" fill="none" xmlns="http://www.w3.org/2000/svg">
<path d="M138.727 73.9222L140.494 69.9347L144.707 70.1957L144.237 77.7459L142.003 78.6728L138.727 73.9222Z" fill="black"/>
<path d="M120.35 76.2663L118.521 72.6706L117.212 72.5895L117.031 75.4872L118.097 79.4862L120.142 79.6129L120.35 76.2663Z" fill="black"/>
<path d="M147.067 77.7983L160.026 68.1537L159.826 89.1997L148.097 94.2499L125.159 108.52L116.146 102.923L116.468 97.7397L122.958 101.665L136.194 93.5126L133.521 84.9893L147.067 77.7983Z" fill="black"/>
<path fill-rule="evenodd" clip-rule="evenodd" d="M130.208 41.9609L139.96 45.5508L145.628 56.055L145.446 57.5064L149.774 56.0747L152.649 62.4217L146.981 68.8306L160.922 67.1555L160.714 88.9914L172 99.4274V112.476H170.228V100.2L159.517 90.2957L148.509 95.0354L125.16 109.562L115.228 103.395L115.675 96.2256L122.954 100.628L135.143 93.121L132.456 84.5532L141.626 79.6853L140.788 78.4702L130.009 86.2484L120.975 80.4912L120.971 80.5502L117.404 80.3293L117.122 79.2683L106.774 86.9876L113.828 97.5337L102.428 113L101 111.952L111.664 97.4845L104.368 86.575L116.631 77.4261L116.138 75.5756L116.382 71.6522L117.836 71.7422L116.566 67.1566L114.024 64.0639L112.07 54.05L120.013 43.2865L130.208 41.9609ZM118.033 73.6651L117.925 75.3987L118.161 76.2847L118.173 76.2755L119.202 77.6477L118.173 74.1487L118.238 74.069L118.033 73.6651ZM119.346 78.1376L119.218 77.7042L118.651 78.1269L118.789 78.6432L119.312 78.6756L119.346 78.1376ZM129.099 83.57L129.947 84.1105L130.855 83.4555L129.099 83.57ZM138.823 77.7056L139.783 77.0129L139.677 76.8601L138.823 77.7056ZM138.656 75.3797L137.716 74.0164L138.925 71.2872L126.505 66.8163L120.372 74.2631L120.429 74.4688L121.249 76.0808L121.217 76.5978L127.905 81.8757L132.387 81.5832L138.656 75.3797ZM119.795 72.1784L125.93 64.7292L139.644 69.6658L139.845 69.2121L142.986 68.2198L145.044 68.3473L150.562 62.1086L148.816 58.2547L143.338 60.0668L143.799 56.3959L138.717 46.9784L130.004 43.7708L120.992 44.9427L113.958 54.4737L115.678 63.2876L118.174 66.3246L119.795 72.1784ZM141.055 70.8554L139.737 73.8279L142.326 77.5812L143.387 77.1411L143.768 71.0234L141.055 70.8554ZM145.558 70.7828L145.12 77.8304L146.591 77.0493L156.832 69.4283L145.558 70.7828ZM159.023 70.0033L147.543 78.5473L134.587 85.4253L137.245 93.9042L122.962 102.702L117.262 99.2538L117.063 102.451L125.159 107.479L147.684 93.4643L158.096 88.9815L157.856 88.7602L159.023 70.0033Z" fill="white"/>
<path d="M134.767 57.483L129.754 62.1707L129.726 62.6196L137.899 59.2748L140.617 54.5268L134.767 57.483Z" fill="black"/>
<path d="M119.847 60.3689L122.949 63.3061L122.913 63.8774L117.261 62.3392L113.76 59.2135L119.847 60.3689Z" fill="black"/>
<path d="M134.347 61.5948L130.894 63.6343L131.493 65.2282L137.028 66.0217L141.402 61.0486L134.347 61.5948Z" fill="black"/>
<path d="M119.49 63.4605L115.581 63.5871L118.321 67.7309L123.267 66.7672L123.366 65.1755L119.49 63.4605Z" fill="black"/>
<path d="M119.94 64.1439L123.303 65.5403L123.216 66.9279L118.822 67.598L116.978 64.2472L119.94 64.1439Z" fill="white"/>
<path d="M134.631 62.3089L131.076 64.0143L131.539 65.1491L136.964 65.731L139.746 61.9293L134.631 62.3089Z" fill="white"/>
<path d="M150.112 59.5982L146.623 60.898L146.176 62.0994L145.165 70.4765L144.356 66.9849L144.894 58.3327L142.977 58.7875L142.658 52.7043L141.27 53.2328L141.44 50.4984L138.459 49.5763L132.032 49.9157L132.592 50.8107L124.085 50.2837L125.67 51.2013L119.259 52.6069L114.053 56.4224L115.898 65.7138L118.251 68.8094L118.177 69.9929L114.21 65.1176L112.919 58.8103L106.334 58.4024L111.604 55.5332L104.083 49.0448L112.201 45.9423L102.086 41.5466L117.658 37.4309L114.263 37.2206L126.81 32.8766L116.432 29.4069L132.472 27L144.356 36.6265L144.696 31.1576L154.348 46.2997L151.023 61.4573L150.112 59.5982Z" fill="#FAFF00"/>
<path fill-rule="evenodd" clip-rule="evenodd" d="M8.33454 112H174.665L181 118.257V148.743L174.665 155H8.33454L2 148.743V118.257L8.33454 112ZM8.94575 113.458L3.47559 118.861V148.139L8.94575 153.542H174.054L179.524 148.139V118.861L174.054 113.458H8.94575Z" fill="white"/>
<path fill-rule="evenodd" clip-rule="evenodd" d="M7.71859 110.5H175.281L182.5 117.631V149.369L175.281 156.5H7.71859L0.5 149.369V117.631L7.71859 110.5ZM9.5617 114.958L4.97559 119.488V147.512L9.5617 152.042H173.438L178.024 147.512V119.488L173.438 114.958H9.5617Z" fill="white"/>
<path d="M21 128.338L23.3382 126H33.7818L36.12 128.338V138.782L33.7818 141.12H23.3382L21 138.782V128.338Z" fill="#FAFF00"/>
<path d="M46 128.338L48.3382 126H58.7818L61.12 128.338V138.782L58.7818 141.12H48.3382L46 138.782V128.338Z" fill="#FAFF00"/>
<path d="M71 128.338L73.3382 126H83.7818L86.12 128.338V138.782L83.7818 141.12H73.3382L71 138.782V128.338Z" fill="#FAFF00"/>
<path d="M96 128.338L98.3382 126H108.782L111.12 128.338V138.782L108.782 141.12H98.3382L96 138.782V128.338Z" fill="#FAFF00"/>
<path d="M121 128.338L123.338 126H133.782L136.12 128.338V138.782L133.782 141.12H123.338L121 138.782V128.338Z" fill="#FAFF00"/>
<path d="M146 128.338L148.338 126H158.782L161.12 128.338V138.782L158.782 141.12H148.338L146 138.782V128.338Z" fill="#FAFF00"/>
<path fill-rule="evenodd" clip-rule="evenodd" d="M12.1818 0H23.8182L27 3.18177V14.8182L23.8182 18H12.1818L9 14.8182V3.18177L12.1818 0Z" fill="white"/>
<path fill-rule="evenodd" clip-rule="evenodd" d="M170.818 0H159.182L156 3.18177V14.8182L159.182 18H170.818L174 14.8182V3.18177L170.818 0Z" fill="white"/>
<path fill-rule="evenodd" clip-rule="evenodd" d="M32.5347 4H73.4653L75 5.843V8.157L73.4653 10H32.5347L31 8.157V5.843L32.5347 4Z" fill="white"/>
<path fill-rule="evenodd" clip-rule="evenodd" d="M150.465 4H109.535L108 5.843V8.157L109.535 10H150.465L152 8.157V5.843L150.465 4Z" fill="white"/>
<path d="M34.8829 72.0396H35.527V74.4342H34.8829V72.0396Z" fill="black"/>
<path d="M34.8829 74.8547H35.527V77.1909H34.8829V74.8547Z" fill="black"/>
<path d="M13.4036 85.0054C14.7622 83.1248 16.8586 83.0664 19.0838 82.9963C20.2432 82.9612 21.4378 82.9262 22.6559 82.6459C24.5063 82.2254 25.2207 80.8587 25.9937 79.4102C26.5676 78.3122 27.1649 77.1792 28.2423 76.5251C30.5847 75.0883 34.7072 75.0299 34.8829 75.0299V76.6068C34.8477 76.6068 30.9478 76.6652 28.9099 77.9151C28.1604 78.3707 27.7153 79.235 27.1883 80.2279C26.3919 81.7464 25.3964 83.6504 22.9369 84.1994C21.6018 84.5031 20.2901 84.5382 19.1306 84.5732C17.1514 84.6316 15.4414 84.69 14.4928 86.01C13.0874 87.949 14.6919 91.6518 19.0018 96.1957L17.936 97.2236C12.8649 91.9088 11.4243 87.7504 13.4036 85.0054Z" fill="black"/>
<path d="M19.7748 89.4091C19.8685 87.9607 20.6297 86.6524 22.0234 85.5194C25.6072 82.6342 25.3613 80.7652 24.7523 76.2447C24.3892 73.5464 25.6423 72.2966 26.427 71.7943C27.9847 70.7781 30.2685 70.9883 31.264 71.8644C32.1306 72.612 34.1802 72.5769 34.8712 72.5068V74.1655C34.7541 74.1772 31.873 74.3758 30.4207 73.1142C29.9523 72.7054 28.2892 72.4017 27.118 73.161C26.2865 73.6983 25.9468 74.6561 26.1342 76.0111C26.7667 80.7536 27.118 83.3584 22.8315 86.8159C21.7892 87.657 21.227 88.5681 21.1568 89.5259C21.0631 90.9744 22.1054 92.1775 22.7027 92.6798L21.6369 93.696C20.9108 93.0302 19.6342 91.5701 19.7748 89.4091Z" fill="black"/>
<path d="M55.718 85.2974L42.636 74.8197V75.9177L52.5207 85.2974H55.718Z" fill="black"/>
<path d="M40.6216 71.5957L37.9865 68.4302L35.527 71.5957V78.1721L38.0685 82.0618L40.6216 78.908V71.5957Z" fill="black"/>
<path d="M40.1649 68.4302H37.9865L40.6216 71.5957V78.908L38.0685 82.0618H40.6216L42.636 79.1533V71.5256L40.1649 68.4302Z" fill="black"/>
<path d="M57.4631 85.461L62.1126 95.6234L63.7171 111.988L74.8198 112L73.0631 94.8291L68.4955 83.9425L58.9622 82.2954L57.4631 85.461Z" fill="black"/>
<path d="M39.4856 81.3727L42.8937 94.537L44.955 112H34.391L31.6739 99.1159L28.6991 87.2014L28.0901 83.9425L39.4856 81.3727Z" fill="black"/>
<path d="M28.0901 83.9425L28 90L31.12 101.09L32.0604 112H34.391L32.0604 98.2048L28.0901 83.9425Z" fill="black"/>
<path d="M20.1027 99.8519L15.5 97.9712L12.5135 98.9057L9 112L21.4144 111.988L20.1027 99.8519Z" fill="black"/>
<path d="M18.0532 101.09L12.5135 98.9057L9 112L16.964 111.988L18.0532 101.09Z" fill="black"/>
<path d="M75.9676 99.3496L77.736 97.9712L87 112H84.0838L75.9676 99.3496Z" fill="black"/>
<path d="M77.736 97.9712L73.0631 94.8291L75.9676 99.3496L77.736 97.9712Z" fill="black"/>
<path d="M38.7126 68.6638L35.7847 68.6755L31.4396 60.6857L33.4072 57.4852L31.4396 51.3293L33.5009 37.8729L47.9883 30L64.6072 31.8456L73.5081 44.8231L73.1685 61.0595L70.7559 65.2763L69.5027 74.5043L61.8784 85.2741L55.8586 85.531L40.6216 73.4647L38.7126 68.6638Z" fill="black"/>
<path d="M50.1432 59.9031L53.891 61.6436L57.3108 59.3892L56.9712 55.3943L53.2117 53.6538L49.8036 55.9083L50.1432 59.9031Z" fill="black"/>
<path d="M60.227 54.2729L63.5766 56.1886L66.7739 54.0977L66.6099 50.0912L63.2604 48.1755L60.0631 50.2664L60.227 54.2729Z" fill="black"/>
<path d="M67.4883 58.1744L68.191 61.5618L70.9198 62.2276L72.9459 59.506L72.2315 56.1185L69.5027 55.4527L67.4883 58.1744Z" fill="black"/>
<path d="M65.5676 76.163L62.2883 82.2954H60.2973L62.4054 76.2214L65.5676 76.163Z" fill="black"/>
<path d="M60.4027 76.0929L58.7748 82.6342H56.3036L57.1351 76.2798L60.4027 76.0929Z" fill="black"/>
<path d="M31.4396 51.3293L23.7099 36.0741H25.045L32.2946 45.7108L31.4396 51.3293Z" fill="black"/>
<path d="M73.5081 36.0741L71.0604 41.2604L69.6667 39.2279L72.9459 35.2564L73.5081 36.0741Z" fill="black"/>
<path fill-rule="evenodd" clip-rule="evenodd" d="M62.3525 74.6791L62.4139 74.4323L55.7629 74.8127L55.5938 76.1049L53.8737 75.0654L54.2031 74.3522L52.9747 73.7907L53.0793 65.5501L44.1188 60.0504L45.0093 46.0614L34.7516 39.9512L34.9186 38.8607L48.3025 31.5875L63.7273 33.3005L67.7322 39.1397L67.7302 39.1421L71.3099 44.3625L71.3117 44.3586L71.947 45.2847L71.756 54.4137L68.8672 53.7089L68.3396 54.4217L68.125 49.1778L63.2059 46.3645L58.4775 49.4567L58.712 55.1863L63.631 57.9996L67.6242 55.3882L65.8295 57.813L66.8699 62.8282L69.9428 63.578L69.259 64.7732L68.0163 73.9241L67.5497 74.5831L62.3525 74.6791ZM69.5027 74.5043L70.7559 65.2763L73.1685 61.0595L73.5081 44.8231L71.0621 41.2568L73.5081 36.0741L72.9459 35.2564L69.6688 39.2254L64.6072 31.8456L47.9883 30L33.5009 37.8729L31.4396 51.3293L33.4072 57.4852L31.4396 60.6857L35.7847 68.6755L37.8022 68.6674L35.527 71.5957V72.0396H34.8829V74.4342H35.527V74.8547H34.8829V75.0299C34.835 75.0299 34.4941 75.0342 33.9759 75.0696C33.7836 75.0828 33.5669 75.1002 33.3318 75.1232C32.8075 75.1746 32.1913 75.254 31.5489 75.3766C30.5346 75.5702 29.4549 75.8713 28.5683 76.3397C28.4564 76.3988 28.3476 76.4605 28.2423 76.5251C28.1969 76.5527 28.1523 76.5811 28.1086 76.6103C28.1068 76.6115 28.1051 76.6127 28.1034 76.6138C28.0004 76.6829 27.9019 76.7565 27.8075 76.8341C27.3022 77.2498 26.9144 77.7803 26.5752 78.3481C26.5297 78.4243 26.4851 78.5011 26.4411 78.5785C26.4361 78.5212 26.4308 78.4635 26.4253 78.4055C26.3623 77.7418 26.2706 77.0355 26.1692 76.2738C26.1598 76.2029 26.1503 76.1316 26.1407 76.0598C26.1391 76.0477 26.1375 76.0353 26.1358 76.0231L26.1342 76.0111C25.9468 74.6561 26.2865 73.6983 27.118 73.161C27.1636 73.1314 27.2099 73.1035 27.2568 73.0771C27.2607 73.0749 27.2646 73.0728 27.2685 73.0706C27.3504 73.0251 27.4342 72.9844 27.5194 72.948C28.4232 72.5623 29.485 72.6701 30.0809 72.9172C30.1441 72.9434 30.202 72.9712 30.254 73.0001C30.2585 73.0026 30.263 73.0051 30.2674 73.0076C30.3273 73.0419 30.3788 73.0776 30.4207 73.1142C30.6286 73.2948 30.8658 73.4455 31.12 73.5711C31.2898 73.655 31.4671 73.7277 31.6484 73.7906C32.2041 73.9835 32.7965 74.0848 33.32 74.1359C33.3239 74.1362 33.3279 74.1366 33.3318 74.137C33.4592 74.1493 33.5825 74.1586 33.7001 74.1655C33.7961 74.1712 33.8883 74.1753 33.9759 74.1781C34.4804 74.1945 34.8318 74.1694 34.8712 74.1655V72.5068C34.6684 72.5274 34.3485 72.545 33.9759 72.5406C33.7733 72.5382 33.5552 72.5294 33.3318 72.511C33.3278 72.5107 33.3239 72.5103 33.32 72.51C32.7905 72.4657 32.2324 72.3678 31.7829 72.1759C31.6512 72.1197 31.5288 72.0554 31.4192 71.9821L31.4163 71.9801C31.3623 71.9438 31.3114 71.9053 31.264 71.8644C31.1174 71.7354 30.9429 71.6208 30.7469 71.5225C29.7343 71.0145 28.1481 70.9395 26.8745 71.5442C26.7202 71.6174 26.5705 71.7007 26.427 71.7943C26.3818 71.8232 26.3351 71.8546 26.2872 71.8887L26.2854 71.89C25.5068 72.4436 24.4248 73.6872 24.7456 76.1943C24.7459 76.1966 24.7462 76.1988 24.7465 76.201C24.7484 76.2155 24.7503 76.2301 24.7523 76.2447C24.8385 76.8846 24.9174 77.4714 24.9792 78.0154C25.0151 78.3311 25.0452 78.6323 25.0676 78.9212C25.0679 78.9247 25.0682 78.9282 25.0684 78.9317C25.122 79.6263 25.1309 80.2495 25.0685 80.8297C25.0617 80.8921 25.0542 80.954 25.0458 81.0155C24.9901 81.0923 24.9329 81.1675 24.8739 81.2409C24.5565 81.636 24.1869 81.9799 23.7224 82.2416C23.4412 82.4 23.1251 82.5284 22.7648 82.6197C22.729 82.6288 22.6926 82.6375 22.6559 82.6459C21.4431 82.925 20.2535 82.9609 19.0988 82.9958L19.0838 82.9963L19.0563 82.9972C17.399 83.0493 15.8146 83.0992 14.5551 83.9056C14.1313 84.1769 13.7442 84.5339 13.4036 85.0054C13.3681 85.0547 13.3336 85.1045 13.3003 85.1547L13.297 85.1595C11.6135 87.7019 12.758 91.4079 16.8888 96.0844C17.0562 96.2739 17.2285 96.465 17.4057 96.6577C17.5735 96.8401 17.7456 97.0239 17.9222 97.2091C17.9268 97.2139 17.9314 97.2188 17.936 97.2236L19.0018 96.1957C18.8231 96.0073 18.649 95.8203 18.4796 95.6348C14.564 91.3477 13.1457 87.8686 14.4928 86.01C14.529 85.9595 14.5664 85.9109 14.6048 85.8641L14.6057 85.8631C14.8234 85.5982 15.0759 85.39 15.3581 85.2258C16.3303 84.6603 17.6557 84.6167 19.1306 84.5732L19.1894 84.5714C19.7117 84.5557 20.2641 84.539 20.8351 84.4972C20.9433 84.4893 21.0523 84.4805 21.1618 84.4706C21.1644 84.4703 21.167 84.4701 21.1696 84.4699C21.7463 84.4175 22.3393 84.3354 22.9369 84.1994C23.142 84.1537 23.3369 84.0985 23.5223 84.0349C23.5653 84.0201 23.6078 84.0049 23.6498 83.9893C23.4666 84.2011 23.2628 84.4151 23.0366 84.6332L23.0351 84.6347C22.7379 84.9211 22.402 85.2146 22.0234 85.5194C21.9732 85.5602 21.9237 85.6013 21.8751 85.6426C21.7414 85.7563 21.6136 85.8719 21.4924 85.989C20.4359 87.0091 19.8558 88.1567 19.7748 89.4091C19.7744 89.4146 19.7741 89.4201 19.7737 89.4255C19.7735 89.4295 19.7733 89.4334 19.773 89.4373C19.6967 90.7207 20.1199 91.7554 20.6271 92.5215C20.7686 92.7352 20.9166 92.9279 21.0621 93.0994C21.0739 93.1134 21.0857 93.1272 21.0976 93.1409C21.2901 93.3638 21.4769 93.5492 21.6369 93.696L22.7027 92.6798C22.6803 92.6609 26.9163 88.6898 27.4163 88.1898C27.2712 88.0618 27.3196 87.5679 27.1528 87.3726C27.1147 87.3279 22.0796 92.0415 22.0416 91.9937C21.5529 91.379 21.0932 90.509 21.1568 89.5259C21.1574 89.5167 21.1582 89.5074 21.1589 89.4982C21.2381 88.5507 21.7994 87.6487 22.8315 86.8159C22.8816 86.7755 22.9311 86.7352 22.9799 86.6951C22.9818 86.6935 22.9837 86.692 22.9855 86.6904C23.547 86.2281 24.0255 85.7806 24.4317 85.3405C25.502 84.1811 26.07 83.0736 26.3297 81.8851C26.3456 81.8126 26.3603 81.7399 26.3738 81.6668C26.4386 81.567 26.501 81.4667 26.5615 81.3663C26.7923 80.9829 26.9944 80.5977 27.1849 80.2343L27.1883 80.2279L27.229 80.1512C27.2413 80.1281 27.2535 80.105 27.2657 80.082C27.2676 80.0784 27.2696 80.0747 27.2715 80.0711C27.5195 79.604 27.7534 79.1695 28.0154 78.7983C28.2731 78.4331 28.5579 78.129 28.9099 77.9151C28.9544 77.8878 28.9998 77.8611 29.046 77.8349C29.048 77.8338 29.0501 77.8326 29.0521 77.8315C29.1278 77.7888 29.2056 77.7476 29.2854 77.7078C30.4894 77.1078 32.1362 76.834 33.3318 76.7095C33.566 76.6851 33.783 76.6664 33.9759 76.6522C34.5198 76.612 34.8724 76.6068 34.8829 76.6068V77.1909H35.527V78.1721L37.858 81.7397L28.0901 83.9425L27.1532 87.3714L27.1528 87.3726L28 90L31.12 101.09L32.0604 112H44.955L42.8937 94.537L39.664 82.0618H40.6216L42.636 79.1533V75.9177L52.5207 85.2974H55.5636L55.8586 85.531L57.4638 85.4625L62.1126 95.6234L63.7171 111.988L74.8198 112L73.0631 94.8291L68.4955 83.9425L63.4395 83.069L69.5027 74.5043ZM64.142 84.7564L67.3918 85.3179L71.5432 95.2125L73.1026 110.455L65.1245 110.447L63.6314 95.218L59.8284 86.906L62.7072 86.7831L64.142 84.7564ZM38.4617 83.6048H37.7836L30.5409 86.9647L33.5767 97.8702L35.7032 110.457H43.211L41.3654 94.8207L38.4617 83.6048ZM30.1212 85.4568L30.0189 85.0896L31.7583 84.6974L30.1212 85.4568ZM38.5694 79.9971L37.0782 77.7147V72.1225L37.9656 70.9803L39.3316 74.4153L39.8461 74.8227V78.636L38.7832 79.9489L38.5694 79.9971ZM36.7071 67.1288L37.0382 67.1275L37.2249 66.8872H39.4324L39.6775 66.4859L40.3414 66.8872H40.9138L41.4474 67.5556L51.426 73.5861L51.5172 66.4044L42.5119 60.8772L43.4015 46.9022L34.4991 41.5993L33.0277 51.2054L35.1 57.6891L33.2288 60.7329L36.7071 67.1288ZM44.1872 71.0168L55.3749 77.7781L54.7514 82.5423L44.1872 74.081V71.0168ZM9 112L9.41413 110.457L12.5135 98.9057L15.5 97.9712L20.1027 99.8519L21.4144 111.988L9 112ZM13.0134 110.451L10.2172 110.455L12.8367 100.693L14.5364 101.363L13.0134 110.451ZM19.1625 105.587L19.6878 110.447L18.6767 110.448L19.1625 105.587ZM14.5864 110.449L16.0114 101.945L16.3939 102.096L15.5592 110.447L14.5864 110.449ZM84.0838 112H87L77.736 97.9712L73.0631 94.8291L84.0838 112ZM31.4396 51.3293L23.7099 36.0741H25.045L32.2946 45.7108L31.4396 51.3293ZM30.6343 46.3118L30.2733 45.5992L30.6638 46.1183L30.6343 46.3118ZM70.0299 60.2112L69.7353 58.9522L70.5499 57.9578L71.0565 58.0719L71.0838 58.1914L71.2848 59.1446L70.4266 60.2974L70.0299 60.2112ZM55.5275 56.8825L55.6731 58.4366L55.6736 58.4419L54.0397 59.4244L52.1725 58.6368L52.0264 57.0775L53.6603 56.095L55.5275 56.8825ZM65.1191 51.5975L65.1883 53.288L63.8295 54.1766L62.3425 53.409L62.2736 51.6978L63.6854 50.8574L65.1191 51.5975ZM48.6733 60.9234L54.0229 63.4077L58.9339 60.1703L58.441 54.3728L53.0773 51.8897L48.1807 55.1288L48.6733 60.9234Z" fill="white"/>
<path d="M56.491 58.8519L56.2568 56.3521L53.5982 55.2308L51.209 56.6675L51.4432 59.1672L54.1018 60.2886L56.491 58.8519Z" fill="#FAFF00"/>
<path d="M66.0946 53.7823L65.9892 51.1775L63.6586 49.9744L61.4802 51.2709L61.5856 53.8875L63.9162 55.0906L66.0946 53.7823Z" fill="#FAFF00"/>
<path d="M72.1847 59.5293L71.7045 57.4268L70.2523 57.0997L68.8937 58.7584L69.3856 60.861L70.8378 61.1763L72.1847 59.5293Z" fill="#FAFF00"/>
<path fill-rule="evenodd" clip-rule="evenodd" d="M57.6587 59.4376L57.2986 55.5944L53.5096 53.9962L50.0415 56.0818L50.4016 59.925L54.1906 61.5232L57.6587 59.4376ZM67.2281 54.3891L67.0705 50.4939L63.6203 48.7128L60.3469 50.6612L60.5044 54.571L63.9572 56.3534L67.2281 54.3891ZM73.3847 59.8085L72.6303 56.5052L69.8272 55.8739L67.6914 58.4815L68.4653 61.7892L71.2674 62.3977L73.3847 59.8085ZM70.8378 61.1763L69.3856 60.861L68.8937 58.7584L70.2523 57.0997L71.7045 57.4268L72.1847 59.5293L70.8378 61.1763ZM66.0946 53.7823L65.9892 51.1775L63.6586 49.9744L61.4802 51.2709L61.5856 53.8875L63.9162 55.0906L66.0946 53.7823ZM56.491 58.8519L56.2568 56.3521L53.5982 55.2308L51.209 56.6675L51.4432 59.1672L54.1018 60.2886L56.491 58.8519Z" fill="black"/>
</svg>
