<svg width="214" height="160" viewBox="0 0 214 160" fill="none" xmlns="http://www.w3.org/2000/svg">
<path d="M2 145.5L18.5 127L37.5 132.5L55 119.5L72 111.5L91 75L110.5 83L119.5 68L133.5 47.5L170.5 34L179.5 2H202" stroke="#FAFF00" stroke-width="3"/>
<path d="M108.62 50.1009L109.668 56.4151L104.667 56.1686L113.129 66.1627L116.156 66.8378L115.572 69.4582L133.331 80.512L138.273 79.7317L138.619 84.0075L161.72 92.488L165.499 91.738L167.162 95.2939L188.968 98.5635L190.006 100.387L200.96 97.9076L203.398 66.8903L186.56 39.3929L174.728 34.1488L171.81 31.0371L164.792 29.4722L155.649 26.4202L132.352 29.1882L108.62 50.1009Z" fill="black"/>
<path d="M109.388 55.4476L105.431 56.4126L111.508 65.2988L115.347 66.1547L115.903 70.1153L132.352 80.8879L138.226 79.0713L137.562 82.0494L160.178 92.918L165.017 91.8657L166.758 94.3852L190.611 99.7038L195.862 98.7432L196.647 95.2236L192.513 91.1757L187.81 76.7701L169.001 73.9972L158.031 54.7839L132.341 51.8975L122.909 48.3736L108.706 49.4696L109.388 55.4476Z" fill="black"/>
<path d="M108.62 50.1009L109.668 56.4151L104.667 56.1686L113.129 66.1627L116.156 66.8378L115.572 69.4582L133.331 80.512L138.273 79.7317L138.619 84.0075L161.72 92.488L165.499 91.738L167.162 95.2939L188.968 98.5635L190.006 100.387L200.96 97.9076L203.398 66.8903L186.56 39.3929L174.728 34.1488L171.81 31.0371L164.792 29.4722L155.649 26.4202L132.352 29.1882L108.62 50.1009Z" stroke="white" stroke-width="4"/>
<path d="M109.388 55.4476L105.431 56.4126L111.508 65.2988L115.347 66.1547L115.903 70.1153L132.352 80.8879L138.226 79.0713L137.562 82.0494L160.178 92.918L165.017 91.8657L166.758 94.3852L190.611 99.7038L195.862 98.7432L196.647 95.2236L192.513 91.1757L187.81 76.7701L169.001 73.9972L158.031 54.7839L132.341 51.8975L122.909 48.3736L108.706 49.4696L109.388 55.4476Z" stroke="white" stroke-width="4"/>
<path d="M146.974 34.2099L165.079 29.3415L166.224 30.0278L148.898 35.9315L134.519 51.2542L131.559 60.6486L123.296 124.877L122.746 124.755L129.163 64.2796L132.183 50.7334L146.974 34.2099Z" fill="#FAFF00"/>
<path d="M177.433 45.7412L174.423 34.0104L176.347 34.4393L180.181 45.0612L170.995 74.6124L133.479 127.722L132.518 127.508L168.385 74.0303L177.433 45.7412Z" fill="#FAFF00"/>
<path d="M117.403 124.138L108.888 55.5934L109.422 55.138L110.338 56.2041L118.09 124.291L117.403 124.138Z" fill="#FAFF00"/>
<path d="M118.64 124.414L116.233 67.2855L117.561 68.4435L119.464 124.598L118.64 124.414Z" fill="#FAFF00"/>
<path d="M125.907 125.459L139.074 79.991L140.723 80.3586L126.731 125.643L125.907 125.459Z" fill="#FAFF00"/>
<path d="M135.266 128.121L166.113 92.6271L167.716 93.8463L136.227 128.335L135.266 128.121Z" fill="#FAFF00"/>
<path d="M139.419 131.489L193.104 90.6018L194.036 92.2458L149.265 125.497L189.06 97.7435L189.701 98.7483L140.717 132.783L139.419 131.489Z" fill="#FAFF00"/>
<path d="M138.07 126.647L113.175 120.093L102.796 149.009L127.79 157.733L138.07 126.647Z" fill="#444444"/>
<path d="M107.381 146.791L115.658 123.922L133.686 127.941L126.022 153.246L107.381 146.791Z" fill="black"/>
<path d="M144.602 134.067L137.884 126.421L128.035 156.969L137.294 156.317L144.602 134.067Z" fill="#565656"/>
<path d="M116.595 134.692L116.78 133.994L118.545 132.967L119.243 133.151L121.153 136.431L124.433 134.521L125.131 134.706L126.159 136.47L125.974 137.168L122.694 139.078L124.604 142.359L124.42 143.057L122.655 144.084L121.957 143.9L120.047 140.62L116.766 142.53L116.068 142.345L114.672 141.977L115.225 139.882L118.505 137.973L116.595 134.692Z" fill="#FAFF00"/>
<path d="M73.865 34.4071L71.7886 37.7009L74.6513 38.7418L67.5499 42.3514L65.6929 42.0162L65.4028 43.6234L52.8373 45.6352L50.2504 44.0326L49.0478 46.3487L34.094 45.6582L32.1517 44.3467L30.3808 45.9487L17.3811 42.6411L16.3691 43.4192L10.8109 39.446L16.7566 21.4772L32.682 10.0268L40.5536 9.87551L42.9234 8.81838L47.2283 9.59551L53.0749 10.0395L65.4871 17.0845L73.865 34.4071Z" fill="black"/>
<path d="M72.1739 37.2245L74.1652 38.6985L68.6621 42.2489L66.3078 41.8239L65.0622 43.9139L53.2978 46.0768L50.4324 43.6734L50.1026 45.5L34.8575 46.263L32.3916 44.5318L30.8214 45.5344L16.1908 42.8932L13.4727 41.1165L13.8624 38.9577L17.1351 37.6624L23.1687 30.6926L34.3701 33.5721L45.0517 25.3838L60.1393 29.8221L66.2591 30.0696L73.9656 34.0328L72.1739 37.2245Z" fill="black"/>
<path d="M73.865 34.4071L71.7886 37.7009L74.6513 38.7418L67.5499 42.3514L65.6929 42.0162L65.4028 43.6234L52.8373 45.6352L50.2504 44.0326L49.0478 46.3487L34.094 45.6582L32.1517 44.3467L30.3808 45.9487L17.3811 42.6411L16.3691 43.4192L10.8109 39.446L16.7566 21.4772L32.682 10.0268L40.5536 9.87551L42.9234 8.81838L47.2283 9.59551L53.0749 10.0395L65.4871 17.0845L73.865 34.4071Z" stroke="white" stroke-width="2"/>
<path d="M72.1739 37.2245L74.1652 38.6985L68.6621 42.2489L66.3078 41.8239L65.0622 43.9139L53.2978 46.0768L50.4324 43.6734L50.1026 45.5L34.8575 46.263L32.3916 44.5318L30.8214 45.5344L16.1908 42.8932L13.4727 41.1165L13.8624 38.9577L17.1351 37.6624L23.1687 30.6926L34.3701 33.5721L45.0517 25.3838L60.1393 29.8221L66.2591 30.0696L73.9656 34.0328L72.1739 37.2245Z" stroke="white" stroke-width="2"/>
<path d="M56.1022 16.4531L47.0968 9.4544L46.2928 9.56924L54.6174 16.965L59.0681 28.9477L58.5132 34.9138L48.0043 72.8806L48.3414 72.9415L59.0009 37.515L60.5008 29.2063L56.1022 16.4531Z" fill="#FAFF00"/>
<path d="M36.3026 15.7386L40.7561 9.86963L39.5762 9.65664L34.922 14.7094L33.1059 33.4469L41.6228 72.0753L42.2128 72.1818L34.7071 33.736L36.3026 15.7386Z" fill="#FAFF00"/>
<path d="M51.4833 73.8553L72.4191 37.4241L72.2269 37.0428L71.4617 37.4246L51.0619 73.7792L51.4833 73.8553Z" fill="#FAFF00"/>
<path d="M50.7248 73.7184L65.5434 42.2491L64.5254 42.5853L50.2192 73.6271L50.7248 73.7184Z" fill="#FAFF00"/>
<path d="M46.403 72.5915L49.7389 43.9891L48.7276 43.8065L45.8973 72.5003L46.403 72.5915Z" fill="#FAFF00"/>
<path d="M40.5272 71.8775L31.5965 44.7003L30.41 45.0061L39.9373 71.771L40.5272 71.8775Z" fill="#FAFF00"/>
<path d="M37.4042 72.7869L16.9378 37.201L16.0278 37.9034L33.2954 67.1055L17.5221 42.1595L16.9255 42.5718L36.3711 73.207L37.4042 72.7869Z" fill="#FAFF00"/>
<path d="M39.3021 70.3896L54.8082 72.5838L53.8113 91.2462L37.7382 90.2461L39.3021 70.3896Z" fill="#444444"/>
<path d="M51.7641 88.9216L52.5141 74.1454L41.4566 72.1492L39.7889 88.1469L51.7641 88.9216Z" fill="black"/>
<path d="M33.8894 73.0112L39.4594 70.307L37.7805 89.76L32.7422 87.2113L33.8894 73.0112Z" fill="#565656"/>
<path d="M49.4491 79.9643L49.5104 79.5294L48.7629 78.5371L48.328 78.4759L46.4835 79.8652L45.0943 78.0207L44.6593 77.9595L43.667 78.7069L43.6058 79.1418L44.9951 80.9863L43.1506 82.3756L43.0894 82.8105L43.8368 83.8028L44.2718 83.864L46.1162 82.4748L47.5055 84.3192L47.9404 84.3804L48.8103 84.5029L48.9939 83.1981L47.6047 81.3536L49.4491 79.9643Z" fill="#FAFF00"/>
</svg>
