<svg width="1280" height="1280" viewBox="0 0 1280 1280" fill="none" xmlns="http://www.w3.org/2000/svg">
<path d="M950 9L983.5 42.5L936.5 91H788L746 50L787 9H950Z" fill="#01A2E7"/>
<path d="M778.09 92.8532L781.458 96.2214H786.222H939.5H944.263L947.632 92.8532L986.763 53.7215H1178.24L1268.5 143.985V1135.04L1134.21 1268.5H62.5485L11.5 1217.77V468.263L40.6317 439.132L44 435.763V431V244V239.237L40.6317 235.868L11.5 206.737V149.56L150.413 11.5H696.737L778.09 92.8532Z" fill="#BEBEBE" stroke="#FAFF00" stroke-width="23"/>
<path d="M800 61L785 46L800 31" stroke="white" stroke-width="13"/>
<path d="M926 61L941 46L926 31" stroke="white" stroke-width="13"/>
<path d="M902.056 807.843L1027.72 573.047L1045.37 515.731L1108.55 549.78L937.492 875.941L902.056 807.843Z" fill="#626262"/>
<path d="M940.623 760.458L951.012 777.341L976.344 776.348L960.547 756.486L940.623 760.458Z" fill="white"/>
<path d="M961.828 721.727L972.217 738.61L997.549 737.617L981.61 717.755L961.828 721.727Z" fill="white"/>
<path d="M983.033 680.159L993.422 697.042L1018.75 696.049L1002.96 676.187L983.033 680.159Z" fill="white"/>
<path d="M1003.81 639.158L1014.2 656.041L1039.53 655.048L1023.59 635.186L1003.81 639.158Z" fill="white"/>
<path d="M1025.3 603.833L1035.69 620.573L1061.02 619.722L1045.22 599.718L1025.3 603.833Z" fill="white"/>
<path d="M1041.81 567.088L1052.2 583.829L1077.53 582.977L1061.73 562.974L1041.81 567.088Z" fill="white"/>
<path d="M961.828 1012L1087.63 777.341L1105.14 720.025L1168.33 753.932L997.264 1080.24L961.828 1012Z" fill="#626262"/>
<path d="M1000.54 964.753L1010.93 981.493L1036.26 980.642L1020.46 960.638L1000.54 964.753Z" fill="white"/>
<path d="M1021.6 926.022L1031.99 942.763L1057.32 941.769L1041.52 921.907L1021.6 926.022Z" fill="white"/>
<path d="M1042.95 884.454L1053.34 901.194L1078.67 900.343L1062.87 880.339L1042.95 884.454Z" fill="white"/>
<path d="M1063.58 843.453L1073.97 860.193L1099.3 859.2L1083.51 839.339L1063.58 843.453Z" fill="white"/>
<path d="M1085.07 807.985L1095.46 824.868L1120.94 823.875L1105 804.013L1085.07 807.985Z" fill="white"/>
<path d="M1101.58 771.24L1111.97 788.123L1137.44 787.13L1121.5 767.268L1101.58 771.24Z" fill="white"/>
<path d="M1045.37 515.731L1108.55 549.78L1119.23 530.769L1055.19 496.01L1045.37 515.731Z" fill="#484D49"/>
<path d="M1105.14 719.883L1168.33 753.79L1179 734.78L1114.96 700.021L1105.14 719.883Z" fill="#484D49"/>
<path d="M465.293 923.043L591.953 727.26L452.485 330.021L515.103 283.204L680.188 243.48L863.489 357.544L888.536 520.98L831.041 732.935L789.77 751.378L793.328 897.08L921.838 956.666L1080.38 1107.62L1105.57 1257.86H248.833L382.751 1049.31L577.721 936.378L465.293 923.043Z" fill="#484D49"/>
<path d="M948.451 796.777L974.209 991.283L1099.16 1111.31L1123.92 1258L247.694 1257.72L385.312 1044.2L457.893 1004.33L486.071 932.973L588.395 928.576L573.025 1088.61L791.335 752.088L948.451 796.777Z" fill="#D8D8D8"/>
<path d="M457.893 1004.33L562.921 1092.58L432.276 1018.81L457.893 1004.33Z" fill="#626262"/>
<path d="M994.276 1010.01L974.209 991.283L573.594 1096.83L463.301 1257.86H530.331L646.602 1081.8L994.276 1010.01Z" fill="#626262"/>
<path d="M865.624 773.227L791.193 930.136L648.452 1077.11L706.231 1061.79L816.81 951.842L898.925 783.016L865.624 773.227Z" fill="white"/>
<path d="M545.416 1077.68L549.258 959.503L525.065 960.638L523.357 1058.81L545.416 1077.68Z" fill="white"/>
<path d="M765.292 1258L841.145 1151.74L786.212 1257.86L765.292 1258Z" fill="#626262"/>
<path d="M1027.44 1042.36L938.631 1130.88L1035.97 1050.73L1027.44 1042.36Z" fill="#626262"/>
<path d="M635.501 1257.86L688.869 1179.83L648.309 1257.86H635.501Z" fill="#626262"/>
<path d="M1105.71 1148.62L1001.82 1195.44L967.378 1258H1004.52L1021.74 1218.13L1111.4 1178.41L1105.71 1148.62Z" fill="white"/>
<path d="M373.358 1258L456.754 1125.92L386.735 1258H373.358Z" fill="#626262"/>
<path d="M303.054 1171.74L318.851 1209.62L290.958 1257.86H269.895L296.793 1211.04L290.104 1191.89L303.054 1171.74Z" fill="white"/>
<path d="M227.912 1257.86L269.753 1257.72L296.793 1211.04L284.269 1175.01L227.912 1257.86Z" fill="#626262"/>
<path d="M1004.52 1258H1123.92L1152 1229L1137.02 1165.64L1021.74 1218.13L1004.52 1258Z" fill="#626262"/>
<path d="M385.312 1044.2L426.583 1089.88L394.847 1039.09L385.312 1044.2Z" fill="#626262"/>
<path d="M750.633 338.534L776.962 538.856L623.547 675.478L639.486 730.665L551.109 775.071L397.694 863.457L306.47 879.204L272.457 830.968L342.333 704.845L303.054 516.44L414.914 336.689L666.526 271.854L750.633 338.534Z" fill="#D8D8D8"/>
<path d="M453.054 924.603L448.358 962.766L567.332 958.936L786.924 748.257L778.812 693.07L810.833 598.583L795.32 583.261L693.992 770.815L552.105 912.544L525.35 890.128L509.553 913.537L480.094 916.091L449.638 896.796L453.054 924.603Z" fill="#626262"/>
<path d="M423.879 822.598L458.746 866.862L503.149 885.021L484.505 786.421L423.879 822.598Z" fill="white"/>
<path d="M344.326 872.536L367.523 891.689L410.217 899.776L397.694 863.457L344.326 872.536Z" fill="white"/>
<path d="M345.606 831.11L350.73 803.161L372.504 805.715L416.621 796.919L345.606 831.11Z" fill="#626262"/>
<path d="M515.53 669.944L518.376 580.566L636.782 499.557L606.896 589.787L534.031 637.172L515.53 669.944Z" fill="#626262"/>
<path d="M533.177 624.404L536.023 591.774L588.11 555.596L578.291 597.307L533.177 624.404Z" fill="#484D49"/>
<path d="M509.98 400.531L515.957 451.179L615.577 450.612L651.156 393.012L649.448 342.932L511.687 271.429L458.177 356.693L509.98 400.531Z" fill="#484D49"/>
<path d="M469.989 358.537L507.418 361.091L516.668 283.488L395.274 207.87L317.997 107.851L285.123 107L358.557 250.29L469.989 358.537Z" fill="#01A2E7"/>
<path d="M398.832 361.942L356.565 339.527L303.054 424.791L339.772 456.712L398.832 361.942Z" fill="#484D49"/>
<path d="M314.867 426.635L352.295 429.189L361.546 351.586L240.151 275.968L162.875 175.949L130 175.098L203.434 318.388L314.867 426.635Z" fill="#01A2E7"/>
<path d="M467.001 717.329L546.27 688.813L620.7 622.276L568.898 707.115L467.001 717.329Z" fill="#626262"/>
<path d="M779.808 359.956L801.155 291.716L885.121 259.086L897.929 291.716L779.808 359.956Z" fill="#484D49"/>
<path d="M887.967 266.321L1007.51 219.362L997.549 236.386L895.367 285.474L887.967 266.321Z" fill="#626262"/>
<path d="M768.85 476.29L917.853 444.937L906.468 505.941L774.542 520.129L768.85 476.29Z" fill="#626262"/>
<path d="M914.01 465.225L936.354 463.38L993.849 319.097L1030.28 334.277L996.126 500.267L906.468 505.941L914.01 465.225Z" fill="#484D49"/>
<path d="M1003.1 337.257L859.077 356.977L839.58 389.607L871.316 437.843L920.699 420.819L934.931 396.701L991.714 367.05L1003.1 337.257Z" fill="#626262"/>
<path d="M884.124 368.327L865.197 380.953L868.328 402.659L898.356 405.213L909.314 383.507L884.124 368.327Z" fill="#484D49"/>
<path d="M729.286 321.509L801.155 291.716L785.501 341.371L753.48 359.105L750.633 338.534L729.286 321.509Z" fill="#626262"/>
<path d="M468.139 650.65L489.486 518.71L594.799 490.336L507.987 541.409L468.139 650.65Z" fill="#626262"/>
<path d="M297.931 808.411L328.102 797.487L382.751 702.007L351.299 513.744L439.676 330.021L414.914 336.689L330.094 515.305L359.553 700.73L297.931 808.411Z" fill="white"/>
<path d="M312.02 559.852L333.794 664.411L302.627 572.053L312.02 559.852Z" fill="#626262"/>
<path d="M272.457 830.968L298.785 845.439L284.696 848.134L272.457 830.968Z" fill="#626262"/>
<path d="M693.992 770.815L706.516 683.99L689.438 657.743L732.133 610.926L720.747 588.936L731.421 579.005L749.21 615.892L705.804 659.872L721.459 682.571L709.362 744.994L693.992 770.815Z" fill="#626262"/>
<path d="M658.556 644.408L685.169 691.083L673.072 793.231L659.979 805.431L671.649 696.049L648.167 654.197L658.556 644.408Z" fill="#626262"/>
<path d="M940.623 503.813L915.007 593.192L860.927 620.148L856.658 637.172L929.238 601.704L958.413 501.685L940.623 503.813Z" fill="#484D49"/>
</svg>
