<svg width="1280" height="1280" viewBox="0 0 1280 1280" fill="none" xmlns="http://www.w3.org/2000/svg">
<path d="M950 9L983.5 42.5L936.5 91H788L746 50L787 9H950Z" fill="#B00DEA"/>
<path d="M778.09 92.8532L781.458 96.2214H786.222H939.5H944.263L947.632 92.8532L986.763 53.7215H1178.24L1268.5 143.985V1135.04L1134.21 1268.5H62.5485L11.5 1217.77V468.263L40.6317 439.132L44 435.763V431V244V239.237L40.6317 235.868L11.5 206.737V149.56L150.413 11.5H696.737L778.09 92.8532Z" fill="#FAFF00" stroke="white" stroke-width="23"/>
<path d="M615.548 1134.33L869.377 957.65L870.788 735.744L695.927 731.503L691.697 691.928L922.964 696.168L968.089 788.04L1035.78 1059.42L1150 1154.11L1126.73 1198.64L1145.77 1256.59H595.805L631.059 1221.96L615.548 1134.33Z" fill="#D5D5D5"/>
<path d="M165 1256.59L167.82 1129.38L266.532 1097.58L245.379 998.639L332.104 785.92L426.585 739.277L628.944 797.227L415.304 1257.29L165 1256.59Z" fill="#D5D5D5"/>
<path d="M415.304 1257.29L362.564 1001.47L400.638 973.904L394.293 870.018L584.665 880.619L800.42 806.414L837.649 979.557L615.548 1134.33L631.059 1221.96L595.805 1256.59L415.304 1257.29Z" fill="#7F7F7F"/>
<path d="M749.654 1251.64L764.461 1177.44L1001.37 1060.83L970.204 795.107L1041.56 1086.27L787.729 1194.4L749.654 1251.64Z" fill="#7F7F7F"/>
<path d="M1126.73 1198.64L1005.6 1190.16L950.603 1251.64L1026.75 1211.36L1126.73 1198.64Z" fill="#7F7F7F"/>
<path d="M415.304 1257.29L362.564 1001.47L400.638 973.904L394.293 870.018L533.899 876.378L525.438 772.492L387.947 776.733L292.761 997.225L415.304 1257.29Z" fill="#4B4B4B"/>
<path d="M837.649 979.557L869.377 957.65L870.788 735.744L723.425 731.503L748.103 824.082L800.42 806.414L837.649 979.557Z" fill="#4B4B4B"/>
<path d="M407.548 983.798L390.626 996.518L416.009 1024.08L397.677 1052.35L502.734 1086.27L611.317 1025.49L663.493 968.25L523.182 999.345L442.802 985.918L504.145 1026.2L479.467 1036.09L407.548 983.798Z" fill="#4B4B4B"/>
<path d="M538.694 1097.58L762.91 937.155L748.103 824.082L800.42 806.414L837.649 979.557L645.161 1113.83L588.049 1086.27L538.694 1097.58Z" fill="#4B4B4B"/>
<path d="M266.532 1097.58L294.876 1207.12L275.839 1258L266.532 1097.58Z" fill="#7F7F7F"/>
<path d="M750.924 1030.16L832.149 1158.35L876.428 1134.75L791.959 1001.47L750.924 1030.16Z" fill="white"/>
<path d="M810.997 986.625L897.722 1120.19L941.296 1100.83L854.289 956.66L810.997 986.625Z" fill="white"/>
<path d="M882.069 817.722L923.387 797.934L972.743 829.029L984.588 858.711L1091.76 800.337L996.292 766.839L970.486 797.369L930.861 768.111L881.223 790.301L882.069 817.722Z" fill="#4B4B4B"/>
<path d="M356.5 883.304L326.464 866.626L291.21 892.067L282.89 916.661L205.049 867.474L273.724 840.478L292.62 865.919L320.964 841.891L356.923 860.548L356.5 883.304Z" fill="#4B4B4B"/>
<path d="M322.656 974.328L292.62 957.65L257.366 983.091L249.046 1007.68L171.205 958.498L239.88 931.36L258.776 956.943L287.12 932.915L323.079 951.572L322.656 974.328Z" fill="#4B4B4B"/>
<path d="M885.876 935.035L939.463 908.604L986.421 931.643L1012.37 968.533L1125.6 911.007L1021.82 877.085L992.626 901.113L950.885 877.933L883.761 901.678L885.876 935.035Z" fill="#4B4B4B"/>
<path d="M631.059 1221.96L478.903 1205L595.805 1256.59L631.059 1221.96Z" fill="#4B4B4B"/>
<path d="M880.095 767.687L924.374 749.171L957.231 765.708L953.282 757.934L923.387 743.8L879.953 761.468L880.095 767.687Z" fill="#4B4B4B"/>
<path d="M882.774 885.565L947.642 864.364L979.934 877.933L979.088 870.725L947.642 858.711L882.492 879.629L882.774 885.565Z" fill="#4B4B4B"/>
<path d="M309.26 841.75L323.644 830.442L358.616 844.576L361.013 839.206L323.362 824.365L312.08 834.683L309.26 841.75Z" fill="#4B4B4B"/>
<path d="M270.762 936.307L288.107 923.021L318.567 937.438L321.246 931.784L288.671 917.367L273.583 929.664L270.762 936.307Z" fill="#4B4B4B"/>
<path d="M355.231 665.073L335.63 461.683L465.506 309.458L668.57 295.183L814.522 423.097L826.931 574.615L802.254 633.978L845.263 624.225L867.826 701.68L770.666 787.899L736.399 784.082L674.915 877.933L577.332 951.289L499.773 942.809L409.805 848.675L387.101 707.051L355.231 665.073Z" fill="#D5D5D5"/>
<path d="M748.385 661.539L773.345 787.616L724.553 920.335L632.47 1033.97L646.571 1076.38L572.397 1034.4L564.641 1003.73L499.914 1055.18L537.989 1098.99H471.711L497.658 1142.24L444.918 1107.47L404.869 1018.99L370.179 1053.76L363.128 1005.71L341.976 1025.49L325.759 924.01L398.523 861.538L394.293 747.051L419.535 844.576L464.096 893.339L499.914 870.018L593.126 884.859L620.624 846.697L638.533 724.86L659.263 729.525L677.172 694.189L691.415 754.118L748.385 661.539Z" fill="white"/>
<path d="M817.201 424.793L821.432 499.704L801.689 517.654L723.425 522.601L714.964 562.742L686.479 574.756L710.452 497.725L693.671 486.417L569.153 659.278L592.844 746.768L646.289 677.794L676.467 692.917L691.415 754.118L774.332 799.63L837.931 761.468L873.326 690.232L855.699 638.925L837.649 603.307L868.108 589.173L856.686 464.368L817.201 424.793Z" fill="#7F7F7F"/>
<path d="M732.591 741.539L722.015 674.543L775.46 625.497L840.328 648.112L854.571 700.126L804.792 766.556L732.591 741.539Z" fill="white"/>
<path d="M781.947 637.087L740.065 678.642L748.385 735.32L803.664 755.955L843.148 699.136L832.149 655.886L781.947 637.087Z" fill="#626262"/>
<path d="M837.649 603.307L849.353 626.345L772.217 605.144L708.477 639.349L676.467 692.917L671.39 645.285L697.76 596.522L766.858 571.788L837.649 603.307Z" fill="#626262"/>
<path d="M408.394 496.17L447.174 437.513L489.479 416.312L497.94 384.652L610.33 298.999L668.711 295.183L813.112 422.673L897.722 435.393L967.525 384.652L935.796 380.411L904.067 363.45L952.718 325.288L920.989 323.168L840.61 282.886L878.684 219.282L846.956 195.961L849.071 225.643L772.922 242.604L775.037 221.402H686.197L665.044 236.243L675.621 179L595.241 227.763L480.172 235.395L451.969 298.999L339.155 337.161L330.694 427.619L408.394 496.17Z" fill="white"/>
<path d="M638.251 643.165L579.024 607.123L512.747 613.201L496.812 651.222H458.173L407.971 615.038L341.694 624.649L305.734 669.737L332.669 736.733L383.717 759.772L426.727 741.115L457.186 669.737L482.992 683.871L477.775 696.168L544.193 756.238L597.921 748.182L649.815 674.119L638.251 643.165Z" fill="#626262"/>
<path d="M321.951 672.423L346.065 635.25L397.113 650.232L421.368 711.998L384.563 747.334L342.54 730.655L321.951 672.423Z" fill="#B00DEA"/>
<path d="M500.196 665.356L508.234 702.387L554.911 744.648L595.241 715.532L592.562 659.137L534.322 626.487L500.196 665.356Z" fill="#B00DEA"/>
<path d="M447.033 846.273L568.589 833.552L598.908 856.873H585.652L568.589 845.283L447.033 856.873V846.273Z" fill="#7F7F7F"/>
<path d="M700.158 321.613L598.626 409.245L735.412 348.468L700.158 321.613Z" fill="white"/>
<path d="M757.974 372.496L677.595 430.446L787.588 397.938L757.974 372.496Z" fill="white"/>
<path d="M301.081 645.285L333.515 607.123L578.883 585.922L656.442 625.497L663.493 614.19L584.524 563.307L323.644 594.402L299.671 631.151L301.081 645.285Z" fill="#626262"/>
<path d="M357.487 626.911L367.359 597.229L387.101 595.816L378.64 626.911H357.487Z" fill="#626262"/>
<path d="M528.117 617.017L537.989 583.095L556.321 578.855L549.27 614.19L528.117 617.017Z" fill="#626262"/>
<path d="M800 61L785 46L800 31" stroke="white" stroke-width="13"/>
<path d="M926 61L941 46L926 31" stroke="white" stroke-width="13"/>
</svg>
