<svg width="1280" height="1280" viewBox="0 0 1280 1280" fill="none" xmlns="http://www.w3.org/2000/svg">
<path d="M950 9L983.5 42.5L936.5 91H788L746 50L787 9H950Z" fill="#ADFF00"/>
<path d="M778.09 92.8532L781.458 96.2214H786.222H939.5H944.263L947.632 92.8532L986.763 53.7215H1178.24L1268.5 143.985V1135.04L1134.21 1268.5H62.5485L11.5 1217.77V468.263L40.6317 439.132L44 435.763V431V244V239.237L40.6317 235.868L11.5 206.737V149.56L150.413 11.5H696.737L778.09 92.8532Z" fill="#BEBEBE" stroke="#FAFF00" stroke-width="23"/>
<path d="M843.878 839.91L806.032 859.189L761.117 854.612L760.701 789.702L818.37 765.015L843.878 839.91Z" fill="#484D49"/>
<path d="M551.371 853.504L547.906 943.656L361.45 1052.12L231 1256H1065.55L1041.01 1109.12L886.576 961.548L761.394 903.295V726.181L551.371 853.504Z" fill="#484D49"/>
<path d="M426.883 1094.28L571.196 1094.42L486.771 1185.82L426.883 1094.28Z" fill="#D8D8D8"/>
<path d="M363.669 1094.42L466.532 1209.67L450.174 1256L318.337 1255.86L363.669 1094.42Z" fill="#D8D8D8"/>
<path d="M503.961 1209.67L673.088 1073.33L724.658 1255.99H503.961V1209.67Z" fill="#D8D8D8"/>
<path d="M926.363 958.911H843.325L767.356 1066.4L766.802 1193.03L795.636 1256L1013.01 1255.86L1022.02 1029.92L926.363 958.911Z" fill="#626262"/>
<path d="M820.867 1053.5L881.17 991.088H928.443L1042.12 1093.17L1081.9 1256H872.991L818.371 1169.73L820.867 1053.5Z" fill="#484D49"/>
<path d="M888.656 1041.3L879.506 1099.69L933.017 1183.04L1014.53 1188.87L1059.86 1123.54L1043.78 1059.19L962.129 999.966L888.656 1041.3Z" fill="#D8D8D8"/>
<path d="M921.373 1022.99L917.352 1089.56L957.971 1147.82L1040.18 1151.7L1059.86 1123.54L1043.78 1059.19L962.129 999.966L921.373 1022.99Z" fill="#484D49"/>
<path d="M973.775 1256L958.942 1199.55L988.608 1169.73L1081.91 1151.7L1131.81 1255.86L973.775 1256Z" fill="#626262"/>
<path d="M818.371 1169.73L854.969 1146.43L872.298 1151.7L901.271 1133.53L907.51 1143.24L879.507 1162.38V1186.65L842.909 1208.42L818.371 1169.73Z" fill="#D8D8D8"/>
<path d="M866.615 1245.88L899.332 1215.78H910.422L936.9 1183.32L950.209 1184.29L921.512 1222.71L925.671 1233.12L916.938 1256L872.991 1256L866.615 1245.88Z" fill="#D8D8D8"/>
<path d="M820.868 1083.46L845.266 1088.87L852.198 1080.69L881.587 1086.24L883.805 1072.51L854.139 1064.6L852.059 1056.97L827.522 1046.57L820.867 1053.5L820.868 1083.46Z" fill="#D8D8D8"/>
<path d="M1045.31 1256L1015.92 1183.32L1087.87 1164.32L1135 1256H1045.31Z" fill="#484D49"/>
<path d="M347.726 1073.33L293.522 1194.14L293.384 1255.99H253.181L253.32 1203.85L312.93 1073.33H347.726Z" fill="#626262"/>
<path d="M551.372 1007.6L708.854 875.557L727.985 883.879L800.627 817.721L811.717 831.591L745.314 894.697L750.443 917.027L606.408 1041.02L551.372 1007.6Z" fill="#626262"/>
<path d="M551.372 923.546L536.677 1008.43L498.139 1043.93V907.319L551.372 923.546Z" fill="#626262"/>
<path d="M426.883 975.556L726.183 969.731L636.906 1046.57L484.83 1047.4L426.883 975.556Z" fill="#D8D8D8"/>
<path d="M795.776 790.12L800.627 817.721L811.717 831.591L843.878 839.91L862.317 812.728L852.336 778.886L818.37 765.015L795.776 790.12Z" fill="#626262"/>
<path d="M926.363 958.911L988.608 877.354H1001.92L1015.92 866.259L1069.01 903.845L1065.41 923.54L1094.1 986.23L1043.78 1059.18L1032.41 1051.42L1075.39 986.924L1060.83 956.133L1022.43 1030.34L926.363 958.911Z" fill="#484D49"/>
<path d="M499.386 972.228L451.975 899.135L437.558 897.055L423.556 888.317L378.502 913.698L378.64 931.174L345.369 982.63L385.433 1040.05H403.178L364.084 983.185L381.274 954.613L417.04 1019.66L499.386 972.228Z" fill="#484D49"/>
<path d="M673.088 1073.33L685.842 1075.83L753.77 1255.99H724.658L673.088 1073.33Z" fill="#626262"/>
<path d="M852.335 912.173L636.906 1046.57L644.669 1067.65L869.387 929.371L894.34 935.474L920.263 921.604L926.363 886.098L902.519 873.199H874.793L857.326 889.843L852.335 912.173Z" fill="#626262"/>
<path d="M399.712 957.11L484.83 1047.4L477.622 1067.65L387.236 969.177L362.56 965.709L345.924 949.066L348.142 935.751L365.332 925.904L390.147 930.481L398.881 942.131L399.712 957.11Z" fill="#626262"/>
<path d="M484.83 1047.4L636.906 1046.57L726.183 969.731L735.471 985.126L644.669 1067.65L478.037 1067.65L484.83 1047.4Z" fill="#626262"/>
<path d="M268.292 1170.97L253.32 1151.7L289.918 1073.33H312.93L268.292 1170.97Z" fill="#D8D8D8"/>
<path d="M363.669 1094.42H374.065L479.839 1208.43L469.997 1256H450.174L466.532 1209.67L363.669 1094.42Z" fill="#626262"/>
<path d="M486.771 1185.82L502.574 1188.87L588.524 1096.91L571.196 1094.42L486.771 1185.82Z" fill="#626262"/>
<path d="M835.839 772.09L862.317 726.181L828.214 676.112L843.879 669.455L879.229 726.181L847.068 776.667L835.839 772.09Z" fill="#484D49"/>
<path d="M796.745 772.093L854.831 594.701L831.402 404.827L700.398 261L458.352 290.265L338.161 437.559L333.309 641.719L439.221 871.537L503.822 925.628L630.945 921.19L796.745 772.093Z" fill="#626262"/>
<path d="M828.214 676.112L854.831 664.741L907.51 547.543L879.23 441.996L809.222 406.49L770.683 415.366L736.026 553.784L828.214 676.112Z" fill="#484D49"/>
<path d="M826.551 441.165L807.281 484.577L821.699 584.854L854.831 615.922L899.747 547.545L879.23 451.845L826.551 441.165Z" fill="#626262"/>
<path d="M815.045 420.779L847.623 310.1L879.23 356.84L879.23 441.996L815.045 420.779Z" fill="#484D49"/>
<path d="M338.161 437.559L302.949 513.426L289.918 606.213L360.064 699.832L333.309 641.719L338.161 437.559Z" fill="#484D49"/>
<path d="M796.745 772.093L718.697 765.851L658.948 552.954L700.398 363.912L751.83 317.449L700.398 261L479.701 287.768L361.728 437.559L357.153 635.2L439.221 871.537L503.822 925.628L630.945 921.19L796.745 772.093Z" fill="#484D49"/>
<path d="M557.056 614.119L568.839 447.823L536.4 400.805L423.833 413.842L392.364 458.364L388.344 640.332L441.162 802.19L475.542 818.972L554.838 811.621L582.979 787.488L557.056 614.119ZM555.392 776.67L536.4 792.342L475.542 794.145L458.213 784.02L409.277 639.777L410.386 459.889L434.092 437.004L522.398 424.938L544.025 449.487L533.489 614.951L555.392 776.67Z" fill="#ADFF00"/>
<path d="M713.845 639.911L727.846 655.861L787.457 593.309L760.979 564.46L713.845 639.911Z" fill="#484D49"/>
<path d="M762.92 699.834L807.281 622.997L828.492 655.035L772.901 712.594L762.92 699.834Z" fill="#484D49"/>
<path d="M800 61L785 46L800 31" stroke="white" stroke-width="13"/>
<path d="M926 61L941 46L926 31" stroke="white" stroke-width="13"/>
</svg>
