<svg width="1280" height="1280" viewBox="0 0 1280 1280" fill="none" xmlns="http://www.w3.org/2000/svg">
<path d="M778.09 92.8532L781.458 96.2214H786.222H939.5H944.263L947.632 92.8532L986.763 53.7215H1178.24L1268.5 143.985V1135.04L1134.21 1268.5H62.5485L11.5 1217.77V468.263L40.6317 439.132L44 435.763V431V244V239.237L40.6317 235.868L11.5 206.737V149.56L150.413 11.5H696.737L778.09 92.8532Z" fill="#BEBEBE" stroke="white" stroke-width="23"/>
<path d="M854.653 728.152H846.135V759.903H854.653V728.152Z" fill="#D8D8D8"/>
<path d="M854.653 765.479H846.135V796.455H854.653V765.479Z" fill="#D8D8D8"/>
<path d="M1138.71 900.07C1120.74 875.134 1093.02 874.36 1063.59 873.43C1048.25 872.966 1032.46 872.501 1016.35 868.784C991.878 863.208 982.431 845.087 972.209 825.882C964.619 811.323 956.721 796.3 942.472 787.627C911.495 768.576 856.978 767.802 854.654 767.802V788.711C855.119 788.711 906.694 789.485 933.643 806.057C943.556 812.098 949.441 823.559 956.411 836.724C966.943 856.858 980.107 882.104 1012.63 889.383C1030.29 893.41 1047.64 893.874 1062.97 894.339C1089.14 895.114 1111.76 895.888 1124.3 913.389C1142.89 939.1 1121.67 988.197 1064.67 1048.45L1078.77 1062.07C1145.83 991.604 1164.88 936.467 1138.71 900.07Z" fill="#787878"/>
<path d="M1054.45 958.459C1053.21 939.254 1043.14 921.907 1024.71 906.884C977.319 868.628 980.572 843.847 988.625 783.908C993.427 748.131 976.854 731.559 966.477 724.899C945.878 711.424 915.677 714.212 902.512 725.828C891.051 735.741 863.947 735.276 854.809 734.347V756.34C856.357 756.495 894.458 759.128 913.663 742.4C919.858 736.98 941.851 732.953 957.339 743.02C968.336 750.144 972.828 762.845 970.349 780.811C961.986 843.692 957.34 878.231 1014.03 924.075C1027.81 935.227 1035.24 947.307 1036.17 960.007C1037.41 979.213 1023.63 995.165 1015.73 1001.83L1029.82 1015.3C1039.43 1006.47 1056.31 987.112 1054.45 958.459Z" fill="#787878"/>
<path d="M561.929 805.438V903.942L349.743 1027.23L204 1254.9H1136.38L1108.97 1090.88L936.43 926.09L796.573 861.04V663.258L561.929 805.438Z" fill="white"/>
<path d="M579.121 903.941L752.123 765.014V779.572L621.403 903.941H579.121Z" fill="#787878"/>
<path d="M778.762 722.268L813.61 680.295L846.135 722.268V809.465L812.526 861.04L778.762 819.223V722.268Z" fill="#626262"/>
<path d="M784.803 680.295H813.611L778.763 722.268V819.223L812.526 861.04H778.763L752.123 822.475V721.338L784.803 680.295Z" fill="#484D49"/>
<path d="M819.651 731.404H804.008V808.225H819.651V731.404Z" fill="white"/>
<path d="M918.155 880.09L1073.04 985.409L918.155 1177.46L736.79 1222.69L702.871 1196.05L719.908 1009.11L918.155 880.09Z" fill="#626262"/>
<path d="M472.408 903.941L568.124 1015.15V1182.42L544.273 1222.69L387.379 1177.46L343.857 982.311L472.408 903.941Z" fill="#626262"/>
<path d="M544.273 1222.69L568.124 1182.42V1015.15L472.408 903.941H557.747L520.266 928.103L583.612 1002.91L589.808 1183.66L561.929 1222.69H544.273Z" fill="#484D49"/>
<path d="M736.789 1222.69L918.154 1177.46L1073.03 985.408L1067.77 1051.39L1054.6 1038.84L932.558 1196.05L746.701 1232.13L736.789 1222.69Z" fill="#484D49"/>
<path d="M751.812 1038.38L882.067 1142.3L854.653 1150.51L751.812 1072.45V1038.38Z" fill="#787878"/>
<path d="M745.927 1107.14L820.734 1160.27L798.431 1168.48L745.617 1131L745.927 1107.14Z" fill="#787878"/>
<path d="M408.752 1147.26L517.168 1029.71L518.562 1071.06L439.728 1155.31L408.752 1147.26Z" fill="#787878"/>
<path d="M472.408 1161.51L522.589 1103.12L527.391 1135.49L496.57 1169.41L472.408 1161.51Z" fill="#787878"/>
<path d="M583.613 1002.91L719.908 1009.11L702.871 1196.05L589.809 1183.66L583.613 1002.91Z" fill="#787878"/>
<path d="M387.379 1177.46L544.273 1222.69H561.929V1256.45L367.244 1254.9L387.379 1177.46Z" fill="#787878"/>
<path d="M746.701 1232.13V1256.45H954.551L932.558 1196.05L746.701 1232.13Z" fill="#787878"/>
<path d="M804.535 690.654L843.255 690.809L900.715 584.871L874.695 542.434L900.715 460.812L873.456 282.389L681.869 178L462.094 202.471L344.385 374.543L348.876 589.827L380.782 645.739L397.354 768.095L498.181 910.894L577.79 914.302L779.289 754.31L804.535 690.654Z" fill="white"/>
<path d="M626.268 765.151L624.874 655.031L743.667 581.928L731.896 396.536L877.639 309.493L882.905 344.031L900.716 311.971L873.456 282.389L714.24 382.442L723.533 564.426L603.965 644.19V775.373L626.268 765.151Z" fill="#D8D8D8"/>
<path d="M653.371 574.494L603.81 597.571L558.585 567.679L563.076 514.71L612.793 491.633L657.863 521.525L653.371 574.494Z" fill="#787878"/>
<path d="M569.427 560.554L572.524 527.409L607.682 512.541L639.278 531.591L636.18 564.735L601.022 579.604L569.427 560.554Z" fill="#434343"/>
<path d="M520.019 499.841L475.723 525.241L433.441 497.517L435.609 444.393L479.905 418.993L522.187 446.717L520.019 499.841Z" fill="#787878"/>
<path d="M442.424 493.336L443.818 458.797L474.639 442.845L503.447 460.036L502.053 494.73L471.232 510.682L442.424 493.336Z" fill="#434343"/>
<path d="M423.993 551.572L414.7 596.487L378.613 605.315L351.819 569.228L361.267 524.313L397.354 515.484L423.993 551.572Z" fill="#787878"/>
<path d="M361.886 569.538L368.236 541.66L387.441 537.323L405.407 559.316L398.902 587.194L379.697 591.376L361.886 569.538Z" fill="#434343"/>
<path d="M449.394 790.087L492.761 871.4H519.09L491.212 790.862L449.394 790.087Z" fill="#D8D8D8"/>
<path d="M517.696 789.158L539.224 875.891H571.904L560.907 791.636L517.696 789.158Z" fill="#D8D8D8"/>
<path d="M900.715 460.812L1002.94 258.538H985.281L889.41 386.315L900.715 460.812Z" fill="white"/>
<path d="M344.385 258.538L376.755 327.305L395.186 300.356L351.819 247.696L344.385 258.538Z" fill="#D8D8D8"/>
<path d="M569.427 560.554L572.525 527.409L607.683 512.541L639.278 531.591L636.181 564.736L601.023 579.604L569.427 560.554Z" fill="#A4A4A4"/>
<path d="M442.425 493.336L443.819 458.797L474.64 442.845L503.448 460.037L502.054 494.73L471.233 510.682L442.425 493.336Z" fill="#A4A4A4"/>
<path d="M361.887 569.538L368.237 541.66L387.442 537.323L405.408 559.316L398.903 587.194L379.698 591.376L361.887 569.538Z" fill="#A4A4A4"/>
</svg>
