<svg width="1280" height="1280" viewBox="0 0 1280 1280" fill="none" xmlns="http://www.w3.org/2000/svg">
<path d="M950 9L983.5 42.5L936.5 91H788L746 50L787 9H950Z" fill="#8900DD"/>
<path d="M778.09 92.8532L781.458 96.2214H786.222H939.5H944.263L947.632 92.8532L986.763 53.7215H1178.24L1268.5 143.985V1135.04L1134.21 1268.5H62.5485L11.5 1217.77V468.263L40.6317 439.132L44 435.763V431V244V239.237L40.6317 235.868L11.5 206.737V149.56L150.413 11.5H696.737L778.09 92.8532Z" fill="#BEBEBE" stroke="white" stroke-width="23"/>
<path d="M250.18 1258.52L342.519 1100.07L625.195 930.57L595.243 860.315L780.473 651.345L800.763 889.439L1085.92 1115.39L1126.64 1258.66L250.18 1258.52Z" fill="#D5D5D5"/>
<path d="M617.74 912.903L790.685 775.567L650.728 966.042L617.602 943.958L617.74 912.903Z" fill="#7F7F7F"/>
<path d="M568.053 1258.66L631.821 1188.95L619.812 1258.66H568.053Z" fill="#C4C4C4"/>
<path d="M805.316 759.42L633.198 943.684L565.98 945.202L450.866 773.36V706.418L422.157 629.124L416.498 494.687L515.462 358.18L658.043 311.941L826.986 375.571L879.711 516.909L871.43 611.733L907.317 619.6L922.499 663.906L842.307 763.561L805.316 759.42Z" fill="#D5D5D5"/>
<path d="M615.256 346.445L741.549 259.489L785.027 267.771L704.282 369.219L615.256 346.445Z" fill="#626262"/>
<path d="M920.016 398.204L903.039 325.741L804.903 296.755L720.846 340.233L724.986 321.6L808.768 280.192L918.222 309.178L946.517 383.711L920.016 398.204Z" fill="#4B4B4B"/>
<path d="M1002.42 389.924L1047.97 375.431L1093.51 435.334L1060.39 619.598L888.547 857.692L900.969 868.044L1074.88 625.81L1110.08 431.194L1054.18 354.728L994.136 375.431L1002.42 389.924Z" fill="#4B4B4B"/>
<path d="M1122.5 1228.29V1093.72L1045.89 1015.04L975.502 1006.76L912.148 958.589L960.871 873.013L847.138 816.284L1023.12 549.205L1006.56 524.361L961.009 526.431L1039.68 321.463L998.276 311.111L830.575 462.249L871.154 611.593L907.731 619.874L922.914 663.766L842.169 763.835L804.902 759.97L742.101 827.603L681.507 855.622L633.889 946.718L565.566 942.578L507.595 855.622L495.173 969.493L437.202 1015.04L370.95 1019.18L296.416 1085.43L265.361 1226.22L244.795 1258.52L1132.02 1258.79L1122.5 1228.29ZM753.833 1258.38L494.345 1258.52L498.072 1132.5L787.925 1127.95L753.833 1258.38Z" fill="#626262"/>
<path d="M847.138 816.284L738.236 982.605L744.447 1015.45L829.609 1043.2L873.501 1024.84L960.871 873.013L847.138 816.284Z" fill="#D5D5D5"/>
<path d="M545.831 996.408L493.381 871.219L413.326 916.353L450.179 1040.58L477.232 1049L532.166 1028.02L545.831 996.408Z" fill="#D5D5D5"/>
<path d="M410.841 1092.61L429.889 1078.26H471.848L492.276 1111.8L442.035 1129.74L409.461 1115.39L410.841 1092.61Z" fill="#D5D5D5"/>
<path d="M818.016 1109.73L835.269 1076.46L872.26 1072.74L899.451 1091.23L896.966 1120.77L859.975 1130.71L818.016 1109.73Z" fill="#D5D5D5"/>
<path d="M481.509 1116.9L484.684 1257.97H418.432L419.812 1119.66L442.034 1129.74L481.509 1116.9Z" fill="#4B4B4B"/>
<path d="M827.402 1114.14L765.566 1258.66L835.959 1259.35L885.372 1124.22L859.976 1130.71L827.402 1114.14Z" fill="#4B4B4B"/>
<path d="M910.908 1170.04L981.301 1107.93L977.298 993.924L1057.49 999.997L1140.31 1089.3L1142.1 1188.68L1039.41 1178.33L944.034 1219.73L910.908 1170.04Z" fill="#D5D5D5"/>
<path d="M253.217 1174.87L333.272 1182.19L373.851 1212.56L406.011 1179.43L389.448 1108.62L391.242 1008.28L319.469 1022.08L269.78 1082.81L253.217 1174.87Z" fill="#D5D5D5"/>
<path d="M944.035 1219.73L948.452 1207.59L1038.58 1167.56L1142.1 1179.43V1188.68L1039.41 1178.33L944.035 1219.73Z" fill="#4B4B4B"/>
<path d="M960.871 873.013L880.402 1032.29L832.093 1055.21L745.966 1024.84L744.447 1015.45L829.609 1043.2L873.501 1024.84L960.871 873.013Z" fill="#4B4B4B"/>
<path d="M450.178 1040.58L477.231 1048.99L532.165 1028.02L545.829 996.407L549.142 1007.45L537.548 1035.47L481.51 1058.93L451.972 1047.89L450.178 1040.58Z" fill="#4B4B4B"/>
<path d="M391.242 1008.28L389.448 1108.62L406.011 1179.43L373.851 1212.56L333.272 1182.19L253.217 1174.87L254.183 1167.97L336.032 1174.87L373.851 1198.75L396.763 1176.67L379.372 1109.59L382.547 1010.21L391.242 1008.28Z" fill="#4B4B4B"/>
<path d="M507.596 909.451L575.918 990.196L640.1 992.267L847.138 816.284L1023.12 549.205L922.914 663.766L842.169 763.835L638.03 961.211H563.496L507.596 909.451Z" fill="#4B4B4B"/>
<path d="M1039.69 321.602L961.011 526.431L938.236 478.813L1023.12 317.461L1039.69 321.602Z" fill="#4B4B4B"/>
<path d="M1033.06 1078.95L1138.24 1011.59L1146.52 1024.01L1069.5 1118.15L1033.06 1078.95Z" fill="#4B4B4B"/>
<path d="M308.702 1119.94L251.283 1027.33L260.117 1018.91L335.479 1087.37L308.702 1119.94Z" fill="#4B4B4B"/>
<path d="M998.277 311.25L1039.68 321.602L1045.76 306.971L1013.32 299.38L998.277 311.25Z" fill="white"/>
<path d="M741.549 259.49L785.027 267.771L793.861 254.521L760.044 249L741.549 259.49Z" fill="white"/>
<path d="M433.753 436.438L190 329.607L199.524 315.666L442.173 430.365L433.753 436.438Z" fill="#4B4B4B"/>
<path d="M296.004 292.893L498.349 454.383L507.321 449.414L307.736 284.197L296.004 292.893Z" fill="#4B4B4B"/>
<path d="M671.156 992.267L554.387 993.648L564.187 942.578H635.822L671.156 992.267Z" fill="#4B4B4B"/>
<path d="M576.471 694.822L704.144 676.188L598.279 675.498L576.471 694.822Z" fill="black"/>
<path d="M526.23 700.204L508.839 683.917L432.373 690.818L526.23 700.204Z" fill="black"/>
<path d="M519.19 699.515L444.242 692.062L474.608 727.948L508.7 732.779L519.19 699.515Z" fill="white"/>
<path d="M584.475 693.718L604.626 727.672H646.448L690.202 678.121L584.475 693.718Z" fill="white"/>
<path d="M570.26 641.682L693.102 624.429L581.302 627.189L570.26 641.682Z" fill="black"/>
<path d="M506.077 642.649L427.541 630.641L499.728 631.055L506.077 642.649Z" fill="black"/>
<path d="M519.191 834.918L550.937 819.321L569.295 824.152L585.444 819.321H656.527L610.012 874.255L565.706 876.464L519.191 834.918Z" fill="#626262"/>
<path d="M540.17 837.816L625.194 834.642L604.766 850.791H548.866L540.17 837.816Z" fill="white"/>
<path d="M800.763 692.752L820.086 629.26L872.122 611.317L922.225 496.756L836.649 350.449L687.582 275.915L607.527 309.041L475.022 314.562L348.039 529.882L370.123 927.395L408.77 1026.77L422.573 955L455.699 1081.98L477.783 985.366L499.867 1018.49L524.712 778.328L615.808 529.882L632.372 574.05L657.216 444.306L784.2 593.374L800.763 692.752Z" fill="#8900DD"/>
<path d="M689.515 444.029L730.232 388.129L632.924 284.61L448.384 278.675L344.037 383.022L341.415 453.139L305.666 500.758L330.649 570.047L359.22 567.01L352.733 651.067L367.777 659.901L384.064 644.304L393.45 665.974L432.511 674.394L456.114 659.349L474.609 683.503L497.107 687.368L510.496 666.388L557.977 655.76L577.714 591.993L642.448 606.485L726.23 571.979L682.613 498.135L689.515 444.029ZM359.634 510.005L354.389 479.778L390 443.477L417.329 490.268L389.862 532.09L359.634 510.005ZM430.993 624.014L420.089 609.798L401.594 620.15L388.205 595.305L429.337 544.236L456.804 601.792L430.993 624.014ZM546.658 561.765L507.873 524.774L510.496 479.64L567.776 462.111L628.093 474.533L636.651 543.822L546.658 561.765Z" fill="white"/>
<path d="M612.357 427.743L672.951 470.807L755.076 414.492L756.456 327.95L654.179 355.141L612.357 427.743Z" fill="white"/>
<path d="M670.605 486.542L820.087 629.26L861.495 615.871L678.887 452.035L670.605 486.542Z" fill="#626262"/>
<path d="M800 61L785 46L800 31" stroke="white" stroke-width="13"/>
<path d="M926 61L941 46L926 31" stroke="white" stroke-width="13"/>
</svg>
