<svg width="1280" height="1280" viewBox="0 0 1280 1280" fill="none" xmlns="http://www.w3.org/2000/svg">
<path d="M950 9L983.5 42.5L936.5 91H788L746 50L787 9H950Z" fill="black"/>
<path d="M778.09 92.8532L781.458 96.2214H786.222H939.5H944.263L947.632 92.8532L986.763 53.7215H1178.24L1268.5 143.985V1135.04L1134.21 1268.5H62.5485L11.5 1217.77V468.263L40.6317 439.132L44 435.763V431V244V239.237L40.6317 235.868L11.5 206.737V149.56L150.413 11.5H696.737L778.09 92.8532Z" fill="#FAFF00" stroke="white" stroke-width="23"/>
<path d="M800 61L785 46L800 31" stroke="white" stroke-width="13"/>
<path d="M926 61L941 46L926 31" stroke="white" stroke-width="13"/>
<path d="M963.121 1011.24L985.031 990.813L982.643 981.375L999.779 947.852L1045 951.233L1050.62 917.709L1107.36 834.886L1103.57 806.152L1134.61 782.207L1176.33 786.151L1185.31 801.786L1069.58 988.559L1076.47 1018.28L1037 1079.41L963.121 1011.24Z" fill="#4B4B4B"/>
<path d="M381.794 1099.13L370.417 1071.38L360.726 1070.4L335.585 1042.51L354.546 1001.24L325.192 984.193L267.748 901.933L239.517 895.313L228 857.846L246.399 820.097L264.096 816.998L397.946 991.235L428.143 995.179L471.402 1053.63L381.794 1099.13Z" fill="#4B4B4B"/>
<path d="M267.186 1258.44L361.147 1096.74L648.791 923.766L618.314 852.071L806.799 638.817L827.445 881.791L1117.62 1112.37V1257.17L267.186 1258.44Z" fill="#D5D5D5"/>
<path d="M641.207 905.736L817.192 765.586L674.775 959.966L641.067 937.429L641.207 905.736Z" fill="#7F7F7F"/>
<path d="M573.369 961.374L634.466 1031.1L632.359 1058.56L693.455 1060.68L699.775 1037.44L895.704 938.133L771.405 912.779L564.942 931.795L573.369 961.374Z" fill="#4B4B4B"/>
<path d="M372.524 1258.58L469.295 1140.26L535.307 992.362L575.616 967.149L517.048 1134.63L795.141 1147.3L896.968 936.724L939.806 971.234L858.344 1164.2L1001.46 1258.72L372.524 1258.58Z" fill="#606060"/>
<path d="M679.972 1096.59L633.623 1100.82L588.678 1134.63L598.51 1183.92L685.59 1192.38L719.298 1143.08L679.972 1096.59ZM670.14 1171.25L619.577 1164.2L612.555 1143.08L637.836 1113.5L668.735 1112.09L692.612 1145.89L670.14 1171.25Z" fill="white"/>
<path d="M948.514 1220.12L949.919 1186.88L926.885 1150.96L885.451 1151.81L869.3 1212.38L906.098 1242.24L948.514 1220.12ZM888.401 1204.07L899.497 1169.13L917.615 1166.74L939.244 1188.29L937.137 1210.26L906.94 1222.94L888.401 1204.07Z" fill="white"/>
<path d="M409.041 1176.88L419.013 1199.28L448.087 1214.91L478.705 1199.84L470.559 1154.34L433.199 1147.58L409.041 1176.88ZM459.323 1166.6L462.694 1193.5L450.053 1201.39L426.738 1194.77L420.98 1179.56L439.238 1160.68L459.323 1166.6Z" fill="white"/>
<path d="M681.797 1138.29L939.806 971.234L927.587 961.092L673.37 1124.77L681.797 1138.29Z" fill="#4B4B4B"/>
<path d="M633.623 1126.17L546.543 985.319L535.307 992.362L622.387 1140.26L633.623 1126.17Z" fill="#4B4B4B"/>
<path d="M632.218 1159.98L608.341 1257.17L633.623 1258.58L651.881 1159.98H632.218Z" fill="#4B4B4B"/>
<path d="M995.846 987.01L918.738 1105.05L952.447 1138.85L1077.45 1055.75L995.846 987.01Z" fill="#606060"/>
<path d="M1112.56 1079.69L981.941 1176.88L1001.6 1216.32L1187 1190.97L1112.56 1079.69Z" fill="#606060"/>
<path d="M942.615 1096.03L943.036 1107.3L954.834 1112.93L964.104 1103.07L954.834 1093.78L942.615 1096.03Z" fill="white"/>
<path d="M1008.49 1176.32L1003.43 1185.9L1011.01 1196.04L1023.09 1191.95L1021.83 1178.43L1008.49 1176.32Z" fill="white"/>
<path d="M922.531 1176.88L1069.44 1073.49L1081.24 1083.92L931.8 1189L922.531 1176.88Z" fill="#4B4B4B"/>
<path d="M915.508 1217.73L936.997 1259H953.43L926.744 1211.11L915.508 1217.73Z" fill="#4B4B4B"/>
<path d="M673.37 1164.2L893.457 1198.43L898.092 1183.36L681.797 1151.95L673.37 1164.2Z" fill="#4B4B4B"/>
<path d="M378.423 1201.81L254.405 1193.78L350.333 1079.13L396.822 1175.9L378.423 1201.81Z" fill="#606060"/>
<path d="M392.187 1045.32L425.895 1117.02L461.008 1094.06L469.154 1000.53L392.187 1045.32Z" fill="#606060"/>
<path d="M456.935 1178.01L617.752 1145.47L621.684 1157.73L458.48 1189.56L456.935 1178.01Z" fill="#4B4B4B"/>
<path d="M441.626 1197.45L424.772 1258.58H410.727L433.199 1192.8L441.626 1197.45Z" fill="#4B4B4B"/>
<path d="M428.985 1177.3L374.631 1088.28L383.339 1083.21L435.587 1170.68L428.985 1177.3Z" fill="#4B4B4B"/>
<path d="M447.104 1081.8L445.559 1090.68L434.744 1093.78L427.581 1084.9L436.71 1078.57L447.104 1081.8Z" fill="white"/>
<path d="M377.58 1170.12L380.811 1178.29L373.507 1185.47L363.816 1180.97L366.344 1170.26L377.58 1170.12Z" fill="white"/>
<path d="M832.08 749.106L656.938 937.147L588.538 938.696L471.402 763.333V695.018L442.188 616.139L436.429 478.947L537.133 339.642L682.219 292.455L854.131 357.389L907.783 501.625L899.356 598.392L935.873 606.42L951.323 651.635L869.721 753.332L832.08 749.106Z" fill="#D5D5D5"/>
<path d="M623.932 664.171L686.854 635.577L738.118 680.51L627.864 692.764L623.932 664.171Z" fill="white"/>
<path d="M605.532 672.059L688.399 633.183L738.118 648.677H708.202L738.118 680.51L688.399 651.494L605.532 672.059Z" fill="black"/>
<path d="M537.133 694.877L466.907 692.905L482.919 658.678L533.622 674.312L537.133 694.877Z" fill="white"/>
<path d="M546.543 676.848L485.587 663.326L466.907 692.905L475.475 662.762L456.233 664.171L479.548 648.677L546.543 676.848Z" fill="black"/>
<path d="M540.223 647.832L530.672 630.084L442.188 612.195L540.223 647.832Z" fill="black"/>
<path d="M591.909 646.141L735.309 603.04L602.583 626.985L591.909 646.141Z" fill="black"/>
<path d="M540.925 826.154L573.229 810.237L591.909 815.167L608.341 810.237H680.674L633.342 866.297L588.257 868.551L540.925 826.154Z" fill="#626262"/>
<path d="M562.274 829.112L648.791 825.872L628.005 842.352H571.122L562.274 829.112Z" fill="white"/>
<path d="M974.498 399.505L884.609 349.924L877.305 282.455L807.642 224L722.388 241.889L709.185 296.54L584.465 304.71L515.082 266.397L454.267 297.104L441.205 367.531L470.138 437.676L448.368 476.693L634.606 483.877L798.231 601.772L864.384 564.023L936.154 721.498L979.835 768.544L949.076 827.703L858.625 877.143L709.607 901.229L565.223 907.286L471.683 764.6V696.99L441.626 617.125L437.131 496.976L371.12 615.013L332.074 839.394L411.71 968.417L478.003 944.612L776.321 938.133L861.153 957.149L1035.31 852.916L1041.49 666.143L974.498 399.505Z" fill="#606060"/>
<path d="M445.98 476.693L436.991 495.145L437.131 496.976L448.368 476.693H445.98Z" fill="#606060"/>
<path d="M884.609 349.924L859.047 363.446L853.429 286.68L788.821 228.93L807.642 224L877.305 282.455L884.609 349.924Z" fill="#4B4B4B"/>
<path d="M501.458 273.299L545.279 311.471L563.397 293.019L515.082 266.397L501.458 273.299Z" fill="#4B4B4B"/>
<path d="M330.389 605.293L372.945 487.257L447.244 477.257L385.024 589.941L330.389 605.293Z" fill="#606060"/>
<path d="M798.231 601.772L634.606 483.877L450.053 476.553L372.945 487.257L581.515 274.567L699.494 267.947L812.979 383.447L924.357 404.153L960.172 478.524L958.065 561.91L922.952 590.926L864.384 564.023L798.231 601.772Z" fill="white"/>
<path d="M858.625 877.143L882.642 832.492L942.053 793.194L936.154 721.498L979.835 768.544L949.076 827.703L858.625 877.143Z" fill="#4B4B4B"/>
<path d="M478.003 944.612L565.785 906.441L709.607 901.229L776.321 938.133L478.003 944.612Z" fill="#4B4B4B"/>
<path d="M565.785 906.441L438.396 907.568L332.074 839.394L371.12 615.013L436.991 495.145L441.626 617.125L471.683 696.99V764.6L565.785 906.441Z" fill="#4B4B4B"/>
<path d="M737.556 295.132L715.084 350.065L738.961 378.236L816.209 362.742L737.556 295.132Z" fill="#606060"/>
<path d="M856.94 465.566L893.457 485.285L928.57 468.383L920.143 510.639L878.008 520.499L826.041 474.017L835.872 441.621L855.535 437.395L856.94 465.566Z" fill="#D5D5D5"/>
<path d="M869.581 452.889L886.435 464.157L907.502 457.115L894.862 438.803L870.985 437.395L869.581 452.889Z" fill="#606060"/>
<path d="M565.785 906.441L576.459 895.595L525.897 845.873L537.554 838.831L500.616 805.025L471.683 764.6L472.244 741.641H495.419L471.683 696.99L470.138 576.841L539.661 502.892L558.622 585.292L600.757 663.467L611.291 572.615L640.786 540.923L744.017 608.533L758.764 712.061L727.163 758.543L777.725 764.882L757.22 822.351L674.073 902.919L709.607 901.229L781.096 889.538L860.17 877.284L882.642 832.492L942.053 793.194L936.154 721.498L864.384 564.023L798.231 601.772L634.606 483.877L445.98 476.693L436.991 495.145L398.507 619.097L428.002 697.272L432.216 834.605L467.469 906.863L565.785 906.441Z" fill="black"/>
<path d="M861.153 503.596L796.546 532.613L664.522 449.086L413.536 445.283L429.547 431.197L670.14 434.014L794.72 514.865L854.552 489.511L861.153 503.596Z" fill="#D5D5D5"/>
<path d="M922.952 590.926L971.688 705.441L1011.01 758.966L995.003 843.479L776.321 938.133L765.647 931.795L984.75 835.028L999.779 761.783L961.295 712.061L905.957 583.179L922.952 590.926Z" fill="#D5D5D5"/>
<path d="M360.586 885.594L415.081 930.527L494.716 937.147L478.003 944.612L411.71 940.246L371.4 903.201L360.586 885.594Z" fill="#D5D5D5"/>
<path d="M527.161 969.403L521.824 790.658L558.2 732.485L633.904 725.583L698.651 785.306L725.759 959.966L527.161 969.403Z" fill="#606060"/>
<path d="M554.268 817.28L654.129 810.941L658.202 826.154L555.532 832.492L554.268 817.28Z" fill="#4B4B4B"/>
<path d="M556.936 849.113L656.797 842.775L660.87 857.987L558.2 864.325L556.936 849.113Z" fill="#4B4B4B"/>
<path d="M559.605 883.341L659.606 877.002L663.539 892.215L561.01 898.553L559.605 883.341Z" fill="#4B4B4B"/>
<path d="M565.083 917.568L664.943 911.23L669.016 926.583L566.347 932.921L565.083 917.568Z" fill="#4B4B4B"/>
<path d="M814.805 641.634L845.985 741.923L825.619 820.519L786.434 844.887L849.917 854.325L864.805 746.007L885.03 797.419L895.845 728.4L814.805 641.634Z" fill="white"/>
<path d="M448.929 764.882L463.677 829.957L505.531 859.677L451.598 854.325L448.929 764.882Z" fill="white"/>
<path d="M681.376 390.913L694.017 403.59L670.14 417.675L663.117 413.45L681.376 390.913Z" fill="#606060"/>
</svg>
