<svg width="1280" height="1280" viewBox="0 0 1280 1280" fill="none" xmlns="http://www.w3.org/2000/svg">
<path d="M778.09 92.8532L781.458 96.2214H786.222H939.5H944.263L947.632 92.8532L986.763 53.7215H1178.24L1268.5 143.985V1135.04L1134.21 1268.5H62.5485L11.5 1217.77V468.263L40.6317 439.132L44 435.763V431V244V239.237L40.6317 235.868L11.5 206.737V149.56L150.413 11.5H696.737L778.09 92.8532Z" fill="#BEBEBE" stroke="white" stroke-width="23"/>
<path d="M190 1258.85L289.033 1088.98L592.202 907.27L560.079 831.953L758.737 607.923L780.498 863.175L1086.33 1105.4L1130 1259L190 1258.85Z" fill="#D5D5D5"/>
<path d="M584.208 888.33L769.691 741.098L619.587 945.299L584.06 921.624L584.208 888.33Z" fill="#7F7F7F"/>
<path d="M785.383 723.785L600.787 921.328L528.696 922.955L405.238 738.73V666.964L374.447 584.1L368.378 439.975L474.517 293.63L627.433 244.06L808.624 312.275L865.172 463.798L856.29 565.455L894.778 573.889L911.061 621.389L825.055 728.224L785.383 723.785Z" fill="#D5D5D5"/>
<path d="M310.794 1052.73L325.597 1115.32L270.825 1258.11L506.195 1259L592.942 885.075L310.794 1052.73Z" fill="#626262"/>
<path d="M747.931 833.728L645.345 1259H951.474L938.003 1131.3L1013.35 1012.03L747.931 833.728Z" fill="#626262"/>
<path d="M435.14 782.53L295.546 901.204L435.584 1258.85L506.195 1259L584.06 921.624L530.768 922.512L435.14 782.53Z" fill="#4B4B4B"/>
<path d="M769.691 741.098L645.345 1259H730.167L962.576 836.096L769.691 741.098Z" fill="#4B4B4B"/>
<path d="M974.863 1106L906.62 1136.92L907.065 1171.55L975.455 1143.14L974.863 1106Z" fill="white"/>
<path d="M976.639 1220.53L908.101 1251.6L908.693 1259L977.232 1258.85L976.639 1220.53Z" fill="white"/>
<path d="M975.751 1160.89L907.361 1191.82L907.953 1230.89L976.343 1202.47L975.751 1160.89Z" fill="white"/>
<path d="M292.586 1120.35L330.778 1136.92L330.334 1171.55L283.556 1153.79L292.586 1120.35Z" fill="white"/>
<path d="M267.865 1220.53L329.298 1251.6L328.854 1259L255.726 1258.85L267.865 1220.53Z" fill="white"/>
<path d="M280.003 1171.55L330.186 1191.82L329.594 1230.89L270.825 1205.88L280.003 1171.55Z" fill="white"/>
<path d="M544.683 658.825L569.405 701.589L626.545 683.093L666.513 648.911L544.683 658.825Z" fill="white"/>
<path d="M547.644 600.229L529.88 628.491L554.306 612.51L602.712 614.73C603.452 612.362 604.044 609.847 604.636 607.479L547.644 600.229Z" fill="black"/>
<path d="M633.798 611.178L618.847 609.699C618.551 611.622 618.403 613.546 618.107 615.618L631.43 616.062C632.17 614.434 633.058 612.806 633.798 611.178Z" fill="black"/>
<path d="M647.565 612.954C647.121 614.138 646.677 615.47 646.085 616.653L693.307 618.725L647.565 612.954Z" fill="black"/>
<path d="M478.809 628.491L449.795 615.618L386.29 622.424L458.529 605.26L478.809 628.491Z" fill="black"/>
<path d="M569.405 701.589L553.417 663.856L647.269 654.534L626.545 683.093L674.655 644.028L523.811 656.902L541.723 663.265L569.405 701.589Z" fill="black"/>
<path d="M482.806 665.484L460.898 708.692L429.071 696.558L410.271 667.408L482.806 665.484Z" fill="white"/>
<path d="M460.898 708.692L476.737 671.107H420.929L429.071 696.558L405.978 663.561L495.833 661.637L483.843 669.331L460.898 708.692Z" fill="black"/>
<path d="M479.698 849.709L416.34 887.59L252.025 850.597L296.435 818.043L190 779.571L253.506 766.253L323.08 628.491L252.025 637.517L314.198 538.376L216.498 496.944L281.631 471.789L398.576 272.027L530.324 201L619.143 221.716L660 209.878L857.474 301.621V400.762L934.45 514.701L1018.83 526.538L958.135 583.508L1033.63 673.031L1101.73 670.071L1043.99 741.098L927.049 772.172L959.024 843.199L774.132 788.597L769.691 741.098L785.383 723.785L825.055 728.224L911.061 621.389L894.778 573.889L856.29 565.455L719.805 550.214L858.954 534.233L862.211 496.648L716.844 507.302L855.402 464.686L837.046 414.968L564.076 517.66L371.487 516.328L374.447 584.1L405.238 666.964V738.73L479.698 849.709Z" fill="#838383"/>
<path d="M607.745 503.307L626.841 431.836L469.631 354.151L358.608 405.349L474.813 331.215L651.266 420.59L619.291 498.424L607.745 503.307Z" fill="white"/>
<path d="M405.238 690.787L440.765 712.983L513.005 693.451L619.143 711.503L856.29 565.455L785.383 723.785L600.787 921.328L528.696 922.955L405.238 738.73V690.787Z" fill="#4B4B4B"/>
<path d="M619.143 711.503L600.787 921.328L616.479 904.607L639.72 698.778L619.143 711.503Z" fill="white"/>
<path d="M660 686.348L633.946 885.962L646.973 872.053L676.876 675.842L660 686.348Z" fill="white"/>
</svg>
