<svg width="1280" height="1280" viewBox="0 0 1280 1280" fill="none" xmlns="http://www.w3.org/2000/svg">
<path d="M778.09 92.8532L781.458 96.2214H786.222H939.5H944.263L947.632 92.8532L986.763 53.7215H1178.24L1268.5 143.985V1135.04L1134.21 1268.5H62.5485L11.5 1217.77V468.263L40.6317 439.132L44 435.763V431V244V239.237L40.6317 235.868L11.5 206.737V149.56L150.413 11.5H696.737L778.09 92.8532Z" fill="#BEBEBE" stroke="white" stroke-width="23"/>
<path d="M809.244 796.066L1073.82 864.344L1094.73 901.471L1209.52 951.826L1261.5 1122.34L1125.42 1256.23H101L218.495 1057.09L574.111 859.793L611.948 791.941L776.1 749.552L809.244 796.066Z" fill="#626262"/>
<path d="M933.711 828.214L888.192 943.291L717.497 1049.98L700.427 1017.97L621.481 1150.26L473.402 958.369L530.016 884.259L574.113 859.793L611.95 791.941L776.102 749.552L809.245 796.066L933.711 828.214Z" fill="#4B4B4B"/>
<path d="M947.79 749.839L903.551 492.089L734.42 337.325L662.444 316.842L503.981 347.709L413.94 428.363L361.309 526.939L446.514 705.885L447.083 920.534L464.153 983.123L612.089 1062.78L640.538 997.347L717.351 903.465L725.885 991.657L873.822 886.395L947.79 749.839Z" fill="#626262"/>
<path d="M770.27 515.131L791.037 524.946L809.387 503.325L829.159 536.041L834.849 569.896L860.88 573.594L857.04 490.807L792.033 467.479L770.27 515.131Z" fill="#D5D5D5"/>
<path d="M440.685 707.164L406.119 797.774L369.42 816.124L471.553 941.443L560.883 948.413L762.446 814.417L601.708 694.788L712.375 669.611L758.321 578.004L689.901 534.05L688.62 473.026L475.109 552.542L382.08 536.184L393.033 575.728L376.674 624.661L409.96 705.883L440.685 707.164Z" fill="#D5D5D5"/>
<path d="M479.519 726.937L461.453 693.936L449.789 725.514L479.519 726.937Z" fill="#626262"/>
<path d="M496.73 727.363L522.477 681.418L548.366 717.406L496.73 727.363Z" fill="#626262"/>
<path d="M1095.73 903.463L1075.81 826.65L956.327 803.891L760.028 1099.76L740.113 1256.23H890.894L899.429 1125.37L1067.28 875.014L1095.73 903.463Z" fill="#D8D8D8"/>
<path d="M451.78 910.007L432.861 1074.16L463.159 1256.23H335.138L310.529 1113.99L336.134 937.603L451.78 910.007Z" fill="#D8D8D8"/>
<path d="M963.58 1256.09L1005.54 1137.46L1056.75 1135.32L1125.03 1009.44L1139.97 1015.84L1067.42 1150.26H1018.34L982.357 1256.09H963.58Z" fill="#4B4B4B"/>
<path d="M1079.37 1255.95L1154.9 1071.31L1167.71 1081.98L1094.16 1256.09L1079.37 1255.95Z" fill="#4B4B4B"/>
<path d="M266.291 1255.95L246.661 1163.77L209.393 1159.79L191.185 1103.6L182.65 1117.97L203.276 1171.6L237.415 1173.73L255.623 1255.95H266.291Z" fill="#4B4B4B"/>
<path d="M194.598 1256.09L158.894 1158.51L150.359 1172.59L182.365 1256.09H194.598Z" fill="#4B4B4B"/>
<path d="M330.443 533.622L385.919 690.093L486.914 651.686L653.342 688.67L693.171 546.424L769.984 516.553L787.054 476.724L330.443 533.622Z" fill="#4B4B4B"/>
<path d="M464.157 624.661L397.301 644.575L377.387 587.677L404.413 569.185L468.424 577.719L464.157 624.661Z" fill="#8D8D8D"/>
<path d="M623.472 633.195L512.52 626.083L496.873 574.874L559.461 553.537L634.852 569.184L623.472 633.195Z" fill="#8D8D8D"/>
<path d="M489.76 656.809L384.498 772.597L471.695 953.676L581.793 963.207L658.606 773.45L489.76 656.809Z" fill="#4B4B4B"/>
<path d="M434.711 777.149L500.002 923.094L477.243 775.869L434.711 777.149Z" fill="#626262"/>
<path d="M522.193 776.01L533.573 923.235L570.842 775.441L522.193 776.01Z" fill="#626262"/>
<path d="M455.621 483.836L528.167 402.756L350.359 321.676L313.375 350.125L455.621 483.836Z" fill="#949494"/>
<path d="M550.924 379.997L599.288 330.211L428.592 259.088L398.721 284.692L550.924 379.997Z" fill="#949494"/>
</svg>
