<svg width="1280" height="1280" viewBox="0 0 1280 1280" fill="none" xmlns="http://www.w3.org/2000/svg">
<path d="M950 9L983.5 42.5L936.5 91H788L746 50L787 9H950Z" fill="#BF5D7B"/>
<path d="M778.09 92.8532L781.458 96.2214H786.222H939.5H944.263L947.632 92.8532L986.763 53.7215H1178.24L1268.5 143.985V1135.04L1134.21 1268.5H62.5485L11.5 1217.77V468.263L40.6317 439.132L44 435.763V431V244V239.237L40.6317 235.868L11.5 206.737V149.56L150.413 11.5H696.737L778.09 92.8532Z" fill="#BEBEBE" stroke="#FAFF00" stroke-width="23"/>
<path d="M800 61L785 46L800 31" stroke="white" stroke-width="13"/>
<path d="M926 61L941 46L926 31" stroke="white" stroke-width="13"/>
<path d="M693.813 692.491L738.347 861.01L873.268 910.747L1095.94 1119.79L1132.41 1257H120L279.531 1052.64L504.251 907.675L500.735 823.562L693.813 692.491Z" fill="#D5D5D5"/>
<path d="M648.987 864.375L547.613 940.296L636.974 949.366L692.495 841.701L712.857 767.242L648.987 864.375Z" fill="#7F7F7F"/>
<path d="M240.71 1072.39L463.673 927.862L675.355 867.3L712.857 767.242L738.347 861.01L873.268 910.747L1095.94 1119.79L1133 1256.85H120L240.71 1072.39Z" fill="#4B4B4B"/>
<path d="M726.482 927.862L868.58 974.672L812.912 1072.68L310.441 1185.32L317.033 1128.27L726.482 927.862Z" fill="#626262"/>
<path d="M296.524 1256.85L812.912 1158.99L849.389 1257L296.524 1256.85Z" fill="#626262"/>
<path d="M319.816 1066.25L296.524 981.987L413.425 960.337L391.305 974.672L317.033 995.152L332.122 1056.59L319.816 1066.25Z" fill="#D5D5D5"/>
<path d="M914.286 949.366L1039.98 963.555L988.997 1086.73L977.131 1065.66L1017.27 974.672L926.005 960.337L914.286 949.366Z" fill="#D5D5D5"/>
<path d="M463.673 927.862L245.984 960.337L229.87 999.541L263.563 1100.48L278.213 1086.73L247.449 999.541L260.633 974.672L442.431 941.466L463.673 927.862Z" fill="#D5D5D5"/>
<path d="M873.268 910.747L1064.88 927.862L1100.04 960.337L1026.06 1146.41L1011.41 1128.86L1080.99 960.337L1056.09 940.296L887.185 923.766L873.268 910.747Z" fill="#D5D5D5"/>
<path d="M316.886 644.071L296.524 433.569L431.444 276.022L642.394 261.247L794.015 393.634L806.906 550.45L781.27 611.889L825.951 601.796L849.389 681.959L748.455 771.192L712.857 767.242L648.987 864.375L547.613 940.296L467.042 931.519L373.579 834.094L349.994 687.518L316.886 644.071Z" fill="#D5D5D5"/>
<path d="M781.27 611.889L712.857 767.242L648.987 864.375L495.022 982.718L380.464 876.662L347.211 740.18L444.189 709.899L621.739 741.496L781.27 611.889Z" fill="#7F7F7F"/>
<path d="M388.082 796.353L572.957 796.792L577.644 813.322L388.082 812.737V796.353Z" fill="#C1C1C1"/>
<path d="M398.337 831.9L560.065 832.485L564.167 849.015L398.337 848.283V831.9Z" fill="#C1C1C1"/>
<path d="M410.789 867.3L548.199 868.178L551.861 884.708L410.789 883.83V867.3Z" fill="#C1C1C1"/>
<path d="M794.015 393.634L733.952 341.264L691.323 399.778L699.38 485.354L746.99 575.318L752.85 680.496L806.906 550.45L794.015 393.634Z" fill="#ECECEC"/>
<path d="M733.952 341.264L744.5 282.751L675.209 212.827L434.521 208L296.524 341.264L280.557 413.236L389.547 579.56L363.764 475.406L376.07 461.217L402.731 476.138L504.837 446.589L514.066 479.502L630.235 423.183L652.795 458.145L733.952 341.264Z" fill="#BF5D7B"/>
<path d="M838.842 431.96L834.887 376.372L793.868 331.025L733.952 341.264L794.015 393.634L801.779 487.548L843.09 529.678L817.014 466.337L838.842 431.96Z" fill="#BF5D7B"/>
<path d="M519.487 675.376L679.604 611.889L649.426 638.659L659.827 653.58L519.487 675.376Z" fill="black"/>
<path d="M431.591 670.403L323.479 630.028L347.797 654.75L344.867 665.283L431.591 670.403Z" fill="black"/>
<path d="M433.202 643.633L347.357 594.042L310.294 548.695L328.752 610.426L433.202 643.633Z" fill="#0D0D0D"/>
<path d="M519.487 645.095L633.019 581.608L686.928 521.193L659.534 595.798L519.487 645.095Z" fill="#0D0D0D"/>
</svg>
