<svg xmlns="http://www.w3.org/2000/svg" width="854" height="852" viewBox="0 0 854 852" fill="none">    <g id="svgBg"><path d="M97.1898 0L0 96.3663V140.78L21.6835 162.412V286.884L0 308.517V813.759L38.5673 852H854V92.6694L789.283 28.1036H655.177L626.823 56.3927H524.558L468.032 0H97.1898Z" fill="#A3A6AC" /></g><g id="svgBody"><g clip-path="url(#clip0_209_2779)"><path d="M536.6 528.6L722.6 576.6L737.3 602.7L818 638.1L854 748.2L854.2 852.1H38.7002L121.3 712.1L371.3 573.4L397.9 525.7L513.3 495.9L536.6 528.6Z" fill="#750077" /><path d="M624.1 551.2L592.1 632.1L472.1 707.1L460.1 684.6L404.6 777.6L300.5 642.7L340.3 590.6L371.3 573.4L397.9 525.7L513.3 495.9L536.6 528.6L624.1 551.2Z" fill="#4F0050" /></g><defs><clipPath id="clip0_209_2779"><rect width="854" height="852" fill="white" /></clipPath></defs><g clip-path="url(#clip0_200_2564)"><path d="M29 852.2L119 692.1L202 643.8L221.7 510.1L536 351.1L730 393.9L767 601.6L825 635.7L854 724.1V852.1L29 852.2Z" fill="#323232" /><path d="M221.7 510.1L536 351.1L730 393.9L706 534.1L572.9 686.1L398 716.1L240.2 657.9L221.7 510.1Z" fill="#030303" /><path d="M767 601.6L668 685.1L787.6 613.7L767 601.6Z" fill="#030303" /><path d="M685.5 744.1L650.5 852H674.5L685.5 744.1Z" fill="#030303" /><path d="M436.891 774.521L435.147 794.59L415.097 792.848L414.225 802.882L394.175 801.14L393.303 811.175L373.253 809.433L372.381 819.467L392.431 821.209L391.56 831.243L411.61 832.986L410.738 843.02L430.788 844.762L429.044 864.831L419.019 863.96L418.147 873.994L398.097 872.252L397.225 882.286L347.1 877.931L347.972 867.897L327.922 866.154L328.794 856.12L318.768 855.249L320.512 835.18L310.487 834.309L314.847 784.137L324.872 785.009L326.615 764.94L336.64 765.811L337.512 755.776L357.562 757.519L358.434 747.484L408.56 751.84L407.688 761.874L427.738 763.616L426.866 773.65L436.891 774.521Z" fill="#F7B02C" /></g><defs><clipPath id="clip0_200_2564"><rect width="854" height="852" fill="white" /></clipPath></defs></g><g id="svgHead"><path d="M634 496.1L602.9 314.9L484 206.1L433.4 191.7L322 213.4L258.7 270.1L221.7 339.4L281.6 465.2L282 616.1L294 660.1L398 716.1L418 670.1L472 604.1L478 666.1L582 592.1L634 496.1Z" fill="#750077" /><path d="M509.2 331.1L523.8 338L536.7 322.8L550.6 345.8L554.6 369.6L572.9 372.2L570.2 314L524.5 297.6L509.2 331.1Z" fill="#E7D8C3" /><path d="M277.5 466.1L253.2 529.8L227.4 542.7L299.2 630.8L362 635.7L503.7 541.5L390.7 457.4L468.5 439.7L500.8 375.3L452.7 344.4L451.8 301.5L301.7 357.4L236.3 345.9L244 373.7L232.5 408.1L255.9 465.2L277.5 466.1Z" fill="#E7D8C3" /><path d="M304.8 480L292.1 456.8L283.9 479L304.8 480Z" fill="#584B4B" /><path d="M316.9 480.3L335 448L353.2 473.3L316.9 480.3Z" fill="#584B4B" /><path d="M253.699 529.5L389.199 525.7L383.499 502.6L363.299 518L274.799 520.9L253.699 503.6V529.5Z" fill="white" /><path d="M251.2 396.7L254.4 386.4L282.2 382.1L295.3 395.1L264.8 415.8L251.2 396.7Z" fill="white" /><path d="M333.3 391.8L346.2 376.4L384.3 374.8L406.8 388L382.3 408.1L333.3 391.8Z" fill="white" /><path d="M264.201 281.4L250.801 269.9L310.401 201.6L370.801 195.9L376.601 202.6L323.801 215.1L264.201 281.4Z" fill="#FEADDE" /><path d="M333.5 279.5L318.1 267L396.9 187.2L433.8 186L444.4 194.6L409.4 198.7L333.5 279.5Z" fill="#FEADDE" /><path d="M394 263.2L469 189.1L494 198.7L500.8 221.2L483.5 205.5L405.6 272.8L394 263.2Z" fill="#FEADDE" /><path d="M611.6 365.3L664.8 459.7L653.3 501.1L636.9 496.3L648.5 465.5L617.1 397.8L611.6 365.3Z" fill="#FEADDE" /><path d="M614.9 531.3L623.8 534.3L626.2 510.6L614.9 531.3Z" fill="#FEADDE" /></g></svg>