<svg xmlns="http://www.w3.org/2000/svg" width="854" height="852" viewBox="0 0 854 852" fill="none">    <g id="svgBg"><path d="M97.1898 0L0 96.3663V140.78L21.6835 162.412V286.884L0 308.517V813.759L38.5673 852H854V92.6694L789.283 28.1036H655.177L626.823 56.3927H524.558L468.032 0H97.1898Z" fill="#5E7D99" /></g><g id="svgBody"><path d="M521.7 466.2L552.1 581.4L644.2 615.4L796.2 758.3L821.1 852.1H130L238.9 712.4L392.3 613.3L389.9 555.8L521.7 466.2Z" fill="#F0DDD6" /><path d="M391 612L421.9 635.601L482.9 641.801L530 571L520.8 466.5L391 556.5V612Z" fill="#D6C2BB" /><path d="M283.5 824.5L259.5 851H275.5L283.5 824.5Z" fill="#D6C2BB" /><path d="M653.5 824.5V851H666.5L653.5 824.5Z" fill="#D6C2BB" /><g clip-path="url(#clip0_75_178)"><path d="M682.5 494.6L697.7 665.8L796.2 758.3L821.1 852.1H130L238.5 685.3L295.7 654.5L317.4 576.6L387.6 530.8L398.6 596.2L386.4 719.5L490.8 584.3L567.3 466.8L682.5 494.6Z" fill="#FAFF00" /><path d="M386.4 719.5L658.8 585.6L682.5 494.6L567.3 466.8L490.8 584.3L393.5 633L317.1 577.9L295.7 654.5L386.4 719.5Z" fill="#BDC100" /><path d="M697.7 665.8L534.4 699.8L713.9 681L697.7 665.8Z" fill="#BDC100" /><path d="M682.5 852.1L703 793.3L692.7 852.1H682.5Z" fill="#BDC100" /><path d="M309.874 777.534L310.532 766.356L333.984 745.304L345.05 745.957L383.743 789.935L427.333 750.805L438.4 751.457L459.216 775.118L458.558 786.295L414.968 825.425L453.66 869.404L453.002 880.582L429.55 901.633L418.484 900.981L379.791 857.003L336.201 896.132L325.134 895.48L303.001 894.176L304.977 860.642L348.567 821.513L309.874 777.534Z" fill="black" /></g><defs><clipPath id="clip0_75_178"><rect width="854" height="852" fill="white" /></clipPath></defs></g><g id="svgHead"><path d="M263.9 432.7L250 288.8L342.1 181.1L486.1 171L589.6 261.5L598.4 368.7L580.9 410.7L611.4 403.8L627.4 458.6L558.5 519.6L534.2 516.9L490.6 583.3L421.4 635.2L366.4 629.2L302.6 562.6L286.5 462.4L263.9 432.7Z" fill="#F0DDD6" /><path d="M415 555V549.222L373.763 542L339 549.222V555L373.763 552.111L415 555Z" fill="black" fill-opacity="0.8" /><path d="M542 475.498V514L524.8 598.098L459.5 678.498L469.5 708.498L416.9 678.798L411.4 657.098L365.5 693.498L392.5 724.498H345.5L363.9 755.098L326.5 730.498L298.1 667.898L273.5 692.498L268.5 658.498L253.5 672.498L242 600.698L293.6 556.498L290.6 475.498L308.5 544.498L340.1 578.998L365.5 562.498L431.6 572.998L451.1 545.998L476.1 488.3L490.8 491.6L503.5 466.6L513.6 509L542 475.498Z" fill="white" /><path d="M262 417L335.234 420.128L495.5 394.5L457.788 465L339.538 454.761L286 462.5L264 433L262 417Z" fill="black" /><path d="M619.7 430.9L657.4 380.5L703 256L642.4 296.5L643.6 263.5L751.9 171.4L627.9 215.5V169.3L661.3 119.5L546.4 174.4V137.5L646.9 68.5L421.9 119.5L372.4 155.5L386.4 119.5L432 55L331.9 119.5L264.4 201L208.5 169.3L230.5 289L169.3 277L264.4 433.1L250.5 289.2L280.2 306.2L328.9 301L357.6 339.2L468.1 269.5L478.3 314.7L534.7 310L565.9 380.5L547.9 452.7L581.4 411.1L611.9 404.2L619.7 430.9Z" fill="#FAFF00" /></g></svg>