<svg xmlns="http://www.w3.org/2000/svg" width="854" height="852" viewBox="0 0 854 852" fill="none">    <g id="svgBg"><path d="M97.1898 0L0 96.3663V140.78L21.6835 162.412V286.884L0 308.517V813.759L38.5673 852H854V92.6694L789.283 28.1036H655.177L626.823 56.3927H524.558L468.032 0H97.1898Z" fill="#EAC70E" /></g><g id="svgBody"><path d="M521.7 466.2L552.1 581.4L644.2 615.4L796.2 758.3L821.1 852.1H130L238.9 712.4L392.3 613.3L389.9 555.8L521.7 466.2Z" fill="#B3D19C" /><path d="M391 612L421.9 635.601L482.9 641.801L530 571L520.8 466.5L391 556.5V612Z" fill="#97B481" /><path d="M283.5 824.5L259.5 851H275.5L283.5 824.5Z" fill="#97B481" /><path d="M653.5 824.5V851H666.5L653.5 824.5Z" fill="#97B481" /><g clip-path="url(#clip0_75_178)"><path d="M682.5 494.6L697.7 665.8L796.2 758.3L821.1 852.1H130L238.5 685.3L295.7 654.5L317.4 576.6L387.6 530.8L398.6 596.2L386.4 719.5L490.8 584.3L567.3 466.8L682.5 494.6Z" fill="#FAFF00" /><path d="M386.4 719.5L658.8 585.6L682.5 494.6L567.3 466.8L490.8 584.3L393.5 633L317.1 577.9L295.7 654.5L386.4 719.5Z" fill="#BDC100" /><path d="M697.7 665.8L534.4 699.8L713.9 681L697.7 665.8Z" fill="#BDC100" /><path d="M682.5 852.1L703 793.3L692.7 852.1H682.5Z" fill="#BDC100" /><path d="M309.874 777.534L310.532 766.356L333.984 745.304L345.05 745.957L383.743 789.935L427.333 750.805L438.4 751.457L459.216 775.118L458.558 786.295L414.968 825.425L453.66 869.404L453.002 880.582L429.55 901.633L418.484 900.981L379.791 857.003L336.201 896.132L325.134 895.48L303.001 894.176L304.977 860.642L348.567 821.513L309.874 777.534Z" fill="black" /></g><defs><clipPath id="clip0_75_178"><rect width="854" height="852" fill="white" /></clipPath></defs></g><g id="svgHead"><path d="M263.9 432.7L250 288.8L342.1 181.1L486.1 171L589.6 261.5L598.4 368.7L580.9 410.7L611.4 403.8L627.4 458.6L558.5 519.6L534.2 516.9L490.6 583.3L421.4 635.2L366.4 629.2L302.6 562.6L286.5 462.4L263.9 432.7Z" fill="#B3D19C" /><path d="M342.5 544.8L428.7 535.8L450.2 552.3H440.8L428.7 544.1L342.5 552.3V544.8Z" fill="black" fill-opacity="0.7" /><path d="M344 444.2L310.5 424.7L270.1 420.6L290 460.7L342.4 460.2L344 444.2Z" fill="white" /><path d="M398.61 444.72L403.041 459.338L460.474 461.063L497.838 415.365L431.731 421.458L398.61 444.72Z" fill="white" /><path d="M340.9 424.701L282.5 407.001L257.2 375.901L315.1 391.501L340.9 424.701Z" fill="#0D0D0D" /><path d="M394 425.6L476.5 402.3L508.3 357L433.5 384L394 425.6Z" fill="#0D0D0D" /><path d="M290 460.7H296.5L280.5 426.8L312.5 430L343.8 447.1L344 444.2L310.5 424.7L270.1 420.6L290 460.7Z" fill="#0D0D0D" /><path d="M398.61 444.72L399.576 447.915L436.816 427.999L482.378 424.464L458.141 460.995L460.474 461.063L497.838 415.365L431.731 421.458L398.61 444.72Z" fill="#0D0D0D" /><path d="M253.7 323.1L466.9 316.1L564 343.1L534.7 293.1L470 263.3H272.6L250.5 289.2L253.7 323.1Z" fill="#505050" /><path d="M253.7 323.1L228 416.4L250.5 403.5L228 489.1L265 460.1L274 504.1L287 462.8L264.4 433.1L253.7 323.1Z" fill="#EBFF00" /><path d="M534.7 334.9L554 399.4L542.7 471.1L581.4 411.1L611.9 404.2L622.4 440.4L667 466.2L627.9 361.1L667 358.1L623.2 280.5L652 273.1L577 225.1L691 192.5L552 172.7L564 114.5L466.5 146L447.5 88L389.5 140.5L359.5 88L324 163.1L199 275.1L250.5 263.3L232 303.2L322 263.3H370.5H397.5L439 358.1L447.5 263.3H470L508 310.6L506.8 280.2L534.7 293.1L564 343.1L534.7 334.9Z" fill="#EBFF00" /><path d="M270.3 322.5L267.8 343.6L312.8 321.1L270.3 322.5Z" fill="#EBFF00" /><path d="M447 316.7L473.5 358.1L483.4 320.6L466.9 316.1L447 316.7Z" fill="#EBFF00" /><path d="M329.971 313.108L340.677 281.173L347.915 287.01L342.201 304.64L372.673 303.604L375.296 295.638L349.506 295.969L352.503 287.717L378.182 287.086L381.117 278.6L326.055 280.491L337.46 271.623L385.501 269.991L392.422 276.539L387.05 289.629L381.936 291.664L385.126 294.929L380.309 308.03L374.506 311.595L329.971 313.108Z" fill="#EBFF00" /></g></svg>