<svg xmlns="http://www.w3.org/2000/svg" width="854" height="852" viewBox="0 0 854 852" fill="none">    <g id="svgBg"><path d="M97.1898 0L0 96.3663V140.78L21.6835 162.412V286.884L0 308.517V813.759L38.5673 852H854V92.6694L789.283 28.1036H655.177L626.823 56.3927H524.558L468.032 0H97.1898Z" fill="#A3A6AC" /></g><g id="svgBody"><g clip-path="url(#clip0_216_2949)"><path d="M595 512H589.5V532.5H595V512Z" fill="#3E3E3E" /><path d="M595 536.1H589.5V556.1H595V536.1Z" fill="#3E3E3E" /><path d="M778.4 623C766.8 606.9 748.9 606.4 729.9 605.8C720 605.5 709.8 605.2 699.4 602.8C683.6 599.2 677.5 587.5 670.9 575.1C666 565.7 660.9 556 651.7 550.4C631.7 538.1 596.5 537.6 595 537.6V551.1C595.3 551.1 628.6 551.6 646 562.3C652.4 566.2 656.2 573.6 660.7 582.1C667.5 595.1 676 611.4 697 616.1C708.4 618.7 719.6 619 729.5 619.3C746.4 619.8 761 620.3 769.1 631.6C781.1 648.2 767.4 679.9 730.6 718.8L739.7 727.6C783 682.1 795.3 646.5 778.4 623Z" fill="#4B4B4B" /><path d="M724 660.7C723.2 648.3 716.7 637.1 704.8 627.4C674.2 602.7 676.3 586.7 681.5 548C684.6 524.9 673.9 514.2 667.2 509.9C653.9 501.2 634.4 503 625.9 510.5C618.5 516.9 601 516.6 595.1 516V530.2C596.1 530.3 620.7 532 633.1 521.2C637.1 517.7 651.3 515.1 661.3 521.6C668.4 526.2 671.3 534.4 669.7 546C664.3 586.6 661.3 608.9 697.9 638.5C706.8 645.7 711.6 653.5 712.2 661.7C713 674.1 704.1 684.4 699 688.7L708.1 697.4C714.3 691.7 725.2 679.2 724 660.7Z" fill="#4B4B4B" /><path d="M447.5 482L442 597.8L269 705.1L174.9 852.1H776.9L759.2 746.2L647.8 639.8L557.5 597.8L551.5 475L522.5 462.5H471.5L447.5 482Z" fill="white" /><path d="M442 597.8L447.5 482L471.5 462.5H522.5L551.5 475V515.5V592L412.5 639.5L381.5 635.5L442 597.8Z" fill="#E9E9E9" /><path d="M546 508.1L568.5 481L589.5 508.1V564.4L567.8 597.7L546 570.7V508.1Z" fill="#A3A3A3" /><path d="M549.9 481.1H568.5L546 508.2V570.8L567.8 597.8H546L528.8 572.9V507.6L549.9 481.1Z" fill="#888888" /><path d="M572.4 514.1H562.3V563.7H572.4V514.1Z" fill="white" /></g><defs><clipPath id="clip0_216_2949"><rect width="854" height="852" fill="white" /></clipPath></defs><g clip-path="url(#clip0_213_2857)"><path d="M217.3 732L385.1 787.6L374.9 805.6L184.3 782L217.3 732Z" fill="#8E2FBA" /><path d="M318.6 639.8L408.5 742.9L398.1 760.9L245.6 684.8L318.6 639.8Z" fill="#8E2FBA" /><path d="M483.3 746.3L691.6 615.9L767.1 680.6L494.6 760.9L483.3 746.3Z" fill="#8E2FBA" /><path d="M506.1 792.5L778.7 738.8L791.7 794.8L514.7 811.1L506.1 792.5Z" fill="#8E2FBA" /><path d="M184.3 782L201.1 811.1L207.1 801.7L378.3 814.7L385.1 798.3V787.6L374.9 805.6L184.3 782Z" fill="#B0B0B0" /><path d="M245.6 684.8L257.2 723.4L265.2 711L401.1 768.8L408.5 753.4V742.9L398.1 760.9L245.6 684.8Z" fill="#B0B0B0" /><path d="M494.6 760.9L767.1 680.6L740.6 726.8L724.1 712.6L501.1 768.8L494.6 760.9Z" fill="#B0B0B0" /><path d="M514.7 811.1L791.7 794.8L772.2 824.2L770 811.1L519.1 819.4L514.7 811.1Z" fill="#B0B0B0" /><path d="M383.2 713.9L393.5 703.1H491.5L512.6 727.9L506.6 731.7L489 709.1H395.5L388 719.4L383.2 713.9Z" fill="#D8D8D8" /><path d="M616.1 625.1L499 688.4H395L355.5 654.8L361.3 651.4L397.5 680.6H496.6L608.7 621.6L616.1 625.1Z" fill="#D8D8D8" /><path d="M336.3 811.5L317.3 852.1H308.7L328.7 810.9L336.3 811.5Z" fill="#D8D8D8" /><path d="M554.3 818.2L576.3 852.1L584.7 852L562.3 818L554.3 818.2Z" fill="#D8D8D8" /></g><defs><clipPath id="clip0_213_2857"><rect width="854" height="852" fill="white" /></clipPath></defs></g><g id="svgHead"><path d="M562.3 481.1L587.3 481.2L624.4 412.8L607.6 385.4L624.4 332.7L606.8 217.5L483.1 150.1L341.2 165.9L265.2 277L268.1 416L288.7 452.1L299.4 531.1L364.5 623.3L415.9 625.5L546 522.2L562.3 481.1Z" fill="white" /><path d="M596.6 211.9L472.6 227.3L428 305.4L299.2 310.8L289.7 241.3L282.3 252.1L290.664 309.5L294.5 317L430.9 312.2L435.16 305.4L479.2 235.1L606.8 217.5L596.6 211.9Z" fill="#DCDCDC" /><path d="M430.9 312.2L490.5 371.5L524 539.5L530.5 534.5L497.5 367L435.16 305.4L430.9 312.2Z" fill="#DCDCDC" /><path d="M267.097 384L294.5 317L290.664 309.5L267.097 367L267.097 384Z" fill="#DCDCDC" /><path d="M597 412.8L574.6 460.4H583.9L603.3 416.1L597 412.8Z" fill="#979797" /><path d="M334.759 544.14L329.259 516.64L340.259 516.64L342.259 544.14L334.759 544.14Z" fill="#3D3D3D" /><path d="M349.759 544.14L349.759 516.64L357.759 516.64L357.759 544.14L349.759 544.14Z" fill="#3D3D3D" /><path d="M366.759 544.14L366.759 516.64L377.259 516.64L374.259 544.14L366.759 544.14Z" fill="#3D3D3D" /><path d="M380.759 544.14L386.759 516.64L397.259 516.64L386.759 544.14L380.759 544.14Z" fill="#3D3D3D" /><path d="M480.507 438.968L436.198 454.28L285.399 450.906L260.829 432.312L257.509 394.185L285.399 368.564L453.205 364.713L489.011 394.185L480.507 438.968Z" fill="#6A6A6A" /><path d="M290.047 436.961L275.438 420.359L274.11 395.957L297.352 382.096L447.002 382.096L472.271 401.132L466.705 429.129L435.405 438.71L290.047 436.961Z" fill="black" /><path fill-rule="evenodd" clip-rule="evenodd" d="M413.442 406.561L426.458 395.405L431.648 401.369L418.353 412.764L426.881 423.536L420.637 428.405L412.337 417.921L402.531 426.325L397.341 420.361L407.426 411.717L398.8 400.821L405.044 395.952L413.442 406.561ZM306.922 404.448L316.483 395.517L321.926 401.256L311.999 410.529L318.953 418.859L312.838 423.887L306.204 415.941L299.426 422.272L293.984 416.533L301.128 409.86L293.648 400.901L299.763 395.873L306.922 404.448Z" fill="#DBFF00" /><path d="M381 265.5H321L312.5 248.5L360 182.5L427.5 155L483 149L513 166L423.5 202.5L381 265.5Z" fill="#3C3C3C" /><path d="M326 257.5L322 248L313.296 122L349.796 112.5L386.5 175.432L386.296 110L416.296 106L436.407 158.5L440.204 106H470.296L482.5 163.5L453.5 175.432L440.204 170.25L444 182L412.5 200.5H398.524L405 214L376.5 257.5H326Z" fill="#00B3FF" /><path d="M371 243.5L338 119.5L375 236.5L371 243.5Z" fill="#008FCD" /><path d="M411 188.5L405 115L416 188.5H411Z" fill="#008FCD" /><path d="M452.5 164L448.5 111L456 164H452.5Z" fill="#008FCD" /></g></svg>