<svg xmlns="http://www.w3.org/2000/svg" width="854" height="852" viewBox="0 0 854 852" fill="none">    <g id="svgBg"><path d="M97.1898 0L0 96.3663V140.78L21.6835 162.412V286.884L0 308.517V813.759L38.5673 852H854V92.6694L789.283 28.1036H655.177L626.823 56.3927H524.558L468.032 0H97.1898Z" fill="#863030" /></g><g id="svgBody"><path d="M179.1 852L246 737.2L450.8 614.4L429.1 563.5L563.3 412.1L578 584.6L784.6 748.3L814.1 852.1L179.1 852Z" fill="#F0DDD6" /><path d="M445.4 601.6L428.5 560.5L565 412L573 527.5L554 580L469.3 640.1L445.3 624.1L445.4 601.6Z" fill="#D6C2BB" /><path d="M591 559L588.8 592.7L689 851.7H280.4L437.7 616.7L434 574.7L591 559Z" fill="#2D2D2D" /><path d="M562.109 808.666L572.116 785.387L577.18 790.212L571.803 803.075L594.713 804.189L597.174 798.378L577.817 797.028L580.576 791.026L599.868 792.146L602.595 785.965L561.195 783.969L570.296 778.027L606.416 779.782L611.198 785.121L606.359 794.602L602.399 795.811L604.588 798.456L600.165 807.98L595.592 810.293L562.109 808.666Z" fill="#EBFF00" /><path d="M814.1 777.7L610 851.7H833L814.1 777.7Z" fill="#EBFF00" /><path d="M187 791.7L362 851.6L161 851.7L187 791.7Z" fill="#EBFF00" /></g><g id="svgHead"><path d="M581.3 490.4L456.6 623.9L407.9 625L324.5 500.5V452L303.7 396L299.6 298.6L371.3 199.7L474.6 166.2L597 212.3L635.2 314.7L629.2 383.4L655.2 389.1L666.2 421.2L608.1 493.4L581.3 490.4Z" fill="#F0DDD6" /><path d="M379.7 559.6L398.1 545L408.6 547.4L420.3 543.9L457.7 551.2L432.1 572.4L400 574.1L379.7 559.6Z" fill="#8E2FBA" /><path d="M409.1 559.6L405.5 574.1L417.1 582L427.6 572.6L415.1 573.3V559.6H409.1Z" fill="black" /><path d="M309 412L572 401L471.757 479L375.076 460.652L331.5 471L322.5 449L309 412Z" fill="black" /><path d="M395 408.177L410.08 467.796L432 472L419.639 407L395 408.177Z" fill="#4B4B4B" /><path d="M432 406.336L445.564 474.489L453 476L440.008 406L432 406.336Z" fill="#4B4B4B" /><path d="M341.3 632.1L317.214 553L324.5 452L303.7 396L301 332.2L350 286.1L341.3 330.1L360 382.3L445.3 348.1L437.7 318.1L466.7 340.1V296.1L548 328.1L561 512.1L538.5 600.5L582 523V395.6L596.5 426L629.2 383.4L655.2 389.1L670.9 316.1L644 232.1L686 300.1V401.2L758 512.1V444.5L786 308.1L650 158.1L617.2 194.1L474.7 143.4L344.1 193L270 307L298.014 416.5L299.6 422.7L298.014 563L341.3 632.1Z" fill="#BDFF00" /><path d="M270 307L344.1 193L324.5 174.5L245 242V416.5L220.5 500.5L298.014 416.5L270 307Z" fill="#BDFF00" /><path d="M643.5 241L607.5 192L618.5 187L650.5 231.5L643.5 241Z" fill="black" /><path d="M341.5 187H356.5L324 231.5L318.5 220L341.5 187Z" fill="black" /></g></svg>