<svg xmlns="http://www.w3.org/2000/svg" width="854" height="852" viewBox="0 0 854 852" fill="none">    <g id="svgBg"><path d="M97.1898 0L0 96.3663V140.78L21.6835 162.412V286.884L0 308.517V813.759L38.5673 852H854V92.6694L789.283 28.1036H655.177L626.823 56.3927H524.558L468.032 0H97.1898Z" fill="#94A37C" /></g><g id="svgBody"><path d="M521.7 466.2L552.1 581.4L644.2 615.4L796.2 758.3L821.1 852.1H130L238.9 712.4L392.3 613.3L389.9 555.8L521.7 466.2Z" fill="#F0DDD6" /><path d="M391 612L421.9 635.601L482.9 641.801L530 571L520.8 466.5L391 556.5V612Z" fill="#D6C2BB" /><path d="M283.5 824.5L259.5 851H275.5L283.5 824.5Z" fill="#D6C2BB" /><path d="M653.5 824.5V851H666.5L653.5 824.5Z" fill="#D6C2BB" /><g clip-path="url(#clip0_75_169)"><path d="M682.5 494.6L697.7 665.8L796.2 758.3L821.1 852.1H130L238.5 685.3L295.7 654.5L317.4 576.6L387.6 530.8L398.6 596.2L386.4 719.5L490.8 584.3L567.3 466.8L682.5 494.6Z" fill="#626262" /><path d="M386.4 719.5L658.8 585.6L682.5 494.6L567.3 466.8L490.8 584.3L393.5 633L317.1 577.9L295.7 654.5L386.4 719.5Z" fill="#4B4B4B" /><path d="M697.7 665.8L534.4 699.8L713.9 681L697.7 665.8Z" fill="#4B4B4B" /><path d="M682.5 852.1L703 793.3L692.7 852.1H682.5Z" fill="#4B4B4B" /><path d="M299.5 863L331 778.771L349.807 795L332.942 841.516H414.442L422.174 820.5L353.243 819.046L362 797.301L430.658 797.947L439.272 775.573L292 775.626L323.273 753H451.765L469.659 771.097L454.121 805.535L440.272 810.5L448.5 819.5L434.442 854.016L418.613 863H299.5Z" fill="#EBFF00" /></g><defs><clipPath id="clip0_75_169"><rect width="854" height="852" fill="white" /></clipPath></defs></g><g id="svgHead"><path d="M263.9 432.7L250 288.8L342.1 181.1L486.1 171L589.6 261.5L598.4 368.7L580.9 410.7L611.4 403.8L627.4 458.6L558.5 519.6L534.2 516.9L490.6 583.3L421.4 635.2L366.4 629.2L302.6 562.6L286.5 462.4L263.9 432.7Z" fill="#F0DDD6" /><path d="M339.9 541.9L336.7 550.8L439.2 558V534.7L339.9 541.9Z" fill="white" /><path d="M347.4 451.8L339.9 434.8L288.1 426.6L289.6 455.6L347.4 451.8Z" fill="white" /><path d="M261.6 396.6L352.8 425.9L350.6 400.5L338.8 409.9L260.9 388.7L261.6 396.6Z" fill="black" /><path d="M289.6 455.6L290.6 430.2L337.7 437.3L347.4 451.8L307.1 454.5L353.8 455.9L341.8 434.1L285.2 424L289.6 455.6Z" fill="black" /><path d="M476.7 458.4L440.1 485.1L400.3 465.7L397 419.7L433.6 393.1L473.5 412.4L476.7 458.4Z" fill="#525252" /><path d="M412.6 456L410.7 429.3L433.6 413.2L458.3 424.5L460.2 451.2L437.2 467.2L412.6 456Z" fill="white" /><path d="M433.6 393.1L520 402.3L516.4 447.7L440.1 485.1L476.7 458.4L473.5 412.4L433.6 393.1Z" fill="#3A3A3A" /><path d="M287 462.8L264.4 433.1L250.6 290.3L314.3 258L382.2 300.5L390.7 282.7L451.1 302.9L447.1 292.8L514.2 300.2L534.6 308.9L531.7 335.8L548.1 333.7L541.4 393.8L560.6 390.1L546.4 483.7L554.6 509.2L573.3 421.9L612.2 409.5L619.6 430.4L670.4 281.2L588.6 119.4L581.8 174.9L475.8 68.1001L314.4 75.5001L409.9 119.1L284.3 149.2L315.3 155.2L160.5 179.6L251.8 232.4L170.2 256.4L235.8 324.5L183.3 349.1L248.8 359.5L254 433.1L287.4 487.9L287 462.8Z" fill="white" /></g></svg>