<svg xmlns="http://www.w3.org/2000/svg" width="854" height="852" viewBox="0 0 854 852" fill="none">    <g id="svgBg"><path d="M97.1898 0L0 96.3663V140.78L21.6835 162.412V286.884L0 308.517V813.759L38.5673 852H854V92.6694L789.283 28.1036H655.177L626.823 56.3927H524.558L468.032 0H97.1898Z" fill="#94A37C" /></g><g id="svgBody"><path d="M179.1 852L246 737.2L450.8 614.4L429.1 563.5L563.3 412.1L578 584.6L784.6 748.3L814.1 852.1L179.1 852Z" fill="#F0DDD6" /><path d="M445.4 601.6L428.5 560.5L565 412L573 527.5L554 580L469.3 640.1L445.3 624.1L445.4 601.6Z" fill="#D6C2BB" /><path d="M260.7 712.7L270.7 755L233.7 851.5L392.7 852.1L451.3 599.4L260.7 712.7Z" fill="#6A2B88" /><path d="M556 564.7L486.7 852.1H693.5L684.4 765.8L735.3 685.2L556 564.7Z" fill="#6A2B88" /><path d="M344.7 530.1L250.4 610.3L345 852L392.7 852.1L445.3 624.1L474 498L344.7 530.1Z" fill="#8E2FBA" /><path d="M570.7 502.1L486.7 852.1H544L701 566.3L570.7 502.1Z" fill="#8E2FBA" /><path d="M709.3 748.7L663.2 769.6L663.5 793L709.7 773.8L709.3 748.7Z" fill="white" /><path d="M710.5 826.1L664.2 847.1L664.6 852.1L710.9 852L710.5 826.1Z" fill="white" /><path d="M709.9 785.8L663.7 806.7L664.1 833.1L710.3 813.9L709.9 785.8Z" fill="white" /><path d="M248.4 758.4L274.2 769.6L273.9 793L242.3 781L248.4 758.4Z" fill="white" /><path d="M231.7 826.1L273.2 847.1L272.9 852.1L223.5 852L231.7 826.1Z" fill="white" /><path d="M239.9 793L273.8 806.7L273.4 833.1L233.7 816.2L239.9 793Z" fill="white" /></g><g id="svgHead"><path d="M581.3 490.4L456.6 623.9L407.9 625L324.5 500.5V452L303.7 396L299.6 298.6L371.3 199.7L474.6 166.2L597 212.3L635.2 314.7L629.2 383.4L655.2 389.1L666.2 421.2L608.1 493.4L581.3 490.4Z" fill="#F0DDD6" /><path d="M379.7 559.6L398.1 545L408.6 547.4L420.3 543.9L457.7 551.2L432.1 572.4L400 574.1L379.7 559.6Z" fill="#8E2FBA" /><path d="M409.1 559.6L405.5 574.1L417.1 582L427.6 572.6L415.1 573.3V559.6H409.1Z" fill="black" /><path d="M417.268 448.568L437.837 474.855L474.315 457.093L497.829 430.452L417.268 448.568Z" fill="white" /><path d="M413.724 409.076L404.506 429.663L419.338 416.667L451.928 413.59C452.2 411.936 452.359 410.197 452.532 408.557L413.724 409.076Z" fill="black" /><path d="M472.388 408.284L462.247 408.703C462.23 410.018 462.313 411.319 462.31 412.733L471.264 411.775C471.605 410.616 472.046 409.443 472.388 408.284Z" fill="black" /><path d="M481.764 408.175C481.578 409.009 481.407 409.942 481.122 410.79L512.906 407.726L481.764 408.175Z" fill="black" /><path d="M375.264 426.093L356.807 415.175L313.663 414.76L363.48 408.908L375.264 426.093Z" fill="black" /><path d="M437.837 474.855L423.585 451.111L485.486 436.028L474.315 457.092L502.815 426.417L403.125 449.247L415.706 451.817L437.837 474.855Z" fill="black" /><path d="M375.041 451.238L356.949 478.52L336.547 467.878L326.222 446.836L375.041 451.238Z" fill="white" /><path d="M356.949 478.52L370.527 454.535L333.083 450.155L336.547 467.878L323.643 443.916L384.083 449.677L375.434 453.901L356.949 478.52Z" fill="black" /><path d="M574.5 411V376.5L530.5 294L467 268.5L530.5 187L596.5 212L636 315L629 383L606 415.5L574.5 411Z" fill="black" fill-opacity="0.1" /><path d="M374.8 575.5L335 634L251 684L280 599.5L227.5 593.5L263 514.5L269 471.5L227.5 485.5L263 365.1H216L241 320.1L320 185.1L409 137.1L469 151.1L496.6 143.1L540 185.1L469 281L409 291.5L352 354.5L301.7 350.2L303.7 396L324.5 452V500.5L374.8 575.5Z" fill="#5A5E66" /></g></svg>