<svg xmlns="http://www.w3.org/2000/svg" width="854" height="852" viewBox="0 0 854 852" fill="none">    <g id="svgBg"><path d="M97.1898 0L0 96.3663V140.78L21.6835 162.412V286.884L0 308.517V813.759L38.5673 852H854V92.6694L789.283 28.1036H655.177L626.823 56.3927H524.558L468.032 0H97.1898Z" fill="#EAC70E" /></g><g id="svgBody"><g clip-path="url(#clip0_216_2964)"><path d="M778.4 623C766.8 606.9 748.9 606.4 729.9 605.8C720 605.5 709.8 605.2 699.4 602.8C683.6 599.2 677.5 587.5 670.9 575.1C666 565.7 660.9 556 651.7 550.4C631.7 538.1 596.5 537.6 595 537.6V551.1C595.3 551.1 628.6 551.6 646 562.3C652.4 566.2 656.2 573.6 660.7 582.1C667.5 595.1 676 611.4 697 616.1C708.4 618.7 719.6 619 729.5 619.3C746.4 619.8 761 620.3 769.1 631.6C781.1 648.2 767.4 679.9 730.6 718.8L739.7 727.6C783 682.1 795.3 646.5 778.4 623Z" fill="white" /><path d="M724 660.7C723.2 648.3 716.7 637.1 704.8 627.4C674.2 602.7 676.3 586.7 681.5 548C684.6 524.9 673.9 514.2 667.2 509.9C653.9 501.2 634.4 503 625.9 510.5C618.5 516.9 601 516.6 595.1 516V530.2C596.1 530.3 620.7 532 633.1 521.2C637.1 517.7 651.3 515.1 661.3 521.6C668.4 526.2 671.3 534.4 669.7 546C664.3 586.6 661.3 608.9 697.9 638.5C706.8 645.7 711.6 653.5 712.2 661.7C713 674.1 704.1 684.4 699 688.7L708.1 697.4C714.3 691.7 725.2 679.2 724 660.7Z" fill="white" /><path d="M630.75 579.087C638.55 588.76 641.341 601.405 639.141 616.599C633.318 655.49 645.69 665.852 675.702 690.832C693.613 705.745 692.973 720.864 690.948 728.563C687.04 743.968 671.463 755.835 660.13 756.063C650.35 756.357 637.666 768.418 633.728 772.851L624.121 762.394C624.789 761.644 641.754 743.749 658.192 743.313C663.506 743.184 675.722 735.491 678.688 723.939C680.804 715.748 677.392 707.748 668.365 700.288C636.921 674.044 619.624 659.652 626.55 613.093C628.233 601.77 626.49 592.779 621.384 586.334C613.584 576.662 600.061 575.098 593.397 575.382L594.212 562.819C602.634 562.822 619.117 564.652 630.75 579.087Z" fill="white" /><path d="M595 512H589.5V532.5H595V512Z" fill="#3E3E3E" /><path d="M595 559.908H589.5V580.408H595V559.908Z" fill="#3E3E3E" /><path d="M595 536.1H589.5V556.1H595V536.1Z" fill="#3E3E3E" /><path d="M447.5 482L442 597.8L269 705.1L174.9 852.1H776.9L759.2 746.2L647.8 639.8L557.5 597.8L551.5 475L522.5 462.5H471.5L447.5 482Z" fill="#5A5A5A" /><path d="M442 597.8L447.5 482L471.5 462.5H522.5L551.5 475V515.5V592L412.5 639.5L381.5 635.5L442 597.8Z" fill="#444444" /><path d="M546 491.5L553.5 487L568.5 481L589.5 490.5V587.5L567.8 597.7L546 587.5V491.5Z" fill="#7E7E7E" /><path d="M549.9 481.1H568.5L546 492V587L567.8 597.8H546L528.8 589.5V490L549.9 481.1Z" fill="#656565" /><rect x="563" y="501" width="9" height="76" fill="black" /><rect x="563" y="552" width="9" height="25" fill="#C72121" /></g><defs><clipPath id="clip0_216_2964"><rect width="854" height="852" fill="white" /></clipPath></defs><g clip-path="url(#clip0_216_3014)"><path d="M169.3 852.1L268.7 697.3L326.7 666.1L350 570.1L415.1 625.5V688.1L528.8 597.8L546 567L552 526V478L656.7 510.2V634.5L759.2 746.2L776.9 852.1H169.3Z" fill="#EBFF00" /><path d="M355.8 677L409.3 724.9L619 604.1L641.5 514.1L552 478H528.8V523.5V582L470.5 619.5L422 611L443.5 598.5L446.5 507.5L350 570.1L355.8 677Z" fill="#333333" /><path d="M522.5 686L657 634.5L668 647L522.5 686Z" fill="#BEC100" /><path d="M682 852.1L702 803.4L692 852.1H682Z" fill="#BEC100" /><path d="M631.6 803.4L668.1 773.6L737 766.1L785.7 779.6L791.7 790.4L771.3 818.8L768.7 803.4L776.9 792.4L737 779.6L675.3 787.1L639.3 814.8L631.6 803.4Z" fill="#333333" /><path d="M640 832.7L706.3 808.3L786.8 831.6L791.7 844.7L776.9 852.1L775.5 843.8L781.3 841.4L706 821.1L645.5 844.6L640 832.7Z" fill="#333333" /><path d="M296.8 805.6L269.6 782.4L217.7 776.8L180.9 787.8L176.4 795.9L191.7 817L197.4 808.3L187.5 797.4L217.5 787.8L264.7 792.6L291 814L296.8 805.6Z" fill="#333333" /><path d="M273.3 832.7L223.4 808.3L162.9 831.6L159.2 844.7L169.6 851.6L173.8 845.1L168.2 840.9L222.3 819.5L269.3 842.7L273.3 832.7Z" fill="#333333" /><path d="M348.206 860L374.27 790.32L389.831 803.745L375.876 842.227H443.311L449.709 824.841L392.674 823.638L399.92 805.649L456.73 806.183L463.857 787.674L342 787.718L367.876 769H474.194L489 783.971L476.143 812.461L464.684 816.568L471.492 824.014L459.86 852.568L446.763 860H348.206Z" fill="black" /></g><defs><clipPath id="clip0_216_3014"><rect width="854" height="852" fill="white" /></clipPath></defs></g><g id="svgHead"><path d="M562.3 481.1L587.3 481.2L624.4 412.8L607.6 385.4L624.4 332.7L606.8 217.5L483.1 150.1L341.2 165.9L265.2 277L268.1 416L288.7 452.1L299.4 531.1L364.5 623.3L415.9 625.5L546 522.2L562.3 481.1Z" fill="#5A5A5A" /><path d="M596.6 211.9L472.6 227.3L428 305.4L299.2 310.8L289.7 241.3L282.3 252.1L291.8 317.3L430.9 312.2L479.2 235.1L606.8 217.5L596.6 211.9Z" fill="#3D3D3D" /><path d="M624.4 332.7L623.2 324.5L509 387.8L536.3 435.7L444.5 522.2L436 531.5L444.8 603L452 597L444.8 534.9L538.4 442.9L522.2 541.2L528.8 535.8L544 438.1L520 391.6L624.4 332.7Z" fill="#3D3D3D" /><path d="M597 412.8L574.6 460.4H583.9L603.3 416.1L597 412.8Z" fill="white" /><path d="M410 524L330 528.5L332.5 538L411.5 532L410 524Z" fill="#3D3D3D" /><path d="M455.441 422.42L422.422 434.899L394.738 413.481L400.173 379.592L433.292 367.12L460.876 388.53L455.441 422.42Z" fill="#787878" /><path d="M402.061 409.415L405.647 388.223L428.998 380.337L448.426 394.12L444.841 415.312L421.49 423.197L402.061 409.415Z" fill="white" /><path d="M373.164 367.951L343.424 382.179L317.531 362.298L321.477 328.197L351.218 313.969L377.111 333.85L373.164 367.951Z" fill="#787878" /><path d="M323.515 360.037L326.071 337.866L346.682 329.074L364.405 341.526L361.842 363.797L341.231 372.589L323.515 360.037Z" fill="white" /><path d="M308.852 396.648L300.712 425.121L277.053 429.073L261.533 404.551L269.773 376.085L293.432 372.133L308.852 396.648Z" fill="#787878" /><path d="M268 405.234L273.428 387.589L286.001 385.718L296.513 400.742L290.986 418.38L278.42 420.15L268 405.234Z" fill="white" /><path d="M608.9 387.5L548.8 338.9L383.5 298.2L265.7 298.9L266 317.5L145.6 288.4L158.7 261.6L252.7 258.6L277.3 172.4L374.5 120.9H454.6L457.2 112H487.4L491.4 121.9L590.4 164.5L629 231.9V379.6L608.9 387.5Z" fill="#626262" /><path d="M294.361 220.398L294.683 214.932L306.151 204.638L311.563 204.957L330.484 226.463L351.8 207.328L357.212 207.647L367.392 219.217L367.069 224.683L345.753 243.818L364.675 265.324L364.352 270.79L352.885 281.084L347.473 280.765L328.552 259.259L307.236 278.394L301.824 278.075L291 277.438L291.967 261.039L313.283 241.904L294.361 220.398Z" fill="#FAFF00" /><path d="M548.8 338.9L394.5 272L252.7 258.6L158.7 261.6L145.6 288.4L266 317.5L265.7 298.9L383.5 298.2L548.8 338.9Z" fill="#333333" /><path d="M454.6 120.9L491.4 121.9L487.4 112H457.2L454.6 120.9Z" fill="#333333" /><path d="M541.4 241.5L579.5 226L631.2 241.1L660 269L659.7 280.7L629 300.9V287.3L647.4 276.8L625.6 253.4L579 240.6L541.4 257.4V241.5Z" fill="#333333" /><path d="M539.9 285.3L596.7 284.2L644 331L642 344.6L629 348.2V339.4L636.1 338.3L591.3 295.7L538.7 300.1L539.9 285.3Z" fill="#333333" /></g></svg>