<svg xmlns="http://www.w3.org/2000/svg" width="854" height="852" viewBox="0 0 854 852" fill="none">    <g id="svgBg"><path d="M97.1898 0L0 96.3663V140.78L21.6835 162.412V286.884L0 308.517V813.759L38.5673 852H854V92.6694L789.283 28.1036H655.177L626.823 56.3927H524.558L468.032 0H97.1898Z" fill="#EAC70E" /></g><g id="svgBody"><path d="M179.1 852L246 737.2L450.8 614.4L429.1 563.5L563.3 412.1L578 584.6L784.6 748.3L814.1 852.1L179.1 852Z" fill="#F0DDD6" /><path d="M445.4 601.6L428.5 560.5L565 412L573 527.5L554 580L469.3 640.1L445.3 624.1L445.4 601.6Z" fill="#D6C2BB" /><path d="M693.7 776.8L626 665.6L640.5 529.1L487.6 664L433.2 664.7L344.2 620.2L370 695.6L291.8 785L179.1 815.6V852L267 851.6L342.5 851.9L392.7 852.1V851.9L486.7 852V852.1H675H739.5H826.5V800.6L693.7 776.8Z" fill="#BDFF00" /><path d="M640.5 529.1L578 584.3L573.3 529.1H640.5Z" fill="#4B5B1E" /><path d="M344.2 620.2L387.3 594.3L441.5 554L433.1 625L397.1 646.6L344.2 620.2Z" fill="#4B5B1E" /><path d="M514.8 640.1V695.1L537 742.1L545 852.1L564 852L555 741.1L526 690.6L531 625.8L514.8 640.1Z" fill="black" /><path d="M397.1 646.6L414 655V697.1L405.5 738.9V852.1H387.3L388.6 738.9L400.7 698.1L397.1 646.6Z" fill="black" /><path d="M731 756.1L736.8 820.8L768.9 824.2L764.3 764.2L731 756.1Z" fill="black" /><path d="M265.4 760.7L260.4 816.6L232.6 819.6L236.6 767.7L265.4 760.7Z" fill="black" /></g><g id="svgHead"><path d="M581.3 490.4L456.6 623.9L407.9 625L324.5 500.5V452L303.7 396L299.6 298.6L371.3 199.7L474.6 166.2L597 212.3L635.2 314.7L629.2 383.4L655.2 389.1L666.2 421.2L608.1 493.4L581.3 490.4Z" fill="#F0DDD6" /><path d="M380 543.179L471 526L426.317 563H396.347L380 543.179Z" fill="white" /><path d="M475 394.5L420.5 433.5L482 411L518 398.5L475 394.5Z" fill="#EBFF00" /><path d="M308.5 411L383 433.5L333 404L308.5 411Z" fill="#EBFF00" /><path d="M420.5 432.5L504.5 408.5L482.5 443.5L438 447.5L420.5 432.5Z" fill="white" /><path d="M321 418.5L383 433.6L371 449.5H331L321 418.5Z" fill="white" /><path d="M421.196 406.7L524.324 372.077L429.082 390.914L421.196 406.7Z" fill="#0D0D0D" /><path d="M376.789 405.018L303.816 381.546L371.6 391.67L376.789 405.018Z" fill="#0D0D0D" /><path d="M498 411L420.5 432.5L495 404L518.5 398.5L504 411L482.5 441.5L498 411Z" fill="black" /><path d="M315.5 421L330 450L325 423.5L383.5 433.5L325 414.5L306.5 410L315.5 421Z" fill="black" /><path d="M371.7 571.1L324.5 500.5V452L303.7 396L302 357.4H358L360 332.1L371.7 360.1L463.3 357.4L468 342.7L474 358.1L531 357.4L550.1 523.8L508 568.9L665 523.8L674 357.4L598.5 202.5L474 159L414 177.5L343 202.5L276 332.1V511.5L295 565L371.7 571.1Z" fill="white" /></g></svg>