<svg xmlns="http://www.w3.org/2000/svg" width="854" height="852" viewBox="0 0 854 852" fill="none">    <g id="svgBg"><path d="M97.1898 0L0 96.3663V140.78L21.6835 162.412V286.884L0 308.517V813.759L38.5673 852H854V92.6694L789.283 28.1036H655.177L626.823 56.3927H524.558L468.032 0H97.1898Z" fill="#EAC70E" /></g><g id="svgBody"><path d="M521.7 466.2L552.1 581.4L644.2 615.4L796.2 758.3L821.1 852.1H130L238.9 712.4L392.3 613.3L389.9 555.8L521.7 466.2Z" fill="#B3D19C" /><path d="M391 612L421.9 635.601L482.9 641.801L530 571L520.8 466.5L391 556.5V612Z" fill="#97B481" /><path d="M283.5 824.5L259.5 851H275.5L283.5 824.5Z" fill="#97B481" /><path d="M653.5 824.5V851H666.5L653.5 824.5Z" fill="#97B481" /><g clip-path="url(#clip0_75_178)"><path d="M682.5 494.6L697.7 665.8L796.2 758.3L821.1 852.1H130L238.5 685.3L295.7 654.5L317.4 576.6L387.6 530.8L398.6 596.2L386.4 719.5L490.8 584.3L567.3 466.8L682.5 494.6Z" fill="#FAFF00" /><path d="M386.4 719.5L658.8 585.6L682.5 494.6L567.3 466.8L490.8 584.3L393.5 633L317.1 577.9L295.7 654.5L386.4 719.5Z" fill="#BDC100" /><path d="M697.7 665.8L534.4 699.8L713.9 681L697.7 665.8Z" fill="#BDC100" /><path d="M682.5 852.1L703 793.3L692.7 852.1H682.5Z" fill="#BDC100" /><path d="M309.874 777.534L310.532 766.356L333.984 745.304L345.05 745.957L383.743 789.935L427.333 750.805L438.4 751.457L459.216 775.118L458.558 786.295L414.968 825.425L453.66 869.404L453.002 880.582L429.55 901.633L418.484 900.981L379.791 857.003L336.201 896.132L325.134 895.48L303.001 894.176L304.977 860.642L348.567 821.513L309.874 777.534Z" fill="black" /></g><defs><clipPath id="clip0_75_178"><rect width="854" height="852" fill="white" /></clipPath></defs></g><g id="svgHead"><path d="M263.9 432.7L250 288.8L342.1 181.1L486.1 171L589.6 261.5L598.4 368.7L580.9 410.7L611.4 403.8L627.4 458.6L558.5 519.6L534.2 516.9L490.6 583.3L421.4 635.2L366.4 629.2L302.6 562.6L286.5 462.4L263.9 432.7Z" fill="#B3D19C" /><path d="M437.1 549.5H342V555.5H437.1V549.5Z" fill="black" fill-opacity="0.8" /><path d="M286.6 425.8L345.4 437.4L298.1 450.6L286.6 425.8Z" fill="white" /><path d="M345.4 437.4L286.6 425.8L298.1 450.6H291.6L274.1 414.5L345.8 434.6L345.4 437.4Z" fill="black" /><path d="M342.7 415L277.3 388.8L260.9 370.6L325.9 394.7L342.7 415Z" fill="#0D0D0D" /><path d="M516 407.5L494.879 380.5L405.5 374L390.5 395.5L400.846 454.92L490.5 483.5L510.5 473L516 407.5Z" fill="#4B4B4B" /><path d="M249 296L420.5 386.5L400.2 398.598L249 314.297V296Z" fill="#4B4B4B" /><path d="M482.8 471.2L529.5 535L541.6 518.3L495 454.4L482.8 471.2Z" fill="#4B4B4B" /><path d="M502 404.191L587.5 404.191L594.536 384.371L481.5 384.371L502 404.191Z" fill="#4B4B4B" /><path d="M431.776 411.553L431.652 408.381L437.686 401.795L440.825 401.673L452.955 413.009L464.169 400.767L467.308 400.645L473.834 406.744L473.957 409.915L462.743 422.157L474.872 433.493L474.995 436.664L468.962 443.25L465.822 443.372L453.693 432.036L442.479 444.278L439.34 444.4L433.06 444.643L432.691 435.13L443.905 422.888L431.776 411.553Z" fill="#FAFF00" /><path d="M390.5 396.5L406 375L397.5 373L385 391L390.5 396.5Z" fill="#787878" /><path d="M515.5 408L495.5 382L507 383.5L519.5 403.5L515.5 408Z" fill="#787878" /><path d="M510 473L490.5 483L495.5 488.5L512.5 478L510 473Z" fill="#787878" /><path d="M619.2 429.4L649 275L702 203.3L639.5 189.8L692.5 164.6L516.4 108.4L438.7 121.9L463.4 87.1001L374.3 114.2L313.7 170.4L328.9 114.2L268.3 195.6L228.5 318.3L264.4 433.1L257.1 357.6L286.4 253.9L295.4 307L344.3 324.5L522.1 228.5L569.4 269.2L537.7 335.4L550.5 383.6L542.9 494.1L559.9 466.9L567.5 414.6L611.9 404.2L619.2 429.4Z" fill="#009DF6" /></g></svg>