<svg xmlns="http://www.w3.org/2000/svg" width="854" height="852" viewBox="0 0 854 852" fill="none">    <g id="svgBg"><path d="M97.1898 0L0 96.3663V140.78L21.6835 162.412V286.884L0 308.517V813.759L38.5673 852H854V92.6694L789.283 28.1036H655.177L626.823 56.3927H524.558L468.032 0H97.1898Z" fill="#EAC70E" /></g><g id="svgBody"><g clip-path="url(#clip0_209_2766)"><path d="M536.6 528.6L722.6 576.6L737.3 602.7L818 638.1L854 748.2L854.2 852.1H38.7002L121.3 712.1L371.3 573.4L397.9 525.7L513.3 495.9L536.6 528.6Z" fill="#746754" /><path d="M624.1 551.2L592.1 632.1L472.1 707.1L460.1 684.6L404.6 777.6L300.5 642.7L340.3 590.6L371.3 573.4L397.9 525.7L513.3 495.9L536.6 528.6L624.1 551.2Z" fill="#5F5442" /></g><defs><clipPath id="clip0_209_2766"><rect width="854" height="852" fill="white" /></clipPath></defs><g clip-path="url(#clip0_200_2578)"><path d="M29 852.2L119 692.1L202 643.8L221.7 510.1L536 351.1L730 393.9L767 601.6L825 635.7L854 724.1V852.1L29 852.2Z" fill="#626262" /><path d="M401.078 850.135L392.467 849.903L386.88 844.047L387.722 812.686L384.928 809.758L373.447 809.45L370.5 812.224L370.117 826.479L384.469 826.864L384.163 838.268L369.811 837.883L369.658 843.585L363.764 849.132L355.153 848.901L356.378 803.286L365.219 794.964L393.922 795.735L402.304 804.519L401.078 850.135Z" fill="#FAFF00" /><path d="M312.098 847.745L306.358 847.591L307.659 799.124L313.553 793.576L342.256 794.347L353.432 806.059L343.117 815.768L336.133 808.448L321.781 808.062L321.092 833.721L338.314 834.184L338.391 831.333L332.65 831.179L332.88 822.626L335.827 819.852L353.049 820.314L352.436 843.122L346.542 848.67L312.098 847.745Z" fill="#FAFF00" /><path d="M298.819 807.446L274.939 806.804L274.785 812.506L292.925 812.993L295.719 815.922L295.489 824.474L292.542 827.248L274.403 826.761L274.249 832.463L303.87 833.259L303.717 838.961L303.487 847.514L300.617 847.436L265.256 846.487L259.668 840.631L260.817 797.866L266.71 792.318L302.072 793.268L304.866 796.196L304.712 801.898L298.819 807.446Z" fill="#FAFF00" /><path d="M522.704 813.459L496.871 812.765L496.718 818.467L516.811 819.006L519.604 821.935L519.375 830.487L516.428 833.261L496.335 832.722L496.182 838.424L524.886 839.195L527.679 842.123L527.373 853.526L524.503 853.449L487.188 852.447L481.448 852.293L482.749 803.826L488.643 798.279L525.958 799.281L528.751 802.209L528.598 807.911L522.704 813.459Z" fill="#FAFF00" /><path d="M464.379 846.129L465.298 811.917L462.427 811.84L444.746 828.483L439.005 828.329L422.243 810.761L419.372 810.683L418.454 844.895L412.56 850.443L403.949 850.212L405.25 801.745L411.144 796.197L428.366 796.66L439.541 808.372L445.282 808.526L457.07 797.431L474.292 797.893L479.879 803.749L478.577 852.216L469.966 851.985L464.379 846.129Z" fill="#FAFF00" /><path fill-rule="evenodd" clip-rule="evenodd" d="M257.717 806.342L243.748 791.701L210.927 790.82L205.033 796.368L203.732 844.834L242.293 845.87L257.027 832.001L257.717 806.342ZM237.624 805.802L243.212 811.658L242.829 825.913L236.935 831.461L218.466 830.965L219.079 808.157L222.026 805.383L237.624 805.802Z" fill="#FAFF00" /><path d="M531.374 811.531L531.482 807.499L539.817 799.653L543.876 799.762L558.564 815.156L574.057 800.573L578.116 800.682L586.018 808.964L585.91 812.995L570.417 827.579L585.105 842.973L584.997 847.005L576.662 854.85L572.602 854.741L557.914 839.347L542.422 853.931L538.362 853.822L530.244 853.604L530.569 841.508L546.062 826.925L531.374 811.531Z" fill="#FAFF00" /><path d="M221.7 510.1L536 351.1L730 393.9L706 534.1L572.9 686.1L398 716.1L240.2 657.9L221.7 510.1Z" fill="#030303" /><path d="M767 601.6L668 685.1L787.6 613.7L767 601.6Z" fill="#030303" /><path d="M685.5 744.1L650.5 852H674.5L685.5 744.1Z" fill="#030303" /></g><defs><clipPath id="clip0_200_2578"><rect width="854" height="852" fill="white" /></clipPath></defs></g><g id="svgHead"><path d="M634 496.1L602.9 314.9L484 206.1L433.4 191.7L322 213.4L258.7 270.1L221.7 339.4L281.6 465.2L282 616.1L294 660.1L398 716.1L418 670.1L472 604.1L478 666.1L582 592.1L634 496.1Z" fill="#746754" /><path d="M509.2 331.1L523.8 338L536.7 322.8L550.6 345.8L554.6 369.6L572.9 372.2L570.2 314L524.5 297.6L509.2 331.1Z" fill="#E7D8C3" /><path d="M277.5 466.1L253.2 529.8L227.4 542.7L299.2 630.8L362 635.7L503.7 541.5L390.7 457.4L468.5 439.7L500.8 375.3L452.7 344.4L451.8 301.5L301.7 357.4L236.3 345.9L244 373.7L232.5 408.1L255.9 465.2L277.5 466.1Z" fill="#E7D8C3" /><path d="M304.8 480L292.1 456.8L283.9 479L304.8 480Z" fill="#584B4B" /><path d="M316.9 480.3L335 448L353.2 473.3L316.9 480.3Z" fill="#584B4B" /><path d="M392.9 548.4L413.6 551.1L397.1 524.1L253 529.9L366.3 544.9L377.9 577.2L392.9 548.4Z" fill="white" /><path d="M251.2 396.7L254.4 386.4L282.2 382.1L295.3 395.1L264.8 415.8L251.2 396.7Z" fill="white" /><path d="M333.3 391.8L346.2 376.4L384.3 374.8L406.8 388L382.3 408.1L333.3 391.8Z" fill="white" /><path d="M295.5 337L237 326.5L191 337L248 251.5L206 257.5L237 229.5L289 215.5L283 197.5L252 171.5L376.5 183.5L336.5 154.5L475 183.5L517.5 234L480.5 274L295.5 337Z" fill="#BD2200" /></g></svg>