<svg xmlns="http://www.w3.org/2000/svg" width="854" height="852" viewBox="0 0 854 852" fill="none">    <g id="svgBg"><path d="M97.1898 0L0 96.3663V140.78L21.6835 162.412V286.884L0 308.517V813.759L38.5673 852H854V92.6694L789.283 28.1036H655.177L626.823 56.3927H524.558L468.032 0H97.1898Z" fill="#5E7D99" /></g><g id="svgBody"><path d="M179.1 852L246 737.2L450.8 614.4L429.1 563.5L563.3 412.1L578 584.6L784.6 748.3L814.1 852.1L179.1 852Z" fill="#B3D19C" /><path d="M445.4 601.6L428.5 560.5L565 412L573 527.5L554 580L469.3 640.1L445.3 624.1L445.4 601.6Z" fill="#97B481" /><g clip-path="url(#clip0_178_1993)"><path d="M164.2 857.5L265.3 699.4L317.3 671.4L325.1 640.1L370.7 559.7L437.9 612.6L474.5 627.5L551.5 574L579 488.4L666.2 521.6L677.3 655.6L790.7 748.1L819.5 857.5H164.2Z" fill="#6F6F6F" /><path d="M541.3 714.1L677.3 655.6L697.5 672.1L541.3 714.1Z" fill="#4B4B4B" /><path d="M662.7 851.7L686 790.1L674.3 851.7H662.7Z" fill="#4B4B4B" /><path d="M347.4 600.7L370.7 559.7L437.9 612.6L479.5 623.5L550 574L573.5 487L666.2 521.6L629.2 584.6L398.7 729.4L347.4 600.7Z" fill="#4B4B4B" /><path d="M320.235 867L342.221 808.04L355.347 819.4L343.576 851.961H400.46L405.857 837.25L357.746 836.232L363.858 821.011L411.779 821.463L417.791 805.801L315 805.838L336.827 790H426.511L439 802.668L428.155 826.775L418.489 830.25L424.231 836.55L414.419 860.711L403.371 867H320.235Z" fill="#EBFF00" /></g><defs><clipPath id="clip0_178_1993"><rect width="854" height="852" fill="white" /></clipPath></defs></g><g id="svgHead"><path d="M581.3 490.4L456.6 623.9L407.9 625L324.5 500.5V452L303.7 396L299.6 298.6L371.3 199.7L474.6 166.2L597 212.3L635.2 314.7L629.2 383.4L655.2 389.1L666.2 421.2L608.1 493.4L581.3 490.4Z" fill="#B3D19C" /><path d="M368 542.097L371.879 532.226L410.115 534.419L439.484 524L455 532.226L448.35 548.129L410.115 558L375.758 552.516L368 542.097Z" fill="white" /><path d="M433.1 423.1L477.9 402.8L514.4 434.7L435.9 443.4L433.1 423.1Z" fill="white" /><path d="M420 428.7L479 401.1L514.4 412.1H493.1L514.4 434.7L479 414.1L420 428.7Z" fill="black" /><path d="M371.3 444.9L321.3 443.5L332.7 419.2L368.8 430.3L371.3 444.9Z" fill="white" /><path d="M378 432.1L334.6 422.5L321.3 443.5L327.4 422.1L313.7 423.1L330.3 412.1L378 432.1Z" fill="black" /><path d="M373.5 411.5L366.7 398.9L303.7 386.2L373.5 411.5Z" fill="black" /><path d="M410.3 410.3L512.4 379.7L417.9 396.7L410.3 410.3Z" fill="black" /><path d="M310 356.5L291 335L300 316.5L299 299L300 293L397.5 288.5L518.5 324.5L425.5 308.5L402 307.5L400.5 318.5L384 335L390 318.5L379.5 305L353.5 308.5L334.5 305L320 318.5L317.5 311L308 332L320 356.5L295.5 377L310 356.5Z" fill="#574D40" /><path d="M620 399L630 382.5L654 389L658.5 400L660 387.5L647.5 378L630 372.5L620 358.5L611.5 372.5L595 385.5L601.5 406V391.5L620 378C618.167 381.333 613.9 388.7 611.5 391.5C609.1 394.3 610.5 407.333 611.5 413.5L597 441.5L620 418V399Z" fill="#574D40" /><path d="M629.2 383.4L571.6 337.7L414 299H299.6L300.3 316.6L187.5 289.7L199.9 264.1L289.5 261.3L312.9 179.2L405.5 130.1H481.8L484.3 121.7H513.1L516.9 131.1L611.2 171.7L648 235.8V376.5L629.2 383.4Z" fill="#BD2200" /><path d="M335.845 226.879L336.117 222.253L345.823 213.54L350.404 213.81L366.418 232.012L384.459 215.817L389.04 216.086L397.655 225.879L397.382 230.505L379.341 246.7L395.356 264.902L395.083 269.529L385.377 278.242L380.797 277.972L364.782 259.77L346.741 275.965L342.161 275.695L333 275.155L333.818 261.276L351.859 245.081L335.845 226.879Z" fill="white" /><path d="M571.6 337.7L424.6 274.1L289.5 261.3L199.9 264.1L187.5 289.7L300.3 316.6L299.6 299H414L571.6 337.7Z" fill="#860000" /><path d="M481.8 130.1L516.9 131.1L513.1 121.7H484.3L481.8 130.1Z" fill="#860000" /></g></svg>