<svg xmlns="http://www.w3.org/2000/svg" width="854" height="852" viewBox="0 0 854 852" fill="none">    <g id="svgBg"><path d="M97.1898 0L0 96.3663V140.78L21.6835 162.412V286.884L0 308.517V813.759L38.5673 852H854V92.6694L789.283 28.1036H655.177L626.823 56.3927H524.558L468.032 0H97.1898Z" fill="#94A37C" /></g><g id="svgBody"><path d="M521.7 466.2L552.1 581.4L644.2 615.4L796.2 758.3L821.1 852.1H130L238.9 712.4L392.3 613.3L389.9 555.8L521.7 466.2Z" fill="#85A6BE" /><path d="M391 612L421.9 635.601L482.9 641.801L530 571L520.8 466.5L391 556.5V612Z" fill="#6C8CA2" /><path d="M283.5 824.5L259.5 851H275.5L283.5 824.5Z" fill="#6C8CA2" /><path d="M653.5 824.5V851H666.5L653.5 824.5Z" fill="#6C8CA2" /><g clip-path="url(#clip0_80_205)"><path d="M534.7 517.3L588 526.1L601.5 579.5L732.1 654.1L744 688.1L832.5 776.6V852.1H112.5L161.7 759.4L231.9 720.6L250.5 684.7L289.5 659.1L276 614.6L303.5 561.5L392.5 550.5V579.5L413 600.5L486 579.5L534.7 517.3Z" fill="#AFC5D2" /><path d="M744 688.1L726 743.6L576 812.3L281.5 806.6L231.9 720.6L227.1 723.3L276 812.3L578 819.1L732.7 747.4L748.9 692.9L744 688.1Z" fill="#708997" /><path d="M289.5 659.1L316.4 718.7L496.7 742.7L601.5 579.5L605.8 582L500 753.6L313.6 725.4L285.1 662L289.5 659.1Z" fill="#708997" /><path d="M408.6 599.2L359.3 659.099L371.3 730.699L351.3 811.399L359.3 851.999L367.3 852.099L357.3 811.399L379.3 730.699L367.3 659.099L418 600.5L408.6 599.2Z" fill="#708997" /></g><defs><clipPath id="clip0_80_205"><rect width="854" height="852" fill="white" /></clipPath></defs></g><g id="svgHead"><path d="M263.9 432.7L250 288.8L342.1 181.1L486.1 171L589.6 261.5L598.4 368.7L580.9 410.7L611.4 403.8L627.4 458.6L558.5 519.6L534.2 516.9L490.6 583.3L421.4 635.2L366.4 629.2L302.6 562.6L286.5 462.4L263.9 432.7Z" fill="#85A6BE" /><path d="M339.9 541.9L336.7 550.8L439.2 558V534.7L339.9 541.9Z" fill="white" /><path d="M262 417L335.234 420.128L495.5 394.5L457.788 465L339.538 454.761L286 462.5L264 433L262 417Z" fill="black" /><path d="M590.1 261.9L549.1 226.1L520 266.1L525.5 324.6L558 386.1L562 458L598.9 369.1L590.1 261.9Z" fill="black" fill-opacity="0.1" /><path d="M549.1 226.1L556.3 186.1L509 138.3L344.7 135L250.5 226.1L239.6 275.3L314 389L296.4 317.8L304.8 308.1L323 318.3L392.7 298.1L399 320.6L478.3 282.1L493.7 306L549.1 226.1Z" fill="#5A5E66" /><path d="M620.7 288.1L618 250.1L590 219.1L549.1 226.1L590.1 261.9L595.4 326.1L623.6 354.9L605.8 311.6L620.7 288.1Z" fill="#5A5E66" /></g></svg>