<svg xmlns="http://www.w3.org/2000/svg" width="854" height="852" viewBox="0 0 854 852" fill="none">    <g id="svgBg"><path d="M97.1898 0L0 96.3663V140.78L21.6835 162.412V286.884L0 308.517V813.759L38.5673 852H854V92.6694L789.283 28.1036H655.177L626.823 56.3927H524.558L468.032 0H97.1898Z" fill="#613F72" /></g><g id="svgBody"><path d="M179.1 852L246 737.2L450.8 614.4L429.1 563.5L563.3 412.1L578 584.6L784.6 748.3L814.1 852.1L179.1 852Z" fill="#F0DDD6" /><path d="M445.4 601.6L428.5 560.5L565 412L573 527.5L554 580L469.3 640.1L445.3 624.1L445.4 601.6Z" fill="#D6C2BB" /><path d="M578 584.6L526.5 625L434 624.4L452.4 657L364 852.1H578L525 653.6L578 584.6Z" fill="#343434" /><path d="M525 653.6L578 584.6L746.8 718.3L715.5 773.6L700.5 852L578 852.1L525 653.6Z" fill="#4B4B4B" /><path d="M434 624.4L452.4 657L364 852.1H244.5L246 737.2L434 624.4Z" fill="#4B4B4B" /><path d="M246 737.2L244.5 852.1L179.1 852L246 737.2Z" fill="white" /><path d="M746.8 718.3L715.5 773.6L700.5 852L814.1 852.1L784.6 748.3L746.8 718.3Z" fill="white" /><path d="M421.3 632.1L437.7 660.7L429.7 669.1L401 644.1L421.3 632.1Z" fill="#EBFF00" /><path d="M384.8 654L420 679.1L408 693.1L359 669.4L384.8 654Z" fill="#EBFF00" /><path d="M597.4 600L551 654L555.3 666.1L624 621L597.4 600Z" fill="#EBFF00" /><path d="M648 640.1L564 682.1L570.7 698.1L680.8 666.1L648 640.1Z" fill="#EBFF00" /><path d="M675 771.8L662.3 754.1L638.2 771.4L620.9 747.3L603.2 759.9L620.5 784.1L599.6 799L612.3 816.7L633.1 801.8L648 822.6L665.7 810L650.8 789.1L675 771.8Z" fill="#EBFF00" /></g><g id="svgHead"><path d="M581.3 490.4L456.6 623.9L407.9 625L324.5 500.5V452L303.7 396L299.6 298.6L371.3 199.7L474.6 166.2L597 212.3L635.2 314.7L629.2 383.4L655.2 389.1L666.2 421.2L608.1 493.4L581.3 490.4Z" fill="#F0DDD6" /><path d="M368 542.097L371.879 532.226L410.115 534.419L439.484 524L455 532.226L448.35 548.129L410.115 558L375.758 552.516L368 542.097Z" fill="white" /><path d="M433.1 423.1L477.9 402.8L514.4 434.7L435.9 443.4L433.1 423.1Z" fill="white" /><path d="M420 428.7L479 401.1L514.4 412.1H493.1L514.4 434.7L479 414.1L420 428.7Z" fill="black" /><path d="M371.3 444.9L321.3 443.5L332.7 419.2L368.8 430.3L371.3 444.9Z" fill="white" /><path d="M378 432.1L334.6 422.5L321.3 443.5L327.4 422.1L313.7 423.1L330.3 412.1L378 432.1Z" fill="black" /><path d="M373.5 411.5L366.7 398.9L303.7 386.2L373.5 411.5Z" fill="black" /><path d="M410.3 410.3L512.4 379.7L417.9 396.7L410.3 410.3Z" fill="black" /><path d="M408.5 625L324.5 500.5L324.3 452L303.7 396.6L312.1 305.7L371.3 279.6L360.3 305.7L428.1 265.5L507.8 292.6L597 212.3L579 151.1L484.7 122.1L325.2 171.2L276 231.4L172.7 255.5L277.5 311.1L220.5 328.4L128 292.1L201.8 400.6L266 419.4L207.8 549.5L290.9 540.9L213.8 632.7L257.9 622.2L344.7 554.5L317.7 644.8L257.9 696.9L306.6 692.9L408.5 625Z" fill="#FEADDE" /><path d="M598.3 492.3L585.2 509.2L570.7 502.1L581.3 490.4L598.3 492.3Z" fill="#FEADDE" /><path d="M645.2 229.9L597 212.3L603.5 229.8L527.5 297.9L560.2 330.5L619.6 273.2L620.4 275.3L626.2 290.6L572.5 342.8L581.3 439.1L629.2 383.4L657.3 310.2L645.2 229.9Z" fill="#FEADDE" /><path d="M619.4 272.5L620.4 275.3L619.4 272.5Z" fill="#FEADDE" /></g></svg>