<svg xmlns="http://www.w3.org/2000/svg" width="854" height="852" viewBox="0 0 854 852" fill="none">    <g id="svgBg"><path d="M97.1898 0L0 96.3663V140.78L21.6835 162.412V286.884L0 308.517V813.759L38.5673 852H854V92.6694L789.283 28.1036H655.177L626.823 56.3927H524.558L468.032 0H97.1898Z" fill="#863030" /></g><g id="svgBody"><g clip-path="url(#clip0_216_2949)"><path d="M595 512H589.5V532.5H595V512Z" fill="#3E3E3E" /><path d="M595 536.1H589.5V556.1H595V536.1Z" fill="#3E3E3E" /><path d="M778.4 623C766.8 606.9 748.9 606.4 729.9 605.8C720 605.5 709.8 605.2 699.4 602.8C683.6 599.2 677.5 587.5 670.9 575.1C666 565.7 660.9 556 651.7 550.4C631.7 538.1 596.5 537.6 595 537.6V551.1C595.3 551.1 628.6 551.6 646 562.3C652.4 566.2 656.2 573.6 660.7 582.1C667.5 595.1 676 611.4 697 616.1C708.4 618.7 719.6 619 729.5 619.3C746.4 619.8 761 620.3 769.1 631.6C781.1 648.2 767.4 679.9 730.6 718.8L739.7 727.6C783 682.1 795.3 646.5 778.4 623Z" fill="#4B4B4B" /><path d="M724 660.7C723.2 648.3 716.7 637.1 704.8 627.4C674.2 602.7 676.3 586.7 681.5 548C684.6 524.9 673.9 514.2 667.2 509.9C653.9 501.2 634.4 503 625.9 510.5C618.5 516.9 601 516.6 595.1 516V530.2C596.1 530.3 620.7 532 633.1 521.2C637.1 517.7 651.3 515.1 661.3 521.6C668.4 526.2 671.3 534.4 669.7 546C664.3 586.6 661.3 608.9 697.9 638.5C706.8 645.7 711.6 653.5 712.2 661.7C713 674.1 704.1 684.4 699 688.7L708.1 697.4C714.3 691.7 725.2 679.2 724 660.7Z" fill="#4B4B4B" /><path d="M447.5 482L442 597.8L269 705.1L174.9 852.1H776.9L759.2 746.2L647.8 639.8L557.5 597.8L551.5 475L522.5 462.5H471.5L447.5 482Z" fill="white" /><path d="M442 597.8L447.5 482L471.5 462.5H522.5L551.5 475V515.5V592L412.5 639.5L381.5 635.5L442 597.8Z" fill="#E9E9E9" /><path d="M546 508.1L568.5 481L589.5 508.1V564.4L567.8 597.7L546 570.7V508.1Z" fill="#A3A3A3" /><path d="M549.9 481.1H568.5L546 508.2V570.8L567.8 597.8H546L528.8 572.9V507.6L549.9 481.1Z" fill="#888888" /><path d="M572.4 514.1H562.3V563.7H572.4V514.1Z" fill="white" /></g><defs><clipPath id="clip0_216_2949"><rect width="854" height="852" fill="white" /></clipPath></defs><path d="M344.195 658.256L352.571 674.439L374.87 673.431L385.542 651.832L372.36 639.732L355.02 639.928L344.195 658.256Z" fill="black" /><path d="M316.145 686.48L363.782 661.806L362.827 655.539L314.023 678.559L316.145 686.48Z" fill="#D8D8D8" /><path d="M340.705 780.424L335.473 799.53L353.98 815.276L378.158 801.962L376.69 782.582L362.932 773.742L340.705 780.424Z" fill="black" /><path d="M261.025 792.153L355.79 794.602L361.792 788.024L275.637 784.095L261.025 792.153Z" fill="#D8D8D8" /><path d="M569.698 652.568L562.03 669.099L539.61 669.034L528.112 647.938L540.661 635.258L557.994 634.704L569.698 652.568Z" fill="black" /><path d="M616.926 686.213L550.284 656.962L550.869 650.638L622.284 680.54L616.926 686.213Z" fill="#D8D8D8" /><path d="M563.336 771.11L569.486 789.994L551.579 806.503L526.946 794.269L527.575 774.843L540.84 765.395L563.336 771.11Z" fill="black" /><path d="M667.549 794.47L544.723 787.565L544.723 782L655.759 785.295L667.549 794.47Z" fill="#D8D8D8" /><path d="M604.462 695.382L599.005 711.702L603.678 762.91L705.424 832.605L785.608 802.272L789.367 791.244L711.306 815.158L614.938 749.522L604.462 695.382Z" fill="#363636" /><path d="M197.882 810.734L206.94 821.351L306.522 767.224L323.394 713.525L311.382 668.707L298.795 658.829L311.766 707.221L295.623 752.442L197.882 810.734Z" fill="#363636" /><path d="M604.462 695.382L639.114 657.985L714.414 668.086L764.954 716.998L789.367 791.244L711.306 815.158L614.937 749.522L604.462 695.382Z" fill="#626262" /><path d="M661.645 735.174L659.001 731.387L661.212 718.575L664.962 715.957L688.734 720.305L692.845 696.49L696.595 693.872L709.384 696.211L712.029 699.999L707.918 723.813L731.69 728.161L734.335 731.949L732.123 744.761L728.373 747.379L704.601 743.031L700.491 766.845L696.74 769.464L689.24 774.7L681.307 763.337L685.417 739.522L661.645 735.174Z" fill="#FAFF00" /><path d="M298.796 658.829L311.767 707.221L295.624 752.442L197.883 810.734L197.883 767L226.468 708.032L298.796 658.829Z" fill="#626262" /><path d="M541.5 651.5L545.5 646H553.5L557 652.5L548.5 659.5L541.5 651.5Z" fill="#FAFF00" /><path d="M357.69 653.317L363.106 649.205L370.766 651.513L372.242 658.746L362.084 662.997L357.69 653.317Z" fill="#FAFF00" /><path d="M364.427 796.131L359.011 800.244L351.351 797.936L349.875 790.702L360.033 786.452L364.427 796.131Z" fill="#FAFF00" /><path d="M554.111 782.411L552.075 788.899L544.493 791.452L539.102 786.408L544.925 777.062L554.111 782.411Z" fill="#FAFF00" /></g><g id="svgHead"><path d="M562.3 481.1L587.3 481.2L624.4 412.8L607.6 385.4L624.4 332.7L606.8 217.5L483.1 150.1L341.2 165.9L265.2 277L268.1 416L288.7 452.1L299.4 531.1L364.5 623.3L415.9 625.5L546 522.2L562.3 481.1Z" fill="white" /><path d="M596.6 211.9L472.6 227.3L428 305.4L299.2 310.8L289.7 241.3L282.3 252.1L290.664 309.5L294.5 317L430.9 312.2L435.16 305.4L479.2 235.1L606.8 217.5L596.6 211.9Z" fill="#DCDCDC" /><path d="M430.9 312.2L490.5 371.5L524 539.5L530.5 534.5L497.5 367L435.16 305.4L430.9 312.2Z" fill="#DCDCDC" /><path d="M267.097 384L294.5 317L290.664 309.5L267.097 367L267.097 384Z" fill="#DCDCDC" /><path d="M597 412.8L574.6 460.4H583.9L603.3 416.1L597 412.8Z" fill="#979797" /><path d="M326.5 538L323 527H347V538H326.5Z" fill="#3D3D3D" /><path d="M356.5 538V527H379.5V538H356.5Z" fill="#3D3D3D" /><path d="M387 538V527H419.5L412 538H387Z" fill="#3D3D3D" /><path d="M442.408 429.512L409.045 441.041L381.985 418.84L388.388 385.119L421.85 373.6L448.811 395.792L442.408 429.512Z" fill="#787878" /><path d="M389.421 414.984L393.612 393.903L417.179 386.689L436.206 401.023L432.015 422.103L408.448 429.317L389.421 414.984Z" fill="white" /><path d="M325.206 400.518L316.255 428.747L292.492 432.02L277.68 407.064L286.731 378.845L310.494 375.572L325.206 400.518Z" fill="#787878" /><path d="M284.125 407.931L290.055 390.449L302.678 388.939L312.755 404.257L306.726 421.73L294.114 423.14L284.125 407.931Z" fill="white" /><path d="M555.3 189.4L562 184.1L582.7 194.7V204.3L555.3 189.4Z" fill="black" /><path d="M542 182.1L545.3 175.4L525.3 163.4L518.3 169.3L542 182.1Z" fill="black" /><path d="M528.8 165.3L540.2 155.9L584.2 150.6L631.6 183L700.6 477L686 522.2L682.8 520.8L689.9 475.5L620.9 192.5L579 165.3L547.8 169L542 173.4L528.8 165.3Z" fill="#FF0000" /><path d="M567.5 186.8L576.7 179.1L625.3 168.3L662 186.8L721.2 406.3L671.9 487.2L667.2 484.3L709.9 401.9L651.3 197.1L624.7 182.3L582.2 190.7L579.3 193L567.5 186.8Z" fill="#FF0000" /><path d="M394.7 159.8L325.8 151.5L278.5 180.9L217.8 444.6L238.4 502.6H242.4L228.4 443.3L289.1 189.5L310.05 177.2L331 164.9L350.1 164.9L394.7 159.8Z" fill="#FF0000" /><path d="M335.7 174L292.2 168.4L255.5 185.1L197.1 380.6L246.4 453.9L251.1 451.2L208.4 376.6L266.2 194.4L292.9 181.1L328.1 185.1L335.7 174Z" fill="#FF0000" /></g></svg>