<svg xmlns="http://www.w3.org/2000/svg" width="854" height="852" viewBox="0 0 854 852" fill="none">    <g id="svgBg"><path d="M97.1898 0L0 96.3663V140.78L21.6835 162.412V286.884L0 308.517V813.759L38.5673 852H854V92.6694L789.283 28.1036H655.177L626.823 56.3927H524.558L468.032 0H97.1898Z" fill="#EAC70E" /></g><g id="svgBody"><g clip-path="url(#clip0_209_2766)"><path d="M536.6 528.6L722.6 576.6L737.3 602.7L818 638.1L854 748.2L854.2 852.1H38.7002L121.3 712.1L371.3 573.4L397.9 525.7L513.3 495.9L536.6 528.6Z" fill="#746754" /><path d="M624.1 551.2L592.1 632.1L472.1 707.1L460.1 684.6L404.6 777.6L300.5 642.7L340.3 590.6L371.3 573.4L397.9 525.7L513.3 495.9L536.6 528.6L624.1 551.2Z" fill="#5F5442" /></g><defs><clipPath id="clip0_209_2766"><rect width="854" height="852" fill="white" /></clipPath></defs><g clip-path="url(#clip0_200_2590)"><path d="M398 526L231.9 566.3L43.0996 698.1L85.9996 726.6L43.0996 779.1L148.8 853L254.6 853.1L323 611L369.5 575L398 526Z" fill="#4B4B4B" /><path d="M514 498.5L538 531.5L611 548.5L713 468.5L514 498.5Z" fill="#4B4B4B" /><path d="M320.5 611.5L359.5 650H495L616 561.5L701.7 589.5L631.2 716.1L602.7 859.5L247.8 861.1L320.5 611.5Z" fill="#727272" /><path d="M713 466.9L598.5 542.5L561 683L579 853.1H870.3V743.5L829 636L733.5 571.8L713 466.9Z" fill="#626262" /><path d="M32 853.1L70.2 798L148.8 853L32 853.1Z" fill="#626262" /><path d="M731 571L628.6 643.5L590 716.2L640.9 647.7L739.7 576.5L731 571Z" fill="#4B4B4B" /><path d="M841.774 699.068L678.735 740.579L713.096 860.811L867.918 820.327L841.774 699.068Z" fill="#4B4B4B" /><path d="M87.5 810.1L178.1 677.4L295.7 633.3L294.3 641.1L179.4 685L93.3 814.2L87.5 810.1Z" fill="#00FF38" /><path d="M132.6 841.7L179.1 782.5L166.5 743.1L191.9 705.3L289 669.4L287 679.2L196 712.5L190.5 783.4L139.3 846.4L132.6 841.7Z" fill="#00FF38" /><path fill-rule="evenodd" clip-rule="evenodd" d="M749.585 751.049L739.501 765.53L744.998 796.234L759.479 806.317L761.578 818.041L772.743 816.042L770.644 804.318L779.018 802.819L781.117 814.543L792.003 812.594L789.904 800.87L797.441 799.521L799.54 811.245L810.705 809.246L808.606 797.522L818.689 783.042L813.192 752.337L798.712 742.254L749.585 751.049ZM767.046 784.221L750.474 778.545L749.874 775.196L774.758 774.198L772.071 783.321L767.046 784.221ZM792.688 779.63L805.742 768.651L805.142 765.302L782.295 772.849L787.837 780.499L792.688 779.63Z" fill="white" /></g><defs><clipPath id="clip0_200_2590"><rect width="854" height="852" fill="white" /></clipPath></defs></g><g id="svgHead"><path d="M634 496.1L602.9 314.9L484 206.1L433.4 191.7L322 213.4L258.7 270.1L221.7 339.4L281.6 465.2L282 616.1L294 660.1L398 716.1L418 670.1L472 604.1L478 666.1L582 592.1L634 496.1Z" fill="#746754" /><path d="M509.2 331.1L523.8 338L536.7 322.8L550.6 345.8L554.6 369.6L572.9 372.2L570.2 314L524.5 297.6L509.2 331.1Z" fill="#E7D8C3" /><path d="M277.5 466.1L253.2 529.8L227.4 542.7L299.2 630.8L362 635.7L503.7 541.5L390.7 457.4L468.5 439.7L500.8 375.3L452.7 344.4L451.8 301.5L301.7 357.4L236.3 345.9L244 373.7L232.5 408.1L255.9 465.2L277.5 466.1Z" fill="#E7D8C3" /><path d="M304.8 480L292.1 456.8L283.9 479L304.8 480Z" fill="#584B4B" /><path d="M316.9 480.3L335 448L353.2 473.3L316.9 480.3Z" fill="#584B4B" /><path d="M279.199 567.2L279.299 542L363.199 527.1L392.599 550.6L362.599 579.6L309.499 587.2L279.199 567.2Z" fill="#530000" /><path d="M279.301 542L296.101 557.3L295.401 539L279.301 542Z" fill="white" /><path d="M363.2 527.1L355.1 550L345.1 530.5L363.2 527.1Z" fill="white" /><path d="M309.501 587.2L304.301 570.8L324.401 585.1L309.501 587.2Z" fill="white" /><path d="M362.6 579.6L363 559.3L344.6 582.1L362.6 579.6Z" fill="white" /><path d="M352 371.5L361 342L364 370L384 385L372.5 419L384 446L377 468L374.5 451L361 420L366 392V387L352 371.5Z" fill="black" fill-opacity="0.2" /><path d="M326 406L415 373L384 412L326 406Z" fill="white" /><path d="M291 407L245 395L250 419L291 407Z" fill="white" /><path d="M354.8 300.1L238.7 307.4L221.7 338.7L89.5996 311.5L102 284L206.3 272.7L226.9 185.8L331 126.6L420.1 119.5L422.2 110.5L455.8 107.9L461.1 117.2L556.3 149.8L604.5 212.6L624.1 338.7L612 367.9L571.5 343.773L570 314L524.5 297.5L514 320.219L354.8 300.1Z" fill="#626262" /><path d="M263.791 223.498L264.154 217.332L277.09 205.72L283.195 206.079L304.538 230.338L328.583 208.754L334.687 209.114L346.17 222.165L345.806 228.33L321.762 249.915L343.105 274.174L342.741 280.339L329.806 291.952L323.701 291.592L302.358 267.333L278.313 288.917L272.209 288.558L260 287.838L261.09 269.341L285.134 247.757L263.791 223.498Z" fill="#FAFF00" /><path d="M365.1 273.3L206.3 272.7L102 284L89.5996 311.5L221.7 338.7L238.7 307.4L354.8 300.1L514 320.219L515.5 316.922L365.1 273.3Z" fill="#3C3C3C" /><path d="M420.1 119.5L461.1 117.2L455.8 107.9L422.2 110.5L420.1 119.5Z" fill="#3C3C3C" /></g></svg>