<svg xmlns="http://www.w3.org/2000/svg" width="854" height="852" viewBox="0 0 854 852" fill="none">    <g id="svgBg"><path d="M97.1898 0L0 96.3663V140.78L21.6835 162.412V286.884L0 308.517V813.759L38.5673 852H854V92.6694L789.283 28.1036H655.177L626.823 56.3927H524.558L468.032 0H97.1898Z" fill="#94A37C" /></g><g id="svgBody"><path d="M521.7 466.2L552.1 581.4L644.2 615.4L796.2 758.3L821.1 852.1H130L238.9 712.4L392.3 613.3L389.9 555.8L521.7 466.2Z" fill="#B3D19C" /><path d="M391 612L421.9 635.601L482.9 641.801L530 571L520.8 466.5L391 556.5V612Z" fill="#97B481" /><path d="M283.5 824.5L259.5 851H275.5L283.5 824.5Z" fill="#97B481" /><path d="M653.5 824.5V851H666.5L653.5 824.5Z" fill="#97B481" /><path d="M555.3 573.5L667 619.5L806.8 762.3L827.7 852.1L123 852L241 702.8L380.2 643.8L362.1 687.5L465.2 695.7L555.3 573.5Z" fill="#3B3B3B" /><path d="M753.3 707.7L460.8 782L570 579.5L553.7 555.2L425.4 683V725.7L362.5 852H430.6L806.8 762.3L753.3 707.7Z" fill="#9800F6" /><path d="M361.4 623.7L275 675.5L294.1 724.7L263.1 793.7L203.7 749.9L170.4 792L237 852H297L380.2 643.8L361.4 623.7Z" fill="#9800F6" /><path d="M241 702.8L259.9 717.1L250.5 731.1L229.9 716.9L241 702.8Z" fill="#9800F6" /><path d="M667 619.5L627.9 650.1L638 664.1L682.8 635.6L667 619.5Z" fill="#9800F6" /></g><g id="svgHead"><path d="M263.9 432.7L250 288.8L342.1 181.1L486.1 171L589.6 261.5L598.4 368.7L580.9 410.7L611.4 403.8L627.4 458.6L558.5 519.6L534.2 516.9L490.6 583.3L421.4 635.2L366.4 629.2L302.6 562.6L286.5 462.4L263.9 432.7Z" fill="#B3D19C" /><path d="M339.9 541.9L336.7 550.8L439.2 558V534.7L339.9 541.9Z" fill="white" /><path d="M343.3 437.5L308.3 427.8L267.8 426.2L290.8 446.7L343.3 437.5Z" fill="white" /><path d="M399.6 435.2L460.2 447.4L500.4 426.3L434.1 425.3L399.6 435.2Z" fill="white" /><path d="M290.8 446.7L297.3 446.6L278.6 429.3L310.7 430.6L343.3 440.6L343.5 435.6L308.5 425.9L267.8 426.2L290.8 446.7Z" fill="#0D0D0D" /><path d="M399.6 435.2V439.5L438.8 429L484.4 430L457.9 447.2L460.2 447.4L500.4 426.3L434.1 425.3L399.6 435.2Z" fill="#0D0D0D" /><path d="M488.1 388.4L390.2 403.4L393.4 421.9L409.5 407.4L488.1 388.4Z" fill="black" /><path d="M349.6 422.3V404.6L273.9 397.9L330.7 408.4L349.6 422.3Z" fill="black" /><path d="M519 199.9L447 261.9L544 218.9L519 199.9Z" fill="black" fill-opacity="0.3" /><path d="M560 235.9L503 276.9L581 253.9L560 235.9Z" fill="black" fill-opacity="0.3" /><path d="M312.1 323.4L339.6 281.9L369.6 266.9L375.6 244.5L455.3 183.9L496.7 181.2L599.1 271.4L659.1 280.4L708.6 244.5L686.1 241.5L663.6 229.5L698.1 202.5L675.6 201L618.6 172.5L645.6 127.5L623.1 111L624.6 132L570.6 144L572.1 129H509.1L494.1 139.5L501.6 99L444.6 133.5L363 138.9L343 183.9L263 210.9L257 274.9L312.1 323.4Z" fill="white" /></g></svg>