<svg width="1041" height="605" viewBox="0 0 1041 605" fill="none" xmlns="http://www.w3.org/2000/svg">
<g clip-path="url(#clip0_2898_179)">
<path d="M22.1052 403.272C22.3387 383.773 36.4505 373.259 51.3903 362.044C59.1818 356.211 67.2146 350.208 74.222 342.403C84.8939 330.583 83.1901 317.729 81.493 304.029C80.1235 293.703 78.7454 283.022 82.9802 273.321C92.1151 252.133 120.139 231.847 121.345 231L128.971 241.856C128.729 242.025 102.234 261.238 94.2858 279.671C91.3423 286.422 92.4666 294.52 93.6494 303.897C95.5246 318.192 97.8969 336.101 83.6648 351.742C75.9662 360.273 67.1293 366.841 59.3377 372.674C46.0302 382.623 34.5721 391.272 34.4417 404.934C34.1689 425.061 63.0922 442.814 114.658 453.308L112.311 465.525C51.7902 453.395 21.7897 431.716 22.1052 403.272Z" fill="#FAFF00"/>
<path d="M50.3597 453.863C47.9289 442.076 51.2071 429.922 59.9872 417.76C82.6271 386.712 76.523 372.321 61.6443 337.543C52.7669 316.783 60.153 304 65.395 298.237C75.7587 286.643 94.6967 283.235 104.679 288.02C113.335 292.065 129.839 287.219 135.274 285.119L138.926 298.378C138.004 298.732 115.134 306.738 100.609 299.89C95.9188 297.665 81.7966 298.943 73.9937 307.622C68.4498 313.769 67.8109 322.183 72.3098 332.596C87.8665 369.096 96.4434 389.135 69.379 426.324C62.7983 435.369 60.2564 443.904 61.7966 451.717C64.2274 463.504 75.3084 470.799 81.2461 473.484L74.8617 483.981C67.5217 480.277 53.9802 471.45 50.3597 453.863Z" fill="#FAFF00"/>
<path d="M86.9479 386.396C82.9671 395.558 83.5031 405.955 88.4517 417.262C101.267 446.163 93.8895 456.835 75.9602 482.603C65.2611 497.985 68.9846 509.567 72.1976 515.102C78.515 526.208 93.1216 532.08 101.954 529.838C109.597 527.978 122.003 534.619 126.001 537.214L131.216 527.058C130.538 526.62 113.568 516.371 100.735 519.542C96.5883 520.576 85.4778 517.221 80.713 508.901C77.3244 503.004 78.2613 496.075 83.6655 488.366C102.435 461.312 112.769 446.465 97.4623 411.857C93.7408 403.44 93.1725 396.099 95.7543 390.014C99.7352 380.852 109.883 376.753 115.109 375.551L111.795 365.987C105.268 367.788 92.883 372.725 86.9479 386.396Z" fill="white"/>
<path d="M100.338 326.767L104.601 325.593L108.977 341.482L104.714 342.656L100.338 326.767Z" fill="#3E3E3E"/>
<path d="M110.564 363.9L114.827 362.726L119.203 378.615L114.94 379.789L110.564 363.9Z" fill="#3E3E3E"/>
<path d="M105.482 345.446L109.745 344.272L114.014 359.774L109.751 360.948L105.482 345.446Z" fill="#3E3E3E"/>
<path d="M133.941 300.418L127.167 298.531L114.26 297.082L100.011 308.928L120.717 384.111L139.714 387.385L154.433 374.825L133.941 300.418Z" fill="#7E7E7E"/>
<path d="M128.696 293.19L114.279 297.161L134.045 300.806L154.324 374.438L139.733 387.463L156.63 382.809L168.189 372.705L146.95 295.584L128.696 293.19Z" fill="#656565"/>
<path d="M115.815 313.331L122.791 311.41L139.014 370.316L132.039 372.237L115.815 313.331Z" fill="black"/>
<path d="M126.702 352.86L133.678 350.939L139.014 370.316L132.039 372.237L126.702 352.86Z" fill="#C72121"/>
<path d="M538.5 612.5L392.8 400.735L341.185 388.933L302.633 319.5L264.002 376.335L277.365 424.855L169.962 379.137L150.056 358.936L136.654 328.439L126.407 291.235L52.1301 338.542L78.6638 434.884L23.0622 543.341L31.9493 629.2L538.5 612.5Z" fill="white"/>
<path d="M320.958 403.594L289.716 452.141L101.395 403.275L64.7443 338.321L126.408 291.235L144.39 286.283L154.102 321.549L166.59 366.891L219.782 383.511L255.559 366.57L236.226 361.471L214.476 291.579L302.634 319.5L320.958 403.594Z" fill="#333333"/>
<path d="M193.673 446.155L78.4316 434.949L72.5741 446.986L193.673 446.155Z" fill="#DDDDDD"/>
<path d="M105.505 608.943L79.6078 575.466L97.7543 611.077L105.505 608.943Z" fill="#DDDDDD"/>
<path d="M134.172 560.438L99.5206 545.132L44.5167 554.027L9.6521 574.886L7.30706 584.538L29.1811 602.196L27.9089 589.704L19.2051 582.929L47.3984 564.491L96.8218 557.133L130.638 570.918L134.172 560.438Z" fill="#333333"/>
<path d="M133.917 584.941L77.3203 580.182L19.9002 615.425L18.8987 626.624L31.9495 629.201L31.2629 622.469L26.2551 621.847L80.2852 590.038L132.194 595.338L133.917 584.941Z" fill="#333333"/>
<path d="M390.542 495.744L406.672 471.956L445.703 456.536L476.574 457.207L481.791 462.524L474.436 482.144L468.161 476.618L473.508 466.056L448.206 465.019L412.647 478.815L396.831 501.016L390.542 495.744Z" fill="#333333"/>
<path d="M414.543 511.732L448.01 482.168L499.876 487.313L505.541 496.676L498.953 504.244L494.31 500.103L497.754 495.652L451.254 490.614L419.778 518.629L414.543 511.732Z" fill="#333333"/>
<path d="M233.53 594.563L250.887 517.773L269.124 529.622L259.999 571.968L330.705 562.318L334.925 543.173L274.951 550.073L279.975 530.175L339.617 522.605L344.441 502.178L216.679 519.663L241.131 496.334L352.607 481.119L370.274 494.697L360.87 526.409L349.443 532.355L357.647 539.188L349.537 570.792L336.868 580.459L233.53 594.563Z" fill="black"/>
<path d="M204.921 377.229L203.603 284.037L184.841 267.726L143.863 266.361L120.227 275.628L119.142 308.169L117.094 369.636L227.507 411.524L252.522 409.141L204.921 377.229Z" fill="#444444"/>
<path d="M111.387 280.239L91.2973 279.65L63.3196 223.698L77.552 202.132L65.4647 159.338L82.6914 67.2475L183.888 16.4051L297.48 32.9005L355.57 124.204L349.518 235.811L331.999 264.265L321.286 327.455L266.509 399.793L225.151 400.184L123.383 313.699L111.387 280.239Z" fill="#5A5A5A"/>
<path d="M91.0362 63.0216L190.257 78.7163L224.001 142.663L327.346 150.452L336.84 94.8634L342.497 103.739L333.117 155.872L221.488 148.049L184.745 84.8067L82.6906 67.248L91.0362 63.0216Z" fill="#3D3D3D"/>
<path d="M65.4643 159.338L66.6481 152.782L156.711 206.701L133.493 244.457L204.937 316.418L211.518 324.118L202.532 381.332L196.908 376.318L204.356 326.614L131.613 250.186L141.997 329.603L136.839 325.088L127.242 246.18L147.771 209.46L65.4643 159.338Z" fill="#3D3D3D"/>
<path d="M85.3348 224.432L102.058 263.278L94.5857 263.029L80.1844 226.915L85.3348 224.432Z" fill="white"/>
<path d="M296.354 312.869L227.127 314.342L226.892 321.413L296.123 319.779L296.354 312.869Z" fill="#3D3D3D"/>
<path d="M289.835 327.452L233.963 328.888L233.725 336.039L289.605 334.362L289.835 327.452Z" fill="#3D3D3D"/>
<path d="M284.349 342.392L237.178 343.394L236.943 350.465L284.118 349.302L284.349 342.392Z" fill="#3D3D3D"/>
<path d="M178.236 248.578L213.428 262.067L334.684 263.395L354.923 249.113L358.612 218.567L336.889 197.234L202.162 189.646L172.602 212.367L178.236 248.578Z" fill="#6A6A6A"/>
<path d="M331.322 252.066L343.505 239.118L345.225 219.546L326.922 207.787L206.68 203.779L185.866 218.397L189.589 241.042L214.481 249.578L331.322 252.066Z" fill="black"/>
<path fill-rule="evenodd" clip-rule="evenodd" d="M232.99 224.335L222.83 215.023L218.501 219.676L228.878 229.188L221.737 237.614L226.624 241.694L233.574 233.492L241.227 240.508L245.557 235.854L237.686 228.639L244.908 220.115L240.022 216.036L232.99 224.335ZM318.634 225.49L311.191 218.058L306.664 222.524L314.392 230.24L308.582 236.747L313.36 240.951L318.903 234.744L324.18 240.012L328.706 235.547L323.145 229.994L329.395 222.996L324.616 218.792L318.634 225.49Z" fill="#FAFF00"/>
<path d="M262.833 111.862L311.043 113.469L318.328 100.037L281.93 45.7348L231.698 20.3312L184.506 12.3232L142.658 37.0708L230.372 60.104L262.833 111.862Z" fill="#3C3C3C"/>
<path d="M308.512 56.6759L311.525 99.0065L266.128 97.4933L237.805 54.3192L196.291 44.8917L146.354 34.7812L174.088 11.1719L252.83 13.7965L308.512 56.6759Z" fill="#FAFF00"/>
<path d="M273.6 54.3062L308.9 57.0916L254.45 13.4488L236.774 12.8596L273.6 54.3062Z" fill="#D1D600"/>
<path d="M578.075 447.23L537.66 443.37L465.587 493.618L456.933 418.774L541.496 438.063L579.686 440.191L578.075 447.23Z" fill="#676767"/>
<path d="M553.088 434.084L554.811 454.985L589.423 451.647L593.962 436.102L553.088 434.084Z" fill="#B5B5B5"/>
<path d="M546.933 435.918L543.544 450.772L503.718 461.028L508.525 432.334L546.933 435.918Z" fill="#B5B5B5"/>
<path d="M619.514 369.323L515.881 410.203L565.922 431.252L570.624 471.728L563.339 474.602L558.52 437.136L512.005 419.913L496.832 427.44L544.629 450.916L550.947 483.166L543.945 486.758L537.621 455.696L484.977 434.962L479.699 446.53L514.615 469.514L499.453 508.933L494.537 509.094L505.501 473.465L476.235 459.991L467.935 508.086L424.424 535.605L399.407 612.5L303.998 622.058L390.532 486.209L468.274 407.046L616.155 360.806L619.514 369.323Z" fill="#676767"/>
<path d="M627.001 345.521L629.141 360.566L579.67 383.045L573.418 358.477L627.001 345.521Z" fill="#D5D5D5"/>
<path d="M559.595 362.507L567.216 387.839L526.387 402.167L513.011 380.883L559.595 362.507Z" fill="#D5D5D5"/>
<path d="M573.421 435.43L556.715 437.87L562.277 474.212L573.769 469.679L573.421 435.43Z" fill="#D5D5D5"/>
<path d="M571.184 418.644L553.397 433.368L508.15 416.356L525.306 400.933L571.184 418.644Z" fill="#D5D5D5"/>
<path d="M503.565 415.556L483.196 430.349L526.577 447.741L538.97 434.671L503.565 415.556Z" fill="#D5D5D5"/>
<path d="M553.095 479.494L548.434 439.121L532.784 452.052L541.638 485.318L553.095 479.494Z" fill="#D5D5D5"/>
<path d="M521.406 458.675L498.295 468.622L472.272 457.662L480.858 435.541L521.406 458.675Z" fill="#D5D5D5"/>
<path d="M514.839 474.19L496.749 474.923L488.137 506.896L499.933 507.342L514.839 474.19Z" fill="#D5D5D5"/>
<path d="M438.449 531.832L459.46 519.868L448.689 476.332L400.698 463.485L376.129 495.587L421.45 531.423L438.449 531.832Z" fill="#E8E8E8"/>
<path d="M414.184 444.767L430.375 455.454L449.276 452.268L425.635 500.248L380.837 479.265L414.184 444.767Z" fill="black"/>
<path d="M515.284 372.516L533.943 385.55L552.801 378.348L549.493 359.14L515.284 372.516Z" fill="black"/>
<path d="M561.231 405.733L549.947 422.516L531.646 416.099L535.538 398.912L561.231 405.733Z" fill="black"/>
<path d="M524.207 374.095L480.388 379.641L459.993 391.362L450.557 411.329L413.17 451.215L417.052 453.24L453.494 413.965L462.911 393.65L482.355 383.727L530.758 378.981L524.207 374.095Z" fill="#FAFF00"/>
<path d="M536.075 410.796L491.774 401.592L471.478 405.448L426.293 456.828L423.44 453.804L468.403 401.562L495.361 396.857L538.938 407.532L536.075 410.796Z" fill="#FAFF00"/>
<path d="M430.879 435.691L410.849 435.411L392.607 450.789L401.363 461.563L398.031 464.538L386.138 450.02L409.986 431.72L435.2 431.615L430.879 435.691Z" fill="#FAFF00"/>
<path d="M957.665 464.442L961.658 469.134L917.215 506.666L844.69 559L744.464 576L701.464 639.5L623.964 629L727.134 521.161L777.711 495.093L832.917 500.051L868.916 466.871L874.469 467.385L839.83 502.113L844.69 504.558L909.025 440.574L915.531 442.283L852.565 508.487L857.56 510.975L930.037 439.869L938.372 441.198L865.42 517.274L866.706 523.699L913.28 495.757L957.665 464.442Z" fill="#676767"/>
<path d="M747.186 504.188L773.42 535.442L749.648 580.995L713.113 552.237L718.3 519.301L747.186 504.188Z" fill="white"/>
<path d="M900.796 506.241L860.772 513.932L865.898 534.353L902.875 515.294L900.796 506.241Z" fill="#D3D3D3"/>
<path d="M853.124 513.937L806.02 505.927L799.242 540.359L849.824 536.563L853.124 513.937Z" fill="#D3D3D3"/>
<path d="M926.201 480.884L964.252 458.234L971.285 466.422L937.761 497.201L926.201 480.884Z" fill="#D3D3D3"/>
<path d="M918.631 487.148L928.946 504.107L892.347 528.483L888.83 522.533L902.875 515.294L900.796 506.241L884.644 509.391L918.631 487.148Z" fill="#D3D3D3"/>
<path d="M861.899 503.676L870.009 512.209L876.21 510.925L910.647 477.988L897.081 465.855L861.899 503.676Z" fill="#D3D3D3"/>
<path d="M850.674 496.524L861.898 503.676L892.082 474.056L881.822 465.282L850.674 496.524Z" fill="#D3D3D3"/>
<path d="M856.292 473.153L867.163 480.713L845.899 501.01L834.413 490.73L856.292 473.153Z" fill="#D3D3D3"/>
<path d="M905.584 458.997L918.533 471.898L949.653 434.708L940.751 427.259L905.584 458.997Z" fill="#D3D3D3"/>
<path d="M887.122 456.138L899.192 466.679L924.388 438.73L916.703 432.116L887.122 456.138Z" fill="#D3D3D3"/>
<path d="M860.139 465.995L871.067 474.537L889.38 450.698L882.922 445.589L860.139 465.995Z" fill="#D3D3D3"/>
<path d="M884.643 509.391L900.795 506.241L902.874 515.294L888.83 522.533L892.346 528.483L908.586 517.863L903.3 502.587L884.643 509.391Z" fill="#B3B3B3"/>
<path d="M911.294 530.756L906.417 512.344L922.306 502.355L934.581 515.04L911.294 530.756Z" fill="black"/>
<path d="M911.498 521.987L873.663 558.588L853.334 567.604L833.162 563.826L782.166 570.31L782.922 566.32L832.894 560.251L853.336 564.115L871.784 554.944L911.632 514.606L911.498 521.987Z" fill="#FAFF00"/>
<path d="M803.754 565.483L792.623 580.557L770.772 585.745L767.76 573.572L763.701 574.427L767.661 591.061L794.8 583.035L809.287 564.431L803.754 565.483Z" fill="#FAFF00"/>
<path d="M910.776 492.209L895.402 482.245L882.399 494.122L890.677 505.381L910.776 492.209Z" fill="black"/>
<path d="M886.584 499.84L876.21 510.925L882.055 509.825L891.242 500.365L886.584 499.84Z" fill="#FAFF00"/>
<path d="M778.957 545.75L780.2 563.222L793.001 574.962L737.484 588.389L730.478 556.899L778.957 545.75Z" fill="black"/>
<path d="M812.21 514.662L793.931 508.445L790.445 534.205L808.122 531.394L812.21 514.662Z" fill="black"/>
<path d="M737.644 568.619L724.385 570.615L721.664 545.692L765.625 519.884L797.061 523.032L797.755 517.612L765.557 514.294L717.154 542.617L720.833 576.384L741.901 572.95L737.644 568.619Z" fill="#FAFF00"/>
</g>
<defs>
<clipPath id="clip0_2898_179">
<rect width="1041" height="605" fill="white"/>
</clipPath>
</defs>
</svg>
