<svg width="1709" height="597" viewBox="0 0 1709 597" fill="none" xmlns="http://www.w3.org/2000/svg">
<mask id="mask0_2908_505" style="mask-type:luminance" maskUnits="userSpaceOnUse" x="1155" y="43" width="555" height="553">
<path d="M1155.5 43.7529H1709.13V595.929H1155.5V43.7529Z" fill="white"/>
</mask>
<g mask="url(#mask0_2908_505)">
<path d="M1204.51 447.516C1212.03 437.082 1223.64 436.758 1235.95 436.369C1242.37 436.175 1248.98 435.98 1255.73 434.425C1265.97 432.092 1269.92 424.509 1274.2 416.472C1277.38 410.38 1280.68 404.094 1286.65 400.465C1299.61 392.493 1322.43 392.169 1323.41 392.169V400.918C1323.21 400.918 1301.62 401.242 1290.34 408.177C1286.2 410.704 1283.73 415.5 1280.81 421.009C1276.41 429.434 1270.9 439.998 1257.28 443.044C1249.89 444.729 1242.63 444.924 1236.21 445.118C1225.26 445.442 1215.79 445.766 1210.54 453.09C1202.76 463.848 1211.64 484.393 1235.5 509.604L1229.6 515.307C1201.53 485.819 1193.56 462.746 1204.51 447.516Z" fill="white"/>
<path d="M1239.78 471.949C1240.3 463.913 1244.51 456.654 1252.22 450.367C1272.06 434.359 1270.7 423.99 1267.33 398.909C1265.32 383.938 1272.26 377.003 1276.6 374.216C1285.22 368.578 1297.86 369.744 1303.37 374.605C1308.17 378.753 1319.52 378.559 1323.34 378.17V387.373C1322.69 387.437 1306.74 388.539 1298.71 381.54C1296.11 379.271 1286.91 377.586 1280.42 381.799C1275.82 384.78 1273.94 390.095 1274.98 397.613C1278.48 423.925 1280.42 438.378 1256.7 457.561C1250.93 462.227 1247.82 467.283 1247.43 472.597C1246.91 480.633 1252.68 487.309 1255.98 490.096L1250.09 495.734C1246.07 492.04 1239 483.939 1239.78 471.949Z" fill="white"/>
<path d="M1300.23 419.057C1295.17 425.326 1293.36 433.521 1294.79 443.368C1298.57 468.573 1290.54 475.289 1271.09 491.478C1259.48 501.143 1259.89 510.942 1261.21 515.931C1263.74 525.915 1273.84 533.606 1281.18 533.754C1287.52 533.945 1295.75 541.761 1298.3 544.634L1304.53 537.857C1304.09 537.371 1293.1 525.773 1282.44 525.491C1279 525.407 1271.08 520.421 1269.15 512.935C1267.78 507.626 1269.99 502.441 1275.85 497.607C1296.23 480.598 1307.44 471.271 1302.95 441.096C1301.86 433.758 1302.99 427.931 1306.3 423.754C1311.36 417.485 1320.12 416.472 1324.44 416.656L1323.92 408.514C1318.46 408.516 1307.77 409.702 1300.23 419.057Z" fill="white"/>
<path d="M1323.41 375.578H1326.97V388.864H1323.41V375.578Z" fill="#3E3E3E"/>
<path d="M1323.41 406.627H1326.97V419.913H1323.41V406.627Z" fill="#3E3E3E"/>
<path d="M1323.41 391.196H1326.97V404.158H1323.41V391.196Z" fill="#3E3E3E"/>
<path d="M1419.03 356.135L1422.59 431.184L1534.74 500.725L1595.74 595.994H1205.49L1216.96 527.361L1289.18 458.404L1347.72 431.184L1351.61 351.598L1370.41 343.497H1403.47L1419.03 356.135Z" fill="#5A5A5A"/>
<path d="M1422.59 431.184L1419.03 356.135L1403.47 343.497H1370.41L1351.61 351.598V377.846V427.425L1441.72 458.21L1461.81 455.617L1422.59 431.184Z" fill="#444444"/>
<path d="M1355.17 362.291L1350.31 359.375L1340.58 355.486L1326.97 361.643V424.508L1341.04 431.119L1355.17 424.508V362.291Z" fill="#7E7E7E"/>
<path d="M1352.64 355.552H1340.58L1355.17 362.616V424.185L1341.04 431.184H1355.17L1366.32 425.805V361.32L1352.64 355.552Z" fill="#656565"/>
<path d="M1338.32 368.448H1344.15V417.703H1338.32V368.448Z" fill="black"/>
<path d="M1338.32 401.501H1344.15V417.703H1338.32V401.501Z" fill="#C72121"/>
</g>
<path d="M1486 470.366L1480.57 480.854L1466.11 480.2L1459.19 466.202L1467.74 458.36L1478.98 458.487L1486 470.366Z" fill="black"/>
<path d="M1504.18 488.656L1473.3 472.665L1473.92 468.604L1505.55 483.523L1504.18 488.656Z" fill="#D8D8D8"/>
<path d="M1488.26 549.542L1491.65 561.924L1479.65 572.129L1463.98 563.5L1464.93 550.94L1473.85 545.211L1488.26 549.542Z" fill="black"/>
<path d="M1539.91 557.142L1478.48 558.729L1474.59 554.466L1530.44 551.92L1539.91 557.142Z" fill="#D8D8D8"/>
<path d="M1339.81 466.679L1344.78 477.393L1359.31 477.351L1366.77 463.678L1358.63 455.461L1347.4 455.102L1339.81 466.679Z" fill="black"/>
<path d="M1309.19 488.484L1352.39 469.526L1352.01 465.428L1305.72 484.807L1309.19 488.484Z" fill="#D8D8D8"/>
<path d="M1343.93 543.505L1339.95 555.743L1351.55 566.443L1367.52 558.514L1367.12 545.924L1358.52 539.801L1343.93 543.505Z" fill="black"/>
<path d="M1276.37 558.644L1356 554.169V550.562L1284.02 552.698L1276.37 558.644Z" fill="#D8D8D8"/>
<path d="M1317.27 494.426L1320.81 505.003L1317.78 538.19L1251.82 583.359L1199.84 563.701L1197.4 556.553L1248.01 572.052L1310.48 529.514L1317.27 494.426Z" fill="#363636"/>
<path d="M1580.85 569.185L1574.97 576.066L1510.42 540.986L1499.48 506.185L1507.27 477.138L1515.43 470.736L1507.02 502.099L1517.48 531.406L1580.85 569.185Z" fill="#363636"/>
<path d="M1317.27 494.427L1294.81 470.19L1245.99 476.737L1213.23 508.436L1197.4 556.555L1248.01 572.053L1310.48 529.515L1317.27 494.427Z" fill="#626262"/>
<path d="M1280.2 520.215L1281.92 517.761L1280.48 509.457L1278.05 507.76L1262.64 510.578L1259.98 495.144L1257.54 493.447L1249.25 494.963L1247.54 497.418L1250.2 512.852L1234.79 515.67L1233.08 518.125L1234.51 526.428L1236.94 528.125L1252.35 525.307L1255.02 540.741L1257.45 542.438L1262.31 545.831L1267.46 538.467L1264.79 523.033L1280.2 520.215Z" fill="#FAFF00"/>
<path d="M1515.43 470.736L1507.02 502.099L1517.48 531.406L1580.85 569.185V540.841L1562.31 502.624L1515.43 470.736Z" fill="#626262"/>
<path d="M1358.09 465.986L1355.5 462.422H1350.31L1348.04 466.634L1353.55 471.171L1358.09 465.986Z" fill="#FAFF00"/>
<path d="M1477.25 467.164L1473.74 464.499L1468.77 465.995L1467.81 470.682L1474.4 473.438L1477.25 467.164Z" fill="#FAFF00"/>
<path d="M1472.88 559.721L1476.39 562.387L1481.36 560.891L1482.31 556.203L1475.73 553.448L1472.88 559.721Z" fill="#FAFF00"/>
<path d="M1349.91 550.83L1351.23 555.035L1356.15 556.689L1359.64 553.42L1355.87 547.363L1349.91 550.83Z" fill="#FAFF00"/>
<path d="M1344.6 355.55L1328.4 355.615L1304.35 311.286L1315.24 293.528L1304.35 259.373L1315.76 184.713L1395.95 141.031L1487.94 151.271L1537.21 223.274L1535.33 313.359L1521.97 336.756L1515.03 387.955L1472.83 447.709L1439.51 449.135L1355.17 382.187L1344.6 355.55Z" fill="#5A5A5A"/>
<path d="M1322.37 181.083L1402.75 191.064L1431.67 241.68L1515.16 245.18L1521.32 200.137L1526.12 207.136L1519.96 249.392L1429.79 246.087L1398.48 196.119L1315.76 184.712L1322.37 181.083Z" fill="#3D3D3D"/>
<path d="M1304.35 259.374L1305.12 254.06L1379.16 295.084L1361.46 326.128L1420.97 382.188L1426.48 388.215L1420.78 434.554L1416.11 430.665L1420.78 390.419L1360.1 330.794L1370.6 394.502L1366.32 391.002L1356.47 327.683L1372.03 297.547L1304.35 259.374Z" fill="#3D3D3D"/>
<path d="M1322.11 311.285L1336.63 342.134H1330.6L1318.03 313.424L1322.11 311.285Z" fill="white"/>
<path d="M1443.34 383.354L1495.2 386.271L1493.58 392.428L1442.36 388.539L1443.34 383.354Z" fill="#3D3D3D"/>
<path d="M1397.63 328.245L1426.35 338.169L1524.11 335.982L1540.04 323.932L1542.19 299.222L1524.11 282.617L1415.33 280.121L1392.12 299.222L1397.63 328.245Z" fill="#6A6A6A"/>
<path d="M1521.1 326.944L1530.57 316.185L1531.43 300.37L1516.36 291.387H1419.35L1402.97 303.724L1406.58 321.869L1426.87 328.078L1521.1 326.944Z" fill="black"/>
<path d="M1470.22 317.509L1467.74 317.498L1466.1 315.853L1466.14 306.842L1465.32 306.019L1462.02 306.004L1461.19 306.82L1461.17 310.916L1465.3 310.934L1465.28 314.211L1461.16 314.192L1461.15 315.831L1459.49 317.462L1457.02 317.451L1457.07 304.344L1459.56 301.897L1467.81 301.934L1470.27 304.402L1470.22 317.509Z" fill="#FAFF00"/>
<path d="M1444.64 317.397L1442.99 317.39L1443.05 303.463L1444.71 301.832L1452.96 301.869L1456.25 305.16L1453.35 308.014L1451.29 305.957L1447.17 305.939L1447.14 313.312L1452.09 313.334L1452.09 312.515L1450.44 312.507L1450.45 310.05L1451.28 309.234L1456.23 309.256L1456.2 315.809L1454.54 317.441L1444.64 317.397Z" fill="#FAFF00"/>
<path d="M1440.57 305.91L1433.7 305.879L1433.7 307.518L1438.91 307.541L1439.73 308.364L1439.72 310.821L1438.89 311.637L1433.68 311.614L1433.67 313.252L1442.19 313.29L1442.18 314.928L1442.17 317.386L1441.34 317.382L1431.18 317.337L1429.54 315.692L1429.59 303.404L1431.25 301.772L1441.41 301.818L1442.23 302.64L1442.23 304.279L1440.57 305.91Z" fill="#FAFF00"/>
<path d="M1504.92 306.195L1497.49 306.162L1497.48 307.8L1503.26 307.826L1504.08 308.649L1504.07 311.106L1503.24 311.922L1497.47 311.896L1497.46 313.535L1505.71 313.572L1506.53 314.394L1506.52 317.671L1505.69 317.668L1494.96 317.62L1493.31 317.613L1493.38 303.686L1495.03 302.056L1505.76 302.103L1506.58 302.926L1506.57 304.564L1504.92 306.195Z" fill="#FAFF00"/>
<path d="M1488.37 315.952L1488.42 306.121L1487.59 306.118L1482.62 311.011L1480.97 311.003L1476.04 306.067L1475.22 306.063L1475.17 315.893L1473.52 317.525L1471.04 317.514L1471.1 303.587L1472.76 301.956L1477.71 301.978L1481 305.269L1482.65 305.277L1485.96 302.014L1490.91 302.036L1492.55 303.683L1492.49 317.608L1490.02 317.597L1488.37 315.952Z" fill="#FAFF00"/>
<path fill-rule="evenodd" clip-rule="evenodd" d="M1428.76 305.857L1424.65 301.743L1415.22 301.701L1413.56 303.332L1413.5 317.259L1424.58 317.308L1428.72 313.23L1428.76 305.857ZM1422.98 305.832L1424.62 307.478L1424.6 311.574L1422.95 313.204L1417.64 313.181L1417.67 306.627L1418.5 305.812L1422.98 305.832Z" fill="#FAFF00"/>
<path d="M1507.39 305.585L1507.4 304.427L1509.74 302.12L1510.91 302.125L1515.23 306.451L1519.58 302.164L1520.75 302.169L1523.07 304.497L1523.07 305.655L1518.71 309.943L1523.03 314.269L1523.02 315.427L1520.68 317.733L1519.51 317.728L1515.2 313.402L1510.84 317.69L1509.67 317.685L1507.34 317.674L1507.36 314.199L1511.71 309.912L1507.39 305.585Z" fill="#FAFF00"/>
<path d="M1349.14 166.501L1344.8 163.066L1331.38 169.936V176.158L1349.14 166.501Z" fill="black"/>
<path d="M1357.76 161.77L1355.62 157.428L1368.59 149.65L1373.13 153.474L1357.76 161.77Z" fill="black"/>
<path d="M1366.32 150.882L1358.93 144.79L1330.41 141.355L1299.68 162.354L1254.95 352.893L1264.41 382.187L1266.49 381.28L1261.88 351.921L1306.62 168.511L1333.78 150.882L1354 153.28L1357.76 156.132L1366.32 150.882Z" fill="#FF0000"/>
<path d="M1341.23 164.817L1335.27 159.827L1303.76 152.827L1279.97 164.817L1241.59 307.073L1273.55 359.504L1276.6 357.625L1248.92 304.222L1286.91 171.492L1304.15 161.9L1331.7 167.344L1333.58 168.835L1341.23 164.817Z" fill="#FF0000"/>
<path d="M1453.25 147.319L1497.92 141.939L1528.58 160.993L1567.93 331.896L1554.58 369.485H1551.99L1561.06 331.053L1521.71 166.567L1508.13 158.595L1494.55 150.624H1482.17L1453.25 147.319Z" fill="#FF0000"/>
<path d="M1491.5 156.521L1519.7 152.892L1543.49 163.715L1581.35 290.417L1549.39 337.922L1546.35 336.173L1574.03 287.825L1536.56 169.742L1519.25 161.122L1496.43 163.715L1491.5 156.521Z" fill="#FF0000"/>
<path d="M1009.75 334.676L989.178 412.605L926.858 435.605L824.006 532.273L807.158 595.726H1274.79L1201.11 501.223L1097.31 434.185L1098.93 395.288L1009.75 334.676Z" fill="#85A6BE"/>
<path d="M1098.19 433.305L1077.28 449.27L1036 453.464L1004.13 405.569L1010.36 334.878L1098.19 395.76V433.305Z" fill="#6C8CA2"/>
<path d="M1170.93 577.056L1187.17 594.982H1176.34L1170.93 577.056Z" fill="#6C8CA2"/>
<path d="M920.565 577.056V594.982H911.769L920.565 577.056Z" fill="#6C8CA2"/>
<path d="M976.389 410.981L1004.81 475.382L1030.52 504.267L1106.71 512.385L1125.25 498.382L1118.01 445.211L1121.19 443.384L1166.26 461.717L1173.97 479.034L1178.03 514.617L1196.98 525.914L1202.39 595.32H903.31L899.657 565.149L922.663 510.558L943.436 488.505L922.257 431.681L976.389 410.981Z" fill="#4B4B4B"/>
<path d="M950.406 488.573L927.196 514.211L907.37 567.382L911.43 595.32H903.31L899.657 565.15L922.663 510.559L943.436 488.506L922.257 431.682L926.993 429.855L950.406 488.573Z" fill="#626262"/>
<path d="M956.292 484.717L970.502 524.561L1008.4 510.558L993.238 477.614L956.292 484.717Z" fill="#626262"/>
<path d="M1175.39 491.753L1168.56 487.558V499.329L1143.79 489.385L1139.19 469.97L1130.67 466.858L1136.49 493.917L1178.03 514.617L1175.39 491.753Z" fill="white"/>
<path d="M1168.56 524.561L1141.02 512.588V496.149L1169.44 510.355L1168.56 524.561Z" fill="#626262"/>
<path d="M1030.52 504.267V524.561L975.916 540.797L966.443 549.388L952.233 504.267L962.112 501.088L961.029 497.908L947.496 503.185L971.856 595.32H979.502L967.322 560.617L982.344 544.382L1030.52 531.799H1074.78L1036.61 526.794V504.876L1030.52 504.267Z" fill="#626262"/>
<path d="M1083.77 595.388H1089.59V537.617L1126.13 536.264L1089.59 532.679L1090.07 510.626L1083.77 509.949V595.388Z" fill="#626262"/>
<path d="M932.948 460.365L941.609 456.035L950.677 477.209L992.156 468.212L984.509 446.565L991.141 444.535L1004.81 475.382L943.436 488.506L932.948 460.365Z" fill="white"/>
<path d="M1148.26 543.976L1169.44 561.091L1172.15 595.32H1178.03L1182.84 517.526L1178.03 514.617L1173.97 555.003L1148.26 543.976Z" fill="#626262"/>
<path d="M947.496 595.321L929.429 542.15L918.603 566.503L928.076 555.003L941.203 595.321H947.496Z" fill="#626262"/>
<path d="M1184.19 312.014L1193.6 214.67L1131.28 141.814L1033.84 134.981L963.804 196.202L957.849 268.72L969.691 297.132L949.053 292.464L938.226 329.535L984.848 370.799L1001.29 368.973L1030.79 413.891L1077.62 449L1114.83 444.941L1158 399.888L1168.9 332.105L1184.19 312.014Z" fill="#85A6BE"/>
<path d="M1165.11 353.751L1148.06 385.613L1122.55 366.131H1092.1L1057.93 383.313L1011.98 358.96L983.562 304.978L969.352 297.401L1002.78 372.016L1030.45 414.16L1076.2 449.54L1115.1 445.143L1157.67 400.157L1165.11 353.751Z" fill="black" fill-opacity="0.2"/>
<path d="M1127.28 393.394H1081.27L1085.74 402.864H1119.57L1127.28 393.394Z" fill="white"/>
<path d="M1127.69 324.935L1132.76 313.435L1167.82 307.888L1166.8 327.505L1127.69 324.935Z" fill="white"/>
<path d="M1185.75 287.592L1124.04 307.413L1125.52 290.23L1133.51 296.589L1186.22 282.248L1185.75 287.592Z" fill="black"/>
<path d="M1166.8 327.505L1166.12 310.323L1134.25 315.126L1127.69 324.935L1154.96 326.761L1123.36 327.708L1131.48 312.961L1169.78 306.129L1166.8 327.505Z" fill="black"/>
<path d="M1040.2 329.399L1064.96 347.461L1091.89 334.337L1094.13 303.22L1069.36 285.226L1042.36 298.281L1040.2 329.399Z" fill="#525252"/>
<path d="M1083.57 327.775L1084.86 309.713L1069.36 298.822L1052.65 306.466L1051.36 324.528L1066.93 335.352L1083.57 327.775Z" fill="white"/>
<path d="M1069.36 285.226L1010.9 291.449L1013.33 322.161L1064.96 347.461L1040.2 329.399L1042.36 298.281L1069.36 285.226Z" fill="#3A3A3A"/>
<path d="M1168.56 332.375L1183.85 312.284L1193.19 215.684L1150.09 193.834L1104.14 222.584L1098.39 210.543L1057.52 224.208L1060.23 217.375L1014.82 222.381L1001.02 228.266L1002.98 246.463L991.885 245.043L996.418 285.699L983.427 283.196L993.035 346.514L987.487 363.764L974.833 304.708L948.511 296.319L943.504 310.458L909.13 209.528L964.48 100.075L969.081 137.619L1040.81 65.3721L1150.02 70.378L1085.4 99.8721L1170.39 120.234L1149.41 124.293L1254.16 140.799L1192.38 176.516L1247.59 192.752L1203.2 238.819L1238.73 255.461L1194.41 262.496L1190.89 312.284L1168.29 349.355L1168.56 332.375Z" fill="white"/>
<path d="M96.4966 596.105L135.598 529.026L255.298 457.272L242.615 427.531L321.051 339.065L329.643 439.86L450.395 535.512L467.637 596.163L96.4966 596.105Z" fill="#B3D19C"/>
<path d="M252.142 449.793L242.264 425.777L322.045 339.007L326.721 406.495L315.616 437.172L266.111 472.289L252.083 462.94L252.142 449.793Z" fill="#97B481"/>
<path d="M337.241 424.901L335.955 444.593L394.519 595.93H155.704L247.641 458.616L245.479 434.075L337.241 424.901Z" fill="#2D2D2D"/>
<path d="M320.355 570.785L326.204 557.182L329.164 560.002L326.021 567.518L339.411 568.169L340.85 564.773L329.536 563.984L331.148 560.477L342.424 561.132L344.018 557.52L319.821 556.354L325.14 552.882L346.251 553.907L349.046 557.027L346.218 562.567L343.903 563.273L345.183 564.819L342.598 570.384L339.925 571.735L320.355 570.785Z" fill="#EBFF00"/>
<path d="M467.637 552.69L348.346 595.93H478.684L467.637 552.69Z" fill="#EBFF00"/>
<path d="M101.114 560.871L203.397 595.871L85.9175 595.93L101.114 560.871Z" fill="#EBFF00"/>
<path d="M331.572 384.817L258.688 462.823L230.224 463.466L181.479 390.719V362.38L169.322 329.658L166.926 272.746L208.833 214.957L269.209 195.383L340.748 222.32L363.075 282.153L359.568 322.296L374.764 325.626L381.194 344.383L347.236 386.57L331.572 384.817Z" fill="#B3D19C"/>
<path d="M243.504 412.631L213.917 415.653L215.475 420.187C223.676 418.676 240.452 415.774 241.946 416.258C243.442 416.741 252.328 419.885 256.584 421.396L243.504 412.631Z" fill="black" fill-opacity="0.5"/>
<path d="M169.322 329.834L175.225 324.049L217.249 343.448L217.424 334.625L172.303 321.011L169.322 329.834Z" fill="#0D0D0D"/>
<path d="M237.296 343.915L277.45 319.842L296.036 322.646L279.262 315.226L237.472 334.8L237.296 343.915Z" fill="#0D0D0D"/>
<path d="M215.963 355.952L179.423 346.964L190.414 367.797L203.612 366.988L215.963 355.952Z" fill="white"/>
<path d="M292.237 340.76L236.712 355.805L250.447 366.47L269.735 367.054L292.237 340.76Z" fill="white"/>
<path d="M189.977 368.64L204.278 367.71L192.115 365.283L182.94 350.985L217.655 356.433L175.298 344.076L189.977 368.64Z" fill="#0D0D0D"/>
<path d="M234.958 356.244L301.404 333.981L270.666 369.174L249.57 366.762L269.207 364.83L286.809 344.033L234.958 356.244Z" fill="#0D0D0D"/>
<path d="M371.316 190.65L344.606 208.997L268.858 182.061L192.526 211.043L166.926 272.746L168.855 329.658L175.459 289.925L235.952 322.296L231.159 295.593L247.232 284.14L264.182 296.995V271.285L297.556 284.374L312.577 364.425L341.683 401.12L327.247 362.146L331.572 329.424L339.988 347.188L359.568 322.296L370.556 238.33L392.357 273.623V332.697L413.574 365.301L409.132 339.066L438.94 260.183L371.316 190.65Z" fill="white"/>
<path d="M359.568 322.296L325.902 295.593L233.789 272.98H166.926L167.335 283.264L101.406 267.546L108.654 252.587L161.023 250.951L174.699 202.979L228.821 174.289H273.417L274.878 169.381H291.711L293.932 174.873L349.048 198.597L370.556 236.051V318.264L359.568 322.296Z" fill="#353535"/>
<path d="M228.864 224.685L228.318 230.965L222.041 230.42L221.768 233.56L215.491 233.015L215.219 236.156L208.941 235.611L208.668 238.751L214.946 239.296L214.673 242.437L220.949 242.982L220.676 246.123L226.953 246.668L226.407 252.949L223.268 252.676L222.996 255.816L216.719 255.271L216.446 258.411L200.754 257.049L201.027 253.908L194.75 253.363L195.023 250.222L191.885 249.95L192.431 243.669L189.292 243.396L190.657 227.694L193.795 227.967L194.341 221.686L197.48 221.958L197.753 218.818L204.029 219.363L204.302 216.223L219.994 217.586L219.721 220.727L225.998 221.272L225.725 224.412L228.864 224.685Z" fill="#F7B02C"/>
<path d="M325.902 295.593L239.985 258.43L161.023 250.951L108.654 252.587L101.406 267.546L167.335 283.264L166.926 272.98H233.789L325.902 295.593Z" fill="black"/>
<path d="M273.417 174.289L293.932 174.873L291.711 169.381H274.878L273.417 174.289Z" fill="black"/>
<mask id="mask1_2908_505" style="mask-type:luminance" maskUnits="userSpaceOnUse" x="348" y="0" width="598" height="596">
<path d="M945.678 0H348.346V595.77H945.678V0Z" fill="white"/>
</mask>
<g mask="url(#mask1_2908_505)">
<path d="M723.672 369.629L853.77 403.194L864.052 421.445L920.498 446.199L945.678 523.187L945.818 595.84H375.415L433.19 497.944L608.053 400.956L626.658 367.602L707.375 346.764L723.672 369.629Z" fill="#746754"/>
<path d="M784.874 385.433L762.491 442.003L678.557 494.448L670.164 478.714L631.344 543.745L558.531 449.415L586.369 412.984L608.052 400.956L626.658 367.602L707.375 346.764L723.672 369.629L784.874 385.433Z" fill="#5F5442"/>
</g>
<mask id="mask2_2908_505" style="mask-type:luminance" maskUnits="userSpaceOnUse" x="348" y="0" width="598" height="596">
<path d="M945.678 0H348.346V595.77H945.678V0Z" fill="white"/>
</mask>
<g mask="url(#mask2_2908_505)">
<path d="M368.63 595.91L431.581 483.959L489.636 450.184L503.415 356.693L723.252 245.511L858.946 275.439L884.826 420.676L925.394 444.52L945.678 506.335V595.84L368.63 595.91Z" fill="#FAFF00"/>
<path d="M628.881 594.467L622.858 594.304L618.95 590.21L619.539 568.28L617.584 566.233L609.554 566.017L607.493 567.957L607.225 577.925L617.263 578.194L617.049 586.168L607.011 585.899L606.904 589.886L602.781 593.765L596.758 593.604L597.615 561.707L603.799 555.888L623.875 556.427L629.738 562.569L628.881 594.467Z" fill="black"/>
<path d="M566.644 592.795L562.629 592.688L563.539 558.797L567.661 554.917L587.738 555.456L595.555 563.646L588.34 570.435L583.455 565.316L573.417 565.046L572.935 582.989L584.981 583.313L585.034 581.319L581.019 581.211L581.18 575.231L583.241 573.291L595.287 573.614L594.858 589.563L590.736 593.442L566.644 592.795Z" fill="black"/>
<path d="M557.356 564.616L540.653 564.167L540.545 568.154L553.233 568.494L555.188 570.542L555.027 576.523L552.965 578.462L540.278 578.122L540.17 582.109L560.889 582.666L560.782 586.653L560.621 592.633L558.614 592.579L533.88 591.915L529.972 587.82L530.775 557.917L534.897 554.037L559.631 554.701L561.585 556.749L561.478 560.736L557.356 564.616Z" fill="black"/>
<path d="M713.953 568.82L695.884 568.335L695.777 572.322L709.831 572.699L711.784 574.747L711.624 580.727L709.563 582.667L695.509 582.29L695.402 586.277L715.479 586.816L717.433 588.863L717.219 596.837L715.211 596.783L689.111 596.083L685.096 595.975L686.006 562.084L690.129 558.205L716.229 558.906L718.182 560.953L718.075 564.94L713.953 568.82Z" fill="black"/>
<path d="M673.158 591.665L673.8 567.742L671.792 567.689L659.425 579.326L655.41 579.219L643.685 566.934L641.677 566.879L641.035 590.803L636.913 594.682L630.89 594.521L631.8 560.629L635.922 556.75L647.968 557.074L655.785 565.263L659.8 565.371L668.045 557.613L680.091 557.936L683.999 562.031L683.088 595.922L677.065 595.76L673.158 591.665Z" fill="black"/>
<path fill-rule="evenodd" clip-rule="evenodd" d="M528.607 563.843L518.836 553.605L495.88 552.989L491.757 556.869L490.847 590.759L517.819 591.484L528.124 581.785L528.607 563.843ZM514.553 563.466L518.462 567.56L518.194 577.528L514.071 581.408L501.153 581.061L501.582 565.112L503.643 563.173L514.553 563.466Z" fill="black"/>
<path d="M720.017 567.472L720.092 564.652L725.922 559.166L728.761 559.242L739.035 570.007L749.872 559.809L752.711 559.886L758.238 565.677L758.162 568.496L747.326 578.694L757.599 589.458L757.524 592.277L751.694 597.763L748.854 597.687L738.58 586.922L727.744 597.12L724.905 597.044L719.227 596.892L719.454 588.434L730.29 578.236L720.017 567.472Z" fill="black"/>
<path d="M503.415 356.693L723.253 245.511L858.946 275.439L842.16 373.475L749.063 479.763L626.728 500.741L516.355 460.044L503.415 356.693Z" fill="#3D3D3D"/>
<path d="M884.826 420.676L815.58 479.064L899.234 429.137L884.826 420.676Z" fill="#030303"/>
<path d="M827.821 520.32L803.34 595.771H820.127L827.821 520.32Z" fill="#030303"/>
</g>
<path d="M791.798 346.904L770.046 220.198L686.881 144.118L651.488 134.049L573.57 149.223L529.294 188.871L503.415 237.33L545.312 325.297L545.591 430.815L553.985 461.583L626.728 500.741L640.717 468.575L678.487 422.424L682.684 465.778L755.427 414.033L791.798 346.904Z" fill="#746754"/>
<path d="M704.507 231.525L714.719 236.35L723.742 225.721L733.464 241.804L736.262 258.446L749.062 260.264L747.173 219.567L715.208 208.1L704.507 231.525Z" fill="#E7D8C3"/>
<path d="M542.444 325.925L525.447 370.468L507.401 379.489L557.622 441.094L601.548 444.52L700.66 378.65L621.622 319.842L676.039 307.465L698.631 262.433L664.988 240.825L664.358 210.827L559.371 249.916L513.626 241.874L519.012 261.314L510.969 285.368L527.336 325.296L542.444 325.925Z" fill="#E7D8C3"/>
<path d="M561.539 335.646L552.656 319.423L546.92 334.946L561.539 335.646Z" fill="#584B4B"/>
<path d="M570.002 335.855L582.663 313.269L595.393 330.96L570.002 335.855Z" fill="#584B4B"/>
<path d="M543.632 396.62L543.702 378.999L602.386 368.58L622.95 385.013L601.967 405.291L564.826 410.606L543.632 396.62Z" fill="#530000"/>
<path d="M543.704 379L555.454 389.699L554.965 376.902L543.704 379Z" fill="white"/>
<path d="M602.387 368.58L596.722 384.593L589.727 370.958L602.387 368.58Z" fill="white"/>
<path d="M564.827 410.607L561.19 399.139L575.249 409.138L564.827 410.607Z" fill="white"/>
<path d="M601.968 405.292L602.247 391.097L589.377 407.04L601.968 405.292Z" fill="white"/>
<path d="M594.553 259.776L600.848 239.147L602.947 258.727L616.936 269.216L608.892 292.991L616.936 311.871L612.04 327.254L610.291 315.367L600.848 293.69L604.346 274.11V270.614L594.553 259.776Z" fill="black" fill-opacity="0.2"/>
<path d="M576.368 283.9L638.619 260.824L616.936 288.095L576.368 283.9Z" fill="white"/>
<path d="M551.887 284.599L519.712 276.208L523.209 292.99L551.887 284.599Z" fill="white"/>
<path d="M555.034 235.651L514.116 228.309L481.941 235.651L521.81 175.864L492.433 180.06L514.116 160.481L550.488 150.691L546.291 138.104L524.608 119.924L611.69 128.315L583.712 108.036L680.586 128.315L710.312 163.627L684.433 191.598L555.034 235.651Z" fill="#BD2200"/>
</svg>
