<svg width="805" height="521" viewBox="0 0 805 521" fill="none" xmlns="http://www.w3.org/2000/svg">
<path d="M224.457 390L304.985 397.342L324.874 413.839L269.147 427.069H179.767L124.039 413.839L143.928 397.342L224.457 390Z" fill="#C4C4C4"/>
<path d="M179.767 427.069L124.039 413.839L102.957 441.5L169.957 457.5L179.767 427.069Z" fill="#B4B4B4"/>
<path d="M269.147 427.069H179.767L169.957 457.5H278.457L269.147 427.069Z" fill="#A0A0A0"/>
<path d="M324.874 413.839L269.147 427.069L278.457 457.5L345.457 441.5L324.874 413.839Z" fill="#8D8D8D"/>
<path d="M223.957 396L275.558 400.706L288.302 411.282L252.593 419.762H195.321L159.612 411.282L172.356 400.706L223.957 396Z" fill="white"/>
<path d="M130.79 423.425L142.281 426.229L141.041 435.307L136.551 443.293L126.015 437.645L127.14 429.584L130.79 423.425Z" fill="black"/>
<path d="M143.595 424.56L138.537 423.917L138.06 425.339L139.482 425.816L138.198 434.352L133.669 441.557L132.754 441.249L132.804 442.562L136.278 444.783L141.831 436.099L143.595 424.56Z" fill="#6A6A6A"/>
<path d="M84.957 244.5V77L247.957 66.5L361.457 80.5V248L179.957 281.5L84.957 244.5Z" fill="#808080"/>
<path d="M181.457 102.5L83.957 84V209L181.457 253V102.5Z" fill="#6F6F6F"/>
<path d="M181.957 122.5L76.957 104L77.457 64L87.457 54L247.957 47L361.457 57L368.457 64V107L181.957 122.5Z" fill="white"/>
<path d="M76.957 197.5H84.957L181.457 235L211.457 232L217.957 235V281.5L181.457 288.5L76.957 242.5V197.5Z" fill="white"/>
<path d="M77.457 103V64.5L179.957 82.5V122L77.457 103Z" fill="#DEDEDE"/>
<path d="M76.957 242.5V198L181.457 242.5V288L76.957 242.5Z" fill="#DEDEDE"/>
<path d="M218.457 274.5L231.957 282L236.957 280.851L235.457 181.5L247.457 168.192L240.457 169L230.457 180V272L218.457 274.5Z" fill="#2B2B2B"/>
<path d="M342.957 256.5L347.457 247V163.5L339.957 157L247.457 168.192L235.457 181.5L236.957 280.851L342.957 256.5Z" fill="#585858"/>
<path d="M276.957 205.322V202.574L282.465 197.077H285.219L295.457 205.322L305.695 194H308.449L313.957 199.497V202.245L303.719 212.461L313.957 222.678V225.426L308.449 230.923H305.695L295.457 222.678L285.219 234H282.465L276.957 234V225.755L287.195 215.539L276.957 205.322Z" fill="white"/>
<path d="M366.962 250L355.957 252.5L351.957 250V209.5L361.462 207.5V203L366.962 205V250Z" fill="white"/>
<path d="M86.457 221L98.2427 220L99.957 229L98.2427 238L86.457 236L84.957 228L86.457 221Z" fill="black"/>
<path d="M98.957 218L93.957 219V220.5H95.457L96.957 229L94.957 237.272H93.9916L94.457 238.5L98.457 239.5L100.957 229.5L98.957 218Z" fill="#6A6A6A"/>
<path d="M87.4572 229.5C75.9572 228.833 56.2459 232.376 50.4572 247C31.4566 295 91.3834 357.067 50.457 373.5C-15.5431 400 -1.04304 438.5 31.4565 438.5C88.4655 438.5 91.4573 422.5 128.957 430" stroke="white" stroke-width="8"/>
<path d="M86.957 250.5L162.957 411H289.957L370.957 250.5H86.957Z" fill="url(#paint0_linear_0_1)"/>
<path d="M556.868 396.721L566.655 403.364L562.32 411.436L555.323 417.349L547.425 408.376L551.296 401.216L556.868 396.721Z" fill="black"/>
<path d="M568.469 402.26L563.954 399.889L563.01 401.054L564.176 401.999L559.99 409.547L553.228 414.715L552.478 414.107L552.067 415.354L554.545 418.649L562.783 412.454L568.469 402.26Z" fill="#6A6A6A"/>
<path d="M655.5 383L736.028 390.342L755.917 406.839L700.19 420.069H610.81L555.082 406.839L574.971 390.342L655.5 383Z" fill="#2F2F2F"/>
<path d="M610.81 420.069L555.082 406.839L534 434.5L601 450.5L610.81 420.069Z" fill="#383838"/>
<path d="M700.19 420.069H610.81L601 450.5H709.5L700.19 420.069Z" fill="#3E3E3E"/>
<path d="M755.917 406.839L700.19 420.069L709.5 450.5L776.5 434.5L755.917 406.839Z" fill="#434343"/>
<path d="M655 389L706.601 393.706L719.345 404.282L683.636 412.762H626.364L590.655 404.282L603.399 393.706L655 389Z" fill="#8115A8"/>
<path d="M652 391L687.182 394.2L695.872 401.391L671.525 407.158H632.475L608.128 401.391L616.818 394.2L652 391Z" fill="black"/>
<path d="M561.833 416.425L573.324 419.229L572.084 428.307L567.594 436.293L557.058 430.645L558.183 422.584L561.833 416.425Z" fill="black"/>
<path d="M574.638 417.56L569.58 416.917L569.103 418.339L570.525 418.816L569.241 427.352L564.712 434.557L563.797 434.249L563.847 435.562L567.321 437.783L572.874 429.099L574.638 417.56Z" fill="#6A6A6A"/>
<path d="M751.701 416.425L740.21 419.229L741.45 428.307L745.94 436.293L756.476 430.645L755.351 422.584L751.701 416.425Z" fill="black"/>
<path d="M738.896 417.56L743.954 416.917L744.432 418.339L743.01 418.816L744.293 427.352L748.822 434.557L749.738 434.249L749.687 435.562L746.214 437.783L740.66 429.099L738.896 417.56Z" fill="#6A6A6A"/>
<path d="M736.5 451L742.5 447.5L725.5 426L716 428.5L736.5 451Z" fill="white"/>
<path d="M716 428.5L721.5 447.5L736.5 451L716 428.5Z" fill="#727272"/>
<path d="M576 452L570 448.5L587 427L596.5 429.5L576 452Z" fill="white"/>
<path d="M596.5 429.5L591 448.5L576 452L596.5 429.5Z" fill="#727272"/>
<path d="M516 237.5V70L679 59.5L792.5 73.5V241L611 274.5L516 237.5Z" fill="#191919"/>
<path d="M612.5 95.5L515 77V202L612.5 246V95.5Z" fill="#0F0F0F"/>
<path d="M613 115.5L508 97L508.5 57L518.5 47L679 40L792.5 50L799.5 57V100L613 115.5Z" fill="#8115A8"/>
<path d="M508 190.5H516L612.5 228L642.5 225L649 228V274.5L612.5 281.5L508 235.5V190.5Z" fill="#8115A8"/>
<path d="M508.5 96V57.5L611 75.5V115L508.5 96Z" fill="#630385"/>
<path d="M508 235.5V191L612.5 235.5V281L508 235.5Z" fill="#630385"/>
<path d="M798.005 243L787 245.5L783 243V202.5L792.505 200.5V196L798.005 198V243Z" fill="#8115A8"/>
<path d="M735.143 179.493L753 195.668V198.102L744.643 206.384H741.985L724.849 190.645L722.6 188.579L720.575 190.864L701.835 212H698.123L691 212V201.176L709.646 182.097L711.844 179.848L709.493 177.758L691 161.315V158.897L699.358 150.616H702.076L718.821 164.942L720.962 166.774L722.925 164.751L742.086 145H744.643L753 153.282V155.866L734.962 175.225L732.888 177.451L735.143 179.493Z" stroke="#8115A8" stroke-width="6"/>
<path d="M796.501 109.72L792.501 109V110.5L784.943 110.926V128L787.001 128.979L796.501 126.847V109.72Z" fill="white"/>
<path d="M796.501 138.72L792.501 138V139.5L784.943 139.926V157L787.001 157.979L796.501 155.847V138.72Z" fill="white"/>
<path d="M796.501 167.72L792.501 167V168.5L784.943 168.926V186L787.001 186.979L796.501 184.847V167.72Z" fill="white"/>
<path d="M597 125.51L600.086 125L612.5 127.974L624.5 125.51L627 126.043V147.863L615 150.979L612.943 151L597 146.385V125.51Z" fill="white"/>
<path d="M597 155.51L600.086 155L612.5 157.974L624.5 155.51L627 156.043V177.863L615 180.979L612.943 181L597 176.385V155.51Z" fill="white"/>
<path d="M597 185.51L600.086 185L612.5 187.974L624.5 185.51L627 186.043V207.863L615 210.979L612.943 211L597 206.385V185.51Z" fill="white"/>
<path d="M512 107.489L515.086 107L530 110.426V129.021L527.943 130L512 124.617V107.489Z" fill="white"/>
<path d="M512 134.489L515.086 134L530 138.894V156.021L527.943 157L512 151.617V134.489Z" fill="white"/>
<path d="M512 161.489L515.086 161L530 165.894V183.021L527.943 184L512 178.617V161.489Z" fill="white"/>
<path d="M517.5 214L529.286 213L531 222L529.286 231L517.5 229L516 221L517.5 214Z" fill="black"/>
<path d="M541.5 224L553.286 223L555 232L553.286 241L541.5 239L540 231L541.5 224Z" fill="black"/>
<path d="M530 211L525 212V213.5H526.5L528 222L526 230.272H525.035L525.5 231.5L529.5 232.5L532 222.5L530 211Z" fill="#6A6A6A"/>
<path d="M554 221L549 222V223.5H550.5L552 232L550 240.272H549.035L549.5 241.5L553.5 242.5L556 232.5L554 221Z" fill="#6A6A6A"/>
<path d="M567.5 234L579.286 233L581 242L579.286 251L567.5 249L566 241L567.5 234Z" fill="black"/>
<path d="M580 231L575 232V233.5H576.5L578 242L576 250.272H575.035L575.5 251.5L579.5 252.5L582 242.5L580 231Z" fill="#6A6A6A"/>
<path d="M689 260L700 267.159H707.5V230.307L713 222.5L706 223.307L701 230.307V258L689 260Z" fill="#E0E0E0"/>
<path d="M736 261L739 256.5V227.5L732.5 221L713 222.5L707.5 230.307V267.159L736 261Z" fill="white"/>
<path fill-rule="evenodd" clip-rule="evenodd" d="M673 43L621.5 46L697 54L710.5 65V133L719 140.312L736 138.5L742 128.5V59.5L731.5 49L673 43Z" fill="white"/>
<path d="M703.5 133L712 140.312H719L710.5 133V65L697 54L621.5 46L622 52.5L692.5 59.5L703.5 68.5V133Z" fill="#E0E0E0"/>
<path d="M519.657 221.175C508.157 220.508 492.402 221.051 486.614 235.675C467.613 283.675 524.875 362.872 481.157 368.675C424.657 376.175 435.114 427.175 467.613 427.175C524.622 427.175 524 415.5 561.5 423" stroke="#8115A8" stroke-width="8"/>
<path d="M570.656 242.175C559.156 241.508 543.402 242.051 537.614 256.675C518.613 304.675 569.681 366.503 532.156 389.675C479 422.5 456.999 450.5 479.5 464C505.825 479.794 520 376 552.5 402.5" stroke="#8115A8" stroke-width="8"/>
<path d="M546.656 231.175C535.156 230.508 519.402 231.051 513.614 245.675C494.613 293.675 537.157 345.449 508.156 378.675C407.5 494 599.086 466 722.543 466C828.053 466 771 415.5 752 424" stroke="#8115A8" stroke-width="8"/>
<path d="M499 227L593.5 405L656.5 412.5L720 405L804.5 227H499Z" fill="url(#paint1_linear_0_1)"/>
<path d="M562 231L617.679 409H692.213L742 231H562Z" fill="url(#paint2_linear_0_1)"/>
<rect x="581.728" y="311.566" width="9.14202" height="9.14202" transform="rotate(38.7914 581.728 311.566)" fill="#8115A8"/>
<path d="M668.728 330L679.639 341.685L667.954 352.596L657.043 340.911L668.728 330Z" fill="#8115A8"/>
<rect x="606.667" y="360.347" width="6.91177" height="6.91177" transform="rotate(54.3867 606.667 360.347)" fill="#8115A8"/>
<rect x="723.158" y="323.568" width="6.91177" height="6.91177" transform="rotate(107.54 723.158 323.568)" fill="#8115A8"/>
<rect x="668.619" y="298" width="6.91177" height="6.91177" transform="rotate(54.3867 668.619 298)" fill="#8115A8"/>
<rect x="701.143" y="369.982" width="6.91177" height="6.91177" transform="rotate(37.0143 701.143 369.982)" fill="#8115A8"/>
<path d="M436.252 428.558L536.867 437.731L561.717 458.343L492.089 474.873H380.414L310.786 458.343L335.636 437.731L436.252 428.558Z" fill="#C4C4C4"/>
<path d="M380.414 474.873L310.786 458.343L284.445 492.904L368.158 512.895L380.414 474.873Z" fill="#B4B4B4"/>
<path d="M492.089 474.873H380.414L368.158 512.895H503.722L492.089 474.873Z" fill="#A0A0A0"/>
<path d="M561.717 458.343L492.089 474.873L503.722 512.895L587.434 492.904L561.717 458.343Z" fill="#8D8D8D"/>
<path d="M435.627 436.054L500.099 441.935L516.022 455.148L471.406 465.744H399.848L355.232 455.148L371.155 441.935L435.627 436.054Z" fill="#FAFF00"/>
<path d="M319.221 470.321L333.578 473.824L332.029 485.165L326.419 495.144L313.255 488.087L314.66 478.015L319.221 470.321Z" fill="black"/>
<path d="M349.207 476.568L363.564 480.071L362.015 491.412L356.405 501.391L343.241 494.334L344.646 484.262L349.207 476.568Z" fill="black"/>
<path d="M335.22 471.739L328.9 470.934L328.304 472.711L330.08 473.308L328.476 483.972L322.817 492.975L321.674 492.591L321.737 494.23L326.077 497.005L333.015 486.155L335.22 471.739Z" fill="#6A6A6A"/>
<path d="M365.206 477.986L358.886 477.182L358.29 478.958L360.067 479.555L358.463 490.219L352.804 499.222L351.66 498.838L351.723 500.477L356.063 503.252L363.002 492.402L365.206 477.986Z" fill="#6A6A6A"/>
<path d="M254.458 246.764V37.4834L458.117 24.3643L599.928 41.8564V251.137L373.155 292.994L254.458 246.764Z" fill="#808080"/>
<path d="M375.029 69.3441L253.209 46.2295V202.409L375.029 257.385V69.3441Z" fill="#6F6F6F"/>
<path d="M375.654 94.3326L244.463 71.218L245.088 21.2405L257.582 8.74607L458.117 0L599.928 12.4944L608.674 21.2405V74.9663L375.654 94.3326Z" fill="#FAFF00"/>
<path d="M244.463 188.041H254.458L375.029 234.895L412.512 231.147L420.634 234.895V292.994L375.029 301.74L244.463 244.266V188.041Z" fill="#FAFF00"/>
<path d="M245.088 69.9686V21.8652L373.155 44.3551V93.708L245.088 69.9686Z" fill="#C6CA00"/>
<path d="M244.463 244.266V188.666L375.029 244.266V301.115L244.463 244.266Z" fill="#C6CA00"/>
<path fill-rule="evenodd" clip-rule="evenodd" d="M481.232 133.066L457.493 135.805L442.499 152.432L444.373 292.183L576.814 261.758L582.436 249.888V128.693L573.066 120.571L549.326 123.07L538.706 141.187L494.976 146.81L481.232 133.066Z" fill="#3E3E3E"/>
<path d="M421.259 284.248L438.126 293.619L444.373 292.183L442.499 152.432L457.493 135.805L448.746 136.814L436.252 150.558V281.124L421.259 284.248Z" fill="#2B2B2B"/>
<path d="M526.729 207.796L539.08 220.122V222.311L533.078 228.301H530.786L518.406 218.331L517.303 217.443L516.353 218.493L504.008 232.146H501.233L495.851 232.145V223.966L508.202 211.641L509.266 210.579L508.202 209.517L495.851 197.192V195.002L501.853 189.013H504.145L516.524 198.982L517.628 199.871L518.578 198.82L530.923 185.168H533.078L539.08 191.158V193.347L526.729 205.673L525.665 206.734L526.729 207.796Z" stroke="#FAFF00" stroke-width="3"/>
<path d="M606.806 253.636L593.057 256.76L588.059 253.636V203.034L599.934 200.535V194.913L606.806 197.411V253.636Z" fill="#FAFF00"/>
<path fill-rule="evenodd" clip-rule="evenodd" d="M450.621 3.74854L386.274 7.49685L480.607 17.4924L497.474 31.2362V116.198L508.095 125.335L529.335 123.07L536.832 110.576V24.3643L523.713 11.2452L450.621 3.74854Z" fill="#3E3E3E"/>
<path d="M488.728 116.198L499.349 125.335H508.095L497.474 116.198V31.2362L480.607 17.4924L386.274 7.49685L386.899 15.6182L474.985 24.3643L488.728 35.6092V116.198Z" fill="#2B2B2B"/>
<path d="M249.461 84.3238L253.316 83.7124L271.951 87.9924V111.227L269.381 112.449L249.461 105.724V84.3238Z" fill="#3E3E3E"/>
<path d="M604.926 87.1104L599.929 86.2114V88.0856L590.486 88.6173V109.951L593.057 111.174L604.926 108.51V87.1104Z" fill="#3E3E3E"/>
<path d="M604.926 123.344L599.929 122.445V124.319L590.486 124.851V146.184L593.057 147.407L604.926 144.744V123.344Z" fill="#3E3E3E"/>
<path d="M604.926 159.578L599.929 158.679V160.553L590.486 161.085V182.418L593.057 183.641L604.926 180.978V159.578Z" fill="#3E3E3E"/>
<path d="M355.663 106.84L359.518 106.202L375.029 109.918L390.023 106.84L393.146 107.506V134.768L378.153 138.661L375.583 138.688L355.663 132.921V106.84Z" fill="#3E3E3E"/>
<path d="M355.663 144.323L359.518 143.685L375.029 147.402L390.023 144.323L393.146 144.989V172.251L378.153 176.145L375.583 176.171L355.663 170.404V144.323Z" fill="#3E3E3E"/>
<path d="M355.663 181.806L359.518 181.168L375.029 184.885L390.023 181.806L393.146 182.472V209.735L378.153 213.628L375.583 213.654L355.663 207.887V181.806Z" fill="#3E3E3E"/>
<path d="M249.461 118.059L253.316 117.447L271.951 123.562V144.962L269.381 146.184L249.461 139.459V118.059Z" fill="#3E3E3E"/>
<path d="M249.461 151.794L253.316 151.182L271.951 157.296V178.696L269.381 179.919L249.461 173.194V151.794Z" fill="#3E3E3E"/>
<path d="M256.332 217.402L271.058 216.153L273.2 227.398L271.058 238.643L256.332 236.144L254.458 226.148L256.332 217.402Z" fill="black"/>
<path d="M286.319 229.897L301.045 228.647L303.187 239.892L301.045 251.137L286.319 248.638L284.445 238.643L286.319 229.897Z" fill="black"/>
<path d="M271.95 213.654L265.703 214.904V216.778H267.577L269.451 227.398L266.953 237.734H265.746L266.328 239.268L271.326 240.517L274.449 228.023L271.95 213.654Z" fill="#6A6A6A"/>
<path d="M301.938 226.148L295.69 227.398V229.272H297.565L299.439 239.892L296.94 250.228H295.734L296.315 251.762L301.313 253.011L304.437 240.517L301.938 226.148Z" fill="#6A6A6A"/>
<path d="M260.277 226.367C245.908 225.534 226.224 226.213 218.992 244.484C195.252 304.457 266.797 403.408 212.173 410.659C141.58 420.03 154.645 483.751 195.251 483.751C266.481 483.751 271.326 470.414 318.18 479.785" stroke="#FAFF00" stroke-width="8"/>
<path d="M290.263 238.862C275.895 238.029 251.062 245.973 245.713 264.881C218.85 359.839 303.187 405.443 245.714 434.18C151.667 481.204 205.107 516.019 245.713 516.019C300.063 516.019 298.814 476.661 345.668 486.032" stroke="#FAFF00" stroke-width="8"/>
<path d="M241.34 237.394L359.412 459.794H517.466L623.043 237.394H241.34Z" fill="url(#paint3_linear_0_1)"/>
<path d="M315.681 237.394L385.248 459.794H478.374L540.58 237.394H315.681Z" fill="url(#paint4_linear_0_1)"/>
<defs>
<linearGradient id="paint0_linear_0_1" x1="223.194" y1="292" x2="223.194" y2="411" gradientUnits="userSpaceOnUse">
<stop stop-color="white" stop-opacity="0"/>
<stop offset="1" stop-color="white" stop-opacity="0.18"/>
</linearGradient>
<linearGradient id="paint1_linear_0_1" x1="653.5" y1="286" x2="653.5" y2="405" gradientUnits="userSpaceOnUse">
<stop stop-color="#9E00FF" stop-opacity="0"/>
<stop offset="1" stop-color="#92009F" stop-opacity="0.18"/>
</linearGradient>
<linearGradient id="paint2_linear_0_1" x1="653.031" y1="290" x2="653.031" y2="409" gradientUnits="userSpaceOnUse">
<stop stop-color="#9E00FF" stop-opacity="0"/>
<stop offset="1" stop-color="#92009F" stop-opacity="0.18"/>
</linearGradient>
<linearGradient id="paint3_linear_0_1" x1="434.378" y1="311.11" x2="434.378" y2="459.794" gradientUnits="userSpaceOnUse">
<stop stop-color="#FAFF00" stop-opacity="0"/>
<stop offset="1" stop-color="#FAFF00" stop-opacity="0.18"/>
</linearGradient>
<linearGradient id="paint4_linear_0_1" x1="429.418" y1="311.11" x2="429.418" y2="459.794" gradientUnits="userSpaceOnUse">
<stop stop-color="#FAFF00" stop-opacity="0"/>
<stop offset="1" stop-color="#FAFF00" stop-opacity="0.18"/>
</linearGradient>
</defs>
</svg>
