<svg width="40" height="40" viewBox="0 0 40 40" fill="none" xmlns="http://www.w3.org/2000/svg">
<path d="M5.71429 5.71429V8.57143H3.74669e-07V4.28571L4.28571 3.74669e-07H8.57143V5.71429H5.71429Z" fill="black"/>
<path d="M34.2857 34.2857V31.4286H40V35.7143L35.7143 40H31.4286V34.2857H34.2857Z" fill="black"/>
<path d="M34.2857 5.71429H31.4286V0L35.7143 1.87334e-07L40 4.28571V8.57143L34.2857 8.57143V5.71429Z" fill="black"/>
<path d="M5.71429 34.2857H8.57143L8.57143 40H4.28571L1.87335e-07 35.7143L0 31.4286H5.71429V34.2857Z" fill="black"/>
<path d="M11 14.2427V12.8284L13.8284 10H15.2426L20.5 15.2574L25.7574 10H27.1716L30 12.8284V14.2426L24.7427 19.5L30 24.7574V26.1716L27.1716 29H25.7574L20.5 23.7427L15.2427 29L11.0001 29V24.7574L16.2574 19.5L11 14.2427Z" fill="black"/>
</svg>
