<svg width="151" height="93" viewBox="0 0 151 93" fill="none" xmlns="http://www.w3.org/2000/svg">
<path d="M19.438 92.16C16.0247 92.16 12.91 91.2213 10.094 89.344C7.278 87.3813 5.01667 84.9067 3.31 81.92C1.60333 78.848 0.75 75.648 0.75 72.32V19.072C0.75 15.6587 1.60333 12.5013 3.31 9.6C5.01667 6.69867 7.278 4.39467 10.094 2.688C12.91 0.895999 16.0247 0 19.438 0H72.558C75.9713 0 79.086 0.895999 81.902 2.688C84.718 4.39467 86.9793 6.69867 88.686 9.6C90.3927 12.5013 91.246 15.6587 91.246 19.072V72.32C91.246 75.648 90.3927 78.848 88.686 81.92C86.9793 84.9067 84.718 87.3813 81.902 89.344C79.086 91.2213 75.9713 92.16 72.558 92.16H19.438ZM30.83 71.296H71.662V36.992L30.83 71.296ZM20.334 54.4L61.166 20.096H20.334V54.4Z" fill="white" fill-opacity="0.2"/>
<path d="M130.54 92.16V29.824L126.316 35.072H100.332L129.772 0H150.124V92.16H130.54Z" fill="white" fill-opacity="0.2"/>
</svg>
