<svg width="198" height="93" viewBox="0 0 198 93" fill="none" xmlns="http://www.w3.org/2000/svg">
<path d="M19.313 92.16C15.8997 92.16 12.785 91.2213 9.969 89.344C7.153 87.3813 4.89167 84.9067 3.185 81.92C1.47833 78.848 0.625 75.648 0.625 72.32V19.072C0.625 15.6587 1.47833 12.5013 3.185 9.6C4.89167 6.69867 7.153 4.39467 9.969 2.688C12.785 0.895999 15.8997 0 19.313 0H72.433C75.8463 0 78.961 0.895999 81.777 2.688C84.593 4.39467 86.8543 6.69867 88.561 9.6C90.2677 12.5013 91.121 15.6587 91.121 19.072V72.32C91.121 75.648 90.2677 78.848 88.561 81.92C86.8543 84.9067 84.593 87.3813 81.777 89.344C78.961 91.2213 75.8463 92.16 72.433 92.16H19.313ZM30.705 71.296H71.537V36.992L30.705 71.296ZM20.209 54.4L61.041 20.096H20.209V54.4Z" fill="white" fill-opacity="0.2"/>
<path d="M107.375 92.16V56.448C107.375 53.0347 108.228 49.92 109.935 47.104C111.642 44.288 113.903 42.0693 116.719 40.448C119.535 38.7413 122.65 37.888 126.063 37.888H178.287V19.584H126.959V27.008H107.375V18.56C107.375 15.1467 108.228 12.032 109.935 9.216C111.642 6.4 113.903 4.18133 116.719 2.56C119.535 0.853333 122.65 0 126.063 0H179.183C182.596 0 185.711 0.853333 188.527 2.56C191.343 4.18133 193.604 6.4 195.311 9.216C197.018 12.032 197.871 15.1467 197.871 18.56V38.912C197.871 42.3253 197.018 45.44 195.311 48.256C193.604 51.072 191.343 53.3333 188.527 55.04C185.711 56.7467 182.596 57.6 179.183 57.6H126.959V72.576H197.871V92.16H107.375Z" fill="white" fill-opacity="0.2"/>
</svg>
