<svg width="198" height="93" viewBox="0 0 198 93" fill="none" xmlns="http://www.w3.org/2000/svg">
<path d="M19.563 92.16C16.1497 92.16 13.035 91.2213 10.219 89.344C7.403 87.3813 5.14167 84.9067 3.435 81.92C1.72833 78.848 0.875 75.648 0.875 72.32V19.072C0.875 15.6587 1.72833 12.5013 3.435 9.6C5.14167 6.69867 7.403 4.39467 10.219 2.688C13.035 0.895999 16.1497 0 19.563 0H72.683C76.0963 0 79.211 0.895999 82.027 2.688C84.843 4.39467 87.1043 6.69867 88.811 9.6C90.5177 12.5013 91.371 15.6587 91.371 19.072V72.32C91.371 75.648 90.5177 78.848 88.811 81.92C87.1043 84.9067 84.843 87.3813 82.027 89.344C79.211 91.2213 76.0963 92.16 72.683 92.16H19.563ZM30.955 71.296H71.787V36.992L30.955 71.296ZM20.459 54.4L61.291 20.096H20.459V54.4Z" fill="white" fill-opacity="0.2"/>
<path d="M125.801 92.16C122.388 92.16 119.273 91.3067 116.457 89.6C113.641 87.8933 111.38 85.632 109.673 82.816C107.966 80 107.113 76.928 107.113 73.6V66.432H126.697V72.576H178.025V55.552H122.217V35.968H174.569V19.584H126.697V26.752H107.113V18.56C107.113 15.1467 107.966 12.032 109.673 9.216C111.38 6.4 113.641 4.18133 116.457 2.56C119.273 0.853333 122.388 0 125.801 0H175.593C179.006 0 182.121 0.853333 184.937 2.56C187.753 4.18133 189.972 6.4 191.593 9.216C193.3 12.032 194.153 15.1467 194.153 18.56V36.992C194.153 37.9307 194.068 38.9547 193.897 40.064C193.812 41.088 193.641 42.0267 193.385 42.88C194.665 44.416 195.689 46.208 196.457 48.256C197.225 50.2187 197.609 52.3093 197.609 54.528V73.6C197.609 76.928 196.756 80 195.049 82.816C193.428 85.632 191.209 87.8933 188.393 89.6C185.577 91.3067 182.462 92.16 179.049 92.16H125.801Z" fill="white" fill-opacity="0.2"/>
</svg>
