<svg width="188" height="93" viewBox="0 0 188 93" fill="none" xmlns="http://www.w3.org/2000/svg">
<path d="M18.688 92.16C15.2747 92.16 12.16 91.2213 9.344 89.344C6.528 87.3813 4.26667 84.9067 2.56 81.92C0.853333 78.848 0 75.648 0 72.32V19.072C0 15.6587 0.853333 12.5013 2.56 9.6C4.26667 6.69867 6.528 4.39467 9.344 2.688C12.16 0.895999 15.2747 0 18.688 0H71.808C75.2213 0 78.336 0.895999 81.152 2.688C83.968 4.39467 86.2293 6.69867 87.936 9.6C89.6427 12.5013 90.496 15.6587 90.496 19.072V72.32C90.496 75.648 89.6427 78.848 87.936 81.92C86.2293 84.9067 83.968 87.3813 81.152 89.344C78.336 91.2213 75.2213 92.16 71.808 92.16H18.688ZM30.08 71.296H70.912V36.992L30.08 71.296ZM19.584 54.4L60.416 20.096H19.584V54.4Z" fill="white" fill-opacity="0.2"/>
<path d="M155.39 92.16V69.248H100.222V51.712L157.438 0H174.974V49.536H187.262V69.248H174.974V92.16H155.39ZM132.094 49.536H155.39V30.592L132.094 49.536Z" fill="white" fill-opacity="0.2"/>
</svg>
