<svg width="198" height="93" viewBox="0 0 198 93" fill="none" xmlns="http://www.w3.org/2000/svg">
<path d="M19.313 92.16C15.8997 92.16 12.785 91.2213 9.969 89.344C7.153 87.3813 4.89167 84.9067 3.185 81.92C1.47833 78.848 0.625 75.648 0.625 72.32V19.072C0.625 15.6587 1.47833 12.5013 3.185 9.6C4.89167 6.69867 7.153 4.39467 9.969 2.688C12.785 0.895999 15.8997 0 19.313 0H72.433C75.8463 0 78.961 0.895999 81.777 2.688C84.593 4.39467 86.8543 6.69867 88.561 9.6C90.2677 12.5013 91.121 15.6587 91.121 19.072V72.32C91.121 75.648 90.2677 78.848 88.561 81.92C86.8543 84.9067 84.593 87.3813 81.777 89.344C78.961 91.2213 75.8463 92.16 72.433 92.16H19.313ZM30.705 71.296H71.537V36.992L30.705 71.296ZM20.209 54.4L61.041 20.096H20.209V54.4Z" fill="white" fill-opacity="0.2"/>
<path d="M126.063 92.16C122.65 92.16 119.535 91.3067 116.719 89.6C113.903 87.8933 111.642 85.632 109.935 82.816C108.228 80 107.375 76.928 107.375 73.6V66.432H126.959V72.576H178.287V55.296H107.375V0H197.871V19.584H126.959V35.584H179.183C182.596 35.584 185.711 36.4373 188.527 38.144C191.343 39.7653 193.604 41.984 195.311 44.8C197.018 47.616 197.871 50.7307 197.871 54.144V73.6C197.871 76.928 197.018 80 195.311 82.816C193.604 85.632 191.343 87.8933 188.527 89.6C185.711 91.3067 182.596 92.16 179.183 92.16H126.063Z" fill="white" fill-opacity="0.2"/>
</svg>
