<svg width="697" height="370" viewBox="0 0 697 370" fill="none" xmlns="http://www.w3.org/2000/svg">
<path d="M141.254 0L133 8.2589V106.741L141.254 115H239.746L248 106.741V16.5178L239.746 8.2589H182.527L174.272 0H141.254Z" fill="white"/>
<path d="M376.746 115L385 106.741L385 8.25891L376.746 -7.21625e-07L278.254 -9.332e-06L270 8.2589L270 98.4822L278.254 106.741L335.473 106.741L343.728 115L376.746 115Z" fill="white"/>
<path d="M417.254 0L409 8.2589V106.741L417.254 115H515.746L524 106.741V16.5178L515.746 8.2589H458.527L450.272 0H417.254Z" fill="white"/>
<path d="M372.982 326.149L370.701 326.149L369.089 327.764L351.022 345.867L165.089 345.867L138.501 319.225L138.501 163.584L143.964 158.11L261.526 158.11L277.857 174.473L279.468 176.088L281.75 176.088L416.026 176.088L418.307 176.088L419.919 174.473L438.854 155.5L499.478 155.5L516.806 172.863L516.806 308.786L499.478 326.149L372.982 326.149Z" stroke="#FAFF00" stroke-width="11"/>
<path d="M347.447 156.644L338.211 166.61L354.374 166.61L363.61 156.644L347.447 156.644Z" fill="white"/>
<path d="M363.61 156.644L354.374 166.61L365.919 166.61L375.155 156.644L363.61 156.644Z" fill="white"/>
<path d="M379.773 156.644L370.537 166.61L386.7 166.61L395.936 156.644L379.773 156.644Z" fill="white"/>
<path d="M395.936 156.644L386.7 166.61L402.863 166.61L412.099 156.644L395.936 156.644Z" fill="white"/>
<path d="M412.099 156.644L402.863 166.61L414.408 166.61L423.644 156.644L412.099 156.644Z" fill="white"/>
<path d="M274.426 156.644L342.829 156.644L333.594 166.61L284.047 166.61L274.426 156.644Z" fill="white"/>
<path d="M334.479 253H327.564L322.954 248.368V222.895L320.649 220.579H311.429L309.124 222.895V234.474H320.649V243.737H309.124V248.368L304.514 253H297.599V215.947L304.514 209H327.564L334.479 215.947V253Z" fill="#FAFF00"/>
<path d="M263.024 253L258.414 253V213.632L263.024 209H286.074L295.294 218.263L287.226 226.368L281.464 220.579H269.939V241.421H283.769V239.105H279.159V232.158L281.464 229.842H295.294V248.368L290.684 253H263.024Z" fill="#FAFF00"/>
<path d="M251.499 220.579H232.322V225.211H246.888L249.194 227.526V234.474L246.888 236.789H232.322V241.421H256.109V246.053V253L253.804 253H225.407L220.797 248.368V213.632L225.407 209H253.804L256.109 211.316V215.947L251.499 220.579Z" fill="#FAFF00"/>
<path d="M431.289 220.579H410.544V225.211H426.679L428.984 227.526V234.474L426.679 236.789H410.544V241.421H433.594L435.9 243.737V253L433.594 253H403.629L399.019 253V213.632L403.629 209H433.594L435.9 211.316V215.947L431.289 220.579Z" fill="#FAFF00"/>
<path d="M385.189 248.368V220.579L382.884 220.579L369.054 234.474H364.444L350.614 220.579H348.309V248.368L343.699 253H336.784V213.632L341.394 209L355.224 209L364.444 218.263L369.054 218.263L378.274 209L392.104 209L396.714 213.632V253H389.799L385.189 248.368Z" fill="#FAFF00"/>
<path fill-rule="evenodd" clip-rule="evenodd" d="M218.492 220.579L206.967 209H180.61L176 213.632V253H206.967L218.492 241.421V220.579ZM202.357 220.579L206.967 225.211V236.789L202.357 241.421H187.525V222.895L189.83 220.579H202.357Z" fill="#FAFF00"/>
<path d="M438.205 218.825V215.55L444.724 209L447.984 209L460.102 221.175L472.221 209H475.48L482 215.55V218.825L469.882 231L482 243.175V246.45L475.48 253H472.221L460.102 240.825L447.984 253H444.724L438.205 253V243.175L450.323 231L438.205 218.825Z" fill="#FAFF00"/>
<path d="M179.68 288C179.072 288 178.512 287.848 178 287.544C177.504 287.24 177.104 286.84 176.8 286.344C176.496 285.832 176.344 285.272 176.344 284.664V274.056C176.344 273.448 176.496 272.896 176.8 272.4C177.104 271.888 177.504 271.48 178 271.176C178.512 270.872 179.072 270.72 179.68 270.72H193.576V273.912H180.352C180.096 273.912 179.888 273.984 179.728 274.128C179.584 274.272 179.512 274.48 179.512 274.752V283.968C179.512 284.224 179.584 284.432 179.728 284.592C179.888 284.736 180.096 284.808 180.352 284.808H193.576V288H179.68Z" fill="#FAFF00"/>
<path d="M199.366 288C198.758 288 198.198 287.848 197.686 287.544C197.19 287.24 196.79 286.84 196.486 286.344C196.182 285.832 196.03 285.272 196.03 284.664V274.056C196.03 273.448 196.182 272.896 196.486 272.4C196.79 271.888 197.19 271.48 197.686 271.176C198.198 270.872 198.758 270.72 199.366 270.72H209.974C210.582 270.72 211.134 270.872 211.63 271.176C212.142 271.48 212.55 271.888 212.854 272.4C213.158 272.896 213.31 273.448 213.31 274.056V284.664C213.31 285.272 213.158 285.832 212.854 286.344C212.55 286.84 212.142 287.24 211.63 287.544C211.134 287.848 210.582 288 209.974 288H199.366ZM199.486 284.808H209.806C209.886 284.808 209.958 284.784 210.022 284.736C210.086 284.672 210.118 284.6 210.118 284.52V274.2C210.118 274.12 210.086 274.056 210.022 274.008C209.958 273.944 209.886 273.912 209.806 273.912H199.486C199.406 273.912 199.334 273.944 199.27 274.008C199.222 274.056 199.198 274.12 199.198 274.2V284.52C199.198 284.6 199.222 284.672 199.27 284.736C199.334 284.784 199.406 284.808 199.486 284.808Z" fill="#FAFF00"/>
<path d="M215.953 288V270.72H219.433L230.041 283.344V270.72H233.233V288H229.753L219.121 275.352V288H215.953Z" fill="#FAFF00"/>
<path d="M242.114 288V273.912H235.058V270.72H252.338V273.912H245.306V288H242.114Z" fill="#FAFF00"/>
<path d="M267.909 288L262.701 281.784H266.853L271.365 287.112V288H267.909ZM254.133 288V270.744H268.053C268.661 270.744 269.221 270.896 269.733 271.2C270.245 271.504 270.653 271.912 270.957 272.424C271.261 272.92 271.413 273.472 271.413 274.08V278.736C271.413 279.344 271.261 279.904 270.957 280.416C270.653 280.928 270.245 281.336 269.733 281.64C269.221 281.928 268.661 282.072 268.053 282.072L257.301 282.096V288H254.133ZM257.589 278.88H267.909C267.989 278.88 268.061 278.856 268.125 278.808C268.189 278.76 268.221 278.696 268.221 278.616V274.2C268.221 274.12 268.189 274.056 268.125 274.008C268.061 273.944 267.989 273.912 267.909 273.912H257.589C257.509 273.912 257.437 273.944 257.373 274.008C257.325 274.056 257.301 274.12 257.301 274.2V278.616C257.301 278.696 257.325 278.76 257.373 278.808C257.437 278.856 257.509 278.88 257.589 278.88Z" fill="#FAFF00"/>
<path d="M273.986 288V274.056C273.986 273.448 274.138 272.896 274.442 272.4C274.746 271.888 275.146 271.48 275.642 271.176C276.154 270.872 276.714 270.72 277.322 270.72H287.906C288.514 270.72 289.074 270.872 289.586 271.176C290.098 271.48 290.506 271.888 290.81 272.4C291.114 272.896 291.266 273.448 291.266 274.056V288H288.074V282.192H277.154V288H273.986ZM277.154 279.024H288.074V274.2C288.074 274.12 288.042 274.056 287.978 274.008C287.914 273.944 287.842 273.912 287.762 273.912H277.442C277.362 273.912 277.29 273.944 277.226 274.008C277.178 274.056 277.154 274.12 277.154 274.2V279.024Z" fill="#FAFF00"/>
<path d="M297.336 288C296.728 288 296.168 287.848 295.656 287.544C295.16 287.24 294.76 286.84 294.456 286.344C294.152 285.832 294 285.272 294 284.664V274.056C294 273.448 294.152 272.896 294.456 272.4C294.76 271.888 295.16 271.48 295.656 271.176C296.168 270.872 296.728 270.72 297.336 270.72H311.232V273.912H298.008C297.752 273.912 297.544 273.984 297.384 274.128C297.24 274.272 297.168 274.48 297.168 274.752V283.968C297.168 284.224 297.24 284.432 297.384 284.592C297.544 284.736 297.752 284.808 298.008 284.808H311.232V288H297.336Z" fill="#FAFF00"/>
<path d="M319.927 288V273.912H312.871V270.72H330.151V273.912H323.119V288H319.927Z" fill="#FAFF00"/>
<path d="M342.569 288C341.961 288 341.401 287.848 340.889 287.544C340.393 287.24 339.993 286.84 339.689 286.344C339.385 285.832 339.233 285.272 339.233 284.664V274.056C339.233 273.448 339.385 272.896 339.689 272.4C339.993 271.888 340.393 271.48 340.889 271.176C341.401 270.872 341.961 270.72 342.569 270.72H353.177C353.785 270.72 354.337 270.872 354.833 271.176C355.345 271.48 355.753 271.888 356.057 272.4C356.361 272.896 356.513 273.448 356.513 274.056V284.664C356.513 285.272 356.361 285.832 356.057 286.344C355.753 286.84 355.345 287.24 354.833 287.544C354.337 287.848 353.785 288 353.177 288H342.569ZM342.689 284.808H353.009C353.089 284.808 353.161 284.784 353.225 284.736C353.289 284.672 353.321 284.6 353.321 284.52V274.2C353.321 274.12 353.289 274.056 353.225 274.008C353.161 273.944 353.089 273.912 353.009 273.912H342.689C342.609 273.912 342.537 273.944 342.473 274.008C342.425 274.056 342.401 274.12 342.401 274.2V284.52C342.401 284.6 342.425 284.672 342.473 284.736C342.537 284.784 342.609 284.808 342.689 284.808Z" fill="#FAFF00"/>
<path d="M359.156 288V270.72H362.636L373.244 283.344V270.72H376.436V288H372.956L362.324 275.352V288H359.156Z" fill="#FAFF00"/>
<path d="M386.533 288V270.72H399.781C400.389 270.72 400.941 270.872 401.437 271.176C401.949 271.48 402.357 271.888 402.661 272.4C402.965 272.896 403.117 273.448 403.117 274.056V277.44C403.117 277.648 403.101 277.848 403.069 278.04C403.037 278.232 402.981 278.416 402.901 278.592C403.173 278.96 403.389 279.344 403.549 279.744C403.725 280.144 403.813 280.544 403.813 280.944V284.664C403.813 285.272 403.661 285.832 403.357 286.344C403.053 286.84 402.645 287.24 402.133 287.544C401.621 287.848 401.061 288 400.453 288H386.533ZM389.989 284.808H400.309C400.389 284.808 400.461 284.784 400.525 284.736C400.589 284.672 400.621 284.6 400.621 284.52V281.088C400.621 281.008 400.589 280.944 400.525 280.896C400.461 280.832 400.389 280.8 400.309 280.8H389.989C389.909 280.8 389.837 280.832 389.773 280.896C389.725 280.944 389.701 281.008 389.701 281.088V284.52C389.701 284.6 389.725 284.672 389.773 284.736C389.837 284.784 389.909 284.808 389.989 284.808ZM389.989 277.608H399.637C399.717 277.608 399.781 277.584 399.829 277.536C399.877 277.472 399.901 277.4 399.901 277.32V274.2C399.901 274.12 399.877 274.056 399.829 274.008C399.781 273.944 399.717 273.912 399.637 273.912H389.989C389.909 273.912 389.837 273.944 389.773 274.008C389.725 274.056 389.701 274.12 389.701 274.2V277.32C389.701 277.4 389.725 277.472 389.773 277.536C389.837 277.584 389.909 277.608 389.989 277.608Z" fill="#FAFF00"/>
<path d="M406.454 288V270.696H409.622V284.808H423.734V288H406.454Z" fill="#FAFF00"/>
<path d="M425.181 288V274.056C425.181 273.448 425.333 272.896 425.637 272.4C425.941 271.888 426.341 271.48 426.837 271.176C427.349 270.872 427.909 270.72 428.517 270.72H439.101C439.709 270.72 440.269 270.872 440.781 271.176C441.293 271.48 441.701 271.888 442.005 272.4C442.309 272.896 442.461 273.448 442.461 274.056V288H439.269V282.192H428.349V288H425.181ZM428.349 279.024H439.269V274.2C439.269 274.12 439.237 274.056 439.173 274.008C439.109 273.944 439.037 273.912 438.957 273.912H428.637C428.557 273.912 428.485 273.944 428.421 274.008C428.373 274.056 428.349 274.12 428.349 274.2V279.024Z" fill="#FAFF00"/>
<path d="M448.46 288C447.852 288 447.292 287.848 446.78 287.544C446.284 287.24 445.884 286.84 445.58 286.344C445.276 285.832 445.124 285.272 445.124 284.664V283.344H448.292V284.52C448.292 284.6 448.316 284.672 448.364 284.736C448.428 284.784 448.5 284.808 448.58 284.808H458.924C459.004 284.808 459.068 284.784 459.116 284.736C459.18 284.672 459.212 284.6 459.212 284.52V281.232C459.212 281.152 459.18 281.088 459.116 281.04C459.068 280.992 459.004 280.968 458.924 280.968H448.46C447.852 280.968 447.292 280.816 446.78 280.512C446.284 280.208 445.884 279.808 445.58 279.312C445.276 278.8 445.124 278.232 445.124 277.608V274.056C445.124 273.448 445.276 272.896 445.58 272.4C445.884 271.888 446.284 271.48 446.78 271.176C447.292 270.872 447.852 270.72 448.46 270.72H459.068C459.676 270.72 460.228 270.872 460.724 271.176C461.236 271.48 461.644 271.888 461.948 272.4C462.252 272.896 462.404 273.448 462.404 274.056V275.376H459.212V274.2C459.212 274.12 459.18 274.056 459.116 274.008C459.068 273.944 459.004 273.912 458.924 273.912H448.58C448.5 273.912 448.428 273.944 448.364 274.008C448.316 274.056 448.292 274.12 448.292 274.2V277.488C448.292 277.568 448.316 277.632 448.364 277.68C448.428 277.728 448.5 277.752 448.58 277.752H459.068C459.676 277.752 460.228 277.904 460.724 278.208C461.236 278.512 461.644 278.92 461.948 279.432C462.252 279.928 462.404 280.488 462.404 281.112V284.664C462.404 285.272 462.252 285.832 461.948 286.344C461.644 286.84 461.236 287.24 460.724 287.544C460.228 287.848 459.676 288 459.068 288H448.46Z" fill="#FAFF00"/>
<path d="M471.216 288V273.912H464.16V270.72H481.44V273.912H474.408V288H471.216Z" fill="#FAFF00"/>
<path d="M190.5 115.5V127L198.5 135H276.5L299 157.5M312.5 107.5V127L320.5 135H335L357.5 157.5M468 115.5V127L460 135H421.5L399 157.5" stroke="white" stroke-width="2"/>
<path fill-rule="evenodd" clip-rule="evenodd" d="M205.451 89.3044C206.458 90.0226 207.754 90.2021 208.911 89.7611C210.067 89.317 210.917 88.3216 211.173 87.1151C213.889 74.2505 220.476 41.6889 222.948 29.9867C223.136 29.1047 222.823 28.188 222.136 27.599C221.448 27.0099 220.495 26.8398 219.645 27.158C206.542 32.0468 166.189 47.3085 149.695 53.4605C148.648 53.8511 147.967 54.8654 148.001 55.9774C148.039 57.0925 148.782 58.0595 149.854 58.384C157.251 60.6142 166.961 63.7169 166.961 63.7169C166.961 63.7169 171.498 77.5297 173.864 84.5542C174.161 85.4362 174.845 86.1292 175.748 86.3686C176.648 86.6048 177.611 86.356 178.282 85.7165C182.082 82.1003 187.958 76.5091 187.958 76.5091C187.958 76.5091 199.12 84.7589 205.451 89.3044ZM171.045 61.9718L176.292 79.4165L177.458 68.3695C177.458 68.3695 197.729 49.9388 209.286 39.4335C209.623 39.1248 209.67 38.6082 209.389 38.246C209.111 37.8837 208.598 37.7987 208.214 38.0444C194.82 46.6659 171.045 61.9718 171.045 61.9718Z" fill="black"/>
<path d="M354.379 31.9271C349.46 29.6254 344.199 27.9525 338.7 27C338.024 28.2211 337.235 29.8635 336.691 31.17C330.845 30.2909 325.053 30.2909 319.314 31.17C318.77 29.8635 317.963 28.2211 317.282 27C311.777 27.9525 306.51 29.6315 301.591 31.9393C291.668 46.9341 288.978 61.5565 290.323 75.9712C296.904 80.8861 303.282 83.8717 309.553 85.8254C311.101 83.6946 312.482 81.4295 313.671 79.0423C311.406 78.1814 309.236 77.1191 307.186 75.8858C307.73 75.4828 308.262 75.0615 308.776 74.628C321.281 80.477 334.868 80.477 347.224 74.628C347.744 75.0615 348.276 75.4828 348.814 75.8858C346.758 77.1251 344.582 78.1875 342.316 79.0484C343.506 81.4295 344.881 83.7007 346.435 85.8314C352.712 83.8777 359.096 80.8922 365.677 75.9712C367.255 59.2609 362.981 44.7728 354.379 31.9271ZM315.375 67.1063C311.621 67.1063 308.543 63.6018 308.543 59.3341C308.543 55.0665 311.555 51.5559 315.375 51.5559C319.195 51.5559 322.273 55.0603 322.208 59.3341C322.213 63.6018 319.195 67.1063 315.375 67.1063ZM340.625 67.1063C336.871 67.1063 333.792 63.6018 333.792 59.3341C333.792 55.0665 336.805 51.5559 340.625 51.5559C344.444 51.5559 347.523 55.0603 347.457 59.3341C347.457 63.6018 344.444 67.1063 340.625 67.1063Z" fill="black"/>
<path fill-rule="evenodd" clip-rule="evenodd" d="M474.597 66.5966C474.913 64.0563 475.091 61.3357 475.091 58.5C475.091 55.6643 474.913 52.9437 474.597 50.4034C472.056 50.0869 469.336 49.9091 466.5 49.9091C463.664 49.9091 460.944 50.0869 458.403 50.4034C458.087 52.9437 457.909 55.6643 457.909 58.5C457.909 61.3357 458.087 64.0563 458.403 66.5966C460.944 66.9131 463.664 67.0909 466.5 67.0909C469.336 67.0909 472.056 66.9131 474.597 66.5966ZM473.55 72.4903C471.28 72.7064 468.92 72.8182 466.5 72.8182C464.08 72.8182 461.72 72.7064 459.45 72.4903C461.131 79.6088 463.925 84.2727 466.5 84.2727C469.075 84.2727 471.869 79.6088 473.55 72.4903ZM473.55 44.5097C471.869 37.3912 469.075 32.7273 466.5 32.7273C463.925 32.7273 461.131 37.3912 459.45 44.5097C461.72 44.2936 464.08 44.1818 466.5 44.1818C468.92 44.1818 471.28 44.2936 473.55 44.5097ZM476.08 34.5666C477.612 37.5235 478.813 41.21 479.623 45.3767C483.79 46.1865 487.477 47.3881 490.433 48.9198C487.818 42.3915 482.609 37.1822 476.08 34.5666ZM456.92 34.5666C450.391 37.1822 445.182 42.3915 442.567 48.9198C445.523 47.3881 449.21 46.1865 453.377 45.3767C454.187 41.21 455.388 37.5235 456.92 34.5666ZM476.08 82.4334C482.609 79.8178 487.818 74.6085 490.433 68.0802C487.477 69.6119 483.79 70.8135 479.623 71.6233C478.813 75.79 477.612 79.4765 476.08 82.4334ZM456.92 82.4334C455.388 79.4765 454.187 75.79 453.377 71.6233C449.21 70.8135 445.523 69.6119 442.567 68.0802C445.182 74.6085 450.391 79.8178 456.92 82.4334ZM480.49 51.4503C480.706 53.7201 480.818 56.0802 480.818 58.5C480.818 60.9198 480.706 63.2799 480.49 65.5497C487.609 63.8693 492.273 61.0751 492.273 58.5C492.273 55.9249 487.609 53.1307 480.49 51.4503ZM452.51 65.5497C452.294 63.2799 452.182 60.9198 452.182 58.5C452.182 56.0802 452.294 53.7201 452.51 51.4503C445.391 53.1307 440.727 55.9249 440.727 58.5C440.727 61.0751 445.391 63.8693 452.51 65.5497ZM466.5 27C483.897 27 498 41.103 498 58.5C498 75.897 483.897 90 466.5 90C449.103 90 435 75.897 435 58.5C435 41.103 449.103 27 466.5 27Z" fill="black"/>
<path d="M583.527 142.36L499.129 172.525L502.338 180.868L586.736 149.419L696.807 123.426L679.799 118.933L583.527 142.36Z" fill="#444444"/>
<path d="M494.637 258.207L570.691 234.78L601.498 292.864L595.722 307.947L574.863 316.291L564.594 310.835L489.823 298.32L478.591 276.177L494.637 258.207Z" fill="#5F5F5F"/>
<path d="M563.952 250.184L579.676 245.049L599.252 305.701L567.161 277.403L512.607 278.103L563.952 272.968V250.184Z" fill="#444444"/>
<path d="M514.533 187.928L518.384 197.234L532.503 200.444L539.563 216.81L556.571 233.497L581.602 241.519L567.482 251.147V272.647L596.043 304.417L610.804 328.485L628.133 323.992L623.32 312.44V299.603L645.462 297.036L661.187 261.095L641.29 214.242L628.133 166.427L607.274 145.248L587.378 142.36L581.602 123.426L562.348 100L539.563 104.172L518.384 145.248L521.914 156.479L514.533 187.928Z" fill="#5F5F5F"/>
<path d="M590.267 254.677L573.9 251.468L579.356 245.37L595.401 248.9L608.558 260.453L603.745 265.908L590.267 254.677Z" fill="#444444"/>
<path d="M598.931 247.617L589.304 243.766L593.476 239.273L605.349 243.766L615.297 254.677L611.125 258.848L598.931 247.617Z" fill="#444444"/>
<path d="M575.826 222.586L587.699 197.555L601.819 192.421L622.678 200.123L605.67 243.766L567.482 254.997L533.787 265.587L518.384 260.132L526.085 248.9L575.826 222.586Z" fill="white"/>
<path d="M499.45 228.362L473.136 208.787H462.867L456.77 218.093L499.45 257.565H507.473L546.944 220.661L537.638 211.354L534.75 202.369L530.899 197.555L518.384 195.309L499.45 228.362Z" fill="white"/>
<path d="M549.511 122.784L566.84 124.71L569.087 136.904V159.368L557.855 175.734H545.981L533.145 149.099L534.108 129.844L549.511 122.784Z" fill="black"/>
<path d="M550.153 154.875L533.145 152.629L531.541 145.569L532.182 138.509L550.153 141.718L569.408 137.546L570.691 145.248L570.049 151.987L550.153 154.875Z" fill="white"/>
<path d="M493.995 168.995L494.637 173.808V174.45L498.808 182.152L502.98 185.682L504.906 185.04L502.98 176.055L496.241 168.032L493.995 168.995Z" fill="black"/>
<path d="M500.413 182.473L429.172 211.675L425.963 207.824L425 203.653L495.92 173.167L499.129 177.338L500.413 182.473Z" fill="black"/>
<path d="M568.766 330.089L572.296 314.044L581.602 312.761L595.401 306.342L604.143 324.313L605.67 318.858L611.446 324.313L620.753 320.783L623.641 312.761L628.454 314.044L637.44 335.545L620.753 365.389L606.954 369.561L595.401 365.389V359.613L601.498 335.545L588.662 348.381L557.213 352.232L553.362 341.963L568.766 330.089Z" fill="#444444"/>
<path d="M615.297 271.685L621.715 299.603L618.506 271.685H615.297Z" fill="#444444"/>
<path d="M473.136 199.802V210.071L466.397 218.414H457.411L446.822 204.294L466.397 195.63L479.875 185.682L483.405 187.286L473.136 199.802Z" fill="#444444"/>
<path d="M447.784 181.51L460.942 178.622L469.606 184.719L465.434 186.965V193.063L447.784 199.16L442.329 197.555L440.404 193.063L447.784 181.51Z" fill="#444444"/>
<path d="M491.347 284.002L498.198 266.455L499.499 265.202L498.509 261.473L507.152 252.155L521.785 250.229L527.69 247.662L535.071 255.182L536.033 265.202L525.734 270.328L521.785 274.667L517.508 289.697L513.506 289.201L513.154 281.531L511.639 285.099L509.341 294.051L505.633 294.281L503.989 291.777L502.104 293.383L498.536 291.868L499.406 279.903L494.661 285.409L491.347 284.002Z" fill="#444444"/>
<path d="M584.521 235.961L601.749 192.421L610.163 195.217L605.355 207.999L608.56 211.594L601.749 228.771L606.557 212.393L603.352 208.798L607.759 197.214L605.355 196.016L596.14 218.785L598.945 222.38L592.534 238.757V245.947L590.932 238.757L597.342 223.178L594.537 219.583L604.153 195.217L602.55 194.418L585.723 237.159L554.874 249.542L544.056 245.947L554.874 248.344L584.521 235.961Z" fill="#444444"/>
<path d="M530.899 197.555L523.518 196.272L513.57 215.847L508.436 218.414L513.57 216.81L524.802 197.555L528.011 198.197L510.04 226.758L508.436 237.159L511.003 226.758L530.899 197.555Z" fill="#444444"/>
</svg>
