<svg width="350" height="46" viewBox="0 0 350 46" fill="none" xmlns="http://www.w3.org/2000/svg">
<g clip-path="url(#clip0_45_299)">
<path d="M63.6897 13L55 4H65.8621L74.5517 13H63.6897Z" fill="#FAFF00"/>
<path d="M78.8965 13L70.2069 4H81.069L89.7586 13H78.8965Z" fill="#FAFF00"/>
<path d="M94.1035 13L85.4138 4H96.2759L104.966 13H94.1035Z" fill="#FAFF00"/>
<path d="M109.31 13L100.621 4H111.483L120.172 13H109.31Z" fill="#FAFF00"/>
<path d="M124.517 13L115.828 4H126.69L135.379 13H124.517Z" fill="#FAFF00"/>
<path d="M140 13L131.31 4H160L150.862 13H140Z" fill="#FAFF00"/>
<path d="M59.7929 17.2071L60.0858 17.5H60.5H153.5H153.914L154.207 17.2071L170.414 1H319.586L349 30.4142V51H1V15.4142L15.4142 1H43.5858L59.7929 17.2071Z" stroke="white" stroke-width="2"/>
</g>
<defs>
<clipPath id="clip0_45_299">
<rect width="350" height="46" fill="white"/>
</clipPath>
</defs>
</svg>
