<svg width="466" height="466" viewBox="0 0 466 466" fill="none" xmlns="http://www.w3.org/2000/svg">
<path d="M0 52.7074L53.0333 0H255.39L286.234 30.8439H342.037L357.509 15.3712H430.686L466 50.6854V414.966L414.65 466H21.0449L0 445.084V168.743L11.832 156.911V88.8312L0 76.9992V52.7074Z" fill="#BEBEBE"/>
<path fill-rule="evenodd" clip-rule="evenodd" d="M286.234 30.8439L255.39 0H53.0333L0 52.7074V76.9992L11.832 88.8312V156.911L0 168.743V445.084L21.0449 466H414.65L466 414.966V50.6854L430.686 15.3712H357.509L342.037 30.8439H286.234ZM360.978 23.7447L345.505 39.2173H282.765L251.921 8.37344H56.4865L8.37344 56.1909V73.5308L20.2055 85.3628V160.379L8.37344 172.211V441.601L24.4982 457.627H411.197L457.627 411.482V54.1537L427.218 23.7447H360.978Z" fill="white"/>
<path d="M115.732 384.896L74 458L413.926 454.987L429 432.537L380.678 373.945L319.178 325.483L287.879 303.579L218.691 335.887L166.8 346.839L115.732 384.896Z" fill="#7F7F7F"/>
<path d="M213.115 302.729V336.511L140.276 378.79L87.9851 456.87H410.312L400.901 400.621L341.673 344.106L293.663 321.798V253.969L213.115 302.729Z" fill="#D5D5D5"/>
<path d="M423.125 427.497L406.005 431.162L403.719 417.618L413.076 420.964L396.488 373.373L369.692 371.461L338.058 343.469L344.012 340.813L298.714 308.731L221.569 354.835L181.215 345.859L166.807 359.297L163.829 347.505L117.361 384.58L121.615 392.707L103.457 403.755L105.105 420.645L87.9851 435.465L89.3674 443.857L79.2657 456.817H250.119L250.279 456.87V456.817H270.27H286.22V456.87H413.076L423.125 427.497Z" fill="#D5D5D5"/>
<path d="M413.076 420.964L360.92 406.676H326.68L364.322 402.161L410.312 412.944L413.076 420.964Z" fill="#AAAAAA"/>
<path d="M105.105 420.645L133.896 441.892L103.457 403.755L105.105 420.645Z" fill="#AAAAAA"/>
<path d="M121.615 392.707L129.111 403.755L176.43 392.707L181.215 422.558L255.33 417.777L180.045 431.746L167.923 402.161L128.048 411.563L121.615 392.707Z" fill="#AAAAAA"/>
<path d="M230.129 396.265L344.012 340.813V348.727L274.895 382.774L230.129 396.265Z" fill="#AAAAAA"/>
<path d="M406.005 431.162L340.184 444.122L306.157 439.873H340.184L405.314 426.913L406.005 431.162Z" fill="#AAAAAA"/>
<path d="M89.3674 443.857L133.896 452.09L87.9851 435.465L89.3674 443.857Z" fill="#AAAAAA"/>
<path d="M176.43 392.707L221.569 382.774L167.923 402.161L176.43 392.707Z" fill="#AAAAAA"/>
<path d="M140.276 378.79L161.277 444.229L204.024 429.887L205.938 338.741L145.593 364.98L140.276 378.79Z" fill="white"/>
<path d="M287.549 321.798H293.663L357.73 351.17L364.322 365.671L295.737 446.778L249.481 429.781L287.549 321.798Z" fill="white"/>
<path d="M164.733 415.493L174.569 456.87H203.545L193.018 406.676L164.733 415.493Z" fill="#4B4B4B"/>
<path d="M272.981 406.676L250.864 456.87H282.764L298.927 416.237L272.981 406.676Z" fill="#4B4B4B"/>
<path d="M161.277 444.229L204.024 429.887L205.938 338.741L209.766 434.296L166.009 448.212L161.277 444.229Z" fill="#4B4B4B"/>
<path d="M249.269 429.675L294.408 446.141L364.322 365.671L295.365 454.267L250.279 438.545L249.269 429.675Z" fill="#4B4B4B"/>
<path d="M157.396 359.828L153.568 349.046L176.43 338.741L179.035 350.427L157.396 359.828Z" fill="#4B4B4B"/>
<path d="M329.232 180.989L319.875 119.8L254.107 84L178.663 92.3922L138.256 151.403L139.798 225.234L151.441 281.642L191.848 307.828L181.215 336.298L218.379 336.511L251.714 310.059L260.062 331.04L293.663 311.759L294.78 271.657L294.673 271.763L313.069 246.214L329.232 180.989Z" fill="#4B4B4B"/>
<path d="M250.279 259.918L247.621 241.965L254.054 208.821L239.699 185.716L237.306 175.677L233.266 165.165L218.902 145.392L202.854 136.637L174.569 133.822L152.026 136.637L140.702 145.392L131.238 153.581L125.921 170.525L122.146 194.002L115.607 222.259L128.792 252.27L127.091 270.648L142.722 299.117L160.214 302.251L174.729 320.948L201.95 319.779L205.938 313.512L211.095 319.354L218.698 319.036L221.569 297.577L254.795 280.421L254.107 268.629L250.279 259.918Z" fill="white"/>
<path d="M179.035 230.067L199.93 259.918L237.306 261.565L240.496 230.545L221.622 212.539L179.035 230.067Z" fill="#4B4B4B"/>
<path d="M270.27 308.519L260.54 323.657L213.328 355.42L190.2 352.817L181.215 336.298L218.91 335.501L250.279 309.528L256.181 292.584L264.102 285.254L270.27 308.519Z" fill="white"/>
<path d="M188.286 349.896L216.146 351.17L260.062 323.869L293.663 311.759L218.166 363.281L187.595 359.669L188.286 349.896Z" fill="#4B4B4B"/>
<path d="M164.84 248.658L166.7 281.642H195.304L171.804 248.658H164.84Z" fill="#4B4B4B"/>
<path d="M162.075 230.545V260.343L136.183 266.717L125.921 237.663L131.238 222.631L162.075 230.545Z" fill="#4B4B4B"/>
<path d="M267.452 151.403L258.679 170.525L270.801 186.938L290.845 184.335L294.78 162.345L285.103 150.129L267.452 151.403Z" fill="#626262"/>
<path d="M202.322 242.071L207.905 227.305L222.154 223.534L233.266 233.467L231.724 247.383L216.837 253.544L202.322 242.071Z" fill="#767676"/>
<path d="M160.214 302.251L154.1 293.593H139.692L142.722 299.117L160.214 302.251Z" fill="#D5D5D5"/>
<path d="M221.569 297.577L218.698 319.036L227.896 295.559L254.795 280.421L254.107 268.629L254.795 275.143L251.768 279.305L223.057 287.432L221.569 297.577Z" fill="#D5D5D5"/>
<path d="M276.756 186.194L311.9 214.451L314.239 260.502L296.481 272.453L276.756 263.689L272.29 268.629L296.906 280.421L320.725 264.699L317.748 210.68L284.519 185.132L276.756 186.194Z" fill="#D5D5D5"/>
<path d="M315.993 297.577V290.884L293.663 278.827L286.167 316.858L315.993 297.577Z" fill="white"/>
<path d="M138.256 192.09L128.846 195.542L140.276 181.732L138.256 192.09Z" fill="#D5D5D5"/>
<path d="M189.722 186.938L214.71 187.947L186.904 176.421L189.722 186.938Z" fill="#D5D5D5"/>
</svg>
