<svg width="252" height="259" viewBox="0 0 252 259" fill="none" xmlns="http://www.w3.org/2000/svg">
<path d="M35.0802 138.022L47.0756 173.19L77.6525 195.754L116.489 185.956C116.489 185.956 147.667 156.413 147.238 154.652C146.809 152.892 146.352 112.658 146.352 112.658L110.41 80.6745L64.8653 93.4357L35.0802 138.022Z" fill="white"/>
<path d="M28.5442 109.134L39.8059 106.246L37.5651 125.872L26.9008 121.235L28.5442 109.134Z" fill="#484A49"/>
<path d="M101.804 99.0945L116.742 106.239L121.303 92.5925L111.674 87.3589L101.804 99.0945Z" fill="#484A49"/>
<path d="M131.438 89.4751L136.709 81.5724L145.75 87.1473L140.544 97.9607L131.438 89.4751Z" fill="#484A49"/>
<path d="M124.895 169.151L139.956 170.421L138.353 180.477L123.701 183.31L124.895 169.151Z" fill="#484A49"/>
<path d="M47.8058 183.193L45.4741 198.248L56.9755 200.901L60.1889 192.974L47.8058 183.193Z" fill="#484A49"/>
<path d="M149.936 152.545L160.372 152.899L162.627 162.835L150.293 166.937L149.936 152.545Z" fill="#484A49"/>
<path d="M57.2078 138.565L58.072 151.627L72.3393 161.037L89.95 151.317L89.1636 136.378L75.6137 128.458L57.2078 138.565Z" fill="#484A49"/>
<path d="M76.0801 171.758L79.8152 173.857L83.5342 172.361L83.472 168.431L76.0801 171.758Z" fill="#FF0000"/>
<path d="M40.0921 106.664L50.9636 39.2842L53.621 37.532L45.9835 105.101L40.0921 106.664Z" fill="#D5D5D5"/>
<path d="M71.7549 83.5794L75.6448 40.0496L72.9719 41.792L65.14 94.3975L71.7549 83.5794Z" fill="#787878"/>
<path d="M121.292 87.7808L179.039 23.4085L182.814 25.194L127.12 90.737L121.292 87.7808Z" fill="#D5D5D5"/>
<path d="M144.218 81.9701L194.813 28.1574L198.18 29.2494L149.782 84.9877L144.218 81.9701Z" fill="#787878"/>
<path d="M56.289 215.034L118.597 227.167L120.668 223.497L59.8295 207.518L56.289 215.034Z" fill="#D5D5D5"/>
<path d="M138.439 191.215L240.094 171.422L238.483 168.422L141.338 182.616L138.439 191.215Z" fill="#D5D5D5"/>
<path d="M163.601 171.009L227.721 157.783L228.62 153.299L162.168 162.366L163.601 171.009Z" fill="#787878"/>
</svg>
