<svg width="466" height="466" viewBox="0 0 466 466" fill="none" xmlns="http://www.w3.org/2000/svg">
<g clip-path="url(#clip0_2179_1175)">
<path d="M345.869 3L358 15.2561L340.981 33H287.208L272 18L286.846 3H345.869Z" fill="#FF4800"/>
<path d="M0 52.7074L53.0333 0H255.39L286.234 30.8439H342.037L357.509 15.3712H430.686L466 50.6854V414.966L414.65 466H21.0449L0 445.084V168.743L11.832 156.911V88.8312L0 76.9992V52.7074Z" fill="#FAFF00"/>
<path d="M119.322 390.463L79 461L407.435 458.093L422 436.431L375.312 379.895L315.89 333.135L285.649 312L218.8 343.174L168.663 353.741L119.322 390.463Z" fill="#7F7F7F"/>
<path d="M115.709 373.824L131.094 313.264L121.553 308.421L95.8784 368.083L117.357 448.214C126.298 440.526 134.99 433.037 143.382 425.298L115.709 373.824Z" fill="#4B4B4B"/>
<path d="M384.694 293.443L374.704 299.584L398.93 358.347L369.159 416.262C379.399 427.046 389.939 437.081 401.277 446.267L429 366.685L384.694 293.443Z" fill="#4B4B4B"/>
<path d="M310.866 147.209L390.088 209.667L383.345 222.997L318.409 193.691L310.866 147.209Z" fill="#4B4B4B"/>
<path d="M182.293 147.209L103.071 209.667L109.815 222.997L174.751 193.691L182.293 147.209Z" fill="#4B4B4B"/>
<path d="M218.508 313.114V344.867L150.075 384.608L103.071 458H403.775L394.934 405.128L339.288 352.007L294.183 331.038V267.282L218.508 313.114Z" fill="#D5D5D5"/>
<path d="M415.813 430.391L399.729 433.836L397.581 421.105L406.372 424.25L390.788 379.516L365.612 377.719L335.892 351.408L341.486 348.911L298.928 318.756L226.45 362.092L188.537 353.654L175 366.286L172.203 355.202L128.546 390.05L132.542 397.689L117.607 408.074L119.155 423.95L103.071 437.88L104.37 445.768L94.8794 457.95H253.273L253.423 458V457.95H272.205H287.19V458L412.418 457.95L415.813 430.391Z" fill="#D5D5D5"/>
<path d="M406.372 424.25L357.371 410.82H325.202L360.567 406.576L403.775 416.711L406.372 424.25Z" fill="#AAAAAA"/>
<path d="M119.155 423.95L144.081 443.921L117.607 408.074L119.155 423.95Z" fill="#AAAAAA"/>
<path d="M132.542 397.689L139.585 408.074L184.042 397.689L188.537 425.748L258.168 421.254L187.438 434.385L176.049 406.576L138.586 415.413L132.542 397.689Z" fill="#AAAAAA"/>
<path d="M234.492 401.034L341.486 348.911V356.35L276.55 388.353L234.492 401.034Z" fill="#AAAAAA"/>
<path d="M399.729 433.836L337.89 446.018L305.921 442.024H337.89L399.079 429.842L399.729 433.836Z" fill="#AAAAAA"/>
<path d="M104.37 445.768L144.081 453.507L103.071 437.88L104.37 445.768Z" fill="#AAAAAA"/>
<path d="M184.042 397.689L226.45 388.353L176.049 406.576L184.042 397.689Z" fill="#AAAAAA"/>
<path d="M150.075 384.608L169.806 446.118L209.966 432.637L211.764 346.964L155.07 371.628L150.075 384.608Z" fill="white"/>
<path d="M288.439 331.038H294.183L354.374 358.647L360.568 372.277L296.131 448.514L252.674 432.538L288.439 331.038Z" fill="white"/>
<path d="M173.052 419.107L182.293 458H209.516L199.626 410.82L173.052 419.107Z" fill="#4B4B4B"/>
<path d="M274.752 410.82L253.973 458H283.943L299.128 419.806L274.752 410.82Z" fill="#4B4B4B"/>
<path d="M169.806 446.118L209.966 432.637L211.764 346.964L215.361 436.781L174.251 449.862L169.806 446.118Z" fill="#4B4B4B"/>
<path d="M252.474 432.438L294.882 447.915L360.568 372.277L295.781 455.554L253.423 440.775L252.474 432.438Z" fill="#4B4B4B"/>
<path d="M305.921 337.179L312.515 324.697L337.89 334.682L328.849 346.964L305.921 337.179Z" fill="#4B4B4B"/>
<path d="M166.159 366.785L162.563 356.65L184.042 346.964L186.489 357.948L166.159 366.785Z" fill="#4B4B4B"/>
<path d="M421.457 426.946L425.336 442.024L412.418 457.95L357.371 458L381.946 435.683L421.457 426.946Z" fill="white"/>
<path d="M88.5357 430.041L122.202 437.93L134.99 457.95L74 458L88.5357 430.041Z" fill="white"/>
<path d="M327.6 198.683L318.809 141.168L257.02 107.518L186.139 115.406L148.177 170.874L149.625 240.272L160.565 293.293L198.527 317.907L188.537 344.667L223.453 344.867L254.772 320.004L262.614 339.725L294.183 321.602L295.232 283.907L295.132 284.007L312.415 259.993L327.6 198.683Z" fill="#4B4B4B"/>
<path d="M307.819 234.98L250.926 255.999L256.97 224.845L243.483 203.127L257.569 154.349L357.371 90.9425L319.608 87.9469L209.167 149.756L161.114 156.995L188.937 93.5386L162.862 105.771L133.042 172.921V210.915L126.898 237.476L139.286 265.684L137.687 282.959L152.373 309.719L168.807 312.665L182.443 330.239L208.018 329.14L211.764 323.249L216.609 328.741L223.752 328.441L226.45 308.271L258.818 298.086L310.517 240.621L307.819 234.98Z" fill="white"/>
<path d="M186.489 244.815L206.12 272.874L241.235 274.421L244.232 245.264L226.5 228.339L186.489 244.815Z" fill="#4B4B4B"/>
<path d="M272.205 318.556L263.064 332.785L218.707 362.641L196.979 360.195L188.537 344.667L223.952 343.919L253.423 319.505L258.968 303.578L266.41 296.688L272.205 318.556Z" fill="white"/>
<path d="M195.181 357.449L221.355 358.647L262.614 332.985L294.183 321.602L223.253 370.03L194.531 366.635L195.181 357.449Z" fill="#4B4B4B"/>
<path d="M280.696 176.266L281.845 192.842L332.945 209.018L340.337 190.346L326.751 150.055L280.696 176.266Z" fill="#D5D5D5"/>
<path d="M173.152 262.289L174.901 293.293H201.774L179.696 262.289H173.152Z" fill="#4B4B4B"/>
<path d="M170.555 245.264V273.273L146.229 279.264L136.588 251.955L141.583 237.825L170.555 245.264Z" fill="#4B4B4B"/>
<path d="M269.557 170.874L261.315 188.848L272.704 204.275L291.536 201.829L295.232 181.159L286.141 169.676L269.557 170.874Z" fill="#626262"/>
<path d="M208.368 256.098L213.612 242.219L226.999 238.674L237.439 248.01L235.99 261.091L222.004 266.882L208.368 256.098Z" fill="#FF4800"/>
<path d="M197.828 151.453L209.167 149.756L241.984 62.5844L265.461 73.2686V112.111L271.056 115.157L271.755 67.6269L235.541 52L197.828 151.453Z" fill="#626262"/>
<path d="M161.414 156.945L204.471 58.091L250.926 73.2686V108.167L244.232 108.916L244.432 78.4609L209.566 67.4771L171.204 155.447L161.414 156.945Z" fill="#626262"/>
<path d="M323.404 215.608L337.89 233.182V274.421L319.008 332.985L315.162 330.239L333.894 274.421L334.243 235.329L322.055 221.05L323.404 215.608Z" fill="#4B4B4B"/>
<path d="M325.602 206.721L332.945 209.018L357.371 237.825V296.838L327.3 338.826L323.504 336.13L352.725 295.74L353.974 239.822L325.602 206.721Z" fill="#4B4B4B"/>
<path d="M357.371 90.9425L193.882 194.39L150.075 199.382L133.042 172.921V179.561L148.177 209.118L196.529 204.275L357.371 90.9425Z" fill="#D5D5D5"/>
<path d="M168.807 312.665L163.062 304.527H149.526L152.373 309.719L168.807 312.665Z" fill="#D5D5D5"/>
<path d="M226.45 308.271L223.752 328.441L232.394 306.374L258.818 298.086L310.517 240.621L309.368 238.674L254.822 291.097L227.848 298.735L226.45 308.271Z" fill="#D5D5D5"/>
<path d="M278.299 203.576L311.316 230.137L313.514 273.423L296.83 284.656L278.299 276.418L274.103 281.061L297.23 292.145L319.608 277.367L316.811 226.592L285.591 202.577L278.299 203.576Z" fill="#D5D5D5"/>
<path d="M178.797 351.507L166.059 324.697L168.807 312.665L164.311 311.866L161.414 324.697L176.899 356.849L178.797 351.507Z" fill="#4B4B4B"/>
<path d="M172.203 355.202L154.071 330.189L156.668 310.468L152.373 309.719L150.075 332.436L168.807 357.848L172.203 355.202Z" fill="#4B4B4B"/>
<path d="M140.934 288.9L136.588 292.145L124.6 279.264L132.542 250.307L129.545 243.467L117.607 279.264L136.588 300.782L144.331 295.041L140.934 288.9Z" fill="#D5D5D5"/>
<path d="M315.162 308.271V301.981L294.183 290.647L287.14 326.394L315.162 308.271Z" fill="white"/>
<path d="M150.475 234.98L148.177 243.467L156.319 246.213L158.816 238.674L150.475 234.98Z" fill="#D5D5D5"/>
<path d="M198.477 235.529L202.124 241.969L213.163 237.027L208.867 229.488L198.477 235.529Z" fill="#D5D5D5"/>
<path d="M322.255 161.738L331.646 190.695L342.585 174.569L337.44 158.942L322.255 161.738Z" fill="white"/>
<path d="M148.177 209.118L139.336 212.363L150.075 199.382L148.177 209.118Z" fill="#D5D5D5"/>
<path d="M196.529 204.275L220.006 205.224L193.882 194.39L196.529 204.275Z" fill="#D5D5D5"/>
<circle cx="218.5" cy="251.5" r="53.5" fill="url(#paint0_radial_2179_1175)"/>
<circle cx="148.5" cy="256.5" r="53.5" fill="url(#paint1_radial_2179_1175)"/>
<path fill-rule="evenodd" clip-rule="evenodd" d="M-0.430203 283.477L226.284 248.844L226.889 252.803L0.174599 287.436L-0.430203 283.477Z" fill="#FF0000"/>
<path fill-rule="evenodd" clip-rule="evenodd" d="M-0.394775 274.733L156.413 253.698L156.946 257.667L0.137733 278.703L-0.394775 274.733Z" fill="#FF0000"/>
<path d="M108.848 294.148L94.5007 383.386L88.4748 382.348L82.0223 291.39L76.8473 293.626L75.9134 384.288L66.4979 386.336L53.4833 344.48L54.8933 300.074L47.1917 300.191L45.0452 338.907L56.3727 390.486L50.662 408.634L40.6692 382.93L43.9485 348.397L38.2376 351.823L32.6336 386.332L45.7079 424.814L61.6575 453.927L77.9302 434.496L101.777 425.751L126.918 428.662L119.711 393.771L133.418 353.307L130.817 318.692L128.222 319.036L126.087 354.059L111.046 388.337L105.463 385.927L115.803 297.092L108.848 294.148Z" fill="#676767"/>
<path d="M126.918 428.662L101.778 425.751L77.9311 434.496L61.6583 453.927L72.0394 462.581L129.674 457.313L117.832 451.353L126.918 428.662Z" fill="white"/>
<path d="M93.8526 377.331L109.637 378.916L113.247 345.61L98.1455 343.973L93.8526 377.331Z" fill="white"/>
<path d="M70.1976 377.323L92.4641 375.064L89.9127 335.983L69.856 335.713L70.1976 377.323Z" fill="white"/>
<path d="M111.965 379.305L125.432 386.472L135.404 356.07L123.151 351.991L111.965 379.305Z" fill="white"/>
<path d="M72.0591 327.671L90.5995 326.633L85.8232 283.561L73.9374 284.628L72.0591 327.671Z" fill="white"/>
<path d="M47.2632 386.241L66.6958 378.221L58.12 343.16L38.4644 346.807L47.2632 386.241Z" fill="white"/>
<path d="M38.6943 337.279L59.7485 336.992L59.0296 294.019L47.2724 294.22L38.6943 337.279Z" fill="white"/>
<path d="M23.4444 368.551L45.4815 371.035L47.0146 354.567L45.6147 341.272L35.5298 339.953L23.4444 368.551Z" fill="white"/>
<path d="M31.4397 414.784L52.1282 399.687L46.2455 374.857L25.2585 377.468L31.4397 414.784Z" fill="white"/>
<path d="M97.8418 335.999L114.994 337.572L118.321 293.513L106.682 291.752L97.8418 335.999Z" fill="white"/>
<path d="M121.576 349.27L137.289 348.075L133.319 318.168L125.105 317.15L121.576 349.27Z" fill="white"/>
<path d="M68.5697 344.567L68.5106 352.909L80.3947 351.658L81.8679 363.039L85.3271 387.026L93.5892 407.961L89.1923 420.353L90.6692 427.222L68.3346 427.065L65.2992 414.331L58.454 408.516L52.0255 378.904L54.6634 363.611L64.0984 363.66L62.0535 354.518L54.5412 350.486L39.0409 354.96L38.9748 367.449L42.1836 369.425L51.4724 363.55L48.7927 379.254L55.8745 410.5L62.4897 416.09L65.0985 427.05L64.2322 427.012L54.7564 422.588L60.1893 448.061L65.6997 452.476L87.8878 451.586L88.9731 470.263L84.3884 472.265L60.6932 458.129L56.0743 441.764L45.9408 420.528L49.5765 419.4L45.2743 407.681L35.0961 415.934L39.8517 422.499L42.8962 421.513L53.1235 443.022L57.9323 460.206L84.1029 475.869L92.2288 472.375L91.0319 451.511L108.163 450.805L114.196 442.909L119.529 442.905L131.358 435.731L127.496 417.399L123.036 423.046L111.396 426.072L109.883 425.129L105.118 427.315L93.9053 427.237L92.4762 420.596L97.0077 407.975L87.9092 385.316L84.8648 361.826L83.4903 351.265L84.6284 351.118L90.9805 352.927L90.9926 349.327L81.7112 341.3L68.5697 344.567ZM111.399 431.313L115.456 431.321L116.246 437.877L113.247 438.816L111.399 431.313Z" fill="black"/>
<path d="M350.071 165.192L352.736 201.4L374.846 231.426L411.71 233.864C411.71 233.864 446.254 215.697 446.274 213.936C446.294 212.174 455.073 174.69 455.073 174.69L430.33 134.327L386.808 132.648L350.071 165.192Z" fill="white"/>
<path d="M348.725 155.992L359.586 156.797L353.015 173.986L344.436 166.511L348.725 155.992Z" fill="#484A49"/>
<path d="M408.368 146.947L420.087 158.015L427.289 146.753L419.879 139.038L408.368 146.947Z" fill="#484A49"/>
<path d="M433.601 139.583L440.307 134.186L447.332 141.999L440.005 150.014L433.601 139.583Z" fill="#484A49"/>
<path d="M429.851 206.233L442.797 211.777L439.136 220.848L425.629 219.312L429.851 206.233Z" fill="#484A49"/>
<path d="M365.613 218.849L359.889 231.315L370.03 237.339L374.903 231.413L365.613 218.849Z" fill="#484A49"/>
<path d="M450.97 192.833L460.288 196.315L460.029 206.1L447.974 206.126L450.97 192.833Z" fill="#484A49"/>
<path d="M372.42 177.534L370.26 190.204L380.667 203.245L398.277 199.053L400.924 184.619L390.814 173.2L372.42 177.534Z" fill="#484A49"/>
<path d="M387.521 209.696L390.246 212.808L393.656 212.174L394.368 208.07L387.521 209.696Z" fill="#FF0000"/>
<path d="M348.724 155.991L374.51 99.3035L377.37 98.5752L354.52 156.447L348.724 155.991Z" fill="#D5D5D5"/>
<path d="M380.161 138.499L393.892 100.69L391.033 101.418L371.566 146.133L380.161 138.499Z" fill="#787878"/>
<path d="M419.879 139.039L480.844 86.4482L483.663 89.2431L424.192 143.562L419.879 139.039Z" fill="#D5D5D5"/>
<path d="M440.307 134.187L493.041 90.4258L495.65 92.3959L444.387 138.71L440.307 134.187Z" fill="#787878"/>
<path d="M370.029 237.338L422.812 267.105L425.497 264.313L374.901 231.413L370.029 237.338Z" fill="#D5D5D5"/>
<path d="M439.136 220.849L525.854 219.254L524.971 215.556L442.798 211.778L439.136 220.849Z" fill="#D5D5D5"/>
<path d="M460.03 206.1L515.281 205.787L516.774 201.074L460.289 196.314L460.03 206.1Z" fill="#787878"/>
<path d="M144 259.64L147.051 251H165V267.38L151.359 269L144 259.64Z" fill="#FF0000"/>
<path fill-rule="evenodd" clip-rule="evenodd" d="M289.386 17L293 13.2836L289.807 10L283 17L289.807 24L293 20.7164L289.386 17Z" fill="white"/>
<path fill-rule="evenodd" clip-rule="evenodd" d="M339.614 17L336 13.2836L339.193 10L346 17L339.193 24L336 20.7164L339.614 17Z" fill="white"/>
</g>
<defs>
<radialGradient id="paint0_radial_2179_1175" cx="0" cy="0" r="1" gradientUnits="userSpaceOnUse" gradientTransform="translate(218.5 251.5) rotate(90) scale(53.5)">
<stop stop-color="#FF0000"/>
<stop offset="1" stop-color="#FF0000" stop-opacity="0"/>
</radialGradient>
<radialGradient id="paint1_radial_2179_1175" cx="0" cy="0" r="1" gradientUnits="userSpaceOnUse" gradientTransform="translate(148.5 256.5) rotate(90) scale(53.5)">
<stop stop-color="#FF0000"/>
<stop offset="1" stop-color="#FF0000" stop-opacity="0"/>
</radialGradient>
<clipPath id="clip0_2179_1175">
<rect width="466" height="466" fill="white"/>
</clipPath>
</defs>
</svg>
