<svg width="205" height="146" viewBox="0 0 205 146" fill="none" xmlns="http://www.w3.org/2000/svg">
<path d="M30 0L0 109.5L24 131L78.5 76.5L135.5 86L167.5 146L201.5 138.5L204.5 18L160 4.5L135.5 18L88.5 13L68.5 0H30Z" fill="#5F5F5F"/>
<path d="M57.5093 24.6227L65.8006 30.7467L67.1245 45.8959L53.5678 49.3909L45.4958 40.1123L47.8259 27.1192L57.5093 24.6227Z" fill="white"/>
<path d="M67.5 65.5L77 57.5L88.5 60L91.5 72.5L80 81L69.5 76.5L67.5 65.5Z" fill="white"/>
<path d="M122.5 76.5L130.5 70L145.5 72.5V86.5L134.5 92L122.5 86.5V76.5Z" fill="white"/>
<path d="M167.5 42L169 32.5L180 34.5L178 43.5L167.5 42Z" fill="black"/>
<path d="M162 54L165.5 45L152.5 40L146.5 50.5L162 54Z" fill="black"/>
<path d="M192.5 50.5L180 49L178 58L188 63.5L192.5 50.5Z" fill="black"/>
<path d="M174.5 61L164 58L161 70L172.5 72.5L174.5 61Z" fill="black"/>
<path fill-rule="evenodd" clip-rule="evenodd" d="M56 16.5L36.5 26.5V49.5L59 58L81 44.5L71 20L56 16.5ZM41 36L47.5 26.5L50.5 24.5H66L71 38L63 49.5L44.5 47L41 36Z" fill="#444444"/>
<path d="M104.5 47.5L97 46L93 47L92 51H103L104.5 47.5Z" fill="#444444"/>
<path d="M114.5 53V49H121.5L131 51L128.5 55.5L114.5 53Z" fill="#444444"/>
<path d="M106.234 27.119L106.305 26.0794L108.525 24.1407L109.564 24.2111L113.168 28.3377L117.294 24.7342L118.334 24.8046L120.273 27.0247L120.202 28.0643L116.076 31.6678L119.679 35.7943L119.609 36.834L117.389 38.7726L116.349 38.7023L112.746 34.5757L108.619 38.1791L107.579 38.1088L105.5 37.968L105.711 34.849L109.838 31.2456L106.234 27.119Z" fill="#FAFF00"/>
</svg>
