<svg width="234" height="175" viewBox="0 0 234 175" fill="none" xmlns="http://www.w3.org/2000/svg">
<path d="M51.6434 40.0133L103.116 1L157.69 11.2667L198 70.1289L174.434 150.209L91.9535 155L38 111.196L51.6434 40.0133Z" fill="#444444"/>
<path d="M57 101.584L66.9898 47.5584L100.081 30H143.787L180 75.2468L161.893 130.623L96.9594 134L57 101.584Z" fill="#5F5F5F"/>
<path d="M89.2723 70.1265L88.4527 66.2689L94.5288 56.9145L98.3864 56.0949L115.774 67.3887L127.068 50.0011L130.925 49.1815L140.28 55.2576L141.099 59.1152L129.805 76.5027L147.193 87.7966L148.013 91.6542L141.937 101.009L138.079 101.828L120.692 90.5343L109.398 107.922L105.54 108.741L97.8248 110.381L95.3661 98.8079L106.66 81.4203L89.2723 70.1265Z" fill="#FAFF00"/>
<path d="M65.8874 67.8295L44.8018 37.9845L61.8063 23.7403L75.4099 64.438L65.8874 67.8295Z" fill="#DCDCDC"/>
<path d="M88.3333 50.8721L74.0495 10.1744L95.1351 2.71318L102.617 48.1589L88.3333 50.8721Z" fill="#DCDCDC"/>
<path d="M120.982 43.4109L126.423 0L149.55 2.71318L134.586 48.1589L120.982 43.4109Z" fill="#DCDCDC"/>
<path d="M153.631 56.2985L177.437 29.845L189 50.8721L161.793 64.438L153.631 56.2985Z" fill="#DCDCDC"/>
<path d="M57.7252 84.7868L69.9685 90.2132L59.0856 126.841L79.491 144.477L92.4144 153.295L161.793 150.581L159.072 156.686L161.793 175H84.9324L91.0541 156.686L79.491 144.477L38.6802 132.946L38 114.632L57.7252 84.7868Z" fill="#DCDCDC"/>
</svg>
