<svg width="194" height="157" viewBox="0 0 194 157" fill="none" xmlns="http://www.w3.org/2000/svg">
<path d="M0 119V3.5L194 0V122L0 119Z" fill="#444444"/>
<path d="M150.5 146H50.5L48 154L150.5 157V146Z" fill="#444444"/>
<path d="M14.5 106V16.5L183 10.5V111.5L14.5 106Z" fill="#5F5F5F"/>
<path d="M64.5 145.5V121H138.5V145.5H64.5Z" fill="#5F5F5F"/>
<path d="M74 27H24.5V30L74 31V27Z" fill="black"/>
<path d="M112 27H85.5V32H110.5L112 27Z" fill="black"/>
<path d="M74 35L24.5 37L25.5 40.5L74 41.5V35Z" fill="black"/>
<path d="M112 36L86.5 37V38V41.5L112 42.5V36Z" fill="black"/>
<path d="M86.5 60L111.5 60L112.5 56.5L86.5 56L86.5 60Z" fill="black"/>
<path d="M24 60L75 60L76 55L25.5 55L24 60Z" fill="black"/>
<path d="M86.5 52L111.5 51L110.5 46.5L86.5 45.5L86.5 52Z" fill="black"/>
<path d="M24 51L74 50L74 49L74 45.5L24 44.5L24 51Z" fill="black"/>
<path d="M128 59.5V26.5H172L168.5 59.5H128Z" fill="#444444"/>
<path d="M40.0546 82.5068L24 94.7808L25.0034 95.9315L40.0546 83.6575L58.6177 91.3288L74.6724 83.6575L94.2389 99L112.3 73.3014L128.857 75.9863L148.925 72.5342L170.498 78.6712L171 77.137L148.925 71L128.857 74.8356L111.799 72.1507L94.2389 97.0822L74.6724 82.5068L58.6177 89.7945L40.0546 82.5068Z" fill="#D9D9D9"/>
<path d="M150.598 102.376L149.643 102.339L149.031 101.683L149.166 98.2118L148.86 97.8838L147.587 97.8342L147.256 98.1374L147.195 99.7151L148.786 99.7771L148.737 101.039L147.146 100.977L147.121 101.608L146.46 102.215L145.505 102.178L145.702 97.1287L146.694 96.2193L149.876 96.3433L150.794 97.3271L150.598 102.376Z" fill="#FAFF00"/>
<path d="M140.731 101.991L140.095 101.967L140.304 96.6024L140.965 95.9961L144.147 96.1201L145.371 97.4319L144.214 98.4929L143.449 97.673L141.858 97.611L141.747 100.451L143.657 100.525L143.669 100.21L143.033 100.185L143.07 99.2384L143.4 98.9352L145.31 99.0096L145.212 101.534L144.55 102.14L140.731 101.991Z" fill="#FAFF00"/>
<path d="M139.312 97.5118L135.174 97.3506L135.15 97.9817L138.651 98.1181L138.957 98.446L138.92 99.3927L138.589 99.6958L135.088 99.5594L135.064 100.191L139.838 100.377L139.813 101.008L139.776 101.954L139.458 101.942L134.047 101.731L133.435 101.075L133.62 96.3419L134.281 95.7356L139.692 95.9465L139.998 96.2744L139.973 96.9055L139.312 97.5118Z" fill="#FAFF00"/>
<path d="M164.137 98.4791L161.273 98.3675L161.248 98.9986L163.476 99.0854L163.782 99.4133L163.745 100.36L163.415 100.663L161.187 100.576L161.162 101.207L164.345 101.331L164.651 101.659L164.602 102.922L164.284 102.909L160.146 102.748L159.509 102.723L159.718 97.3588L160.38 96.7525L164.517 96.9138L164.823 97.2417L164.799 97.8728L164.137 98.4791Z" fill="#FAFF00"/>
<path d="M157.624 102.018L157.772 98.2311L157.454 98.2187L155.47 100.038L154.834 100.013L152.998 98.0451L152.679 98.0327L152.532 101.819L151.871 102.426L150.916 102.388L151.125 97.024L151.786 96.4177L153.696 96.4921L154.92 97.8039L155.556 97.8287L156.879 96.6161L158.788 96.6905L159.4 97.3464L159.191 102.711L158.236 102.674L157.624 102.018Z" fill="#FAFF00"/>
<path fill-rule="evenodd" clip-rule="evenodd" d="M133.265 97.2762L131.735 95.6364L128.87 95.5248L128.209 96.1311L128 101.495L131.501 101.632L133.154 100.116L133.265 97.2762ZM131.037 97.1894L131.649 97.8453L131.587 99.423L130.926 100.029L129.653 99.9797L129.751 97.4553L130.082 97.1522L131.037 97.1894Z" fill="#FAFF00"/>
<path d="M165.102 98.2773L165.119 97.8311L166.054 96.9736L166.504 96.9912L168.113 98.7153L169.851 97.1216L170.301 97.1391L171.166 98.0667L171.149 98.5129L169.411 100.107L171.02 101.831L171.002 102.277L170.067 103.135L169.617 103.117L168.008 101.393L166.271 102.987L165.82 102.969L164.92 102.934L164.972 101.595L166.71 100.001L165.102 98.2773Z" fill="#FAFF00"/>
<path d="M165.102 98.2773L165.119 97.8311L166.054 96.9736L166.504 96.9912L168.113 98.7153L169.851 97.1216L170.301 97.1391L171.166 98.0667L171.149 98.5129L169.411 100.107L171.02 101.831L171.002 102.277L170.067 103.135L169.617 103.117L168.008 101.393L166.271 102.987L165.82 102.969L164.92 102.934L164.972 101.595L166.71 100.001L165.102 98.2773Z" fill="#FAFF00"/>
</svg>
