<svg width="350" height="54" viewBox="0 0 350 54" fill="none" xmlns="http://www.w3.org/2000/svg">
<g clip-path="url(#clip0_97_477)">
<path d="M115.69 21L107 12H117.862L126.552 21H115.69Z" fill="#FAFF00"/>
<path d="M130.897 21L122.207 12H148.276L156.966 21H130.897Z" fill="#FAFF00"/>
<path d="M161.31 21L152.621 12H163.483L172.172 21H161.31Z" fill="#FAFF00"/>
<path d="M176.517 21L167.828 12H178.69L187.379 21H176.517Z" fill="#FAFF00"/>
<path d="M191.724 21L183.034 12H193.897L202.586 21H191.724Z" fill="#FAFF00"/>
<path d="M206.931 21L198.241 12H209.103L217.793 21H206.931Z" fill="#FAFF00"/>
<path d="M222.138 21L213.448 12H224.31L233 21H222.138Z" fill="#FAFF00"/>
<path d="M111.793 25.2071L112.086 25.5H112.5H336.086L349 38.4142V59H1V23.4142L15.4142 9H95.5858L111.793 25.2071Z" stroke="white" stroke-width="2"/>
</g>
<defs>
<clipPath id="clip0_97_477">
<rect width="350" height="54" fill="white"/>
</clipPath>
</defs>
</svg>
