<svg width="350" height="54" viewBox="0 0 350 54" fill="none" xmlns="http://www.w3.org/2000/svg">
<g clip-path="url(#clip0_97_491)">
<path d="M111.793 25.2071L112.086 25.5H112.5H188.5H188.914L189.207 25.2071L205.414 9H293.586L317.293 32.7071L317.586 33H318H343.586L349 38.4142V59H1V23.4142L15.4142 9H95.5858L111.793 25.2071Z" stroke="white" stroke-width="2"/>
<path d="M196 17H104L112 25H188L196 17Z" fill="white"/>
<path d="M311 14.5C311 15.8807 309.881 17 308.5 17C307.119 17 306 15.8807 306 14.5C306 13.1193 307.119 12 308.5 12C309.881 12 311 13.1193 311 14.5Z" fill="white"/>
<path d="M339 27.5C339 28.8807 337.881 30 336.5 30C335.119 30 334 28.8807 334 27.5C334 26.1193 335.119 25 336.5 25C337.881 25 339 26.1193 339 27.5Z" fill="white"/>
<path d="M308.5 14.5L321.5 27.5H336.5" stroke="white"/>
</g>
<defs>
<clipPath id="clip0_97_491">
<rect width="350" height="54" fill="white"/>
</clipPath>
</defs>
</svg>
