<svg width="720" height="589" viewBox="0 0 720 589" fill="none" xmlns="http://www.w3.org/2000/svg">
<path d="M10.6928 385.488C20.0184 372.544 34.4089 372.142 49.6837 371.66C57.6427 371.419 65.8428 371.178 74.2038 369.248C86.906 366.354 91.81 356.948 97.116 346.979C101.055 339.422 105.155 331.624 112.552 327.122C128.63 317.234 156.929 316.832 158.135 316.832V327.685C157.894 327.685 131.122 328.087 117.134 336.689C111.989 339.824 108.934 345.773 105.316 352.607C99.8493 363.058 93.0159 376.162 76.1332 379.941C66.9683 382.031 57.9643 382.272 50.0053 382.513C36.4188 382.915 24.6813 383.317 18.1694 392.402C8.52217 405.747 19.5361 431.232 49.121 462.505L41.8051 469.579C6.99466 433 -2.89377 404.38 10.6928 385.488Z" fill="white"/>
<path d="M54.4272 415.796C55.0704 405.827 60.296 396.823 69.8628 389.024C94.4633 369.167 92.775 356.304 88.5945 325.192C86.1023 306.621 94.7045 298.019 100.091 294.562C110.783 287.568 126.46 289.015 133.293 295.044C139.243 300.189 153.311 299.948 158.055 299.466V310.882C157.251 310.962 137.474 312.329 127.505 303.646C124.289 300.833 112.873 298.742 104.834 303.968C99.1261 307.666 96.7947 314.258 98.081 323.584C102.422 356.224 104.834 374.152 75.41 397.948C68.2549 403.737 64.396 410.007 63.9137 416.6C63.2705 426.568 70.4256 434.849 74.5257 438.306L67.2099 445.3C62.2254 440.718 53.4625 430.668 54.4272 415.796Z" fill="white"/>
<path d="M129.394 350.184C123.124 357.961 120.88 368.127 122.649 380.342C127.33 411.608 117.384 419.938 93.2558 440.02C78.8565 452.009 79.371 464.164 80.999 470.354C84.1408 482.738 96.6637 492.279 105.775 492.462C113.637 492.698 123.834 502.395 127 505.958L134.724 497.552C134.187 496.949 120.548 482.562 107.333 482.212C103.061 482.108 93.2397 475.923 90.8553 466.636C89.1541 460.051 91.8972 453.62 99.1543 447.622C124.433 426.524 138.339 414.954 132.771 377.523C131.418 368.42 132.819 361.192 136.924 356.011C143.195 348.235 154.066 346.978 159.424 347.206L158.769 337.106C151.998 337.108 138.747 338.58 129.394 350.184Z" fill="white"/>
<path d="M158.136 296.25H162.558V312.731H158.136V296.25Z" fill="#3E3E3E"/>
<path d="M158.136 334.766H162.558V351.247H158.136V334.766Z" fill="#3E3E3E"/>
<path d="M158.136 315.625H162.558V331.704H158.136V315.625Z" fill="#3E3E3E"/>
<path d="M276.715 272.133L281.137 365.229L420.218 451.491L495.868 569.67H11.8983L26.128 484.533L115.687 398.994L188.282 365.229L193.106 266.505L216.42 256.456H257.421L276.715 272.133Z" fill="#5A5A5A"/>
<path d="M281.136 365.229L276.715 272.133L257.42 256.456H216.419L193.105 266.505V299.065V360.566L304.852 398.753L329.774 395.537L281.136 365.229Z" fill="#444444"/>
<path d="M197.528 279.769L191.499 276.152L179.44 271.328L162.557 278.966V356.947L180.003 365.148L197.528 356.947V279.769Z" fill="#7E7E7E"/>
<path d="M194.391 271.409H179.438L197.527 280.172V356.546L180.001 365.229H197.527L211.354 358.556V278.564L194.391 271.409Z" fill="#656565"/>
<path d="M176.626 287.407H183.861V348.506H176.626V287.407Z" fill="black"/>
<path d="M176.626 328.408H183.861V348.507H176.626V328.408Z" fill="#C72121"/>
<path d="M500.371 569.669L420.46 445.22L373.831 420.137L355.1 342.959L302.763 387.497V437.824L211.356 365.228L197.528 340.467L192.705 307.505V268.917L108.532 294.803V394.733L26.1289 484.532L11.8992 569.669H500.371Z" fill="#EBFF00"/>
<path d="M350.437 428.9L307.426 467.408L138.841 370.293L120.752 297.939L192.704 268.917H211.356V305.496V352.526L258.225 382.674L297.216 375.84L279.932 365.791L277.52 292.633L355.1 342.959L350.437 428.9Z" fill="#333333"/>
<path d="M216.421 436.136L108.291 394.733L99.4481 404.783L216.421 436.136Z" fill="#BEC100"/>
<path d="M88.1934 569.669L72.1146 530.518L80.154 569.669H88.1934Z" fill="#BEC100"/>
<path d="M128.71 530.518L99.3663 506.561L43.975 500.531L4.8233 511.384L-0.000318273 520.067L16.4 542.899L18.4902 530.518L11.8979 521.675L43.975 511.384L93.5779 517.414L122.52 539.683L128.71 530.518Z" fill="#333333"/>
<path d="M121.958 554.073L68.657 534.457L3.94013 553.189L0.000824717 563.72L11.8991 569.669L13.0246 562.997L8.36178 561.067L68.8982 544.747L117.536 563.64L121.958 554.073Z" fill="#333333"/>
<path d="M397.868 532.286L419.735 513.635L461.46 509.133L491.044 517.976L494.662 524.488L482.362 541.451L477.779 534.457L485.738 525.694L461.62 517.976L423.674 521.835L402.531 539.039L397.868 532.286Z" fill="#333333"/>
<path d="M416.762 554.073L456.878 534.457L505.517 553.189L508.491 563.72L500.13 569.267L496.754 564.042L501.256 560.665L457.763 543.461L419.978 562.112L416.762 554.073Z" fill="#333333"/>
<path d="M254.271 567.309L275.225 511.291L287.735 522.084L276.516 553.021H330.73L335.873 539.044L290.021 538.076L295.846 523.614L341.518 524.044L347.248 509.164L249.282 509.199L270.085 494.151H355.558L367.461 506.187L357.125 529.091L347.912 532.393L353.386 538.379L344.034 561.334L333.505 567.309H254.271Z" fill="black"/>
<path d="M184.424 271.409L164.325 271.489L134.499 216.5L148.006 194.472L134.499 152.104L148.649 59.491L248.096 5.30566L362.174 18.0079L423.273 107.325L420.942 219.072L404.381 248.094L395.779 311.605L343.443 385.728L302.12 387.497L197.528 304.45L184.424 271.409Z" fill="#5A5A5A"/>
<path d="M156.848 54.9893L256.536 67.3699L292.392 130.157L395.939 134.499L403.576 78.625L409.525 87.3075L401.888 139.724L290.06 135.624L251.23 73.6406L148.648 59.4913L156.848 54.9893Z" fill="#3D3D3D"/>
<path d="M134.499 152.104L135.464 145.512L227.274 196.401L205.326 234.91L279.127 304.45L285.961 311.927L278.886 369.409L273.098 364.585L278.886 314.66L203.638 240.698L216.662 319.725L211.356 315.384L199.136 236.839L218.43 199.456L134.499 152.104Z" fill="#3D3D3D"/>
<path d="M156.527 216.5L174.535 254.767H167.059L151.462 219.153L156.527 216.5Z" fill="white"/>
<path d="M370.375 297.858L301.236 301.637V308.712L370.375 304.772V297.858Z" fill="#3D3D3D"/>
<path d="M364.345 312.651L308.552 315.947V323.102L364.345 319.565V312.651Z" fill="#3D3D3D"/>
<path d="M359.36 327.765L312.25 330.338V337.412L359.36 334.679V327.765Z" fill="#3D3D3D"/>
<path d="M250.181 237.538L285.802 249.847L407.035 247.135L426.788 232.187L429.457 201.535L407.035 180.937L272.13 177.841L243.344 201.535L250.181 237.538Z" fill="#6A6A6A"/>
<path d="M403.299 235.924L415.044 222.577L416.111 202.959L397.426 191.816H277.117L256.802 207.12L261.277 229.627L286.44 237.33L403.299 235.924Z" fill="black"/>
<path fill-rule="evenodd" clip-rule="evenodd" d="M304.097 211.484L293.633 202.516L289.46 207.31L300.148 216.471L293.292 225.131L298.312 229.046L304.985 220.617L312.868 227.373L317.041 222.579L308.933 215.629L315.868 206.87L310.848 202.955L304.097 211.484ZM389.732 209.786L382.045 202.606L377.67 207.219L385.65 214.674L380.06 221.371L384.976 225.413L390.309 219.025L395.758 224.115L400.133 219.501L394.39 214.137L400.403 206.934L395.487 202.892L389.732 209.786Z" fill="#DBFF00"/>
<path d="M330.177 98.0799H378.414L385.247 84.413L347.06 31.3532L296.01 7.63706L248.578 1.20557L207.577 27.3335L296.01 47.4319L330.177 98.0799Z" fill="#3C3C3C"/>
<path d="M373.992 41.4026L378.414 83.6093H332.992L303.246 41.4026L261.441 33.3633L211.195 24.9219L238.127 0.401855H316.913L373.992 41.4026Z" fill="#EBFF00"/>
<path d="M339.021 40.1968L374.395 41.8047L318.521 0H300.834L339.021 40.1968Z" fill="#BEC100"/>
<path d="M623.085 447.776L583.716 437.861L504.884 476.653L507.626 401.36L588.309 433.193L625.74 441.062L623.085 447.776Z" fill="#676767"/>
<path d="M600.369 431.009L598.917 451.931L633.636 453.856L640.47 439.174L600.369 431.009Z" fill="#B5B5B5"/>
<path d="M594.007 431.893L588.415 446.066L547.497 450.192L556.58 422.553L594.007 431.893Z" fill="#B5B5B5"/>
<path d="M677.095 368.599L568.479 393.367L614.769 421.729L613.308 462.451L605.672 464.192L606.564 426.428L563.181 402.381L547.046 407.531L590.751 437.953L592.129 470.787L584.666 473.281L583.103 441.621L534.192 413.178L527.228 423.816L558.274 451.808L537.336 488.486L532.452 487.903L548.669 454.338L521.771 436.6L506.306 482.891L459.14 503.527L410.322 570.81L327.044 570.81L433.093 449.581L521.894 383.06L675.06 359.673L677.095 368.599Z" fill="#676767"/>
<path d="M686.803 354.619L686.648 369.814L634.351 384.568L631.879 359.337L686.803 354.619Z" fill="#D5D5D5"/>
<path d="M617.605 361.235L621.316 387.428L578.792 395.427L568.782 372.368L617.605 361.235Z" fill="#D5D5D5"/>
<path d="M620.265 435.409L603.383 435.299L603.395 472.065L615.439 469.318L620.265 435.409Z" fill="#D5D5D5"/>
<path d="M620.589 418.478L600.782 430.349L558.621 406.701L577.909 394.044L620.589 418.478Z" fill="#D5D5D5"/>
<path d="M554.21 405.218L531.842 416.767L572.1 440.509L586.324 429.459L554.21 405.218Z" fill="#D5D5D5"/>
<path d="M593.521 475.9L595.007 435.286L577.585 445.707L581.316 479.928L593.521 475.9Z" fill="#D5D5D5"/>
<path d="M565.338 450.536L540.99 456.88L516.92 442.118L528.747 421.546L565.338 450.536Z" fill="#D5D5D5"/>
<path d="M556.504 464.882L538.511 462.876L525.171 493.183L536.765 495.404L556.504 464.882Z" fill="#D5D5D5"/>
<path d="M472.288 510.333L494.864 501.678L490.789 457.014L445.287 437.071L416.154 465.096L455.546 507.363L472.288 510.333Z" fill="white"/>
<path d="M461.443 420.603L475.836 433.612L495.001 433.314L464.388 477.176L423.271 449.671L461.443 420.603Z" fill="black"/>
<path d="M572.291 364.441L588.769 380.142L608.498 375.869L608.127 356.382L572.291 364.441Z" fill="black"/>
<path d="M612.698 404.212L599.01 419.1L581.887 409.994L588.328 393.591L612.698 404.212Z" fill="black"/>
<path d="M580.873 367.348L536.72 366.216L514.789 374.725L502.447 393.038L459.468 426.823L463 429.412L504.953 396.087L517.328 377.426L538.048 370.552L586.612 373.167L580.873 367.348Z" fill="black"/>
<path d="M587.066 405.42L544.662 389.634L524.016 390.383L471.593 434.353L469.229 430.933L521.563 386.077L548.922 385.495L590.388 402.626L587.066 405.42Z" fill="black"/>
<path d="M479.318 414.151L459.559 410.851L439.205 423.298L446.234 435.271L442.491 437.709L432.926 421.562L459.263 407.072L484.204 410.774L479.318 414.151Z" fill="black"/>
</svg>
