<svg width="652" height="350" viewBox="0 0 652 350" fill="none" xmlns="http://www.w3.org/2000/svg">
<path fill-rule="evenodd" clip-rule="evenodd" d="M651.5 11.5L640.5 0H12.5L0 11.5V317.5L22 341.5H640.5L651.5 329.5V11.5ZM10.5 311.5L12.5 11.5H139.5L162 36H499L522.5 11.5H635L640.5 16V311.5L637.5 327.5L622.5 329.5H28.5L10.5 311.5Z" fill="black"/>
<path fill-rule="evenodd" clip-rule="evenodd" d="M646 325V15L637 5.49854H520.918L495.594 30.5659H165.5L142.115 5.49854L16.2104 5.49917L6 15.4994V315.749L25.9517 335.499L112 335.499L126 349.499H146.5L132.5 335.499H138.5L152.5 349.499H173L159 335.499H164.999L179 349.5H199.5L185.5 335.5L191.5 335.499L205.5 349.499H273L289.5 335.499L636 335.499L646 325ZM138.203 14.4986L19.8836 14.4992L15 19.2822V311.994L29.6529 326.499H632.143L637 321.4V18.5859L633.128 14.4985H524.619L499.295 39.5659H161.588L138.203 14.4986Z" fill="white"/>
<path d="M490.897 25.4985L504 12.4985H487.621L474.517 25.4985H490.897Z" fill="#FAFF00"/>
<path d="M467.965 25.4985L481.069 12.4985H441.759L428.655 25.4985H467.965Z" fill="#FAFF00"/>
<path d="M422.103 25.4985L435.207 12.4985H418.828L405.724 25.4985H422.103Z" fill="#FAFF00"/>
<path d="M399.172 25.4985L412.276 12.4985H395.897L382.793 25.4985H399.172Z" fill="#FAFF00"/>
<path d="M376.241 25.4985L389.345 12.4985H372.966L359.862 25.4985H376.241Z" fill="#FAFF00"/>
<path d="M353.31 25.4985L366.414 12.4985H350.034L336.931 25.4985H353.31Z" fill="#FAFF00"/>
<path d="M330.379 25.4985L343.483 12.4985H327.103L314 25.4985H330.379Z" fill="#FAFF00"/>
</svg>
