<svg width="531" height="530" viewBox="0 0 531 530" fill="none" xmlns="http://www.w3.org/2000/svg">
<path d="M515 266C515 404.071 403.071 516 265 516C126.929 516 15 404.071 15 266C15 127.929 126.929 16 265 16C403.071 16 515 127.929 515 266Z" fill="black"/>
<path d="M361.375 86.4337L366.378 77.0546L365.321 77.5043L361.407 75.4132L368.656 72.5054L371.722 74.1433L364.325 88.0097L361.375 86.4337Z" fill="white"/>
<path d="M382.121 99.5549C381.651 99.2099 381.317 98.7661 381.119 98.2234C380.929 97.669 380.867 97.1002 380.933 96.5171C381.008 95.9223 381.214 95.3962 381.549 94.9386L386.921 87.6182C387.266 87.149 387.702 86.8012 388.229 86.5748C388.757 86.3485 389.301 86.2603 389.861 86.3102C390.429 86.3485 390.949 86.5401 391.419 86.8851L398.733 92.2538C399.202 92.5988 399.541 93.0367 399.748 93.5677C399.963 94.0869 400.042 94.6322 399.985 95.2036C399.927 95.7749 399.726 96.2952 399.382 96.7644L394.01 104.085C393.674 104.542 393.234 104.896 392.689 105.146C392.152 105.384 391.591 105.496 391.006 105.481C390.429 105.454 389.905 105.269 389.435 104.924L382.121 99.5549ZM385.794 97.8379L391.416 101.965L394.877 97.2487L385.794 97.8379ZM386.054 94.4544L395.137 93.8652L389.515 89.7383L386.054 94.4544Z" fill="white"/>
<path d="M404.501 117.92C404.085 117.512 403.817 117.025 403.698 116.46C403.589 115.884 403.609 115.313 403.757 114.745C403.916 114.167 404.195 113.676 404.592 113.271L410.953 106.791C411.36 106.375 411.842 106.093 412.396 105.944C412.951 105.795 413.502 105.785 414.049 105.914C414.606 106.033 415.093 106.297 415.509 106.705L421.986 113.058C422.402 113.466 422.675 113.948 422.804 114.503C422.944 115.047 422.945 115.598 422.806 116.155C422.668 116.713 422.394 117.199 421.987 117.614L415.626 124.094C415.229 124.499 414.742 124.787 414.167 124.956C413.602 125.116 413.031 125.146 412.453 125.048C411.886 124.94 411.394 124.682 410.978 124.273L404.501 117.92ZM408.382 116.744L413.361 121.627L417.458 117.453L408.382 116.744ZM409.12 113.432L418.197 114.141L413.218 109.258L409.12 113.432Z" fill="white"/>
<path d="M438.813 160.445L444.133 157.479C444.641 157.195 445.176 157.064 445.738 157.084C446.3 157.104 446.819 157.257 447.295 157.542C447.784 157.82 448.17 158.214 448.455 158.722L452.807 166.506L455.534 164.985L451.256 157.335L450.15 157.952L448.518 155.033L449.777 154.331C450.285 154.048 450.82 153.916 451.382 153.937C451.944 153.957 452.463 154.11 452.939 154.395C453.428 154.673 453.815 155.066 454.099 155.575L458.526 163.492C458.81 164.001 458.943 164.536 458.923 165.098C458.916 165.652 458.774 166.173 458.497 166.662C458.22 167.15 457.827 167.536 457.318 167.819L454.287 169.51C453.778 169.793 453.243 169.925 452.681 169.905C452.12 169.884 451.594 169.735 451.105 169.457C450.617 169.179 450.23 168.786 449.945 168.277L445.593 160.493L443.362 161.737L449.272 172.306L446.355 173.933L438.813 160.445Z" fill="white"/>
<path d="M453.105 189.22C452.896 188.676 452.841 188.128 452.94 187.575C453.039 187.022 453.261 186.524 453.605 186.08C453.949 185.636 454.386 185.313 454.916 185.11L456.058 184.672L457.259 187.793L456.28 188.168L459.426 196.347L462.178 195.293L457.832 183.993L466.642 180.619L472.188 195.04L469.068 196.234L464.722 184.935L462.173 185.911L465.374 194.233C465.583 194.777 465.638 195.325 465.539 195.878C465.453 196.426 465.238 196.921 464.894 197.365C464.55 197.809 464.106 198.135 463.562 198.343L460.463 199.53C459.933 199.733 459.391 199.785 458.838 199.684C458.284 199.584 457.786 199.362 457.341 199.017C456.897 198.673 456.57 198.228 456.361 197.684L453.105 189.22Z" fill="white"/>
<path d="M462.004 216.709C461.874 216.141 461.912 215.587 462.117 215.048C462.337 214.505 462.663 214.035 463.095 213.639C463.541 213.239 464.041 212.976 464.595 212.851L473.456 210.843C474.024 210.714 474.582 210.737 475.13 210.911C475.677 211.086 476.147 211.375 476.537 211.78C476.943 212.181 477.21 212.665 477.34 213.233L479.358 222.073C479.488 222.641 479.457 223.193 479.266 223.729C479.089 224.262 478.791 224.725 478.373 225.119C477.955 225.512 477.462 225.773 476.894 225.902L468.033 227.91C467.479 228.036 466.915 228.014 466.338 227.846C465.777 227.675 465.279 227.392 464.845 226.997C464.426 226.599 464.151 226.117 464.022 225.549L462.004 216.709ZM465.908 217.818L467.46 224.613L473.168 223.319L465.908 217.818ZM468.321 215.434L475.581 220.935L474.03 214.14L468.321 215.434Z" fill="white"/>
<path d="M467.698 274.28C467.734 273.698 467.912 273.177 468.232 272.716C468.552 272.255 468.961 271.894 469.458 271.633C469.956 271.373 470.488 271.26 471.055 271.296L480.433 271.885C481.014 271.921 481.536 272.1 481.998 272.421C482.46 272.741 482.814 273.15 483.061 273.647C483.322 274.145 483.435 274.684 483.4 275.266L482.796 285.118L479.46 284.909L480.054 275.209L477.328 275.038L476.783 283.931C476.748 284.512 476.57 285.034 476.25 285.495C475.944 285.957 475.542 286.318 475.045 286.579C474.547 286.839 474.008 286.951 473.426 286.915L470.111 286.707C469.544 286.671 469.03 286.493 468.568 286.172C468.106 285.851 467.744 285.442 467.483 284.944C467.222 284.447 467.109 283.907 467.144 283.326L467.698 274.28ZM471.025 274.642L470.49 283.383L473.434 283.568L473.969 274.827L471.025 274.642Z" fill="white"/>
<path d="M464.381 302.855C464.499 302.285 464.764 301.797 465.175 301.392C465.6 300.99 466.092 300.698 466.65 300.517C467.223 300.339 467.787 300.308 468.344 300.424L477.244 302.278C477.815 302.397 478.313 302.65 478.739 303.036C479.165 303.422 479.472 303.88 479.66 304.41C479.862 304.943 479.904 305.494 479.786 306.064L477.95 314.937C477.832 315.507 477.574 315.996 477.177 316.404C476.795 316.815 476.331 317.113 475.788 317.297C475.244 317.481 474.686 317.514 474.116 317.395L465.215 315.54C464.659 315.424 464.153 315.17 463.699 314.778C463.259 314.389 462.923 313.925 462.693 313.387C462.476 312.851 462.427 312.298 462.545 311.728L464.381 302.855ZM467.475 305.484L466.063 312.305L471.797 313.499L467.475 305.484ZM470.662 304.319L474.984 312.334L476.396 305.514L470.662 304.319Z" fill="white"/>
<path d="M456.998 330.806C457.196 330.259 457.528 329.814 457.992 329.472C458.471 329.134 458.999 328.916 459.578 328.816C460.17 328.721 460.733 328.771 461.267 328.965L469.815 332.066C470.363 332.265 470.821 332.585 471.187 333.028C471.554 333.471 471.793 333.968 471.903 334.519C472.028 335.075 471.991 335.626 471.793 336.174L468.712 344.693C468.514 345.241 468.189 345.688 467.738 346.035C467.301 346.388 466.8 346.616 466.235 346.721C465.67 346.826 465.114 346.779 464.566 346.58L456.018 343.479C455.484 343.285 455.019 342.962 454.625 342.509C454.245 342.061 453.979 341.554 453.827 340.988C453.689 340.427 453.719 339.873 453.917 339.326L456.998 330.806ZM459.687 333.849L457.318 340.397L462.825 342.395L459.687 333.849ZM463.008 333.149L466.146 341.696L468.515 335.147L463.008 333.149Z" fill="white"/>
<path d="M431.434 381.208C431.779 380.738 432.21 380.396 432.73 380.182C433.249 379.967 433.788 379.885 434.348 379.935C434.908 379.985 435.417 380.178 435.875 380.514L436.862 381.239L434.886 383.931L434.04 383.31L428.862 390.366L431.206 392.087L436.836 384.415L439.533 386.394L434.251 393.591L436.507 395.247L441.337 388.666L440.35 387.941L442.326 385.249L443.454 386.077C443.923 386.422 444.266 386.854 444.482 387.373C444.697 387.892 444.775 388.428 444.714 388.979C444.665 389.538 444.468 390.053 444.124 390.522L439.1 397.367C438.756 397.836 438.324 398.178 437.805 398.393C437.298 398.616 436.769 398.697 436.217 398.635C435.657 398.585 435.143 398.388 434.673 398.043L432.135 396.18C432.005 396.085 431.873 395.97 431.738 395.834C431.605 395.719 431.493 395.601 431.401 395.479C431.061 395.5 430.711 395.46 430.351 395.358C430.004 395.266 429.677 395.107 429.372 394.883L426.746 392.955C426.287 392.619 425.95 392.191 425.735 391.672C425.511 391.164 425.423 390.631 425.472 390.071C425.521 389.512 425.718 388.997 426.063 388.528L431.434 381.208Z" fill="white"/>
<path d="M412.41 404.488C412.818 404.072 413.305 403.806 413.87 403.688C414.446 403.58 415.017 403.6 415.585 403.75C416.164 403.91 416.656 404.189 417.062 404.587L423.554 410.955C423.97 411.363 424.254 411.845 424.403 412.4C424.553 412.954 424.564 413.505 424.436 414.052C424.318 414.609 424.055 415.095 423.647 415.511L417.302 421.975C416.894 422.39 416.413 422.662 415.858 422.79C415.314 422.929 414.763 422.929 414.205 422.789C413.647 422.65 413.161 422.376 412.744 421.968L406.252 415.599C405.846 415.201 405.558 414.715 405.387 414.14C405.227 413.575 405.195 413.004 405.292 412.426C405.4 411.859 405.657 411.368 406.065 410.952L412.41 404.488ZM413.594 408.37L408.716 413.339L412.899 417.441L413.594 408.37ZM416.907 409.113L416.213 418.185L421.09 413.216L416.907 409.113Z" fill="white"/>
<path d="M391.075 423.988C391.538 423.635 392.058 423.441 392.634 423.404C393.22 423.379 393.783 423.481 394.324 423.71C394.874 423.95 395.321 424.296 395.666 424.748L401.188 431.974C401.541 432.437 401.753 432.954 401.823 433.524C401.892 434.094 401.824 434.641 401.619 435.164C401.423 435.698 401.094 436.142 400.631 436.495L393.429 441.989C392.966 442.342 392.451 442.543 391.883 442.591C391.324 442.651 390.779 442.572 390.247 442.355C389.714 442.138 389.271 441.797 388.917 441.334L383.396 434.108C383.051 433.656 382.835 433.134 382.748 432.541C382.67 431.959 382.72 431.389 382.898 430.831C383.085 430.285 383.41 429.836 383.873 429.483L391.075 423.988ZM391.694 427.998L386.158 432.221L389.715 436.877L391.694 427.998ZM394.869 429.205L392.89 438.084L398.426 433.86L394.869 429.205Z" fill="white"/>
<path d="M341.201 452.945C341.745 452.737 342.294 452.683 342.847 452.783C343.4 452.883 343.899 453.105 344.343 453.45C344.788 453.795 345.112 454.232 345.316 454.762L346.508 457.863C346.597 458.094 346.652 458.338 346.673 458.595C346.699 458.866 346.707 459.128 346.695 459.382C346.874 459.563 347.042 459.757 347.199 459.962C347.361 460.181 347.489 460.412 347.583 460.657L348.689 463.533C348.899 464.077 348.954 464.625 348.854 465.178C348.755 465.731 348.531 466.222 348.181 466.653C347.837 467.096 347.393 467.422 346.85 467.631L338.387 470.872C337.898 471.059 337.401 471.125 336.895 471.068C336.396 471.026 335.932 470.876 335.506 470.618C335.079 470.36 334.736 470.016 334.477 469.585L333.166 466.178C332.983 465.702 332.919 465.189 332.972 464.638C332.584 464.319 332.29 463.901 332.092 463.384L330.899 460.284C330.695 459.753 330.643 459.212 330.742 458.659C330.842 458.106 331.063 457.608 331.407 457.164C331.751 456.72 332.195 456.394 332.739 456.186L341.201 452.945ZM342.259 456.12L334.082 459.252L335.141 462.006L343.318 458.874L342.259 456.12ZM344.448 461.811L336.271 464.943L337.322 467.676L345.499 464.544L344.448 461.811Z" fill="white"/>
<path d="M313.636 461.821C314.204 461.692 314.755 461.717 315.288 461.895C315.822 462.072 316.284 462.364 316.675 462.768C317.066 463.172 317.324 463.651 317.451 464.205L317.723 465.398L314.464 466.136L314.231 465.114L305.689 467.05L306.346 469.925L318.146 467.251L320.247 476.453L305.188 479.865L304.444 476.606L316.244 473.932L315.636 471.27L306.946 473.239C306.378 473.368 305.827 473.343 305.294 473.166C304.763 473.002 304.303 472.718 303.912 472.314C303.521 471.909 303.26 471.423 303.131 470.855L302.392 467.618C302.265 467.064 302.29 466.52 302.467 465.987C302.644 465.455 302.935 464.993 303.339 464.603C303.742 464.213 304.228 463.953 304.796 463.824L313.636 461.821Z" fill="white"/>
<path d="M285.164 466.67C285.745 466.623 286.288 466.74 286.793 467.021C287.3 467.316 287.719 467.707 288.051 468.191C288.384 468.69 288.573 469.223 288.62 469.789L289.361 478.846C289.409 479.426 289.307 479.975 289.058 480.492C288.808 481.008 288.455 481.431 288 481.76C287.546 482.103 287.028 482.298 286.447 482.345L277.411 483.069C276.83 483.116 276.288 483.006 275.784 482.74C275.281 482.488 274.864 482.127 274.533 481.657C274.202 481.186 274.013 480.661 273.966 480.081L273.224 471.024C273.178 470.458 273.279 469.902 273.526 469.356C273.775 468.825 274.125 468.373 274.577 468.001C275.03 467.643 275.547 467.441 276.127 467.395L285.164 466.67ZM283.517 470.374L276.57 470.931L277.048 476.765L283.517 470.374ZM285.538 473.104L279.069 479.496L286.015 478.939L285.538 473.104Z" fill="white"/>
<path d="M227.462 464.042C228.033 464.161 228.524 464.412 228.936 464.795C229.347 465.178 229.647 465.634 229.835 466.164C230.023 466.694 230.06 467.237 229.945 467.793L229.697 468.99L226.423 468.308L226.636 467.282L218.056 465.494L217.459 468.381L229.312 470.85L227.4 480.087L212.273 476.935L212.95 473.664L224.804 476.134L225.357 473.461L216.627 471.642C216.057 471.523 215.566 471.272 215.154 470.889C214.739 470.52 214.438 470.071 214.25 469.541C214.062 469.011 214.027 468.461 214.145 467.891L214.818 464.641C214.933 464.085 215.182 463.602 215.564 463.191C215.947 462.78 216.403 462.481 216.933 462.294C217.462 462.107 218.013 462.073 218.583 462.192L227.462 464.042Z" fill="white"/>
<path d="M199.53 456.626C200.078 456.825 200.523 457.157 200.867 457.622C201.205 458.101 201.424 458.629 201.525 459.208C201.621 459.8 201.572 460.363 201.379 460.897L198.29 469.437C198.092 469.984 197.772 470.441 197.33 470.807C196.888 471.173 196.391 471.41 195.84 471.52C195.284 471.644 194.732 471.606 194.184 471.407L185.657 468.313C185.109 468.114 184.661 467.789 184.312 467.338C183.959 466.9 183.73 466.399 183.624 465.834C183.519 465.269 183.565 464.713 183.763 464.166L186.852 455.626C187.045 455.092 187.367 454.629 187.819 454.235C188.267 453.856 188.773 453.591 189.339 453.44C189.9 453.303 190.454 453.334 191.002 453.532L199.53 456.626ZM196.491 459.309L189.936 456.931L187.946 462.433L196.491 459.309ZM197.196 462.63L188.651 465.754L195.206 468.132L197.196 462.63Z" fill="white"/>
<path d="M150.669 432.164L147.066 437.074C146.722 437.543 146.29 437.885 145.771 438.1C145.252 438.314 144.717 438.391 144.165 438.329C143.606 438.279 143.091 438.082 142.621 437.737L135.43 432.459L133.583 434.975L140.651 440.163L141.4 439.142L144.096 441.121L143.244 442.283C142.9 442.752 142.468 443.094 141.949 443.308C141.43 443.523 140.894 443.6 140.343 443.538C139.783 443.488 139.268 443.29 138.798 442.945L131.484 437.577C131.014 437.232 130.672 436.8 130.456 436.28C130.232 435.773 130.144 435.239 130.193 434.68C130.243 434.12 130.439 433.606 130.784 433.136L132.837 430.339C133.181 429.869 133.613 429.527 134.132 429.313C134.651 429.098 135.191 429.016 135.75 429.066C136.31 429.116 136.825 429.313 137.295 429.658L144.486 434.936L145.997 432.877L136.233 425.711L138.209 423.018L150.669 432.164Z" fill="white"/>
<path d="M125.752 411.936C126.168 412.345 126.435 412.831 126.555 413.397C126.663 413.972 126.644 414.544 126.495 415.111C126.336 415.689 126.058 416.181 125.66 416.586L119.3 423.066C118.892 423.481 118.411 423.763 117.856 423.912C117.301 424.061 116.751 424.071 116.203 423.942C115.646 423.823 115.159 423.56 114.743 423.152L108.266 416.798C107.85 416.39 107.577 415.908 107.448 415.354C107.308 414.809 107.308 414.258 107.446 413.701C107.585 413.144 107.858 412.658 108.266 412.242L114.626 405.762C115.024 405.357 115.51 405.07 116.085 404.9C116.65 404.741 117.221 404.71 117.799 404.808C118.367 404.916 118.859 405.175 119.275 405.583L125.752 411.936ZM121.87 413.113L116.892 408.229L112.794 412.404L121.87 413.113ZM121.132 416.424L112.056 415.715L117.034 420.599L121.132 416.424Z" fill="white"/>
<path d="M106.209 390.578C106.563 391.042 106.759 391.561 106.796 392.138C106.822 392.723 106.721 393.286 106.493 393.826C106.254 394.376 105.908 394.822 105.457 395.167L98.2372 400.674C97.7744 401.027 97.2579 401.238 96.6875 401.307C96.1172 401.375 95.5703 401.306 95.0469 401.101C94.512 400.904 94.0675 400.574 93.7136 400.111L88.2057 392.902C87.8518 392.439 87.6503 391.924 87.6013 391.356C87.5407 390.797 87.6186 390.252 87.835 389.721C88.0515 389.189 88.3911 388.747 88.8539 388.393L96.0737 382.886C96.5249 382.542 97.0473 382.326 97.6408 382.24C98.2227 382.163 98.7928 382.214 99.3509 382.393C99.8974 382.581 100.348 382.907 100.702 383.37L106.209 390.578ZM102.199 391.19L97.9655 385.649L93.3142 389.198L102.199 391.19ZM100.997 394.362L92.1117 392.37L96.3455 397.911L100.997 394.362Z" fill="white"/>
<path d="M77.5811 341.764C77.7903 342.308 77.8453 342.856 77.746 343.409C77.6467 343.962 77.425 344.46 77.081 344.904C76.737 345.348 76.2999 345.671 75.7698 345.874L74.6278 346.311L73.4276 343.191L74.4063 342.816L71.2606 334.637L68.5485 335.676L71.9688 344.568L68.849 345.763L65.6404 337.421L63.0303 338.421L65.9643 346.049L67.1062 345.612L68.3065 348.732L67.0014 349.232C66.4577 349.44 65.9092 349.495 65.3559 349.394C64.8027 349.294 64.3107 349.069 63.8798 348.719C63.4354 348.375 63.1085 347.931 62.8993 347.387L59.8476 339.452C59.6384 338.908 59.5835 338.36 59.6828 337.807C59.7685 337.26 59.9859 336.771 60.3352 336.341C60.6792 335.897 61.1231 335.571 61.6669 335.362L64.6033 334.238C64.7528 334.181 64.9212 334.132 65.1084 334.091C65.2767 334.042 65.4367 334.012 65.5883 334.001C65.7546 333.703 65.9773 333.431 66.2565 333.184C66.5221 332.941 66.8316 332.753 67.1851 332.617L70.2234 331.454C70.7536 331.251 71.2953 331.199 71.8485 331.299C72.3965 331.386 72.8927 331.601 73.3372 331.946C73.7817 332.291 74.1085 332.735 74.3177 333.279L77.5811 341.764Z" fill="white"/>
<path d="M68.2394 313.106C68.369 313.674 68.3454 314.224 68.1684 314.757C67.9914 315.29 67.701 315.752 67.2972 316.142C66.8934 316.532 66.4146 316.79 65.8608 316.916L64.668 317.186L63.9239 313.927L64.9464 313.695L62.9963 305.154L60.1207 305.806L62.8148 317.606L53.613 319.691L50.1749 304.632L53.4339 303.893L56.128 315.694L58.7905 315.09L56.8064 306.4C56.6767 305.832 56.7004 305.281 56.8774 304.748C57.0402 304.219 57.3235 303.759 57.7273 303.368C58.1311 302.978 58.6169 302.719 59.1849 302.59L62.4226 301.856C62.9765 301.731 63.5201 301.757 64.0535 301.935C64.587 302.112 65.0492 302.404 65.4402 302.808C65.8312 303.212 66.0915 303.698 66.2212 304.266L68.2394 313.106Z" fill="white"/>
<path d="M63.3428 284.637C63.3903 285.218 63.274 285.76 62.9938 286.265C62.6991 286.77 62.3096 287.189 61.8253 287.52C61.3264 287.852 60.7939 288.041 60.2277 288.086L51.1691 288.813C50.5884 288.86 50.0393 288.757 49.522 288.507C49.0046 288.256 48.5812 287.903 48.2517 287.447C47.9076 286.993 47.7118 286.475 47.6643 285.895L46.9246 276.86C46.8771 276.279 46.9862 275.737 47.2519 275.234C47.503 274.732 47.8635 274.316 48.3333 273.986C48.8031 273.656 49.3284 273.468 49.9091 273.421L58.9677 272.694C59.5339 272.649 60.0902 272.751 60.6366 272.999C61.1684 273.248 61.6209 273.599 61.994 274.051C62.3525 274.505 62.5557 275.022 62.6032 275.602L63.3428 284.637ZM59.6347 282.984L59.0662 276.039L53.2303 276.507L59.6347 282.984ZM56.9065 285L50.5021 278.523L51.0706 285.468L56.9065 285Z" fill="white"/>
<path d="M65.8712 227.002C65.7532 227.572 65.5029 228.062 65.1202 228.473C64.7376 228.884 64.2814 229.183 63.7517 229.37C63.222 229.557 62.679 229.593 62.1227 229.477L58.8706 228.799C58.6281 228.749 58.393 228.663 58.1653 228.541C57.9233 228.416 57.6985 228.28 57.4909 228.133C57.242 228.185 56.989 228.221 56.7317 228.242C56.4603 228.26 56.1961 228.242 55.9394 228.189L52.9226 227.56C52.352 227.441 51.8609 227.19 51.4492 226.807C51.0375 226.424 50.7448 225.969 50.5711 225.442C50.3832 224.912 50.3483 224.362 50.4663 223.792L52.3026 214.919C52.4088 214.406 52.6217 213.952 52.9414 213.558C53.2468 213.161 53.623 212.852 54.0701 212.633C54.5172 212.414 54.9921 212.312 55.4947 212.328L59.0678 213.072C59.5671 213.176 60.0341 213.4 60.4689 213.743C60.947 213.59 61.457 213.57 61.999 213.683L65.2512 214.361C65.8075 214.476 66.2914 214.726 66.7031 215.109C67.1148 215.492 67.4147 215.949 67.6026 216.479C67.7905 217.008 67.8255 217.558 67.7075 218.129L65.8712 227.002ZM62.6286 226.17L64.403 217.596L61.5146 216.994L59.7402 225.568L62.6286 226.17ZM56.6592 224.926L58.4336 216.353L55.5666 215.755L53.7921 224.329L56.6592 224.926Z" fill="white"/>
<path d="M73.2531 199.049C73.0551 199.597 72.7238 200.042 72.2591 200.384C71.7807 200.721 71.2522 200.94 70.6737 201.04C70.0816 201.134 69.5184 201.085 68.9841 200.891L60.4361 197.79C59.8881 197.591 59.4307 197.27 59.064 196.828C58.6972 196.385 58.4585 195.888 58.3479 195.337C58.2236 194.781 58.2604 194.229 58.4584 193.682L61.5398 185.162C61.7378 184.615 62.0622 184.168 62.5133 183.82C62.9506 183.468 63.4516 183.24 64.0164 183.135C64.5811 183.03 65.1375 183.077 65.6854 183.276L74.2335 186.377C74.7677 186.571 75.2319 186.894 75.6261 187.347C76.0065 187.795 76.2727 188.301 76.4244 188.867C76.5624 189.428 76.5324 189.982 76.3344 190.53L73.2531 199.049ZM70.5646 196.007L72.9331 189.458L67.4262 187.46L70.5646 196.007ZM67.2434 196.706L64.105 188.16L61.7365 194.709L67.2434 196.706Z" fill="white"/>
<path d="M85.2376 172.509C84.9636 173.022 84.5722 173.415 84.0634 173.688C83.5417 173.954 82.9874 174.095 82.4005 174.111C81.8007 174.121 81.2501 173.992 80.7488 173.724L72.7274 169.439C72.2132 169.164 71.806 168.782 71.5059 168.291C71.2059 167.801 71.0403 167.275 71.0092 166.714C70.9653 166.147 71.0803 165.606 71.3542 165.092L75.6178 157.1C75.8917 156.586 76.2767 156.19 76.7727 155.91C77.2558 155.624 77.7844 155.469 78.3584 155.446C78.9325 155.422 79.4766 155.548 79.9908 155.823L88.0122 160.108C88.5136 160.376 88.9271 160.762 89.2529 161.266C89.5659 161.763 89.7572 162.302 89.8268 162.884C89.8836 163.458 89.775 164.003 89.5011 164.516L85.2376 172.509ZM83.0088 169.116L86.2861 162.972L81.1184 160.211L83.0088 169.116ZM79.6211 169.335L77.7308 160.431L74.4534 166.575L79.6211 169.335Z" fill="white"/>
<path d="M117.841 125.37C117.474 125.743 117.028 125.989 116.504 126.107C115.97 126.215 115.414 126.209 114.836 126.091C114.247 125.962 113.694 125.714 113.175 125.348L121.691 116.672L119.694 114.712L113.455 121.068C113.048 121.483 112.572 121.76 112.027 121.899C111.483 122.037 110.937 122.042 110.39 121.913C109.842 121.784 109.361 121.515 108.944 121.107L106.635 118.841C106.218 118.433 105.941 117.956 105.801 117.412C105.662 116.867 105.661 116.327 105.8 115.79C105.928 115.243 106.196 114.762 106.604 114.347L112.965 107.867C113.372 107.452 113.848 107.175 114.393 107.036C114.927 106.887 115.462 106.883 115.999 107.022C116.547 107.151 117.028 107.42 117.445 107.828L124.156 114.411C124.561 114.809 124.834 115.28 124.973 115.825C125.123 116.359 125.134 116.899 125.006 117.446C124.877 117.993 124.609 118.474 124.201 118.89L117.841 125.37ZM111.174 118.585L117.29 112.355L115.23 110.334L109.114 116.565L111.174 118.585Z" fill="white"/>
<path d="M139.21 105.842C138.747 106.195 138.236 106.401 137.677 106.461C137.119 106.52 136.578 106.447 136.054 106.242C135.531 106.036 135.097 105.707 134.752 105.256L134.008 104.283L136.664 102.257L137.301 103.091L144.26 97.7822L142.468 95.4372L132.854 102.772L127.12 95.268L139.39 85.9076L141.421 88.5653L131.806 95.9L133.465 98.0712L140.546 92.6695C141.009 92.3165 141.52 92.1101 142.078 92.0505C142.628 91.9792 143.165 92.0464 143.688 92.252C144.212 92.4576 144.65 92.792 145.004 93.2552L147.022 95.8955C147.367 96.3471 147.57 96.8523 147.63 97.411C147.691 97.9696 147.619 98.5104 147.414 99.0333C147.209 99.5562 146.875 99.9941 146.412 100.347L139.21 105.842Z" fill="white"/>
<path d="M163.075 89.6051C162.567 89.8887 162.025 90.0075 161.449 89.9616C160.866 89.903 160.323 89.722 159.819 89.4186C159.309 89.1025 158.915 88.6965 158.638 88.2004L154.2 80.2641C153.916 79.7554 153.78 79.214 153.792 78.6398C153.805 78.0656 153.95 77.5343 154.227 77.046C154.497 76.545 154.886 76.1528 155.395 75.8692L163.308 71.4566C163.816 71.1731 164.355 71.0479 164.924 71.0811C165.486 71.1015 166.014 71.257 166.51 71.5477C167.007 71.8384 167.397 72.2381 167.681 72.7468L172.119 80.6831C172.396 81.1791 172.536 81.727 172.537 82.3266C172.532 82.9135 172.401 83.4702 172.145 83.9966C171.882 84.5104 171.497 84.909 170.988 85.1925L163.075 89.6051ZM163.033 85.5491L169.116 82.1573L166.257 77.0445L163.033 85.5491ZM160.062 83.9028L163.286 75.3981L157.203 78.79L160.062 83.9028Z" fill="white"/>
<path d="M220.886 67.0671L218.518 56.6938L218.015 57.7265L213.691 58.7064L217.257 51.7598L220.644 50.9923L224.145 66.3285L220.886 67.0671Z" fill="white"/>
<path d="M241.95 63.4377L241.453 57.3637C241.405 56.7832 241.507 56.2418 241.758 55.7395C242.009 55.2373 242.363 54.8291 242.82 54.5149C243.275 54.1862 243.793 53.9985 244.374 53.952L253.258 53.2393L253.003 50.1261L244.271 50.8266L244.375 52.0892L241.043 52.3565L240.925 50.9196C240.878 50.3391 240.98 49.7977 241.231 49.2954C241.482 48.7932 241.836 48.3849 242.292 48.0708C242.747 47.742 243.265 47.5544 243.846 47.5079L252.883 46.783C253.464 46.7364 254.005 46.839 254.508 47.0909C255.01 47.3282 255.426 47.6747 255.755 48.1303C256.085 48.586 256.273 49.1041 256.321 49.6847L256.604 53.1462C256.652 53.7268 256.55 54.2682 256.299 54.7704C256.047 55.2726 255.694 55.6881 255.239 56.0168C254.784 56.3455 254.266 56.5331 253.685 56.5797L244.801 57.2924L245.009 59.8396L257.073 58.8719L257.345 62.2028L241.95 63.4377Z" fill="white"/>
<path d="M274.05 62.4373C273.468 62.4008 272.947 62.2221 272.485 61.9013C272.023 61.5806 271.661 61.1713 271.4 60.6735C271.138 60.1757 271.025 59.6434 271.06 59.0767L271.134 57.856L274.471 58.0656L274.407 59.1118L283.152 59.6609L283.332 56.7182L271.251 55.9596L271.827 46.5431L287.245 47.5112L287.041 50.8462L274.96 50.0876L274.793 52.8123L283.69 53.371C284.272 53.4075 284.793 53.5861 285.255 53.9069C285.718 54.2131 286.08 54.6151 286.342 55.1129C286.603 55.6107 286.716 56.1503 286.681 56.7316L286.478 60.0448C286.443 60.6115 286.265 61.1255 285.945 61.5868C285.625 62.0481 285.216 62.409 284.719 62.6695C284.221 62.93 283.682 63.0421 283.1 63.0056L274.05 62.4373Z" fill="white"/>
<path d="M302.748 65.8057C302.178 65.6869 301.689 65.4216 301.284 65.0099C300.881 64.584 300.588 64.0919 300.406 63.5336C300.227 62.961 300.195 62.3968 300.31 61.8409L302.151 52.9464C302.269 52.3763 302.521 51.8786 302.906 51.4534C303.292 51.0282 303.749 50.7221 304.279 50.5351C304.812 50.3338 305.363 50.2926 305.934 50.4115L314.813 52.2614C315.384 52.3802 315.873 52.6383 316.282 53.0357C316.694 53.4189 316.992 53.8825 317.177 54.4266C317.362 54.9706 317.396 55.5277 317.278 56.0979L315.437 64.9923C315.322 65.5482 315.069 66.0531 314.677 66.5068C314.289 66.9462 313.825 67.2808 313.286 67.5106C312.751 67.7261 312.198 67.7745 311.627 67.6556L302.748 65.8057ZM305.374 62.7173L312.199 64.1393L313.385 58.4092L305.374 62.7173ZM304.203 59.5296L312.214 55.2214L305.389 53.7995L304.203 59.5296Z" fill="white"/>
<path fill-rule="evenodd" clip-rule="evenodd" d="M412.144 179.575C388.603 138.801 350.766 111.429 308.615 100.135L309.651 96.2714C352.784 107.829 391.515 135.845 415.608 177.575L412.144 179.575ZM179.237 117.168C138.462 140.71 111.091 178.546 99.7965 220.697L95.9328 219.662C107.49 176.528 135.506 137.797 177.237 113.704L179.237 117.168ZM349.737 412.483C390.512 388.941 417.883 351.105 429.177 308.954L433.041 309.989C421.483 353.123 393.467 391.854 351.737 415.947L349.737 412.483ZM116.829 350.075C140.371 390.85 178.207 418.221 220.358 429.516L219.323 433.379C176.189 421.822 137.459 393.806 113.365 352.075L116.829 350.075Z" fill="#FAFF00"/>
<path fill-rule="evenodd" clip-rule="evenodd" d="M265.011 500.557C395.074 500.557 500.511 395.12 500.511 265.057C500.511 134.994 395.074 29.5569 265.011 29.5569C134.948 29.5569 29.5107 134.994 29.5107 265.057C29.5107 395.12 134.948 500.557 265.011 500.557ZM265.011 507.557C398.94 507.557 507.511 398.986 507.511 265.057C507.511 131.128 398.94 22.5569 265.011 22.5569C131.082 22.5569 22.5107 131.128 22.5107 265.057C22.5107 398.986 131.082 507.557 265.011 507.557Z" fill="#FAFF00"/>
<path d="M131.93 208.021L196.258 143.023L324.914 143.023L389.243 208.021V334.229L324.914 398.557H196.258L131.93 334.229L131.93 208.021Z" fill="#FAFF00"/>
<path d="M239.005 334.685L316.543 288.992L327.491 235.723L285.561 226.327L286.433 216.612L341.955 228.71L348.436 252.954L351.772 321.423L374.767 349.657L366.88 357.511L354.05 370.35L326.08 398.557L238.554 356.491L239.005 334.685Z" fill="#595959"/>
<path d="M148.684 351.402L164.597 293.744L164.23 268.95L195.296 221.976L220.291 215.292L266.279 238.915L195.689 398.557L148.684 351.402Z" fill="#595959"/>
<path d="M195.689 398.557L184.4 290.631L194.892 285.831L198.329 260.557L243.693 272.225L299.227 264.726L299.92 308.125L239.005 334.685L238.554 356.491L326.08 398.557H195.689Z" fill="#7F7F7F"/>
<path d="M273.641 353.918L280.756 336.792L343.414 320.114L348.607 254.754L351.881 328.155L285.552 341.983L273.641 353.918Z" fill="#7F7F7F"/>
<path d="M366.88 357.511L338.251 351.402L322.06 363.545L342.334 357.511H366.88Z" fill="#7F7F7F"/>
<path d="M195.689 398.557L184.4 290.631L194.892 285.831L198.329 260.557L239.594 253.386L242.521 228.011L209.19 222.443L175.714 270.88L195.689 398.557Z" fill="#4B4B4B"/>
<path d="M299.92 308.125L316.543 288.992L327.491 235.723L292.186 227.644L293.707 251.078L299.227 264.726L299.92 308.125Z" fill="#4B4B4B"/>
<path d="M204.014 273.152L199.329 275.398L204.127 283.239L198.359 289.155L222.051 302.341L251.119 292.935L266.428 281.676L231.133 282.428L212.407 275.35L225.262 287.971L218.843 289.167L204.014 273.152Z" fill="#4B4B4B"/>
<path d="M230.175 306.782L291.869 278.965L293.707 251.078L299.227 264.726L299.92 308.125L255.051 315.789L242.608 306.429L230.175 306.782Z" fill="#4B4B4B"/>
<path d="M164.597 293.744L166.19 321.43L159.17 332.748L164.597 293.744Z" fill="#7F7F7F"/>
<path d="M284.535 300.745L297.978 335.448L309.775 331.896L295.794 295.814L284.535 300.745Z" fill="white"/>
<path d="M301.091 293.159L315.602 329.417L327.027 326.851L312.954 288.031L301.091 293.159Z" fill="white"/>
<path d="M326.29 255.967L337.192 253.19L347.597 263.029L349.033 270.73L377.647 261.834L356.245 249.209L348.567 255.311L340.418 246.38L327.397 249.336L326.29 255.967Z" fill="#4B4B4B"/>
<path d="M196.518 246.552L190.078 241.104L180.367 245.53L177.187 251.043L160.783 235.492L178.62 232.293L181.957 239.313L189.936 234.896L197.708 241.103L196.518 246.552Z" fill="#4B4B4B"/>
<path d="M184.012 266.809L177.572 261.361L167.861 265.787L164.681 271.3L148.276 255.748L166.121 252.516L169.451 259.57L177.429 255.152L185.202 261.359L184.012 266.809Z" fill="#4B4B4B"/>
<path d="M321.599 284.346L335.774 280.561L345.988 288.348L350.476 298.458L380.511 290.056L357.124 276.93L348.942 281.307L339.993 273.736L322.684 276.228L321.599 284.346Z" fill="#4B4B4B"/>
<path d="M238.554 356.491L210.633 329.736L326.08 398.557L238.554 356.491Z" fill="#4B4B4B"/>
<path d="M328.206 243.846L339.761 241.517L346.887 247.066L346.307 245.009L339.779 240.179L328.47 242.345L328.206 243.846Z" fill="#4B4B4B"/>
<path d="M323.217 272.308L339.86 270.319L346.992 275.128L347.133 273.355L340.13 268.96L323.432 270.867L323.217 272.308Z" fill="#4B4B4B"/>
<path d="M187.122 234.301L191.128 232.272L198.879 237.345L199.714 236.169L191.351 230.798L188.14 232.738L187.122 234.301Z" fill="#4B4B4B"/>
<path d="M173.326 255.184L178.14 252.822L184.79 257.746L185.706 256.515L178.546 251.49L174.323 253.722L173.326 255.184Z" fill="#4B4B4B"/>
<path d="M206.645 194.038L211.645 144.213L250.216 113.847L299.827 120.144L328.88 157.881L324.626 194.894L315.842 207.98L326.672 207.696L328.406 227.394L300.873 243.462L292.799 240.903L273.498 260.515L246.478 273.472L228.195 267.718L211.017 240.782L212.317 205.655L206.645 194.038Z" fill="#D5D5D5"/>
<path d="M301.545 212.024L301.532 243.523L283.431 273.085L255.811 295.987L257.181 306.854L241.316 293.211L240.913 285.468L222.858 294.733L229.937 307.088L213.967 303.913L218.152 315.551L207.106 304.668L201.686 281.482L191.665 288.178L192.264 276.289L186.221 280.032L187.165 254.863L207.684 243.333L212.138 215.613L213.558 240.263L221.964 254.119L231.709 250.229L253.459 258.262L261.909 250.406L272.049 221.981L276.821 224.095L282.825 216.46L283.392 231.546L301.545 212.024Z" fill="white"/>
<path d="M329.444 158.417L326.882 176.625L321.267 179.994L302.173 177.433L298.215 186.676L290.777 188.199L300.236 170.833L296.733 167.311L258.467 202.894L259.993 225.057L276.168 211.039L282.716 216.12L283.392 231.546L301.196 246.457L318.344 240.332L330.278 224.905L328.483 211.729L325.837 202.303L333.852 200.365L337.066 169.821L329.444 158.417Z" fill="#7F7F7F"/>
<path d="M293.915 230.495L294.569 213.886L309.792 204.658L324.341 213.201L325.286 226.385L310.116 239.967L293.915 230.495Z" fill="white"/>
<path d="M310.801 207.754L298.723 215.736L298.018 229.757L310.351 237.365L322.581 225.6L321.998 214.678L310.801 207.754Z" fill="#626262"/>
<path d="M325.837 202.303L327.556 208.402L309.983 199.61L292.99 204.778L282.716 216.12L283.77 204.428L292.455 193.971L310.287 191.336L325.837 202.303Z" fill="#626262"/>
<path d="M227.529 155.988L239.677 143.748L250.884 140.679L254.437 133.474L285.612 118.271L299.861 120.151L328.56 157.712L348.339 164.822L367.584 155.971L360.141 153.431L353.307 147.835L366.854 140.993L359.31 138.963L341.868 125.431L354.083 111.967L347.553 104.842L346.644 112.077L327.484 112.506L329.008 107.511L307.601 103.255L301.795 105.809L307.08 92.5569L285.382 100.427L257.29 96.7485L247.454 110.685L218.447 114.453L212.084 135.79L227.529 155.988Z" fill="white"/>
<path d="M275.886 202.331L263.339 190.831L247.078 189.117L241.421 197.492L232.111 195.641L221.745 184.539L205.316 183.674L194.496 192.788L197.783 210.181L208.982 218.164L220.237 215.74L230.988 200.044L236.531 204.677L234.686 207.383L247.818 225.003L261.148 225.64L277.193 210.325L275.886 202.331Z" fill="#626262"/>
<path d="M198.275 194.21L205.862 186.431L217.446 192.478L220.338 208.485L209.78 215.215L200.452 209.193L198.275 194.21Z" fill="#FAFF00"/>
<path d="M241.561 201.051L241.728 210.337L250.954 222.73L262.064 217.664L264.114 203.981L251.642 193.343L241.561 201.051Z" fill="#FAFF00"/>
<path d="M220.103 241.988L250 244.754L256.19 251.812L252.996 251.177L249.439 247.574L219.596 244.536L220.103 241.988Z" fill="#7F7F7F"/>
<path d="M306.175 128.01L277.521 144.209L313.385 136.154L306.175 128.01Z" fill="white"/>
<path d="M317.673 143.01L295.535 153.088L323.592 150.544L317.673 143.01Z" fill="white"/>
<path d="M194.543 186.688L204.183 179.069L264.318 185.728L281.114 198.956L283.354 196.576L266.758 180.563L202.412 175.539L194.879 183.223L194.543 186.688Z" fill="#626262"/>
<path d="M209.013 184.974L212.81 178.313L217.635 178.919L214.11 185.987L209.013 184.974Z" fill="#626262"/>
<path d="M250.6 190.77L254.6 183.09L259.22 182.949L255.831 191.104L250.6 190.77Z" fill="#626262"/>
<path d="M120.816 326.514L119.485 322.153L124.948 318.022L148.316 329.039L155.799 333.17L156.717 329.589L133.533 310.265L119.209 303.747L117.511 298.79L121.046 293.374L155.707 309.623L146.709 301.314L123.938 288.921L122.148 283.551L127.565 279.007L162.088 297.642L173.428 307.144L163.833 293.879L143.312 279.098L141.843 272.213L148.683 269.276L176.183 286.856L178.753 282.908L184.125 283.23L189.221 295.347L198.035 302.829L211.532 324.632L218.786 355.982L233.615 373.333H178.432L156.074 352.678L120.816 326.514Z" fill="#D5D5D5"/>
<path d="M153.871 291.951L149.877 296.495L156.305 302.049L163.237 322.796L172.786 336.475L182.197 338.816L185.824 342.534L194.822 328.717L188.211 321.649L187.431 315.085L174.163 294.475L163.65 289.885L160.712 294.429L155.065 290.757L155.662 284.469L161.906 274.876L172.51 281.761L172.419 284.561L165.854 286.535L164.981 287.866L175.816 292.502L189.726 314.167L190.507 320.547L196.2 326.606L196.567 326.055L197.715 318.39L211.212 332.114L211.671 337.347L202.076 350.658L213.186 358.966L216.308 356.947L217.272 336.566L209.054 327.065L200.056 312.193L197.852 313.983L192.343 306.547L200.24 302.233L203.729 309.255L201.892 310.724L210.982 325.78L219.659 335.74L218.603 358.278L213.094 361.812L200.699 352.54L193.261 362.868L185.916 363.373L183.758 366.677L171.868 370.35L162.135 360.527L170.031 360.756L178.249 355.202L176.688 353.55L179.948 351.484L184.493 344.553L180.958 340.973L171.317 338.586L161.033 323.76L154.239 303.426L148.316 298.285L147.766 298.928L146.296 303.61L144.093 302.187L142.945 293.19L148.684 288.692L153.871 291.951ZM179.948 356.947L178.295 359.471L182.06 362.592L183.85 361.123L179.948 356.947Z" fill="#4F4F4F"/>
<path d="M336.511 21.4915L327.203 11.5569H203.819L194.511 21.4915V61.5569L217.884 85.5569H313.137L336.511 61.5569V21.4915Z" fill="white"/>
<path fill-rule="evenodd" clip-rule="evenodd" d="M202.952 9.55695H328.07L338.511 20.7009V62.3699L313.981 87.5569H217.04L192.511 62.3699V20.7009L202.952 9.55695ZM204.686 13.5569L196.511 22.282V60.744L218.728 83.5569H312.293L334.511 60.744V22.282L326.336 13.5569H204.686Z" fill="white"/>
<path d="M293.666 56.5569C293.042 56.5569 292.474 56.3889 291.962 56.0529C291.45 55.7009 291.034 55.2529 290.714 54.7089C290.41 54.1489 290.258 53.5649 290.258 52.9569V42.7569C290.258 42.1329 290.41 41.5569 290.714 41.0289C291.034 40.5009 291.45 40.0769 291.962 39.7569C292.474 39.4369 293.042 39.2769 293.666 39.2769H303.89C304.514 39.2769 305.082 39.4369 305.594 39.7569C306.106 40.0769 306.514 40.5009 306.818 41.0289C307.138 41.5569 307.298 42.1329 307.298 42.7569V52.9569C307.298 53.5649 307.138 54.1489 306.818 54.7089C306.514 55.2529 306.106 55.7009 305.594 56.0529C305.082 56.3889 304.514 56.5569 303.89 56.5569H293.666ZM295.394 52.9329H303.746C303.778 52.9329 303.81 52.9249 303.842 52.9089C303.874 52.8769 303.89 52.8369 303.89 52.7889V45.8289L295.394 52.9329ZM293.666 49.8849L302.162 42.7809H293.81C293.778 42.7809 293.746 42.7969 293.714 42.8289C293.682 42.8449 293.666 42.8769 293.666 42.9249V49.8849Z" fill="black"/>
<path d="M267.024 56.5569C266.4 56.5569 265.832 56.4049 265.32 56.1009C264.808 55.7809 264.392 55.3649 264.072 54.8529C263.768 54.3409 263.616 53.7809 263.616 53.1729V51.9249H267.024V53.0049C267.024 53.0369 267.04 53.0689 267.072 53.1009C267.104 53.1329 267.136 53.1489 267.168 53.1489H277.104C277.136 53.1489 277.168 53.1329 277.2 53.1009C277.232 53.0689 277.248 53.0369 277.248 53.0049V49.6449C277.248 49.5969 277.232 49.5649 277.2 49.5489C277.168 49.5169 277.136 49.5009 277.104 49.5009H263.616V39.2769H280.656V42.6849H267.168C267.136 42.6849 267.104 42.7009 267.072 42.7329C267.04 42.7649 267.024 42.7969 267.024 42.8289V45.9249C267.024 45.9569 267.04 45.9889 267.072 46.0209C267.104 46.0369 267.136 46.0449 267.168 46.0449H277.248C277.856 46.0449 278.416 46.1969 278.928 46.5009C279.456 46.8049 279.872 47.2209 280.176 47.7489C280.496 48.2609 280.656 48.8289 280.656 49.4529V53.1729C280.656 53.7809 280.496 54.3409 280.176 54.8529C279.872 55.3649 279.456 55.7809 278.928 56.1009C278.416 56.4049 277.856 56.5569 277.248 56.5569H267.024Z" fill="black"/>
<path d="M236.975 56.5569V49.8849C236.975 49.2609 237.127 48.6929 237.431 48.1809C237.751 47.6689 238.167 47.2609 238.679 46.9569C239.191 46.6529 239.759 46.5009 240.383 46.5009H250.463C250.495 46.5009 250.527 46.4849 250.559 46.4529C250.591 46.4209 250.607 46.3889 250.607 46.3569V42.8289C250.607 42.7969 250.591 42.7649 250.559 42.7329C250.527 42.7009 250.495 42.6849 250.463 42.6849H240.527C240.495 42.6849 240.463 42.7009 240.431 42.7329C240.399 42.7649 240.383 42.7969 240.383 42.8289V44.1249H236.975V42.6609C236.975 42.0369 237.127 41.4689 237.431 40.9569C237.751 40.4449 238.167 40.0369 238.679 39.7329C239.191 39.4289 239.759 39.2769 240.383 39.2769H250.607C251.215 39.2769 251.775 39.4289 252.287 39.7329C252.815 40.0369 253.231 40.4449 253.535 40.9569C253.855 41.4689 254.015 42.0369 254.015 42.6609V46.5249C254.015 47.1489 253.855 47.7169 253.535 48.2289C253.231 48.7409 252.815 49.1569 252.287 49.4769C251.775 49.7809 251.215 49.9329 250.607 49.9329H240.527C240.495 49.9329 240.463 49.9489 240.431 49.9809C240.399 50.0129 240.383 50.0449 240.383 50.0769V53.0049C240.383 53.0369 240.399 53.0689 240.431 53.1009C240.463 53.1329 240.495 53.1489 240.527 53.1489H254.015V56.5569H236.975Z" fill="black"/>
<path d="M225.127 56.5569V44.3649L224.071 45.6849H219.535L224.911 39.2769H228.559V56.5569H225.127Z" fill="black"/>
</svg>
