<svg width="75" height="63" viewBox="0 0 75 63" fill="none" xmlns="http://www.w3.org/2000/svg">
<path fill-rule="evenodd" clip-rule="evenodd" d="M57.4513 62.3044C58.4575 63.0226 59.7544 63.2021 60.9106 62.7611C62.0669 62.317 62.9169 61.3216 63.1731 60.1151C65.8888 47.2505 72.4763 14.6889 74.9481 2.98667C75.1356 2.10467 74.8231 1.18802 74.1356 0.598968C73.4481 0.00991712 72.495 -0.160183 71.645 0.157967C58.5419 5.04677 18.1887 20.3085 1.69499 26.4605C0.648118 26.8511 -0.0331317 27.8654 0.00124329 28.9774C0.0387433 30.0925 0.782493 31.0595 1.85437 31.384C9.25124 33.6142 18.9606 36.7169 18.9606 36.7169C18.9606 36.7169 23.4981 50.5297 25.8637 57.5542C26.1606 58.4362 26.845 59.1292 27.7481 59.3686C28.6481 59.6048 29.6106 59.356 30.2825 58.7165C34.0825 55.1003 39.9575 49.5091 39.9575 49.5091C39.9575 49.5091 51.12 57.7589 57.4513 62.3044ZM23.045 34.9718L28.2919 52.4165L29.4575 41.3695C29.4575 41.3695 49.7294 22.9388 61.2856 12.4335C61.6231 12.1248 61.67 11.6082 61.3887 11.246C61.1106 10.8837 60.5981 10.7987 60.2137 11.0444C46.82 19.6659 23.045 34.9718 23.045 34.9718Z" fill="#FAFF00"/>
</svg>
