<svg width="122" height="122" viewBox="0 0 122 122" fill="none" xmlns="http://www.w3.org/2000/svg">
<path d="M12.4286 12.4286V26.1429H1.14274e-06V13.0714L13.0714 1.14274e-06H26.1429V12.4286H12.4286Z" fill="#FAFF00"/>
<path d="M109.571 109.571V95.8571H122V108.929L108.929 122H95.8571V109.571H109.571Z" fill="#FAFF00"/>
<path d="M109.571 12.4286H95.8571V0L108.929 5.7137e-07L122 13.0714V26.1429L109.571 26.1429V12.4286Z" fill="#FAFF00"/>
<path d="M12.4286 109.571H26.1429L26.1429 122H13.0714L5.7137e-07 108.929L0 95.8571H12.4286V109.571Z" fill="#FAFF00"/>
<path d="M23 28C23 26.3431 24.3431 25 26 25H96C97.6569 25 99 26.3431 99 28V41C99 42.6569 97.6569 44 96 44H26C24.3431 44 23 42.6569 23 41V28Z" fill="#FAFF00"/>
<path d="M23 55C23 53.3431 24.3431 52 26 52H96C97.6569 52 99 53.3431 99 55V68C99 69.6569 97.6569 71 96 71H26C24.3431 71 23 69.6569 23 68V55Z" fill="#FAFF00"/>
<path d="M23 82C23 80.3431 24.3431 79 26 79H96C97.6569 79 99 80.3431 99 82V95C99 96.6569 97.6569 98 96 98H26C24.3431 98 23 96.6569 23 95V82Z" fill="#FAFF00"/>
</svg>
