<svg width="122" height="122" viewBox="0 0 122 122" fill="none" xmlns="http://www.w3.org/2000/svg">
<path d="M12.4286 12.4286V26.1429H1.14274e-06V13.0714L13.0714 1.14274e-06H26.1429V12.4286H12.4286Z" fill="#FAFF00"/>
<path d="M109.571 109.571V95.8571H122V108.929L108.929 122H95.8571V109.571H109.571Z" fill="#FAFF00"/>
<path d="M109.571 12.4286H95.8571V0L108.929 5.7137e-07L122 13.0714V26.1429L109.571 26.1429V12.4286Z" fill="#FAFF00"/>
<path d="M12.4286 109.571H26.1429L26.1429 122H13.0714L5.7137e-07 108.929L0 95.8571H12.4286V109.571Z" fill="#FAFF00"/>
<path d="M33.3137 24.1213C34.4853 22.9497 36.3848 22.9497 37.5563 24.1213L97.3938 83.9587C98.5653 85.1303 98.5653 87.0298 97.3938 88.2014L88.2014 97.3938C87.0298 98.5653 85.1303 98.5653 83.9587 97.3938L24.1213 37.5564C22.9497 36.3848 22.9497 34.4853 24.1213 33.3137L33.3137 24.1213Z" fill="#FAFF00"/>
<path d="M24.1213 88.2014C22.9497 87.0298 22.9497 85.1303 24.1213 83.9587L83.9587 24.1213C85.1303 22.9497 87.0298 22.9497 88.2014 24.1213L97.3938 33.3137C98.5653 34.4853 98.5653 36.3848 97.3938 37.5563L37.5564 97.3938C36.3848 98.5653 34.4853 98.5653 33.3137 97.3938L24.1213 88.2014Z" fill="#FAFF00"/>
</svg>
