<svg width="75" height="59" viewBox="0 0 75 59" fill="none" xmlns="http://www.w3.org/2000/svg">
<path d="M63.5321 5.21189C58.6772 2.94042 53.4862 1.2896 48.0591 0.349609C47.3925 1.55464 46.6139 3.17544 46.077 4.46478C40.3078 3.59716 34.5917 3.59716 28.9286 4.46478C28.3918 3.17544 27.5955 1.55464 26.923 0.349609C21.49 1.2896 16.293 2.94648 11.4381 5.22392C1.64576 20.0214 -1.00878 34.4514 0.31849 48.6765C6.81329 53.5266 13.1075 56.473 19.2955 58.4009C20.8234 56.2982 22.186 54.0629 23.3599 51.7071C21.1242 50.8576 18.9829 49.8092 16.9596 48.5922C17.4964 48.1945 18.0214 47.7787 18.5287 47.3509C30.8694 53.123 44.2778 53.123 56.4711 47.3509C56.9843 47.7787 57.5092 48.1945 58.0401 48.5922C56.0109 49.8152 53.8637 50.8635 51.628 51.7132C52.8019 54.0629 54.1587 56.3042 55.6924 58.4069C61.8863 56.4789 68.1864 53.5327 74.6812 48.6765C76.2386 32.186 72.0208 17.8885 63.5321 5.21189ZM25.0412 39.9282C21.3366 39.9282 18.2986 36.4698 18.2986 32.2583C18.2986 28.0468 21.2718 24.5824 25.0412 24.5824C28.8107 24.5824 31.8486 28.0407 31.7837 32.2583C31.7896 36.4698 28.8107 39.9282 25.0412 39.9282ZM49.9586 39.9282C46.254 39.9282 43.216 36.4698 43.216 32.2583C43.216 28.0468 46.189 24.5824 49.9586 24.5824C53.728 24.5824 56.766 28.0407 56.7011 32.2583C56.7011 36.4698 53.728 39.9282 49.9586 39.9282Z" fill="#FAFF00"/>
</svg>
