<svg width="17" height="17" viewBox="0 0 17 17" fill="none" xmlns="http://www.w3.org/2000/svg">
<path d="M1.73185 1.73185V3.64286H1.59234e-07V1.82143L1.82143 1.59234e-07H3.64286V1.73185H1.73185Z" fill="#FAFF00"/>
<path d="M15.2681 15.2681V13.3571H17V15.1786L15.1786 17H13.3571V15.2681H15.2681Z" fill="#FAFF00"/>
<path d="M15.2681 1.73185H13.3571V0L15.1786 7.96172e-08L17 1.82143V3.64286L15.2681 3.64286V1.73185Z" fill="#FAFF00"/>
<path d="M1.73185 15.2681H3.64286L3.64286 17H1.82143L7.96171e-08 15.1786L0 13.3571H1.73185V15.2681Z" fill="#FAFF00"/>
<path d="M9.37196 2.15232C9.60283 2.15232 9.78999 2.33948 9.78999 2.57035V14.3621C9.78999 14.5929 9.60283 14.7801 9.37196 14.7801H7.56048C7.32961 14.7801 7.14245 14.5929 7.14245 14.3621L7.14245 2.57035C7.14245 2.33948 7.32961 2.15232 7.56048 2.15232H9.37196Z" fill="#FAFF00"/>
<path d="M2.15233 7.56048C2.15233 7.32961 2.33949 7.14245 2.57036 7.14245L14.3621 7.14245C14.5929 7.14245 14.7801 7.32961 14.7801 7.56048V9.37196C14.7801 9.60283 14.5929 9.78999 14.3621 9.78999H2.57036C2.33949 9.78999 2.15233 9.60283 2.15233 9.37196V7.56048Z" fill="#FAFF00"/>
</svg>
