<svg width="135" height="19" viewBox="0 0 135 19" fill="none" xmlns="http://www.w3.org/2000/svg">
<path d="M71 19H68L66 17V6.00002L65 5.00002H61L60 6.00002V11H65V15H60V17L58 19H55V3.00002L58 1.52588e-05H68L71 3.00002V19Z" fill="#FAFF00"/>
<path d="M40 19L38 19V2.00002L40 1.52588e-05H50L54 4.00002L50.5 7.50002L48 5.00002H43V14H49V13H47V10L48 9.00002H54V17L52 19H40Z" fill="#FAFF00"/>
<path d="M35 5.00002H22V7.00002H33L34 8.00002V11L33 12H22V14H37V16V19L36 19H19L17 17V2.00002L19 1.52588e-05H36L37 1.00002V3.00002L35 5.00002Z" fill="#FAFF00"/>
<path d="M113 5.00002H104V7.00002H111L112 8.00002V11L111 12H104V14H114L115 15V19L114 19H101L99 19V2.00002L101 1.52588e-05H114L115 1.00002V3.00002L113 5.00002Z" fill="#FAFF00"/>
<path d="M93 17V5.00002L92 5.00001L86 11H84L78 5.00001H77V17L75 19H72V2.00001L74 1.42097e-05L80 1.4472e-05L84 4.00002L86 4.00001L90 1.49091e-05L96 1.51714e-05L98 2.00002V19H95L93 17Z" fill="#FAFF00"/>
<path fill-rule="evenodd" clip-rule="evenodd" d="M16 5.00002L11 1.52588e-05H2L0 2.00002V19H11L16 14V5.00002ZM9 5.00002L11 7.00002V12L9 14H5V6.00002L6 5.00002H9Z" fill="#FAFF00"/>
<path d="M116 4.24266V2.82845L118.828 2.27355e-05L120.243 2.27201e-05L125.5 5.25739L130.757 0H132.172L135 2.82843V4.24264L129.743 9.50002L135 14.7574V16.1716L132.172 19H130.757L125.5 13.7427L120.243 19H118.828L116 19V14.7574L121.257 9.50004L116 4.24266Z" fill="#FAFF00"/>
<path d="M116 4.24266V2.82845L118.828 2.27355e-05L120.243 2.27201e-05L125.5 5.25739L130.757 0H132.172L135 2.82843V4.24264L129.743 9.50002L135 14.7574V16.1716L132.172 19H130.757L125.5 13.7427L120.243 19H118.828L116 19V14.7574L121.257 9.50004L116 4.24266Z" fill="#FAFF00"/>
</svg>
