<svg width="699" height="661" viewBox="0 0 699 661" fill="none" xmlns="http://www.w3.org/2000/svg">
<path d="M59.3967 133.262L73.5166 147.382L123.578 163.107L147.646 157.651L162.728 140.322L151.497 113.687L125.182 98.2836L93.4127 97L62.9267 111.762L59.3967 133.262Z" fill="#5F5F5F"/>
<path d="M90.5247 120.105L88.9201 147.703L103.682 155.084H113.63V153.479L121.973 149.629L132.884 134.546L135.772 111.762L124.541 102.134L107.533 101.172L90.5247 120.105Z" fill="white"/>
<path d="M40.4633 290.185L41.747 277.991L50.7323 275.103L56.1877 281.2L52.9787 291.469L51.3741 299.492L55.225 319.067V323.559L53.9414 327.41L56.8295 329.336L51.3741 332.545V334.47L45.5978 333.187H43.3515L41.747 331.582L37.5752 317.462L40.4633 290.185Z" fill="white"/>
<path d="M35.3289 457.698L41.747 425.607L66.1358 433.63L49.1278 464.758L39.8215 466.042L35.3289 457.698Z" fill="white"/>
<path d="M152.139 428.496L149.571 413.413L175.565 415.659L173.96 433.63L172.356 461.228L162.087 468.288L156.31 462.191V442.936L152.139 428.496Z" fill="white"/>
<path d="M50.0906 176.585L86.3529 150.912L89.8829 146.419L104.003 154.763H114.593L121.011 160.86L138.34 167.92L141.549 176.585L145.4 179.794V189.1L153.743 201.294L148.609 221.511H145.4L143.474 227.609L145.4 230.176L149.892 232.422L176.207 273.177L178.774 333.363L177.49 341.53L184.229 359.501L178.774 363.352L176.207 369.449L177.49 375.546V387.099L181.02 388.703V398.972L187.117 408.599L178.774 411.167L177.49 416.301L164.654 418.548L148.288 414.376L147.004 408.599L140.907 401.54V393.517L147.004 388.703V379.076L136.735 369.449L138.981 357.575L136.735 350.836V334.47L131.922 321.634L129.996 308.477L128.071 319.388L122.294 329.336L116.518 336.717L112.346 353.404L102.077 366.24L100.152 385.815L88.2784 391.591L91.4874 398.972L82.5021 401.54L80.5766 414.376L78.0094 430.1H69.9867L66.7777 436.197H53.2996L41.747 426.249V416.301L38.8589 411.167L41.747 401.54L50.0906 397.368L58.1132 377.792L54.5833 371.374L58.1132 366.24V362.068L64.5313 357.575L66.7777 345.702L71.5913 315.537L86.3529 281.842L80.5766 277.67L83.4648 271.252L80.5766 263.871L88.2784 261.625L89.8829 254.244L86.3529 241.728L76.084 232.422L66.7777 209.317L69.6658 235.31L56.5087 281.842L50.0906 277.67L41.747 279.274V250.714L48.1652 232.422L44.9561 204.503L50.0906 176.585Z" fill="#5F5F5F"/>
<path d="M120.369 124.277L98.8683 120.747L90.8457 132.941L104.003 151.875L111.384 154.121L121.653 150.591L130.317 135.83L120.369 124.277Z" fill="black"/>
<path d="M108.495 110.157L118.764 103.739L127.75 105.664L133.526 111.12L131.921 128.77L126.145 142.248L113.63 153.479L112.346 161.502L116.518 165.032L126.787 164.39L130.638 148.345L133.526 144.815L139.944 123.635L134.489 106.627L126.787 103.739L121.652 99.5673H100.794L88.2783 113.366L74.4793 142.248L63.2476 152.196L50.7323 167.92L58.4341 163.428L50.7323 179.152L55.8668 174.659L48.8069 209.959L61.0013 181.077L70.9494 167.92L78.3302 165.995L84.7483 157.33L86.032 162.786L82.8229 174.659L93.4128 162.786L91.4874 155.405L93.4128 131.016L95.0173 133.904L97.2637 126.523L96.3009 142.89L101.756 126.523L108.495 110.157Z" fill="#444444"/>
<path d="M48.486 289.543H40.1425L37.2543 296.924L36.6125 302.059L35.008 304.626L35.9707 309.119L32.7617 316.499L35.9707 321.955L37.2543 326.448L41.4261 332.224L42.7097 331.582V328.373H46.2397L48.486 325.806L47.5233 323.88L49.1279 320.992L56.1878 319.067L55.546 309.119L52.3369 300.454L54.5833 292.111L48.486 289.543Z" fill="#444444"/>
<path d="M40.4634 463.153L34.0453 456.414L23.1345 470.534V485.617L20.5672 491.714L18 508.722L22.1718 518.349L46.5606 520.275L53.6205 516.745L52.6578 505.834L48.807 488.184L50.7324 473.743L49.7697 463.153H40.4634Z" fill="#444444"/>
<path d="M157.273 463.153L155.669 454.81L153.422 457.377L152.78 462.512L150.346 467.004L149.571 473.743L147.646 475.99L142.832 488.184L153.422 498.453H160.161L165.938 505.834L184.229 510.968L199.312 507.118L198.028 491.714L190.005 482.087L178.774 467.004L176.527 457.377L173.318 456.414L172.035 461.228L164.333 465.721L157.273 463.153Z" fill="#444444"/>
<path d="M62.285 297.887L65.1731 283.767H72.8749L87.3157 292.111L85.3902 296.924L78.9721 303.021L66.7777 296.924L62.285 297.887Z" fill="#444444"/>
<path d="M95.0174 295.641L96.301 293.073L98.2264 288.581L103.361 292.111L100.794 296.924L95.0174 295.641Z" fill="#444444"/>
<path d="M167.542 283.767L150.534 248.788L152.78 246.863L172.356 281.2L176.527 310.723L180.699 334.791H177.49L172.356 312.649L167.542 283.767Z" fill="#444444"/>
<path d="M183.908 368.486L179.416 344.739L182.625 343.135L190.647 366.561V383.89H183.908V368.486Z" fill="#444444"/>
<path d="M100.794 238.519L85.3902 241.408L89.2411 253.923L107.212 251.356L114.272 248.788L144.758 230.497L142.832 226.004L129.675 221.832L100.794 238.519Z" fill="#444444"/>
<path d="M101.756 179.152L80.8975 160.218L77.0467 164.711L97.2637 184.286L111.063 194.876L122.615 224.72L128.392 221.511L116.839 191.025L101.756 179.152Z" fill="#444444"/>
<path d="M64.2104 200.332V191.025L91.4874 184.286L89.2411 199.048L75.4421 204.503L64.2104 200.332Z" fill="#444444"/>
<path d="M142.832 179.152H120.69L127.429 189.421L140.586 192.63L144.758 189.421L142.832 179.152Z" fill="#444444"/>
<path d="M95.0174 296.924L88.5993 293.073L86.3529 297.887L79.9348 304.626L70.9495 309.119L66.7777 341.209L87.3157 344.739L103.361 298.529L95.0174 296.924Z" fill="#444444"/>
<path d="M113.309 350.516L90.8456 341.209L92.771 336.075L116.518 340.247L113.309 350.516Z" fill="#444444"/>
<path d="M100.794 314.253L124.541 326.448L128.712 319.067L103.361 306.872L100.794 314.253Z" fill="#444444"/>
<path d="M364.152 31.7696L360.301 46.5313V47.494L331.099 69.3156L317.941 61.9348L315.053 48.4567L316.658 33.3742L327.569 18.9334L353.241 17.6498L364.152 31.7696Z" fill="white"/>
<path d="M318.262 45.8896L314.411 45.2478L310.561 48.7777L316.658 66.4275L325.643 71.2411L334.628 68.353L364.473 45.8896L366.398 41.076L357.092 37.546L338.479 42.0387L336.875 48.7777L328.531 50.7032L318.262 45.8896Z" fill="black"/>
<path d="M283.604 232.015V223.03H283.925L297.724 228.485L297.083 233.299L301.254 234.903L302.538 237.149L301.254 238.433V240.679H298.687L299.329 242.605L297.724 243.888L287.776 240.679L284.888 234.261L283.604 232.015Z" fill="white"/>
<path d="M323.397 70.9202L332.382 55.1958L353.562 43.3223L376.988 45.5686L382.764 68.3529L402.981 89.8536V126.758L407.153 155.96L402.981 180.991V192.223L392.392 242.284L397.526 264.426L400.414 292.345L397.526 320.585L400.414 331.817L397.526 339.518L400.414 349.787L397.526 362.624H379.876L371.854 355.564L368.324 349.787L371.854 346.899V335.988V327.966L365.756 310.316L368.324 298.121L361.264 292.345L353.562 274.054L345.86 292.345L348.427 310.316L350.674 339.518V349.787L342.972 362.624H324.68L322.113 346.899L318.583 339.518L314.411 320.585L310.561 317.376L308.635 307.107L301.575 288.815V281.113L297.724 274.054L299.329 257.046L301.575 230.089H289.702L282 222.388L285.53 217.895L287.776 202.492L285.53 197.357L291.948 184.2V172.647L297.724 159.811L295.157 146.333L297.724 132.855V110.712L302.859 89.8536L323.397 75.7337V70.9202Z" fill="#5F5F5F"/>
<path d="M310.882 99.8016L314.091 93.7044H333.987L329.815 103.973L325.322 105.578L314.091 103.973L310.882 99.8016Z" fill="#444444"/>
<path d="M312.486 134.78L314.091 108.787H320.83L319.546 134.78L315.695 160.453L308.956 159.49L312.486 134.78Z" fill="#444444"/>
<path d="M349.711 151.788L351.958 143.766L352.92 142.803H393.675L395.601 143.766L399.452 157.565H354.204L349.711 151.788Z" fill="#444444"/>
<path d="M357.092 163.02V159.49H365.115V163.02H357.092Z" fill="#444444"/>
<path d="M394.638 163.02L393.034 159.49H397.526L399.452 163.02H394.638Z" fill="#444444"/>
<path d="M360.301 195.111L358.376 180.028L366.077 179.065L367.682 195.111V208.268L369.607 214.044H361.264L359.659 210.193L360.301 195.111Z" fill="#444444"/>
<path d="M397.526 195.752L395.601 180.028L399.452 179.065L402.982 195.752V210.193H397.526V195.752Z" fill="#444444"/>
<path d="M351.958 242.605L357.092 218.537H365.115L359.659 242.605H351.958Z" fill="#444444"/>
<path d="M385.974 242.605L393.034 218.537H399.452L393.034 242.605H385.974Z" fill="#444444"/>
<path d="M301.254 271.486L299.971 259.934L297.083 264.105V277.904L306.389 288.173L317.942 289.778L342.009 277.904L353.562 271.486V254.478H350.353L348.428 261.538L339.121 267.635V270.203L317.942 281.755H309.598L301.254 271.486Z" fill="#444444"/>
<path d="M304.143 315.45V291.382H312.165L311.203 315.45L313.128 328.607L312.165 343.048H306.389V328.607L304.143 315.45Z" fill="#444444"/>
<path d="M283.926 215.649L286.814 206.342L295.478 210.193L309.598 211.477L306.389 222.067H293.232L283.926 215.649Z" fill="#444444"/>
<path d="M367.682 166.55L366.077 159.49H391.75L393.675 166.55H367.682Z" fill="#444444"/>
<path d="M368.324 179.065V171.364H393.675V178.103L368.324 179.065Z" fill="#444444"/>
<path d="M368.324 189.976L367.682 183.237L393.675 182.274L394.638 189.976H368.324Z" fill="#444444"/>
<path d="M365.115 65.4647V60.6511L378.914 67.7111L387.578 96.5926L389.824 134.78H385.974L382.765 96.5926L375.384 72.2037L365.115 65.4647Z" fill="#444444"/>
<path d="M380.197 58.7257L378.914 65.4647L375.384 63.8602L377.309 56.1584L380.197 58.7257Z" fill="#444444"/>
<path d="M331.42 14.7617L343.293 13.7989L337.517 8.98536L352.278 12.1944L349.069 8.02264L354.846 11.2317L349.711 4.81359L341.689 1.60453H349.711L359.98 11.2317V8.02264L363.51 11.2317L363.189 3.52996L364.794 1.60453L365.756 11.2317L370.57 0L373.779 0.641812L368.965 13.1571L373.779 11.2317L383.406 8.98536V11.2317L374.742 13.7989L371.212 16.0453L376.667 17.008L385.653 13.1571L386.615 14.7617L378.593 19.2543L371.212 19.8962L377.951 23.4261L383.406 25.9934V28.2397H376.667L369.928 23.4261L371.212 29.2024L367.361 38.1878L368.965 29.2024L365.756 25.0307L363.51 26.6352L364.794 32.7324L363.189 41.3968L357.734 38.1878L339.121 43.0014L337.517 37.2251V32.7324L335.27 38.1878L333.345 32.7324L331.42 38.1878L332.703 46.8522L330.136 39.7923L331.42 28.2397L327.89 35.2996L325.643 46.8522V37.2251L328.531 25.9934L325.643 31.1279L322.434 42.0387V35.6205L324.681 25.9934L320.83 34.6578L318.583 44.6059V34.6578L322.434 25.0307L317.621 31.1279L314.732 43.0014V31.1279L318.583 21.1798L331.42 14.7617Z" fill="#444444"/>
<path d="M316.979 348.504L338.158 351.392L349.711 348.504L353.883 351.392L351.957 357.168L353.883 362.624L351.957 364.87L355.808 367.758L357.413 380.915L365.435 393.751L367.13 404.341L373.779 393.751V382.52L375.704 370.646L369.928 357.168L373.779 355.564L388.541 358.773L401.377 355.564L394.317 372.893L395.921 380.915L393.996 387.012L395.921 388.296L394.317 392.147L395.921 398.244V412.685L373.779 414.931L364.117 412.685V410.839L328.531 420.387L300.933 416.857L303.18 405.946L318.262 404.341L330.778 389.901V380.915L328.531 372.893L314.732 349.787L316.979 348.504Z" fill="#444444"/>
<path d="M328.21 373.534L344.821 376.243L356.771 371.288L357.734 373.534L349.689 377.036L357.734 378.348V379.952L346.389 378.473L340.906 380.859L359.659 382.199V384.445L336.473 382.789L330.457 385.408V382.359L328.21 382.199V379.952L334.748 380.419L341.105 377.784L328.21 376.102V373.534Z" fill="white"/>
<path d="M374.742 372.572C376.217 373.204 385.007 373.447 391.48 373.514L395.28 371.288L396.242 372.572L394.839 373.534C394.989 373.534 395.136 373.534 395.28 373.534V376.102H391.095L387.075 378.858L396.242 379.952V382.199L383.99 380.973L373.779 387.975L372.816 384.445L379.508 380.525L373.779 379.952L374.742 377.385L383.155 378.39L387.061 376.102H374.742V372.572Z" fill="white"/>
<path d="M356.771 368.079L326.285 371.288V373.534L356.771 369.683V368.079Z" fill="white"/>
<path fill-rule="evenodd" clip-rule="evenodd" d="M27.0665 332.066L184.533 379.617L576.449 121.487L27.0665 332.066ZM563.579 145.53L193.291 389.415L238.871 528.457L254.54 428.083L256.592 424.274L563.579 145.53ZM250.166 540.389L325.368 478.864L265.833 440.025L250.166 540.389ZM271.562 428.241L498.984 576.607L618.287 113.415L271.562 428.241ZM336.79 486.316L499.468 592.444L509.314 588.621L636.295 95.6212L627.674 87.9305L4.67358 326.727L5.12099 339.019L180.445 391.962L234.944 558.212L245.237 561.218L336.79 486.316Z" fill="#FAFF00"/>
<path d="M528.381 205.995L533.836 195.084L547.635 190.591L573.629 200.539L598.338 219.794L588.069 236.481H551.165L528.381 205.995Z" fill="black"/>
<path fill-rule="evenodd" clip-rule="evenodd" d="M543.142 228.779L525.493 205.995L533.515 186.74V167.165L559.83 137L583.898 142.455L604.756 175.83L624.973 196.688L658.989 217.547L693.968 276.594L698.461 299.057L686.266 324.73H673.109L668.296 330.185L663.161 327.618L658.669 330.185L653.855 327.618L641.019 336.924L639.093 355.537L643.265 363.559L641.019 369.336V374.47L635.884 380.888L634.28 406.882L635.884 422.927L631.712 436.726L632.996 446.032L629.466 466.249L631.712 468.817L632.996 477.481L637.81 485.825L633.959 517.594L621.443 522.729L608.286 517.594L605.719 513.743L601.547 491.601L602.51 484.541L601.547 476.197L591.92 464.645L589.674 427.42L586.465 417.472L582.935 430.95L584.539 446.032L579.405 452.129L581.33 461.115L584.539 464.645V472.667L588.711 481.011L591.92 522.729L581.33 527.863L567.531 524.333L565.606 520.482V517.594L563.68 515.348L562.076 510.534H559.83V507.004L553.732 499.944V485.825L550.523 476.197L545.389 469.779V461.115L540.896 457.906L543.142 452.129L540.896 430.95L536.083 426.136L540.896 417.472L538.65 410.733L545.389 334.999V315.64L543.142 302.587L533.515 300.662L527.418 302.587L525.493 291.677L527.418 281.408L533.515 276.594L529.664 262.795L543.142 228.779ZM580.368 233.272L590.957 223.645L556.941 196.688H533.515L529.664 205.995L551.165 233.272H580.368ZM644.549 309.326L643.265 312.535L639.093 315.64L643.265 302.587L641.019 289.751L647.116 294.244L655.78 296.169L649.362 302.587V307.401L644.549 309.326Z" fill="#5F5F5F"/>
<path d="M633.638 199.577L618.876 192.196L617.272 212.734L617.914 227.495H624.973L626.257 217.547L636.526 206.637L648.72 210.487L633.638 199.577Z" fill="#444444"/>
<path d="M622.727 267.93L617.914 234.234L624.973 232.309L628.824 255.414L626.257 262.153L632.675 277.557L627.22 279.803L622.727 267.93Z" fill="#444444"/>
<path d="M625.936 282.37L633.638 280.124L636.205 285.579L644.549 291.997L650.967 302.587L644.549 309.005L642.302 314.461L630.108 321.2L619.839 319.274L616.309 314.461L625.936 282.37Z" fill="#444444"/>
<path d="M605.398 384.418H587.428L589.674 413.942H606.682L605.398 384.418Z" fill="#444444"/>
<path d="M621.123 427.099L627.22 420.681L642.302 418.755L644.549 429.024L642.302 448.279L632.996 453.734H621.123V427.099Z" fill="#444444"/>
<path d="M605.398 427.099L590.316 426.136L591.278 437.368L603.473 438.01L616.309 435.763V424.211L605.398 427.099Z" fill="#444444"/>
<path d="M621.123 521.766L605.398 514.706L607.966 521.766L605.398 528.505L609.249 532.677L606.682 536.528L607.966 541.341V547.438V557.707L600.906 582.738L598.338 603.597L605.398 611.299L625.294 609.694L632.996 589.798L629.787 559.954L631.392 551.931L629.787 545.513L631.392 541.341V535.244L633.959 531.393L632.996 526.259L633.959 515.669L629.787 519.199L621.123 521.766Z" fill="#444444"/>
<path d="M578.121 526.259L566.248 521.766V528.505L569.136 542.946L560.471 557.707L534.157 576.32L537.687 588.514H560.471L575.233 579.85H585.823L600.906 570.865L599.943 561.237L598.338 547.438L595.45 541.341V536.528L593.204 528.505V526.259L591.278 519.199L585.823 526.259H578.121Z" fill="#444444"/>
<path d="M573.308 348.798L596.413 353.611H600.264L606.682 359.388H616.309L623.369 361.313H573.308L553.091 353.611V340.454L573.308 348.798Z" fill="#444444"/>
<path d="M546.031 379.926L551.807 342.059L537.366 335.962L533.515 374.149L546.031 379.926Z" fill="#444444"/>
<path d="M557.262 384.418L563.039 359.388H565.606L560.151 384.418L561.434 410.091H558.546L557.262 384.418Z" fill="#444444"/>
<path d="M582.293 384.418L586.144 363.559V362.597H590.316L584.539 384.418L582.293 406.561H580.689L582.293 384.418Z" fill="#444444"/>
<path d="M594.487 343.342L604.435 338.529L614.704 358.425L611.816 360.671H604.435L595.45 351.044L597.375 346.551L594.487 344.947V343.342Z" fill="white"/>
<path d="M531.911 339.492L524.53 334.357L545.389 325.693V331.469L548.919 336.924L545.389 338.208L541.217 335.641L539.292 341.096L531.911 339.492Z" fill="white"/>
<path d="M637.81 329.864L629.145 321.521L620.481 326.655L606.361 332.753L598.98 344.305L609.57 356.82L614.704 359.709L625.936 352.97L631.071 348.477L632.675 344.305L642.623 338.529L637.81 329.864Z" fill="black"/>
<path d="M535.441 299.699L526.455 303.55L524.851 312.535L521 319.916L523.567 334.999L538.008 332.753V329.864L546.672 326.655L541.859 312.535V299.699H535.441Z" fill="black"/>
<path d="M357.527 433.36L273.129 463.525L276.338 471.868L360.736 440.42L470.807 414.426L453.799 409.933L357.527 433.36Z" fill="#444444"/>
<path d="M268.637 549.207L344.691 525.78L375.498 583.864L369.722 598.947L348.863 607.291L338.594 601.835L263.823 589.32L252.591 567.177L268.637 549.207Z" fill="#5F5F5F"/>
<path d="M337.952 541.184L353.676 536.049L373.252 596.701L341.161 568.403L286.607 569.103L337.952 563.968V541.184Z" fill="#444444"/>
<path d="M288.533 478.928L292.384 488.234L306.503 491.444L313.563 507.81L330.571 524.497L355.602 532.519L341.482 542.147V563.647L370.043 595.417L384.804 619.485L402.133 614.992L397.32 603.44V590.603L419.462 588.036L435.187 552.095L415.29 505.242L402.133 457.427L381.274 436.248L361.378 433.36L355.602 414.426L336.348 391L313.563 395.172L292.384 436.248L295.914 447.479L288.533 478.928Z" fill="#5F5F5F"/>
<path d="M364.267 545.677L347.9 542.468L353.356 536.37L369.401 539.9L382.558 551.453L377.745 556.908L364.267 545.677Z" fill="#444444"/>
<path d="M372.931 538.617L363.304 534.766L367.476 530.273L379.349 534.766L389.297 545.677L385.125 549.848L372.931 538.617Z" fill="#444444"/>
<path d="M349.826 513.586L361.699 488.555L375.819 483.421L396.678 491.123L379.67 534.766L341.482 545.998L307.787 556.587L292.384 551.132L300.085 539.9L349.826 513.586Z" fill="white"/>
<path d="M273.45 519.362L247.136 499.787H236.867L230.77 509.093L273.45 548.565H281.473L320.944 511.661L311.638 502.354L308.75 493.369L304.899 488.555L292.384 486.309L273.45 519.362Z" fill="white"/>
<path d="M323.511 413.784L340.84 415.71L343.087 427.904V450.368L331.855 466.734H319.981L307.145 440.099L308.108 420.844L323.511 413.784Z" fill="black"/>
<path d="M324.153 445.875L307.145 443.629L305.541 436.569L306.182 429.509L324.153 432.718L343.408 428.546L344.691 436.248L344.049 442.987L324.153 445.875Z" fill="white"/>
<path d="M267.995 459.995L268.637 464.808V465.45L272.808 473.152L276.98 476.682L278.906 476.04L276.98 467.055L270.241 459.032L267.995 459.995Z" fill="black"/>
<path d="M274.413 473.473L203.172 502.675L199.963 498.824L199 494.653L269.92 464.167L273.129 468.338L274.413 473.473Z" fill="black"/>
<path d="M342.766 621.089L346.296 605.044L355.602 603.761L369.401 597.342L378.143 615.313L379.67 609.858L385.446 615.313L394.753 611.783L397.641 603.761L402.454 605.044L411.44 626.545L394.753 656.389L380.954 660.561L369.401 656.389V650.613L375.498 626.545L362.662 639.381L331.213 643.232L327.362 632.963L342.766 621.089Z" fill="#444444"/>
<path d="M389.297 562.685L395.715 590.603L392.506 562.685H389.297Z" fill="#444444"/>
<path d="M247.136 490.802V501.071L240.397 509.414H231.411L220.822 495.294L240.397 486.63L253.875 476.682L257.405 478.286L247.136 490.802Z" fill="#444444"/>
<path d="M221.784 472.51L234.942 469.622L243.606 475.719L239.434 477.965V484.063L221.784 490.16L216.329 488.555L214.404 484.063L221.784 472.51Z" fill="#444444"/>
<path d="M265.347 575.002L272.198 557.455L273.499 556.202L272.509 552.473L281.152 543.155L295.785 541.229L301.69 538.662L309.071 546.182L310.033 556.202L299.734 561.328L295.785 565.667L291.508 580.697L287.506 580.201L287.154 572.531L285.639 576.099L283.341 585.051L279.633 585.281L277.989 582.777L276.104 584.383L272.536 582.868L273.406 570.903L268.661 576.409L265.347 575.002Z" fill="#444444"/>
<path d="M358.521 526.961L375.749 483.421L384.163 486.217L379.355 498.999L382.56 502.594L375.749 519.771L380.557 503.393L377.352 499.798L381.759 488.214L379.355 487.016L370.14 509.785L372.945 513.38L366.534 529.757V536.947L364.932 529.757L371.342 514.178L368.537 510.583L378.153 486.217L376.55 485.418L359.723 528.159L328.874 540.542L318.056 536.947L328.874 539.344L358.521 526.961Z" fill="#444444"/>
<path d="M304.899 488.555L297.518 487.272L287.57 506.847L282.436 509.414L287.57 507.81L298.802 488.555L302.011 489.197L284.04 517.758L282.436 528.159L285.003 517.758L304.899 488.555Z" fill="#444444"/>
</svg>
