<svg width="130" height="148" viewBox="0 0 130 148" fill="none" xmlns="http://www.w3.org/2000/svg">
<path d="M14.5 137.5L3 147.5H117L120 143.5L113.5 134.5L108 123.5L88 111L75.5 102L52 95L45 103.5L28.5 114L18 121.5L14.5 137.5Z" fill="#D9D9D9"/>
<path d="M114.888 116.523L109.314 94.5955L112.77 92.8421L122.073 114.444L114.291 143.457C111.051 140.673 107.902 137.962 104.862 135.16L114.888 116.523Z" fill="#4B4B4B"/>
<path d="M17.4287 87.4191L21.0484 89.6425L12.2707 110.919L23.0573 131.888C19.3471 135.792 15.5283 139.426 11.42 142.752L1.37554 113.938L17.4287 87.4191Z" fill="#4B4B4B"/>
<path d="M44.1779 34.4723L15.4741 57.0863L17.9174 61.9128L41.4451 51.3018L44.1779 34.4723Z" fill="#4B4B4B"/>
<path d="M90.7629 34.4723L119.467 57.0863L117.024 61.9128L93.4958 51.3018L90.7629 34.4723Z" fill="#4B4B4B"/>
<path d="M77.6417 94.5413V106.038L102.436 120.427L119.467 147H10.5152L13.7185 127.857L33.8801 108.623L50.2228 101.031V77.9469L77.6417 94.5413Z" fill="#D5D5D5"/>
<path d="M6.15344 137.004L11.9811 138.251L12.7593 133.641L9.57408 134.78L15.2207 118.583L24.3422 117.933L35.1107 108.406L33.0837 107.502L48.5034 96.584L74.7641 112.275L88.5006 109.22L93.4053 113.793L94.4188 109.78L110.237 122.398L108.789 125.163L114.2 128.923L113.639 134.672L119.467 139.715L118.996 142.571L122.435 146.982H65.0453L64.991 147V146.982H58.186H52.7565V147H4.10841L6.15344 137.004Z" fill="#D5D5D5"/>
<path d="M9.57408 134.78L27.3285 129.918H38.9837L26.1702 128.381L10.5152 132.051L9.57408 134.78Z" fill="#AAAAAA"/>
<path d="M113.639 134.672L104.608 141.902L114.2 128.923L113.639 134.672Z" fill="#AAAAAA"/>
<path d="M108.789 125.163L106.237 128.923L90.1295 125.163L88.5006 135.322L63.2717 133.696L88.8988 138.45L93.0252 128.381L106.599 131.581L108.789 125.163Z" fill="#AAAAAA"/>
<path d="M71.8502 126.374L33.0837 107.502V110.196L56.6115 121.783L71.8502 126.374Z" fill="#AAAAAA"/>
<path d="M11.9811 138.251L34.3868 142.662L45.9696 141.215H34.3868L12.2164 136.805L11.9811 138.251Z" fill="#AAAAAA"/>
<path d="M118.996 142.571L104.608 145.373L119.467 139.715L118.996 142.571Z" fill="#AAAAAA"/>
<path d="M90.1295 125.163L74.7641 121.783L93.0252 128.381L90.1295 125.163Z" fill="#AAAAAA"/>
<path d="M102.436 120.427L95.2875 142.698L80.7365 137.817L80.0849 106.797L100.626 115.727L102.436 120.427Z" fill="white"/>
<path d="M52.3041 101.031H50.2228L28.4143 111.027L26.1702 115.962L49.517 143.565L65.2625 137.781L52.3041 101.031Z" fill="white"/>
<path d="M94.1111 132.918L90.7629 147H80.8994L84.4828 129.918L94.1111 132.918Z" fill="#4B4B4B"/>
<path d="M57.263 129.918L64.7919 147H53.9329L48.431 133.171L57.263 129.918Z" fill="#4B4B4B"/>
<path d="M95.2875 142.698L80.7365 137.817L80.0849 106.797L78.7819 139.317L93.6768 144.053L95.2875 142.698Z" fill="#4B4B4B"/>
<path d="M65.3348 137.745L49.9694 143.349L26.1702 115.962L49.6436 146.114L64.991 140.764L65.3348 137.745Z" fill="#4B4B4B"/>
<path d="M45.9696 103.254L43.5807 98.7351L34.3868 102.35L37.6626 106.797L45.9696 103.254Z" fill="#4B4B4B"/>
<path d="M96.6087 113.974L97.9118 110.304L90.1295 106.797L89.2427 110.774L96.6087 113.974Z" fill="#4B4B4B"/>
<path d="M4.10841 135.756L1.76453e-06 147H27.3285L18.4241 138.92L4.10841 135.756Z" fill="white"/>
<path d="M124.733 136.877L112.535 139.733L107.902 146.982L130 147L124.733 136.877Z" fill="white"/>
<path d="M38.1151 53.1095L41.3003 32.2851L63.6879 20.1013L89.3694 22.9575L103.124 43.0407L102.599 68.1674L98.6357 87.3649L84.881 96.2767L88.5006 105.966L75.8499 106.038L64.5023 97.0359L61.6609 104.176L50.2228 97.6144L49.8427 83.9664L49.8789 84.0026L43.6169 75.3077L38.1151 53.1095Z" fill="#4B4B4B"/>
<path d="M45.282 66.2512L65.8959 73.8615L63.706 62.5817L68.5925 54.7183L63.4888 37.0573L27.3285 14.0999L41.0108 13.0153L81.0261 35.3942L98.4366 38.0154L88.3559 15.0398L97.8032 19.4686L108.608 43.7819V57.5382L110.834 67.1551L106.346 77.3684L106.925 83.623L101.604 93.3121L95.6495 94.3786L90.7087 100.742L81.4423 100.344L80.0849 98.2109L78.3294 100.199L75.7414 100.091L74.7641 92.7879L63.0364 89.1002L44.3047 68.2939L45.282 66.2512Z" fill="white"/>
<path d="M89.2427 69.8123L82.13 79.9715L69.4069 80.5319L68.3211 69.9751L74.7459 63.847L89.2427 69.8123Z" fill="#4B4B4B"/>
<path d="M58.186 96.5117L61.498 101.664L77.5693 112.473L85.442 111.588L88.5006 105.966L75.669 105.695L64.991 96.8552L62.9821 91.0886L60.2854 88.5941L58.186 96.5117Z" fill="white"/>
<path d="M86.0936 110.593L76.6101 111.027L61.6609 101.736L50.2228 97.6144L75.9223 115.149L86.3288 113.92L86.0936 110.593Z" fill="#4B4B4B"/>
<path d="M55.1093 44.993L54.6931 50.9945L36.1785 56.8513L33.5 50.0906L38.4227 35.5027L55.1093 44.993Z" fill="#D5D5D5"/>
<path d="M94.0749 76.1392L93.4415 87.3649H83.7046L91.7041 76.1392H94.0749Z" fill="#4B4B4B"/>
<path d="M95.016 69.9751V80.1161L103.83 82.2853L107.323 72.3973L105.513 67.2816L95.016 69.9751Z" fill="#4B4B4B"/>
<path d="M59.1452 43.0407L62.1315 49.5483L58.005 55.134L51.182 54.2483L49.8427 46.7645L53.1366 42.6069L59.1452 43.0407Z" fill="#626262"/>
<path d="M81.3156 73.8977L79.4153 68.8724L74.565 67.5889L70.7825 70.9693L71.3073 75.7054L76.3748 77.8023L81.3156 73.8977Z" fill="#FF4800"/>
<path d="M85.1344 36.0089L81.0261 35.3942L69.1355 3.83226L60.6293 7.70068V21.7644L58.6023 22.8671L58.3489 5.65801L71.4702 0L85.1344 36.0089Z" fill="#626262"/>
<path d="M98.328 37.9973L82.7273 2.20535L65.8959 7.70068V20.3363L68.3211 20.6075L68.2487 9.58068L80.8813 5.6038L94.7808 37.455L98.328 37.9973Z" fill="#626262"/>
<path d="M39.6353 59.2375L34.3868 65.6005V80.5319L41.2279 101.736L42.6215 100.742L35.8347 80.5319L35.7079 66.3778L40.124 61.2078L39.6353 59.2375Z" fill="#4B4B4B"/>
<path d="M38.839 56.0198L36.1785 56.8513L27.3285 67.2816V88.6483L38.2236 103.851L39.5991 102.875L29.0116 88.2506L28.5591 68.0047L38.839 56.0198Z" fill="#4B4B4B"/>
<path d="M27.3285 14.0999L86.5641 51.5549L102.436 53.3625L108.608 43.7819V46.1861L103.124 56.8875L85.6049 55.134L27.3285 14.0999Z" fill="#D5D5D5"/>
<path d="M95.6495 94.3786L97.7308 91.4321H102.635L101.604 93.3121L95.6495 94.3786Z" fill="#D5D5D5"/>
<path d="M74.7641 92.7879L75.7414 100.091L72.6104 92.101L63.0364 89.1002L44.3047 68.2939L44.7209 67.5889L64.4842 86.5695L74.2573 89.3352L74.7641 92.7879Z" fill="#D5D5D5"/>
<path d="M55.978 54.881L44.0151 64.4978L43.2188 80.1703L49.2636 84.2376L55.978 81.2549L57.4983 82.9361L49.1188 86.9491L41.0108 81.5984L42.0243 63.2143L53.3357 54.5194L55.978 54.881Z" fill="#D5D5D5"/>
<path d="M92.0298 108.442L96.6449 98.7351L95.6495 94.3786L97.2783 94.0894L98.328 98.7351L92.7176 110.377L92.0298 108.442Z" fill="#4B4B4B"/>
<path d="M94.4188 109.78L100.988 100.724L100.047 93.5833L101.604 93.3121L102.436 101.537L95.6495 110.738L94.4188 109.78Z" fill="#4B4B4B"/>
<path d="M105.748 85.7741L107.323 86.9491L111.666 82.2853L108.789 71.8008L109.875 69.3243L114.2 82.2853L107.323 90.0764L104.518 87.9975L105.748 85.7741Z" fill="#D5D5D5"/>
<path d="M42.6215 92.7879V90.5102L50.2228 86.4068L52.7746 99.3497L42.6215 92.7879Z" fill="white"/>
<path d="M102.292 66.2512L103.124 69.3243L100.174 70.3185L99.2691 67.5889L102.292 66.2512Z" fill="#D5D5D5"/>
<path d="M84.8991 66.4501L83.5779 68.782L79.5782 66.9924L81.1347 64.2628L84.8991 66.4501Z" fill="#D5D5D5"/>
<path d="M40.0516 39.7327L36.6491 50.2172L32.6856 44.3784L34.5497 38.7204L40.0516 39.7327Z" fill="white"/>
<path d="M103.124 56.8875L106.327 58.0625L102.436 53.3625L103.124 56.8875Z" fill="#D5D5D5"/>
<path d="M85.6049 55.134L77.0987 55.4775L86.5641 51.5549L85.6049 55.134Z" fill="#D5D5D5"/>
</svg>
