<svg width="1015" height="200" viewBox="0 0 1015 200" fill="none" xmlns="http://www.w3.org/2000/svg">
<g clip-path="url(#clip0_84_443)">
<path d="M961.166 -222L1015 -168.058V180.017L1007.5 187.551H872.5L848.272 163.259H605.759L568.651 200.442H37.1086L-6.10352e-05 163.259V-149.205L37.1086 -186.388H269.691L305.232 -222H961.166Z" fill="#FAFF00"/>
<path d="M729.617 188.442L746.298 170.442H725.447L708.766 188.442H729.617Z" fill="white"/>
<path d="M700.426 188.442L717.106 170.442H696.255L679.574 188.442H700.426Z" fill="white"/>
<path d="M671.234 188.442L687.915 170.442H667.064L650.383 188.442H671.234Z" fill="white"/>
<path d="M642.043 188.442L658.723 170.442H637.872L621.192 188.442H642.043Z" fill="white"/>
<path d="M612.851 188.442L629.532 170.442H608.681L592 188.442L612.851 188.442Z" fill="white"/>
<path d="M861.5 188.442L737.957 188.442L754.638 170.442L844.124 170.442L861.5 188.442Z" fill="white"/>
</g>
<defs>
<clipPath id="clip0_84_443">
<rect width="1015" height="200" fill="white"/>
</clipPath>
</defs>
</svg>
