<svg width="840" height="367" viewBox="0 0 840 367" fill="none" xmlns="http://www.w3.org/2000/svg">
<path d="M545.652 31.4709L544.786 32.2805H543.602H412.684H411.499L410.634 31.4715L396.346 18.1067H214.893L200.604 31.471L200.604 31.4715L166 63.8525V334.531L193.155 359.941H805.785L836.891 330.834V30.6272L805.829 3L576.072 3.00003L545.652 31.4709Z" fill="black" stroke="#FAFF00" stroke-width="6"/>
<path d="M797.651 161.614C803.036 158.804 815.019 155.633 819.87 165.429C825.933 177.675 795.683 183.394 808.252 215.226C818.307 240.692 828.846 267.737 808.255 288.353M793.125 147.989C800.855 148.232 815.526 151.751 812.369 163.874C808.423 179.028 848.006 223.927 801.17 238.101C784.092 243.269 779.015 254.198 773.616 277.401" stroke="#FAFF00" stroke-width="4"/>
<path d="M786.361 318.977L757.296 285.425L737.598 278.916L652.893 295.2L603.483 357.29L699.227 357.29L763.975 357.29L803.237 357.29L786.361 318.977Z" fill="white"/>
<path d="M746.08 308.902L762.888 277.853L758.801 268.172L740.045 270.703L726.146 298.162L732.155 306.944L746.08 308.902Z" fill="white"/>
<path d="M789.079 302.792L792.668 285.348L781.478 283.334L757.625 305.272L772.007 310.573L789.079 302.792Z" fill="#787878"/>
<path d="M795.885 144.573L789.844 143.596L790.273 153.491L796.038 153.638L795.885 144.573Z" fill="#E9E9E9"/>
<path d="M797.142 156.961L791.653 157.645L792.081 167.541L799.901 165.268L797.142 156.961Z" fill="#E9E9E9"/>
<path d="M664.894 173.878L673.854 126.499L719.299 99.4609L769.126 104.232L792.649 138.321L796.114 165.413L803.408 163.294L816.87 177.484L803.036 206.319L794.849 208.187L795.736 212.835L770.474 259.853L753.041 266.112L721.054 254.578L700.394 224.482L688.4 217.09L664.894 173.878Z" fill="white"/>
<path d="M738.489 194.636L730.513 211.651M726.634 197.369L744.716 208.513M709.837 207.394L701.971 223.7M697.763 211.545L716.175 220.562" stroke="#D9D9D9" stroke-width="6"/>
<path d="M281.872 232.053H283.916V239.672H281.872V232.053Z" fill="#D8D8D8"/>
<path d="M281.872 241.01H283.916V248.443H281.872V241.01Z" fill="#D8D8D8"/>
<path d="M213.711 273.306C218.022 267.323 224.674 267.137 231.736 266.914C235.415 266.803 239.206 266.691 243.071 265.799C248.943 264.461 251.21 260.113 253.663 255.504C255.484 252.011 257.379 248.406 260.799 246.325C268.232 241.753 281.314 241.568 281.871 241.568V246.585C281.76 246.585 269.384 246.771 262.917 250.747C260.539 252.197 259.126 254.947 257.454 258.106C254.927 262.937 251.768 268.995 243.963 270.742C239.726 271.708 235.564 271.82 231.884 271.931C225.604 272.117 220.178 272.303 217.167 276.503C212.707 282.672 217.799 294.453 231.476 308.91L228.094 312.181C212.001 295.271 207.43 282.04 213.711 273.306Z" fill="#787878"/>
<path d="M233.927 287.317C234.224 282.709 236.64 278.546 241.062 274.941C252.435 265.762 251.654 259.815 249.722 245.432C248.57 236.847 252.546 232.871 255.036 231.273C259.979 228.039 267.226 228.708 270.385 231.496C273.135 233.874 279.639 233.763 281.832 233.54V238.817C281.46 238.854 272.318 239.486 267.709 235.472C266.223 234.172 260.945 233.205 257.229 235.621C254.59 237.331 253.512 240.378 254.107 244.689C256.114 259.778 257.229 268.066 243.627 279.067C240.319 281.742 238.535 284.641 238.312 287.689C238.015 292.297 241.322 296.125 243.218 297.723L239.836 300.957C237.532 298.838 233.481 294.193 233.927 287.317Z" fill="#787878"/>
<path d="M352.112 250.599V274.236L403.028 303.819L438 358.451H214.268L220.846 319.093L262.248 279.55L295.808 263.941V216.481L352.112 250.599Z" fill="white"/>
<path d="M347.986 274.235L306.473 240.899V244.392L337.84 274.235H347.986Z" fill="#787878"/>
<path d="M300.08 230.641L291.718 220.57L283.913 230.641V251.565L291.978 263.941L300.08 253.906V230.641Z" fill="#626262"/>
<path d="M298.633 220.57H291.72L300.082 230.641V253.906L291.98 263.941H300.082L306.475 254.687V230.418L298.633 220.57Z" fill="#484D49"/>
<path d="M290.27 232.834H294.023V251.268H290.27V232.834Z" fill="white"/>
<path d="M266.634 268.512L229.469 293.784L266.634 339.869L310.154 350.721L318.293 344.328L314.205 299.47L266.634 268.512Z" fill="#626262"/>
<path d="M373.593 274.235L350.625 300.92V341.058L356.348 350.721L393.996 339.868L404.439 293.041L373.593 274.235Z" fill="#626262"/>
<path d="M356.349 350.721L350.626 341.058V300.92L373.594 274.235H353.116L362.11 280.033L346.909 297.984L345.423 341.355L352.113 350.721H356.349Z" fill="#484D49"/>
<path d="M310.152 350.72L266.632 339.868L229.468 293.784L230.731 309.616L233.89 306.606L263.176 344.328L307.774 352.987L310.152 350.72Z" fill="#484D49"/>
<path d="M306.549 306.494L275.293 331.432L281.871 333.402L306.549 314.671V306.494Z" fill="#787878"/>
<path d="M307.961 322.996L290.01 335.743L295.362 337.713L308.035 328.719L307.961 322.996Z" fill="#787878"/>
<path d="M388.867 332.621L362.852 304.413L362.517 314.336L381.434 334.554L388.867 332.621Z" fill="#787878"/>
<path d="M373.594 336.041L361.552 322.029L360.4 329.797L367.796 337.936L373.594 336.041Z" fill="#787878"/>
<path d="M346.908 297.984L314.203 299.47L318.291 344.328L345.422 341.355L346.908 297.984Z" fill="#787878"/>
<path d="M393.997 339.869L356.349 350.721H352.112V358.823L398.828 358.451L393.997 339.869Z" fill="#787878"/>
<path d="M307.773 352.988V358.823H257.898L263.176 344.328L307.773 352.988Z" fill="#787878"/>
<path d="M293.896 223.055L284.605 223.093L270.817 197.672L277.06 187.489L270.817 167.903L277.358 125.089L323.33 100.04L376.067 105.912L404.312 147.202L403.235 198.861L395.579 212.278L391.602 241.638L367.408 275.904L348.305 276.721L299.954 238.33L293.896 223.055Z" fill="white"/>
<path d="M336.672 240.932L337.007 214.507L308.502 196.966L311.326 152.479L276.354 131.593L275.09 139.881L270.816 132.187L277.358 125.089L315.563 149.097L313.333 192.766L342.024 211.906V243.384L336.672 240.932Z" fill="#D8D8D8"/>
<path d="M330.169 195.182L342.061 200.719L352.914 193.547L351.836 180.836L339.906 175.299L329.091 182.471L330.169 195.182Z" fill="#787878"/>
<path d="M350.312 191.837L349.569 183.884L341.132 180.316L333.551 184.887L334.294 192.84L342.73 196.408L350.312 191.837Z" fill="#434343"/>
<path d="M362.168 177.268L372.797 183.363L382.943 176.711L382.422 163.963L371.793 157.868L361.647 164.521L362.168 177.268Z" fill="#787878"/>
<path d="M380.787 175.707L380.453 167.42L373.057 163.592L366.144 167.717L366.479 176.042L373.875 179.87L380.787 175.707Z" fill="#434343"/>
<path d="M385.21 189.681L387.44 200.459L396.099 202.578L402.529 193.918L400.262 183.14L391.602 181.022L385.21 189.681Z" fill="#787878"/>
<path d="M400.113 193.993L398.589 187.303L393.981 186.262L389.67 191.54L391.231 198.229L395.839 199.233L400.113 193.993Z" fill="#434343"/>
<path d="M379.115 246.915L368.709 266.427H362.39L369.08 247.101L379.115 246.915Z" fill="#D8D8D8"/>
<path d="M362.725 246.692L357.559 267.504H349.717L352.356 247.287L362.725 246.692Z" fill="#D8D8D8"/>
<path d="M270.817 167.903L246.288 119.366H250.524L273.529 150.027L270.817 167.903Z" fill="white"/>
<path d="M404.312 119.366L396.545 135.867L392.122 129.4L402.529 116.764L404.312 119.366Z" fill="#D8D8D8"/>
<path d="M350.312 191.837L349.569 183.884L341.133 180.316L333.551 184.887L334.294 192.84L342.731 196.408L350.312 191.837Z" fill="#FF0000"/>
<path d="M380.788 175.707L380.453 167.42L373.057 163.592L366.145 167.717L366.479 176.042L373.875 179.87L380.788 175.707Z" fill="#FF0000"/>
<path d="M400.113 193.993L398.59 187.303L393.981 186.262L389.67 191.54L391.231 198.23L395.839 199.233L400.113 193.993Z" fill="#FF0000"/>
<path d="M15.226 289.971L15.9745 289.121L15.9745 287.988L15.9745 264.134L22.2552 257L127.187 257L132 262.467L132 353.533L126.306 360L14.3759 360L9.00006 353.576L9.00006 297.041L15.226 289.971Z" fill="black" stroke="white" stroke-width="6"/>
<path d="M128.499 76.8455L127.695 77.7094L127.695 78.8896L127.695 102.467L121.087 109.566L12.0699 109.566L7 104.119L7.00001 14.0043L12.9922 7.56603L129.343 7.56604L135 13.9607L135 69.8616L128.499 76.8455Z" fill="black" stroke="white" stroke-width="6"/>
<path d="M41.4175 229.033L40.55 228.213L39.3559 228.213L16.0279 228.213L9.00001 221.566L9.00001 136.666L14.392 131.566L125.626 131.566L132 137.594L132 229.876L125.67 235.566L48.3231 235.566L41.4175 229.033Z" fill="black" stroke="white" stroke-width="6"/>
<path d="M52 286.051V283.223L57.508 277.566L60.262 277.566L70.5001 288.081L80.7381 277.566H83.492L89 283.223V286.051L78.762 296.566L89 307.081V309.909L83.492 315.566H80.7381L70.5001 305.051L60.2621 315.566H57.5081L52.0001 315.566V307.081L62.2381 296.566L52 286.051Z" fill="#BEBEBE"/>
<path fill-rule="evenodd" clip-rule="evenodd" d="M60.4853 151.566L57.6569 151.566L52 157.223V160.051L62.5148 170.566L52.0001 181.081V189.566L60.4854 189.566L71.0001 179.051L81.5148 189.566H84.3432L90 183.909V181.081L79.4853 170.566L90 160.051V157.223L84.3432 151.566H81.5148L71.0001 162.081L60.4853 151.566ZM82.929 155.526L71.0001 167.455L59.0711 155.526L55.9598 158.637L67.8889 170.566L55.8001 182.655V185.766L58.9114 185.766L71 173.677L82.929 185.606L86.0402 182.495L74.1113 170.566L86.0402 158.637L82.929 155.526Z" fill="#FAFF00"/>
<path d="M52 36.0513V33.2229L57.6569 27.5661L60.4853 27.5661L71.0001 38.0808L81.5148 27.566H84.3432L90 33.2229V36.0513L79.4853 46.566L90 57.0807V59.9091L84.3432 65.566H81.5148L71.0001 55.0513L60.4854 65.566H57.657L52.0001 65.566V57.0808L62.5148 46.5661L52 36.0513Z" fill="#FAFF00"/>
<path d="M39.5628 338.566V324.166H50.4428C50.9761 324.166 51.4628 324.299 51.9028 324.566C52.3561 324.833 52.7161 325.193 52.9828 325.646C53.2628 326.086 53.4028 326.579 53.4028 327.126V329.826C53.4028 329.999 53.3895 330.166 53.3628 330.326C53.3495 330.473 53.3161 330.613 53.2628 330.746C53.4628 330.999 53.6295 331.293 53.7628 331.626C53.8961 331.959 53.9628 332.293 53.9628 332.626V335.606C53.9628 336.139 53.8228 336.633 53.5428 337.086C53.2761 337.539 52.9161 337.899 52.4628 338.166C52.0228 338.433 51.5295 338.566 50.9828 338.566H39.5628ZM42.6628 335.446H50.8228V332.806H42.6628V335.446ZM42.6628 329.686H50.2628V327.286H42.6628V329.686ZM56.1834 338.566V327.126C56.1834 326.579 56.3168 326.086 56.5834 325.646C56.8501 325.193 57.2101 324.833 57.6634 324.566C58.1168 324.299 58.6101 324.166 59.1434 324.166H67.6034C68.1501 324.166 68.6434 324.299 69.0834 324.566C69.5368 324.833 69.8968 325.193 70.1634 325.646C70.4434 326.086 70.5834 326.579 70.5834 327.126V338.566H67.4434V333.926H59.2834V338.566H56.1834ZM59.2834 330.806H67.4434V327.286H59.2834V330.806ZM75.7822 338.566C75.2489 338.566 74.7555 338.433 74.3022 338.166C73.8489 337.899 73.4889 337.539 73.2222 337.086C72.9555 336.633 72.8222 336.139 72.8222 335.606V334.266H75.9222V335.446H84.0822V332.926H75.7822C75.2489 332.926 74.7555 332.793 74.3022 332.526C73.8489 332.259 73.4889 331.906 73.2222 331.466C72.9555 331.013 72.8222 330.513 72.8222 329.966V327.126C72.8222 326.579 72.9555 326.086 73.2222 325.646C73.4889 325.193 73.8489 324.833 74.3022 324.566C74.7555 324.299 75.2489 324.166 75.7822 324.166H84.2622C84.7955 324.166 85.2822 324.299 85.7222 324.566C86.1755 324.833 86.5355 325.193 86.8022 325.646C87.0822 326.086 87.2222 326.579 87.2222 327.126V328.466H84.0822V327.286H75.9222V329.806H84.2622C84.7955 329.806 85.2822 329.939 85.7222 330.206C86.1755 330.473 86.5355 330.833 86.8022 331.286C87.0822 331.726 87.2222 332.219 87.2222 332.766V335.606C87.2222 336.139 87.0822 336.633 86.8022 337.086C86.5355 337.539 86.1755 337.899 85.7222 338.166C85.2822 338.433 84.7955 338.566 84.2622 338.566H75.7822ZM89.4647 338.566V324.166H102.765V327.286H92.6047V329.806H100.785V332.926H92.6047V335.446H102.765V338.566H89.4647Z" fill="white"/>
<path d="M48.7805 211.566L44.6005 206.586H48.6605L51.9805 210.506V211.566H48.7805ZM37.6005 211.566V197.186H49.0205C49.5671 197.186 50.0605 197.319 50.5005 197.586C50.9538 197.853 51.3138 198.213 51.5805 198.666C51.8605 199.119 52.0005 199.613 52.0005 200.146V203.866C52.0005 204.399 51.8605 204.893 51.5805 205.346C51.3138 205.799 50.9538 206.159 50.5005 206.426C50.0605 206.693 49.5671 206.826 49.0205 206.826L40.7005 206.846V211.566H37.6005ZM40.7005 203.706H48.8605V200.286H40.7005V203.706ZM54.1444 211.566V200.126C54.1444 199.579 54.2777 199.086 54.5444 198.646C54.811 198.193 55.171 197.833 55.6244 197.566C56.0777 197.299 56.571 197.166 57.1044 197.166H65.5644C66.111 197.166 66.6044 197.299 67.0444 197.566C67.4977 197.833 67.8577 198.193 68.1244 198.646C68.4044 199.086 68.5444 199.579 68.5444 200.126V211.566H65.4044V206.926H57.2444V211.566H54.1444ZM57.2444 203.806H65.4044V200.286H57.2444V203.806ZM82.0031 211.566L77.8231 206.586H81.8831L85.2031 210.506V211.566H82.0031ZM70.8231 211.566V197.186H82.2431C82.7898 197.186 83.2831 197.319 83.7231 197.586C84.1765 197.853 84.5365 198.213 84.8031 198.666C85.0831 199.119 85.2231 199.613 85.2231 200.146V203.866C85.2231 204.399 85.0831 204.893 84.8031 205.346C84.5365 205.799 84.1765 206.159 83.7231 206.426C83.2831 206.693 82.7898 206.826 82.2431 206.826L73.9231 206.846V211.566H70.8231ZM73.9231 203.706H82.0831V200.286H73.9231V203.706ZM87.367 211.566V197.166H100.667V200.286H90.507V202.806H98.687V205.926H90.507V208.446H100.667V211.566H87.367Z" fill="white"/>
<path d="M45.2323 88.566V74.166H58.5323V77.286H48.3723V79.806H56.5523V82.926H48.3723V85.446H58.5323V88.566H45.2323ZM60.5048 88.566V74.186H71.9248C72.4714 74.186 72.9648 74.3194 73.4048 74.586C73.8581 74.8527 74.2181 75.2127 74.4848 75.666C74.7648 76.1194 74.9048 76.6127 74.9048 77.146V80.866C74.9048 81.3994 74.7648 81.8927 74.4848 82.346C74.2181 82.7994 73.8581 83.1594 73.4048 83.426C72.9648 83.6927 72.4714 83.826 71.9248 83.826L63.6048 83.846V88.566H60.5048ZM63.6048 80.706H71.7648V77.286H63.6048V80.706ZM75.8251 88.566V74.166H78.8851V88.566H75.8251ZM83.5624 88.566C83.0158 88.566 82.5158 88.4327 82.0624 88.166C81.6224 87.8994 81.2691 87.546 81.0024 87.106C80.7358 86.6527 80.6024 86.1527 80.6024 85.606V77.126C80.6024 76.5794 80.7358 76.086 81.0024 75.646C81.2691 75.1927 81.6224 74.8327 82.0624 74.566C82.5158 74.2994 83.0158 74.166 83.5624 74.166H94.9624V77.286H84.3624C84.1491 77.286 83.9824 77.3394 83.8624 77.446C83.7558 77.5527 83.7024 77.7194 83.7024 77.946V84.786C83.7024 84.9994 83.7558 85.166 83.8624 85.286C83.9824 85.3927 84.1491 85.446 84.3624 85.446H94.9624V88.566H83.5624Z" fill="white"/>
<path d="M651.067 172.166L657.585 201.686L648 221.486L675.221 214.286L687.874 229.046V208.526L719.696 221.486L690.557 195.566L703.593 168.566L671.771 188.006L651.067 172.166Z" fill="#FF0000"/>
<path d="M703.593 238.046V255.686L687.874 250.286L697.842 266.846L687.874 277.646H708.96V288.806L722.763 277.646L745 281.606L728.13 263.966L740.783 245.246L714.711 255.686L703.593 238.046Z" fill="#FF0000"/>
<path d="M675.221 288.806V305.366L660.652 320.486H680.206L687.874 330.566L694.775 315.446L708.96 305.726H685.19L675.221 288.806Z" fill="#FF0000"/>
<path d="M71 218.566L53.6795 248.566L88.3205 248.566L71 218.566ZM74 266.566L74 245.566L68 245.566L68 266.566L74 266.566Z" fill="#FAFF00"/>
<path d="M71 93.566L53.6795 123.566L88.3205 123.566L71 93.566ZM74 141.566L74 120.566L68 120.566L68 141.566L74 141.566Z" fill="#FAFF00"/>
<path d="M679.5 204.066L373 172M711 264.066L394.5 193.5M679.5 314.566L342 189" stroke="#FF0000" stroke-width="6"/>
</svg>
