<svg width="479" height="60" viewBox="0 0 479 60" fill="none" xmlns="http://www.w3.org/2000/svg">
<path d="M216.586 59.7573H207.136L200.835 53.4673V18.8708L197.685 15.7257H185.084L181.935 18.8708V34.5965H197.685V47.1769H181.935V53.4673L175.634 59.7573H166.184V9.43537L175.634 0H207.136L216.586 9.43537V59.7573Z" fill="#FAFF00"/>
<path d="M112.631 59.7573V6.29035L118.931 0H150.433L163.034 12.5804L152.008 23.5883L144.132 15.7257H128.382V44.0319H147.283V40.8865H140.982V31.4512L144.132 28.3061H163.034V53.4673L156.733 59.7573H112.631Z" fill="#FAFF00"/>
<path d="M103.181 15.7257H76.9726V22.0158H96.8804L100.031 25.1611V34.5965L96.8804 37.7415H76.9726V44.0319H109.481V59.7573H67.5222L61.2217 53.4673V6.29035L67.5222 0H106.331L109.481 3.14502V9.43537L103.181 15.7257Z" fill="#FAFF00"/>
<path d="M348.894 15.7257H320.542V22.0158H342.593L345.743 25.1611V34.5965L342.593 37.7415H320.542V44.0319H352.044L355.194 47.1769V59.7573H304.791V6.29035L311.092 0H352.044L355.194 3.14502V9.43537L348.894 15.7257Z" fill="#FAFF00"/>
<path d="M285.89 53.4673V15.7257H282.74L263.839 34.5965H257.538L238.638 15.7257H235.487V53.4673L229.187 59.7573H219.736V6.29035L226.037 0H244.938L257.538 12.5804H263.839L276.44 0H295.341L301.641 6.29035V59.7573H292.19L285.89 53.4673Z" fill="#FAFF00"/>
<path fill-rule="evenodd" clip-rule="evenodd" d="M58.0715 15.7257L42.3208 0H6.30035L0 6.29035V59.7573H42.3208L58.0715 44.0319V15.7257ZM36.0203 15.7257L42.3208 22.0158V37.7415L36.0203 44.0319H15.7509V18.8708L18.901 15.7257H36.0203Z" fill="#FAFF00"/>
<path d="M359.236 59.7576H368.681L374.978 53.4673V18.8708L378.128 15.7257H396.184L399.334 18.8708V34.5965H378.128V47.1769H399.334V53.4673L405.628 59.7576H415.075V47.1769L409.103 40.8869L415.075 34.5965V9.43537L405.628 0H368.681L359.236 9.43537V59.7576Z" fill="#FAFF00"/>
<path d="M478.722 9.44743V0H428.412L418.978 9.44743V34.5965L421.711 37.6178H464.861V44.1344H421.711L418.978 47.1769V59.8803H469.287L478.722 50.4329V31.3193L469.287 21.8719H432.841V15.7459H472.434L478.722 9.44743Z" fill="#FAFF00"/>
</svg>
