<svg width="1016" height="369" viewBox="0 0 1016 369" fill="none" xmlns="http://www.w3.org/2000/svg">
<path d="M23.8516 150.477L10.4023 163.748L10.4023 147.159L23.8516 133.888L23.8516 150.477Z" fill="#FAFF00"/>
<path d="M23.8516 127.253L10.4023 140.524L10.4024 100.711L23.8516 87.4401L23.8516 127.253Z" fill="#FAFF00"/>
<path d="M23.8516 80.8046L10.4024 94.0755L10.4024 77.4869L23.8516 64.216L23.8516 80.8046Z" fill="#FAFF00"/>
<path d="M32.7229 156.443L33.6022 155.564L33.6022 154.321L33.6022 53.8886L66.6169 20.8888L320.11 20.8888L346.686 47.4522L346.686 335.02L316.247 365.445L31.8893 365.445L2.99998 335.064L3.00002 186.147L32.7229 156.443Z" fill="black" stroke="white" stroke-width="6"/>
<path d="M99.1954 299.563L93.5979 294.334L94.2079 291.917L89.8302 283.334L78.2763 284.2L76.8411 275.616L62.3449 254.411L63.3137 247.054L55.3839 240.923L44.727 241.932L42.4306 245.935L71.9971 293.757L70.2388 301.366L80.3216 317.018L99.1954 299.563Z" fill="#4B4B4B"/>
<path d="M247.71 322.067L250.616 314.962L253.092 314.71L259.515 307.569L254.671 297.002L262.17 292.639L276.846 271.577L284.058 269.882L287 260.289L282.3 250.624L277.778 249.83L243.583 294.442L235.869 295.452L224.817 310.418L247.71 322.067Z" fill="#4B4B4B"/>
<path d="M276.989 362.856L252.984 321.454L179.499 277.167L187.285 258.81L139.132 204.209L133.857 266.42L59.7255 325.457V362.531L276.989 362.856Z" fill="#D5D5D5"/>
<path d="M181.436 272.551L136.476 236.667L172.86 286.436L181.472 280.665L181.436 272.551Z" fill="#7F7F7F"/>
<path d="M198.767 286.796L183.158 304.648L183.697 311.681L168.088 312.222L166.473 306.271L116.419 280.846L148.174 274.354L200.92 279.223L198.767 286.796Z" fill="#4B4B4B"/>
<path d="M250.078 362.892L225.355 332.598L208.491 294.73L198.193 288.275L213.156 331.155L142.11 334.401L116.096 280.485L105.152 289.321L125.963 338.729L89.3997 362.928L250.078 362.892Z" fill="#606060"/>
<path d="M171.533 321.418L183.374 322.5L194.856 331.155L192.344 343.778L170.098 345.942L161.486 333.319L171.533 321.418ZM174.045 340.532L186.962 338.729L188.756 333.319L182.297 325.746L174.403 325.385L168.303 334.04L174.045 340.532Z" fill="white"/>
<path d="M102.927 353.046L102.568 344.535L108.453 335.339L119.038 335.555L123.164 351.063L113.763 358.708L102.927 353.046ZM118.284 348.935L115.45 339.991L110.821 339.378L105.295 344.896L105.834 350.522L113.548 353.768L118.284 348.935Z" fill="white"/>
<path d="M240.749 341.975L238.201 347.709L230.773 351.712L222.951 347.853L225.032 336.204L234.577 334.473L240.749 341.975ZM227.903 339.342L227.042 346.23L230.271 348.25L236.227 346.555L237.699 342.66L233.034 337.827L227.903 339.342Z" fill="white"/>
<path d="M171.066 332.093L105.152 289.321L108.273 286.724L173.219 328.631L171.066 332.093Z" fill="#4B4B4B"/>
<path d="M183.374 328.991L205.62 292.927L208.491 294.73L186.244 332.598L183.374 328.991Z" fill="#4B4B4B"/>
<path d="M183.733 337.647L189.832 362.531L183.374 362.892L178.709 337.647H183.733Z" fill="#4B4B4B"/>
<path d="M90.835 293.36L110.534 323.582L101.922 332.237L69.9877 310.959L90.835 293.36Z" fill="#606060"/>
<path d="M61.0173 317.09L94.3873 341.975L89.3638 352.073L42 345.581L61.0173 317.09Z" fill="#606060"/>
<path d="M104.434 321.274L104.326 324.159L101.312 325.601L98.9442 323.077L101.312 320.697L104.434 321.274Z" fill="white"/>
<path d="M87.6056 341.83L88.8973 344.283L86.9597 346.879L83.8739 345.833L84.1968 342.371L87.6056 341.83Z" fill="white"/>
<path d="M109.565 341.975L72.0329 315.503L69.0189 318.172L107.197 345.076L109.565 341.975Z" fill="#4B4B4B"/>
<path d="M111.359 352.433L105.869 363H101.671L108.489 350.738L111.359 352.433Z" fill="#4B4B4B"/>
<path d="M173.219 338.729L116.993 347.492L115.809 343.634L171.066 335.591L173.219 338.729Z" fill="#4B4B4B"/>
<path d="M248.571 348.358L280.254 346.302L255.747 316.946L243.87 341.722L248.571 348.358Z" fill="#606060"/>
<path d="M245.054 308.291L236.443 326.647L227.472 320.769L225.391 296.822L245.054 308.291Z" fill="#606060"/>
<path d="M228.513 342.263L187.428 333.932L186.424 337.07L228.118 345.22L228.513 342.263Z" fill="#4B4B4B"/>
<path d="M232.424 347.24L236.73 362.892H240.318L234.577 346.05L232.424 347.24Z" fill="#4B4B4B"/>
<path d="M235.653 342.083L249.54 319.29L247.315 317.992L233.967 340.388L235.653 342.083Z" fill="#4B4B4B"/>
<path d="M231.025 317.631L231.419 319.903L234.182 320.697L236.012 318.425L233.68 316.802L231.025 317.631Z" fill="white"/>
<path d="M248.786 340.243L247.961 342.335L249.827 344.175L252.302 343.02L251.657 340.28L248.786 340.243Z" fill="white"/>
<path d="M132.673 232.447L177.417 280.593L194.892 280.99L224.817 236.09V218.599L232.28 198.403L233.752 163.276L208.024 127.609L170.959 115.527L127.04 132.153L113.333 169.083L115.486 193.859L106.156 195.914L102.209 207.491L123.057 233.529L132.673 232.447Z" fill="#D5D5D5"/>
<path d="M185.85 210.701L169.775 203.38L156.678 214.884L184.845 218.022L185.85 210.701Z" fill="white"/>
<path d="M190.55 212.72L169.38 202.767L156.678 206.734H164.321L156.678 214.884L169.38 207.455L190.55 212.72Z" fill="black"/>
<path d="M208.024 218.563L225.965 218.058L221.875 209.294L208.922 213.297L208.024 218.563Z" fill="white"/>
<path d="M205.62 213.947L221.193 210.484L225.965 218.058L223.777 210.34L228.692 210.701L222.736 206.734L205.62 213.947Z" fill="black"/>
<path d="M207.235 206.517L209.675 201.973L232.28 197.393L207.235 206.517Z" fill="black"/>
<path d="M194.031 206.084L157.395 195.049L191.304 201.18L194.031 206.084Z" fill="black"/>
<path d="M207.056 252.175L198.803 248.099L194.031 249.362L189.832 248.099H171.353L183.446 262.453L194.964 263.03L207.056 252.175Z" fill="#626262"/>
<path d="M201.602 252.932L179.499 252.102L184.809 256.322H199.341L201.602 252.932Z" fill="white"/>
<path d="M96.2889 142.936L119.253 130.241L121.119 112.967L138.916 98L160.697 102.58L164.069 116.573L195.932 118.665L213.658 108.855L229.195 116.717L232.532 134.749L225.14 152.709L230.702 162.699L183.123 164.539L141.32 194.724L124.42 185.059L106.085 225.379L94.9254 237.424L102.784 252.571L125.891 265.23L163.962 271.397L200.848 272.948L224.745 236.415V219.104L232.424 198.655L233.572 167.892L250.437 198.114L260.412 255.565L240.067 288.599L223.131 282.505L146.918 280.846L125.245 285.714L80.7522 259.027L79.1734 211.206L96.2889 142.936Z" fill="#606060"/>
<path d="M231.312 162.699L233.608 167.424L233.572 167.892L230.702 162.699H231.312Z" fill="#606060"/>
<path d="M119.253 130.241L125.784 133.704L127.219 114.049L143.725 99.2623L138.916 98L121.119 112.967L119.253 130.241Z" fill="#4B4B4B"/>
<path d="M217.138 110.622L205.943 120.396L201.315 115.671L213.658 108.855L217.138 110.622Z" fill="#4B4B4B"/>
<path d="M260.842 195.626L249.97 165.404L230.989 162.844L246.884 191.695L260.842 195.626Z" fill="#606060"/>
<path d="M141.32 194.724L183.123 164.539L230.271 162.663L249.97 165.404L196.686 110.947L166.545 109.252L137.553 138.825L109.099 144.126L99.9489 163.168L100.487 184.518L109.458 191.947L124.42 185.059L141.32 194.724Z" fill="white"/>
<path d="M125.891 265.23L119.756 253.797L104.578 243.736L106.085 225.379L94.9254 237.424L102.784 252.571L125.891 265.23Z" fill="#4B4B4B"/>
<path d="M223.131 282.505L200.705 272.731L163.962 271.397L146.918 280.846L223.131 282.505Z" fill="#4B4B4B"/>
<path d="M200.705 272.731L233.249 273.02L260.412 255.565L250.437 198.114L233.608 167.424L232.424 198.655L224.745 219.104V236.415L200.705 272.731Z" fill="#4B4B4B"/>
<path d="M156.821 116.212L162.562 130.277L156.463 137.49L136.728 133.523L156.821 116.212Z" fill="#606060"/>
<path d="M126.322 159.85L116.993 164.899L108.022 160.571L110.175 171.391L120.94 173.915L134.216 162.014L131.704 153.719L126.681 152.637L126.322 159.85Z" fill="#D5D5D5"/>
<path d="M123.093 156.604L118.787 159.49L113.404 157.686L116.634 152.998L122.734 152.637L123.093 156.604Z" fill="#606060"/>
<path d="M200.705 272.731L197.978 269.954L210.895 257.224L207.917 255.42L217.354 246.765L224.745 236.415L224.602 230.536H218.681L224.745 219.104L225.14 188.341L207.379 169.407L202.535 190.505L191.77 210.52L189.079 187.259L181.544 179.145L155.171 196.455L151.403 222.963L159.477 234.864L146.559 236.487L151.798 251.201L173.04 271.83L163.962 271.397L145.698 268.404L125.497 265.266L119.756 253.797L104.578 243.736L106.085 225.379L124.42 185.059L141.32 194.724L183.123 164.539L231.312 162.699L233.608 167.424L243.44 199.16L235.905 219.176L234.828 254.338L225.822 272.839L200.705 272.731Z" fill="black"/>
<path d="M125.245 169.588L141.751 177.017L175.48 155.631L239.6 154.657L235.51 151.05L174.045 151.772L142.217 172.473L126.932 165.981L125.245 169.588Z" fill="#D5D5D5"/>
<path d="M109.458 191.947L97.0066 221.268L86.9597 234.972L91.0502 256.61L146.918 280.846L149.645 279.223L93.6696 254.447L89.8302 235.693L99.6618 222.963L113.799 189.964L109.458 191.947Z" fill="#D5D5D5"/>
<path d="M253.128 267.394L239.206 278.898L218.861 280.593L223.131 282.505L240.067 281.387L250.365 271.902L253.128 267.394Z" fill="#D5D5D5"/>
<path d="M210.572 288.852L211.936 243.086L202.642 228.192L183.302 226.425L166.761 241.716L159.835 286.436L210.572 288.852Z" fill="#606060"/>
<path d="M203.647 249.903L178.135 248.28L177.094 252.175L203.324 253.797L203.647 249.903Z" fill="#4B4B4B"/>
<path d="M202.965 258.053L177.453 256.43L176.413 260.325L202.642 261.948L202.965 258.053Z" fill="#4B4B4B"/>
<path d="M202.283 266.817L176.736 265.194L175.731 269.089L201.925 270.712L202.283 266.817Z" fill="#4B4B4B"/>
<path d="M200.884 275.58L175.372 273.957L174.332 277.888L200.561 279.511L200.884 275.58Z" fill="#4B4B4B"/>
<path d="M137.086 204.93L129.121 230.608L134.324 250.732L144.334 256.971L128.116 259.387L124.313 231.654L119.146 244.818L116.383 227.146L137.086 204.93Z" fill="white"/>
<path d="M230.558 236.487L226.791 253.148L216.098 260.758L229.876 259.387L230.558 236.487Z" fill="white"/>
<path d="M171.174 140.736L167.945 143.982L174.045 147.588L175.839 146.506L171.174 140.736Z" fill="#606060"/>
<path fill-rule="evenodd" clip-rule="evenodd" d="M347.807 0.124129L225.732 1.1885L202.4 24.8395L202.789 102.305L251.866 123.486L252.124 174.976L263.446 186.142L263.63 222.691L256.081 230.343L256.261 266.202L273.821 283.52L285.316 283.42L284.615 143.889L295.42 143.795L296.121 283.325L308.995 283.213L316.315 275.793L315.906 194.42L308.513 187.128L308.313 147.361L315.632 139.941L315.547 122.931L371.763 100.832L371.374 23.3663L347.807 0.124129Z" fill="#FAFF00"/>
<path d="M327.061 80.8294L327.091 86.7836L315.241 98.7957L309.286 98.8476L287.037 76.906L265.011 99.2337L259.056 99.2857L247.087 87.4812L247.057 81.5271L269.083 59.1994L246.835 37.2579L246.805 31.3037L258.655 19.2916L264.609 19.2397L286.858 41.1812L308.884 18.8535L326.748 18.6979L326.838 36.5601L304.812 58.8878L327.061 80.8294Z" fill="black"/>
<path d="M322.102 192.297L312.397 182.534L312.25 153.263L321.856 143.332L321.768 125.865L361.232 109.889L361.254 114.257L324.771 128.597L325.091 192.271L322.102 192.297Z" fill="white"/>
<path d="M284.347 182.044L291.21 175.325L291.252 183.648L284.389 190.367L284.347 182.044Z" fill="white"/>
<path d="M284.405 193.696L291.269 186.977L291.369 206.952L284.506 213.671L284.405 193.696Z" fill="white"/>
<path d="M284.522 217L291.386 210.281L291.428 218.604L284.564 225.323L284.522 217Z" fill="white"/>
<path d="M284.581 228.652L291.444 221.933L291.486 230.256L284.623 236.974L284.581 228.652Z" fill="white"/>
<path d="M284.639 240.304L291.503 233.585L291.545 241.908L284.681 248.626L284.639 240.304Z" fill="white"/>
<path d="M284.698 251.956L291.561 245.237L291.603 253.56L284.74 260.278L284.698 251.956Z" fill="white"/>
<path d="M284.756 263.608L291.62 256.889L291.662 265.212L284.798 271.93L284.756 263.608Z" fill="white"/>
<path d="M252.656 189.224C252.646 187.32 254.182 185.763 256.087 185.746C257.991 185.73 259.543 187.26 259.553 189.164C259.562 191.069 258.026 192.626 256.122 192.642C254.217 192.659 252.665 191.129 252.656 189.224Z" fill="white"/>
<path d="M239.731 133.477C239.721 131.572 241.257 130.015 243.162 129.999C245.066 129.982 246.618 131.512 246.628 133.417C246.637 135.321 245.101 136.878 243.197 136.895C241.292 136.911 239.74 135.381 239.731 133.477Z" fill="white"/>
<path fill-rule="evenodd" clip-rule="evenodd" d="M256.114 191.263C257.257 191.253 258.179 190.319 258.173 189.176C258.168 188.162 257.434 187.325 256.469 187.156L257.303 187.979L255.362 189.946L254.097 188.698C254.056 188.863 254.034 189.035 254.035 189.213C254.041 190.355 254.972 191.273 256.114 191.263ZM252.014 186.644C251.542 187.396 251.272 188.285 251.276 189.237C251.29 191.903 253.462 194.045 256.128 194.022C258.795 193.998 260.945 191.818 260.932 189.152C260.919 186.486 258.746 184.344 256.08 184.367C255.371 184.373 254.698 184.532 254.092 184.812L244.77 175.619L244.582 138.062C246.573 137.451 248.018 135.591 248.007 133.405C247.994 130.739 245.821 128.596 243.155 128.619C240.489 128.643 238.338 130.823 238.351 133.489C238.362 135.676 239.826 137.51 241.823 138.086L242.017 176.786L252.014 186.644ZM244.566 134.977L244.561 133.894L241.802 133.918L241.808 135.001C241.382 134.626 241.113 134.077 241.11 133.465C241.104 132.322 242.026 131.388 243.169 131.378C244.311 131.368 245.242 132.286 245.248 133.429C245.251 134.041 244.988 134.594 244.566 134.977Z" fill="white"/>
<path d="M928 66.4399L938.844 72.2286V83.8062L928 66.4399Z" fill="white"/>
<path d="M938.844 70.6005L928 64.8118L938.844 47.4454V70.6005Z" fill="white"/>
<path fill-rule="evenodd" clip-rule="evenodd" d="M940.049 47.4454L950.894 64.8118L940.049 70.6005V47.4454Z" fill="#FAFF00"/>
<path fill-rule="evenodd" clip-rule="evenodd" d="M940.049 72.2286L950.894 66.4399L940.049 83.8062V72.2286Z" fill="#FAFF00"/>
<path d="M836.368 79.4454C835.515 79.4454 834.736 79.2321 834.032 78.8054C833.328 78.3788 832.763 77.8134 832.336 77.1094C831.909 76.4054 831.696 75.6374 831.696 74.8054V73.0134H836.592V74.5494H849.424V70.2934H835.472V65.3974H848.56V61.3014H836.592V63.0934H831.696V61.0454C831.696 60.1921 831.909 59.4134 832.336 58.7094C832.763 58.0054 833.328 57.4508 834.032 57.0454C834.736 56.6188 835.515 56.4054 836.368 56.4054H848.816C849.669 56.4054 850.448 56.6188 851.152 57.0454C851.856 57.4508 852.411 58.0054 852.816 58.7094C853.243 59.4134 853.456 60.1921 853.456 61.0454V65.6534C853.456 65.8881 853.435 66.1441 853.392 66.4214C853.371 66.6774 853.328 66.9121 853.264 67.1254C853.584 67.5094 853.84 67.9574 854.032 68.4694C854.224 68.9601 854.32 69.4828 854.32 70.0374V74.8054C854.32 75.6374 854.107 76.4054 853.68 77.1094C853.275 77.8134 852.72 78.3788 852.016 78.8054C851.312 79.2321 850.533 79.4454 849.68 79.4454H836.368ZM858.166 79.4454V74.5494H863.062V79.4454H858.166ZM870.402 79.4454C869.549 79.4454 868.77 79.2321 868.066 78.8054C867.362 78.3788 866.797 77.8134 866.37 77.1094C865.944 76.4054 865.73 75.6374 865.73 74.8054V61.0454C865.73 60.1921 865.944 59.4134 866.37 58.7094C866.797 58.0054 867.362 57.4508 868.066 57.0454C868.77 56.6188 869.549 56.4054 870.402 56.4054H884.866V61.3014H870.626V65.3014H883.682C884.536 65.3014 885.314 65.5148 886.018 65.9414C886.722 66.3468 887.288 66.9014 887.714 67.6054C888.141 68.3094 888.354 69.0881 888.354 69.9414V74.8054C888.354 75.6374 888.141 76.4054 887.714 77.1094C887.288 77.8134 886.722 78.3788 886.018 78.8054C885.314 79.2321 884.536 79.4454 883.682 79.4454H870.402ZM870.626 74.5494H883.458V70.2294H870.626V74.5494ZM896.652 79.4454C895.799 79.4454 895.02 79.2321 894.316 78.8054C893.612 78.3788 893.047 77.8134 892.62 77.1094C892.194 76.4054 891.98 75.6374 891.98 74.8054V73.0134H896.876V74.5494H909.708V70.2294H891.98V56.4054H914.604V61.3014H896.876V65.3014H909.932C910.786 65.3014 911.564 65.5148 912.268 65.9414C912.972 66.3468 913.538 66.9014 913.964 67.6054C914.391 68.3094 914.604 69.0881 914.604 69.9414V74.8054C914.604 75.6374 914.391 76.4054 913.964 77.1094C913.538 77.8134 912.972 78.3788 912.268 78.8054C911.564 79.2321 910.786 79.4454 909.932 79.4454H896.652Z" fill="#FAFF00"/>
<path d="M396 37.3204H1011.2M1012 35.4454L1012 335.445M396 136.695H1011.2M805.6 35.4454L805.6 335.445M396 236.07H1011.2M602.4 35.4454L602.4 335.445M1011.2 335.445H396V35.4454" stroke="white"/>
<path d="M396 303.445L480.465 285.765L540.506 303.445L583.247 245.751L640.235 271.807L677.888 221.557L736.911 236.446L804.076 180.613L849.87 196.432L897.7 106.169H963.847L1013 53.4454" stroke="#FAFF00" stroke-width="6"/>
</svg>
