<svg width="400" height="439" viewBox="0 0 400 439" fill="none" xmlns="http://www.w3.org/2000/svg">
<path d="M330 405.828L352 427L352 400.534L330 379.362L330 405.828Z" fill="white"/>
<path d="M330 368.776L352 389.948L352 326.431L330 305.259L330 368.776Z" fill="white"/>
<path d="M330 294.672L352 315.845L352 289.379L330 268.207L330 294.672Z" fill="white"/>
<path d="M330 257.621L352 278.793L352 252.328L330 231.155L330 257.621Z" fill="white"/>
<path d="M330 220.569L352 241.741L352 215.276L330 194.103L330 220.569Z" fill="white"/>
<path d="M330 183.517L352 204.69L352 178.224L330 157.052L330 183.517Z" fill="white"/>
<path d="M330 146.466L352 167.638L352 141.172L330 120L330 146.466Z" fill="white"/>
<path d="M104.934 269.688L39.436 318.66L75.22 372.281L28 438.873L387.183 438.873L366.315 383.799L304.738 326.734L311.019 225.553L229.11 235.417L104.934 269.688Z" fill="#121212"/>
<path d="M76.5576 156.117L113.904 105.398L161.801 99.156L207.845 116.144L234.652 165.931L233.049 178.733L257.501 170.626L269.024 196.12L238.185 231.066L226.585 230.346L225.719 237.254L175.117 296.98L149.415 298.661L112.328 269.328L98.2829 218.49L85.7185 203.171L76.5576 156.117Z" fill="#AEAEAE"/>
<path d="M184.893 169.191L159.889 192.622L159.75 194.865L200.515 178.147L214.07 154.415L184.893 169.191Z" fill="black"/>
<path d="M110.482 183.616L125.953 198.296L125.776 201.152L97.584 193.464L80.1238 177.84L110.482 183.616Z" fill="black"/>
<path d="M182.798 189.743L165.578 199.937L168.565 207.904L196.169 211.87L217.985 187.013L182.798 189.743Z" fill="black"/>
<path d="M108.704 199.069L89.2103 199.701L102.873 220.413L127.541 215.596L128.035 207.641L108.704 199.069Z" fill="black"/>
<path d="M110.949 202.484L127.717 209.464L127.286 216.4L105.372 219.749L96.1725 203L110.949 202.484Z" fill="white"/>
<path d="M184.215 193.312L166.484 201.836L168.794 207.509L195.849 210.417L209.725 191.415L184.215 193.312Z" fill="white"/>
<path d="M107.185 256.517L142.406 213.652L213.71 239.376L219.052 268.786L161.162 310.653L114.284 280.712L107.185 256.517Z" fill="#5E5E5E"/>
<path d="M204.792 254.386L213.606 234.455L234.617 235.759L232.275 273.498L221.134 278.13L204.792 254.386Z" fill="#7E7E7E"/>
<path d="M113.143 266.102L104.02 248.13L97.4918 247.724L96.5926 262.208L101.905 282.196L112.104 282.83L113.143 266.102Z" fill="#7E7E7E"/>
<path d="M257.004 172.029L239.604 178.526L237.372 184.531L232.331 226.402L228.295 208.95L230.98 165.704L221.419 167.977L219.826 137.571L212.904 140.213L213.752 126.545L198.885 121.936L166.834 123.633L169.628 128.106L127.197 125.472L135.104 130.059L103.132 137.084L77.1695 156.155L86.3684 202.597L98.1041 218.069L97.7369 223.985L77.9527 199.617L71.5138 168.091L38.671 166.052L64.9539 151.711L27.4448 119.28L67.9299 103.772L17.4848 81.8011L95.1444 61.2296L78.213 60.1785L140.79 38.4659L89.0335 21.1231L169.03 9.09263L228.296 57.2089L229.993 29.8738L278.127 105.559L261.547 181.321L257.004 172.029Z" fill="white"/>
<path d="M246.388 273.76L311.019 225.553L310.018 330.747L251.522 355.99L137.128 427.319L92.1749 399.34L93.7832 373.433L126.149 393.053L192.16 352.305L178.832 309.702L246.388 273.76Z" fill="#3A3A3A"/>
</svg>
