<svg width="267" height="319" viewBox="0 0 267 319" fill="none" xmlns="http://www.w3.org/2000/svg">
<path fill-rule="evenodd" clip-rule="evenodd" d="M259.363 239.566L144.789 318.534L107.612 311.694L57.4949 238.98L89.4746 187.021L56.1624 138.689L59.4481 120.829L35.8023 86.5215L23.7743 84.3087L0.574707 50.6486L5.67083 22.9478L16.4593 15.512L106.73 146.484L116.871 139.495L26.6005 8.5224L38.6836 0.194336L50.3471 2.34008L102.992 78.7225L100.847 90.3861L126.574 127.714L138.238 129.86L149.243 145.827L216.086 129.674L266.203 202.388L259.363 239.566Z" fill="#FAFF00"/>
<path d="M187.419 177.665L183.567 172.076L164.685 168.603L159.096 172.455L152.639 207.552L117.541 201.095L111.953 204.947L108.479 223.829L112.331 229.418L147.428 235.875L140.971 270.972L144.823 276.561L163.705 280.035L169.294 276.183L175.751 241.086L210.848 247.543L227.615 235.986L216.059 219.22L180.962 212.763L187.419 177.665Z" fill="black"/>
<path d="M110.156 76.6496L107.464 92.1389L126.401 119.614L141.834 122.611L153.134 139.007L200.359 128.1L197.534 124.001L154.155 134.484L112.961 74.7163L110.156 76.6496Z" fill="white"/>
<path d="M81.6162 110.971L92.3969 112.76L87.0124 104.947L76.2317 103.159L81.6162 110.971Z" fill="white"/>
<path d="M74.0779 100.034L84.8586 101.822L71.9357 83.0728L61.155 81.2844L74.0779 100.034Z" fill="white"/>
<path d="M59.0012 78.1594L69.7819 79.9478L64.3974 72.1355L53.6167 70.3471L59.0012 78.1594Z" fill="white"/>
<path d="M51.4629 67.2221L62.2436 69.0105L56.8591 61.1982L46.0783 59.4098L51.4629 67.2221Z" fill="white"/>
<path d="M43.9245 56.2848L54.7052 58.0732L49.3207 50.2609L38.54 48.4725L43.9245 56.2848Z" fill="white"/>
<path d="M36.3862 45.3475L47.1669 47.136L41.7824 39.3236L31.0017 37.5352L36.3862 45.3475Z" fill="white"/>
<path d="M28.8479 34.4102L39.6286 36.1987L34.2441 28.3863L23.4634 26.5979L28.8479 34.4102Z" fill="white"/>
<path d="M47.3734 125.013C48.6054 126.801 51.0532 127.251 52.8407 126.019C54.6282 124.787 55.0785 122.339 53.8465 120.552C52.6145 118.764 50.1667 118.314 48.3792 119.546C46.5917 120.778 46.1414 123.226 47.3734 125.013Z" fill="white"/>
<path d="M71.6439 185.625C72.8759 187.412 75.3237 187.863 77.1112 186.631C78.8986 185.399 79.349 182.951 78.117 181.163C76.885 179.376 74.4372 178.926 72.6497 180.158C70.8622 181.389 70.4119 183.837 71.6439 185.625Z" fill="white"/>
<path fill-rule="evenodd" clip-rule="evenodd" d="M49.2713 120.841C50.3438 120.102 51.8125 120.372 52.5517 121.444C53.208 122.396 53.0686 123.661 52.2786 124.45L52.5206 123.134L49.4279 122.565L49.0606 124.562C48.9149 124.435 48.7826 124.288 48.6678 124.121C47.9286 123.049 48.1988 121.58 49.2713 120.841ZM48.4561 127.848C47.5264 127.453 46.6941 126.799 46.0786 125.906C44.3538 123.403 44.9843 119.976 47.4867 118.251C49.9892 116.527 53.4161 117.157 55.1409 119.66C56.8657 122.162 56.2353 125.589 53.7328 127.314C53.0671 127.773 52.3359 128.065 51.5888 128.199L48.8834 142.905L73.1812 178.158C75.4368 177.425 77.9967 178.218 79.4114 180.271C81.1362 182.773 80.5058 186.2 78.0033 187.925C75.5008 189.65 72.0739 189.02 70.3491 186.517C68.9344 184.464 69.1042 181.79 70.5919 179.943L45.555 143.617L48.4561 127.848ZM75.1773 181.054L75.8774 182.07L73.2882 183.855L72.588 182.839C72.4358 183.468 72.5419 184.157 72.9383 184.732C73.6775 185.805 75.1462 186.075 76.2187 185.336C77.2912 184.597 77.5614 183.128 76.8222 182.056C76.4258 181.48 75.8196 181.136 75.1773 181.054Z" fill="white"/>
</svg>
