<svg width="1478" height="802" viewBox="0 0 1478 802" fill="none" xmlns="http://www.w3.org/2000/svg">
<g clip-path="url(#clip0_1584_11)">
<path d="M893 68.0898L961.012 0H1154.89L1170 15.1311V536.072L1104.15 602H919.989L893 574.98V68.0898Z" fill="#FAFF00"/>
<path d="M1256.22 379.137L1235.91 389.476L1211.81 387.022L1211.59 352.211L1242.53 338.971L1256.22 379.137Z" fill="#484D49"/>
<path d="M1099.26 386.427L1097.4 434.776L997.341 492.942L927.339 602.284H1375.17L1362.01 523.513L1279.13 444.371L1211.96 413.131V318.145L1099.26 386.427Z" fill="#484D49"/>
<path d="M1032.45 515.556L1109.9 515.63L1064.59 564.648L1032.45 515.556Z" fill="#D8D8D8"/>
<path d="M998.532 515.629L1053.73 577.441L1044.95 602.284L974.206 602.21L998.532 515.629Z" fill="#D8D8D8"/>
<path d="M1073.82 577.439L1164.57 504.321L1192.25 602.282H1073.82V577.439Z" fill="#D8D8D8"/>
<path d="M1300.49 442.957H1255.93L1215.16 500.603L1214.86 568.514L1230.33 602.283L1346.98 602.209L1351.82 481.04L1300.49 442.957Z" fill="#626262"/>
<path d="M1243.87 493.685L1276.23 460.214H1301.6L1362.6 514.959L1383.95 602.283H1271.84L1242.53 556.018L1243.87 493.685Z" fill="#484D49"/>
<path d="M1280.25 487.14L1275.34 518.455L1304.06 563.159L1347.8 566.283L1372.12 531.249L1363.49 496.736L1319.68 464.975L1280.25 487.14Z" fill="#D8D8D8"/>
<path d="M1297.81 477.322L1295.65 513.025L1317.45 544.266L1361.56 546.349L1372.12 531.249L1363.49 496.736L1319.68 464.975L1297.81 477.322Z" fill="#484D49"/>
<path d="M1325.93 602.285L1317.97 572.011L1333.89 556.019L1383.95 546.35L1410.73 602.21L1325.93 602.285Z" fill="#626262"/>
<path d="M1242.53 556.018L1262.17 543.521L1271.47 546.348L1287.02 536.604L1290.37 541.81L1275.34 552.075V565.092L1255.7 576.77L1242.53 556.018Z" fill="#D8D8D8"/>
<path d="M1268.42 596.855L1285.98 580.714H1291.93L1306.14 563.309L1313.28 563.83L1297.88 584.433L1300.11 590.012L1295.43 602.285L1271.84 602.283L1268.42 596.855Z" fill="#D8D8D8"/>
<path d="M1243.87 509.754L1256.97 512.655L1260.69 508.266L1276.46 511.241L1277.65 503.877L1261.73 499.638L1260.61 495.547L1247.45 489.968L1243.87 493.685L1243.87 509.754Z" fill="#D8D8D8"/>
<path d="M1364.31 602.284L1348.54 563.308L1387.15 553.118L1412.44 602.284H1364.31Z" fill="#484D49"/>
<path d="M989.977 504.321L960.89 569.108L960.815 602.282H939.242L939.316 574.315L971.304 504.321H989.977Z" fill="#626262"/>
<path d="M1099.26 469.066L1183.77 398.255L1194.03 402.718L1233.01 367.237L1238.96 374.676L1203.33 408.519L1206.08 420.495L1128.79 486.992L1099.26 469.066Z" fill="#626262"/>
<path d="M1099.26 423.991L1091.37 469.513L1070.69 488.554V415.288L1099.26 423.991Z" fill="#626262"/>
<path d="M1032.45 451.884L1193.06 448.76L1145.16 489.967L1063.55 490.414L1032.45 451.884Z" fill="#D8D8D8"/>
<path d="M1230.41 352.435L1233.01 367.237L1238.96 374.676L1256.22 379.137L1266.12 364.559L1260.76 346.41L1242.53 338.971L1230.41 352.435Z" fill="#626262"/>
<path d="M1300.49 442.957L1333.89 399.218H1341.03L1348.54 393.268L1377.03 413.425L1375.1 423.988L1390.5 457.608L1363.49 496.733L1357.39 492.568L1380.46 457.98L1372.64 441.467L1352.04 481.262L1300.49 442.957Z" fill="#484D49"/>
<path d="M1071.36 450.099L1045.92 410.899L1038.18 409.784L1030.67 405.098L1006.49 418.709L1006.57 428.082L988.712 455.677L1010.21 486.472H1019.73L998.755 455.975L1007.98 440.652L1027.17 475.537L1071.36 450.099Z" fill="#484D49"/>
<path d="M1164.57 504.321L1171.42 505.66L1207.87 602.282H1192.25L1164.57 504.321Z" fill="#626262"/>
<path d="M1260.76 417.891L1145.16 489.967L1149.32 501.274L1269.91 427.115L1283.3 430.388L1297.21 422.949L1300.49 403.908L1287.69 396.99H1272.81L1263.44 405.916L1260.76 417.891Z" fill="#626262"/>
<path d="M1017.87 441.991L1063.55 490.414L1059.68 501.274L1011.18 448.463L997.937 446.603L989.01 437.677L990.2 430.536L999.424 425.255L1012.74 427.71L1017.43 433.958L1017.87 441.991Z" fill="#626262"/>
<path d="M1063.55 490.414L1145.16 489.967L1193.06 448.76L1198.05 457.016L1149.32 501.274L1059.9 501.273L1063.55 490.414Z" fill="#626262"/>
<path d="M947.351 556.686L939.316 546.347L958.956 504.321H971.304L947.351 556.686Z" fill="#D8D8D8"/>
<path d="M998.532 515.629H1004.11L1060.87 576.771L1055.59 602.284H1044.95L1053.73 577.441L998.532 515.629Z" fill="#626262"/>
<path d="M1064.59 564.648L1073.07 566.283L1119.19 516.968L1109.9 515.63L1064.59 564.648Z" fill="#626262"/>
<path d="M1251.91 342.765L1266.12 318.145L1247.82 291.293L1256.22 287.722L1275.19 318.145L1257.93 345.22L1251.91 342.765Z" fill="#484D49"/>
<path d="M1230.93 342.767L1262.1 247.632L1249.53 145.803L1179.23 68.6689L1049.34 84.3636L984.844 163.357L982.24 272.848L1039.07 396.099L1073.74 425.108L1141.96 422.727L1230.93 342.767Z" fill="#626262"/>
<path d="M1247.82 291.293L1262.1 285.194L1290.37 222.341L1275.19 165.737L1237.63 146.695L1216.94 151.455L1198.35 225.689L1247.82 291.293Z" fill="#484D49"/>
<path d="M1246.92 165.291L1236.58 188.573L1244.32 242.351L1262.1 259.013L1286.2 222.342L1275.19 171.019L1246.92 165.291Z" fill="#626262"/>
<path d="M1240.75 154.358L1258.23 95.0012L1275.19 120.068L1275.19 165.737L1240.75 154.358Z" fill="#484D49"/>
<path d="M984.844 163.357L965.948 204.044L958.955 253.806L996.597 304.014L982.24 272.848L984.844 163.357Z" fill="#484D49"/>
<path d="M1230.93 342.767L1189.05 339.42L1156.99 225.243L1179.23 123.86L1206.83 98.9424L1179.23 68.6689L1060.8 83.0247L997.49 163.357L995.035 269.352L1039.07 396.099L1073.74 425.108L1141.96 422.727L1230.93 342.767Z" fill="#484D49"/>
<path d="M1102.31 258.046L1108.63 168.862L1091.22 143.646L1030.82 150.638L1013.93 174.515L1011.77 272.104L1040.12 358.908L1058.57 367.908L1101.12 363.966L1116.22 351.023L1102.31 258.046ZM1101.41 345.221L1091.22 353.627L1058.57 354.593L1049.27 349.164L1023.01 271.806L1023.6 175.333L1036.32 163.06L1083.71 156.589L1095.31 169.754L1089.66 258.492L1101.41 345.221Z" fill="#FFF500"/>
<path d="M1186.44 271.878L1193.96 280.432L1225.95 246.886L1211.74 231.414L1186.44 271.878Z" fill="#484D49"/>
<path d="M1212.78 304.015L1236.58 262.807L1247.97 279.989L1218.13 310.858L1212.78 304.015Z" fill="#484D49"/>
</g>
<g clip-path="url(#clip1_1584_11)">
<path d="M298 68.0898L366.012 0H559.886L575 15.1311V536.072L509.147 602H324.989L298 574.98V68.0898Z" fill="#FAFF00"/>
<path d="M425.333 379.959L338.398 444.959L385.894 516.13L323.219 604.518L799.964 604.518L772.265 531.418L690.534 455.675L698.871 321.378L590.152 334.471L425.333 379.959Z" fill="#4B4B4B"/>
<path d="M387.669 229.214L437.239 161.895L500.812 153.61L561.927 176.158L597.508 242.241L595.38 259.233L627.835 248.473L643.13 282.31L602.198 328.694L586.8 327.738L585.652 336.908L518.487 416.182L484.373 418.414L435.148 379.48L416.505 312.002L399.828 291.669L387.669 229.214Z" fill="#AEAEAE"/>
<path d="M531.464 246.566L498.276 277.666L498.091 280.644L552.198 258.454L570.19 226.954L531.464 246.566Z" fill="black"/>
<path d="M432.698 265.713L453.232 285.198L452.997 288.989L415.578 278.784L392.403 258.047L432.698 265.713Z" fill="black"/>
<path d="M528.682 273.847L505.826 287.377L509.791 297.952L546.429 303.216L575.386 270.223L528.682 273.847Z" fill="black"/>
<path d="M430.336 286.225L404.463 287.065L422.598 314.555L455.34 308.162L455.995 297.602L430.336 286.225Z" fill="black"/>
<path d="M433.317 290.759L455.573 300.023L455.002 309.229L425.914 313.674L413.704 291.444L433.317 290.759Z" fill="white"/>
<path d="M530.563 278.585L507.029 289.899L510.095 297.428L546.005 301.288L564.423 276.066L530.563 278.585Z" fill="white"/>
<path d="M428.321 362.474L475.07 305.58L569.712 339.723L576.802 378.759L499.965 434.329L437.743 394.589L428.321 362.474Z" fill="#5E5E5E"/>
<path d="M557.875 359.646L569.574 333.192L597.463 334.923L594.353 385.014L579.566 391.163L557.875 359.646Z" fill="#7E7E7E"/>
<path d="M436.229 375.197L424.12 351.342L415.455 350.805L414.262 370.029L421.313 396.559L434.851 397.4L436.229 375.197Z" fill="#7E7E7E"/>
<path d="M627.177 250.335L604.082 258.958L601.119 266.928L594.429 322.504L589.072 299.34L592.635 241.939L579.945 244.956L577.83 204.598L568.642 208.105L569.769 189.964L550.035 183.846L507.494 186.098L511.202 192.036L454.884 188.54L465.378 194.627L422.942 203.952L388.482 229.265L400.692 290.907L416.268 311.444L415.781 319.296L389.521 286.952L380.975 245.107L337.383 242.401L372.268 223.366L322.482 180.32L376.218 159.737L309.262 130.575L412.34 103.27L389.867 101.875L472.925 73.0559L404.229 50.0368L510.408 34.0687L589.072 97.9335L591.324 61.6516L655.213 162.108L633.206 262.668L627.177 250.335Z" fill="#FE7272"/>
<path d="M613.085 385.363L698.87 321.378L697.541 461.003L619.9 494.507L468.064 589.182L408.398 552.046L410.533 517.66L453.492 543.702L541.108 489.616L523.418 433.07L613.085 385.363Z" fill="#3A3A3A"/>
</g>
<g clip-path="url(#clip2_1584_11)">
<path d="M0 68.0898L68.0116 0H261.886L277 15.1311V536.072L211.147 602H26.9887L0 574.98V68.0898Z" fill="#FAFF00"/>
<path d="M413.271 465.072L425.38 453.784L424.061 448.569L433.531 430.042L458.525 431.91L461.629 413.383L492.989 367.611L490.893 351.731L508.047 338.497L531.101 340.677L536.069 349.317L472.108 452.539L475.912 468.964L454.1 502.749L413.271 465.072Z" fill="#4B4B4B"/>
<path d="M91.9956 513.647L85.7082 498.311L80.3524 497.767L66.4581 482.353L76.937 459.545L60.7141 450.126L28.9668 404.665L13.3649 401.006L7 380.299L17.1684 359.437L26.9487 357.725L100.922 454.018L117.611 456.198L141.518 488.503L91.9956 513.647Z" fill="#4B4B4B"/>
<path d="M28.6563 601.689L80.5851 512.323L239.554 416.731L222.71 377.108L326.878 259.251L338.289 393.533L498.655 520.964L521.553 601.766L28.6563 601.689Z" fill="#D5D5D5"/>
<path d="M235.363 406.766L332.622 329.311L253.914 436.737L235.285 424.281L235.363 406.766Z" fill="#7F7F7F"/>
<path d="M197.871 437.515L231.637 476.048L230.473 491.227L264.238 492.395L267.731 479.551L376.013 424.671L307.318 410.659L193.214 421.168L197.871 437.515Z" fill="#4B4B4B"/>
<path d="M86.8725 601.766L140.354 536.377L176.836 454.641L199.113 440.707L166.745 533.263L320.436 540.269L376.711 423.892L400.386 442.964L355.365 549.611L434.462 601.844L86.8725 601.766Z" fill="#606060"/>
<path d="M256.786 512.245L231.171 514.581L206.332 533.263L211.766 560.509L259.891 565.18L278.52 537.934L256.786 512.245ZM251.353 553.503L223.409 549.611L219.528 537.934L233.5 521.587L250.576 520.808L263.772 539.491L251.353 553.503Z" fill="white"/>
<path d="M405.199 580.515L405.975 562.144L393.245 542.293L370.346 542.76L361.42 576.234L381.757 592.737L405.199 580.515ZM371.977 571.641L378.109 552.335L388.122 551.012L400.076 562.922L398.911 575.066L382.223 582.072L371.977 571.641Z" fill="white"/>
<path d="M107.054 556.617L112.565 568.994L128.633 577.635L145.555 569.305L141.052 544.162L120.405 540.425L107.054 556.617ZM134.843 550.934L136.706 565.802L129.72 570.162L116.834 566.503L113.652 558.096L123.743 547.665L134.843 550.934Z" fill="white"/>
<path d="M257.795 535.287L400.386 442.964L393.633 437.359L253.138 527.814L257.795 535.287Z" fill="#4B4B4B"/>
<path d="M231.171 528.593L183.046 450.748L176.836 454.641L224.961 536.377L231.171 528.593Z" fill="#4B4B4B"/>
<path d="M230.395 547.275L217.199 600.988L231.171 601.766L241.262 547.275H230.395Z" fill="#4B4B4B"/>
<path d="M431.357 451.683L388.743 516.916L407.372 535.599L476.455 489.671L431.357 451.683Z" fill="#606060"/>
<path d="M495.861 502.904L423.672 556.617L434.539 578.413L537 564.401L495.861 502.904Z" fill="#606060"/>
<path d="M401.939 511.934L402.171 518.162L408.692 521.276L413.815 515.826L408.692 510.689L401.939 511.934Z" fill="white"/>
<path d="M438.343 556.305L435.549 561.599L439.74 567.204L446.416 564.946L445.717 557.473L438.343 556.305Z" fill="white"/>
<path d="M390.839 556.617L472.031 499.479L478.551 505.239L395.962 563.311L390.839 556.617Z" fill="#4B4B4B"/>
<path d="M386.958 579.192L398.834 602H407.915L393.167 575.533L386.958 579.192Z" fill="#4B4B4B"/>
<path d="M253.138 549.611L374.771 568.527L377.333 560.198L257.795 542.838L253.138 549.611Z" fill="#4B4B4B"/>
<path d="M90.1326 570.395L21.5928 565.958L74.6083 502.593L100.301 556.072L90.1326 570.395Z" fill="#606060"/>
<path d="M97.7395 483.91L116.369 523.533L135.774 510.844L140.276 459.156L97.7395 483.91Z" fill="#606060"/>
<path d="M133.523 557.239L222.4 539.257L224.573 546.03L134.377 563.623L133.523 557.239Z" fill="#4B4B4B"/>
<path d="M125.062 567.982L115.748 601.766H107.986L120.405 565.413L125.062 567.982Z" fill="#4B4B4B"/>
<path d="M118.076 556.85L88.0368 507.653L92.8494 504.85L121.725 553.192L118.076 556.85Z" fill="#4B4B4B"/>
<path d="M128.09 504.072L127.236 508.976L121.259 510.689L117.3 505.784L122.346 502.281L128.09 504.072Z" fill="white"/>
<path d="M89.667 552.88L91.4522 557.395L87.4159 561.365L82.06 558.874L83.4572 552.958L89.667 552.88Z" fill="white"/>
<path d="M340.85 320.204L244.056 424.126L206.254 424.982L141.518 328.066V290.311L125.373 246.719L122.19 170.898L177.845 93.9102L258.028 67.8323L353.037 103.719L382.688 183.431L378.031 236.91L398.213 241.347L406.751 266.335L361.653 322.539L340.85 320.204Z" fill="#D5D5D5"/>
<path d="M225.815 273.263L260.59 257.461L288.922 282.293L227.989 289.066L225.815 273.263Z" fill="white"/>
<path d="M215.647 277.623L261.443 256.138L288.922 264.701H272.388L288.922 282.293L261.443 266.257L215.647 277.623Z" fill="black"/>
<path d="M177.845 290.234L139.034 289.144L147.883 270.228L175.904 278.868L177.845 290.234Z" fill="white"/>
<path d="M183.046 280.269L149.358 272.796L139.034 289.144L143.769 272.485L133.135 273.263L146.02 264.701L183.046 280.269Z" fill="black"/>
<path d="M179.553 264.234L174.274 254.425L125.373 244.539L179.553 264.234Z" fill="black"/>
<path d="M208.117 263.299L287.369 239.479L214.017 252.713L208.117 263.299Z" fill="black"/>
<path d="M179.941 362.784L197.794 353.988L208.117 356.713L217.199 353.988H257.174L231.016 384.97L206.099 386.215L179.941 362.784Z" fill="#626262"/>
<path d="M191.739 364.419L239.554 362.629L228.066 371.737H196.629L191.739 364.419Z" fill="white"/>
<path d="M419.559 126.994L369.881 99.5928L365.844 62.3054L327.344 30L280.228 39.8862L272.931 70.0898L204.003 74.6048L165.658 53.4311L132.048 70.4013L124.829 109.323L140.82 148.09L128.788 169.653L231.714 173.623L322.144 238.778L358.703 217.916L398.368 304.946L422.508 330.946L405.509 363.641L355.521 390.964L273.164 404.276L193.369 407.623L141.673 328.766V291.401L125.062 247.263L122.578 180.862L86.0963 246.096L64.5176 370.102L108.529 441.407L145.166 428.252L310.034 424.671L356.918 435.18L453.169 377.575L456.584 274.353L419.559 126.994Z" fill="#606060"/>
<path d="M127.469 169.653L122.501 179.85L122.578 180.862L128.788 169.653H127.469Z" fill="#606060"/>
<path d="M369.881 99.5928L355.754 107.066L352.649 64.6407L316.943 32.7246L327.344 30L365.844 62.3054L369.881 99.5928Z" fill="#4B4B4B"/>
<path d="M158.129 57.2455L182.347 78.3413L192.36 68.1437L165.658 53.4311L158.129 57.2455Z" fill="#4B4B4B"/>
<path d="M63.586 240.724L87.1054 175.491L128.167 169.964L93.7809 232.24L63.586 240.724Z" fill="#606060"/>
<path d="M322.144 238.778L231.714 173.623L129.72 169.575L87.1054 175.491L202.373 57.9461L267.576 54.2874L330.294 118.12L391.848 129.563L411.641 170.665L410.477 216.749L391.071 232.784L358.703 217.916L322.144 238.778Z" fill="white"/>
<path d="M355.521 390.964L368.794 366.287L401.628 344.569L398.368 304.946L422.508 330.946L405.509 363.641L355.521 390.964Z" fill="#4B4B4B"/>
<path d="M145.166 428.252L193.68 407.156L273.164 404.276L310.034 424.671L145.166 428.252Z" fill="#4B4B4B"/>
<path d="M193.68 407.156L123.277 407.779L64.5176 370.102L86.0963 246.096L122.501 179.85L125.062 247.263L141.673 291.401V328.766L193.68 407.156Z" fill="#4B4B4B"/>
<path d="M288.611 69.3114L276.192 99.6707L289.387 115.24L332.079 106.677L288.611 69.3114Z" fill="#606060"/>
<path d="M354.589 163.503L374.771 174.401L394.176 165.06L389.519 188.413L366.233 193.862L337.513 168.174L342.946 150.269L353.813 147.934L354.589 163.503Z" fill="#D5D5D5"/>
<path d="M361.575 156.497L370.89 162.725L382.533 158.832L375.547 148.713L362.352 147.934L361.575 156.497Z" fill="#606060"/>
<path d="M193.68 407.156L199.579 401.162L171.635 373.683L178.078 369.79L157.663 351.108L141.673 328.766L141.984 316.078H154.791L141.673 291.401L140.82 225L179.242 184.132L189.721 229.671L213.008 272.874L218.829 222.665L235.13 205.15L292.182 242.515L300.332 299.73L282.867 325.419L310.811 328.922L299.478 360.683L253.526 405.21L273.164 404.276L312.674 397.814L356.375 391.042L368.794 366.287L401.628 344.569L398.368 304.946L358.703 217.916L322.144 238.778L231.714 173.623L127.469 169.653L122.501 179.85L101.233 248.353L117.533 291.557L119.862 367.455L139.345 407.389L193.68 407.156Z" fill="#00E1FF"/>
<path d="M356.918 184.521L321.212 200.557L248.248 154.395L109.538 152.293L118.387 144.509L251.353 146.066L320.203 190.749L353.27 176.737L356.918 184.521Z" fill="#D5D5D5"/>
<path d="M391.071 232.784L418.006 296.072L439.74 325.653L430.891 372.359L310.034 424.671L304.135 421.168L425.225 367.689L433.531 327.21L412.262 299.73L381.679 228.503L391.071 232.784Z" fill="#D5D5D5"/>
<path d="M80.2747 395.635L110.392 420.467L154.403 424.126L145.166 428.252L108.529 425.838L86.2516 405.365L80.2747 395.635Z" fill="#D5D5D5"/>
<path d="M172.334 441.952L169.384 343.168L189.488 311.018L231.326 307.204L267.11 340.21L282.091 436.737L172.334 441.952Z" fill="#606060"/>
<path d="M187.315 357.88L242.504 354.377L244.755 362.784L188.013 366.287L187.315 357.88Z" fill="#4B4B4B"/>
<path d="M188.79 375.473L243.979 371.97L246.23 380.377L189.488 383.88L188.79 375.473Z" fill="#4B4B4B"/>
<path d="M190.264 394.389L245.531 390.886L247.704 399.293L191.041 402.796L190.264 394.389Z" fill="#4B4B4B"/>
<path d="M193.292 413.305L248.481 409.802L250.732 418.287L193.99 421.79L193.292 413.305Z" fill="#4B4B4B"/>
<path d="M331.303 260.808L348.535 316.234L337.28 359.671L315.623 373.138L350.708 378.353L358.936 318.491L370.114 346.904L376.09 308.76L331.303 260.808Z" fill="white"/>
<path d="M129.099 328.922L137.249 364.886L160.38 381.311L130.573 378.353L129.099 328.922Z" fill="white"/>
<path d="M257.562 122.246L264.548 129.251L251.353 137.036L247.472 134.701L257.562 122.246Z" fill="#606060"/>
</g>
<path d="M672.521 801.622H643.481L624.122 782.294V675.986L614.442 666.322H575.723L566.044 675.986V724.308H614.442V762.965H566.044V782.294L546.684 801.622H517.645V646.993L546.684 618H643.481L672.521 646.993V801.622Z" fill="#FAFF00"/>
<path d="M353.09 801.622V637.329L372.449 618H469.247L507.966 656.657L474.087 690.482L449.887 666.322H401.489V753.301H459.567V743.636H440.207V714.643L449.887 704.979H507.966V782.294L488.606 801.622L353.09 801.622Z" fill="#FAFF00"/>
<path d="M324.051 666.322H243.519V685.65H304.691L314.371 695.315V724.308L304.691 733.972H243.519V753.301H343.41V801.622L214.48 801.622L195.12 782.294V637.329L214.48 618H333.73L343.41 627.664V646.993L324.051 666.322Z" fill="#FAFF00"/>
<path d="M1079.07 666.322H991.952V685.65H1059.71L1069.39 695.315V724.308L1059.71 733.972H991.952V753.301H1088.75L1098.43 762.965V801.622L943.553 801.622V637.329L962.913 618H1088.75L1098.43 627.664V646.993L1079.07 666.322Z" fill="#FAFF00"/>
<path d="M885.475 782.294V666.322L875.795 666.322L817.717 724.308H798.357L740.279 666.322H730.599V782.294L711.24 801.622H682.2V637.329L701.56 618L759.638 618L798.357 656.657L817.717 656.657L856.436 618L914.514 618L933.874 637.329V801.622H904.834L885.475 782.294Z" fill="#FAFF00"/>
<path fill-rule="evenodd" clip-rule="evenodd" d="M185.44 666.322L137.042 618H26.3595L7 637.329V801.622H137.042L185.44 753.301V666.322ZM117.682 666.322L137.042 685.65V733.972L117.682 753.301H55.3987V675.986L65.0784 666.322H117.682Z" fill="#FAFF00"/>
<path d="M1110.85 801.623H1139.87L1159.22 782.294V675.986L1168.9 666.322H1224.38L1234.06 675.986V724.308H1168.9V762.965H1234.06V782.294L1253.4 801.623H1282.43V762.965L1264.08 743.637L1282.43 724.308V646.993L1253.4 618H1139.87L1110.85 646.993V801.623Z" fill="#FAFF00"/>
<path d="M1478 647.03V618H1323.41L1294.42 647.03V724.308L1302.82 733.592L1435.41 733.592V753.616H1302.82L1294.42 762.965V802H1449.01L1478 772.97V714.238L1449.01 685.208L1337.02 685.208V666.384H1458.68L1478 647.03Z" fill="#FAFF00"/>
<g clip-path="url(#clip3_1584_11)">
<path d="M1193 68.0898L1261.01 0H1454.89L1470 15.1311V536.072L1404.15 602H1219.99L1193 574.98V68.0898Z" fill="#FAFF00"/>
<path d="M1458.59 535.98L1594.14 441.665L1594.9 323.205L1501.52 320.942L1499.26 299.815L1622.76 302.079L1646.86 351.122L1683 495.99L1744 546.543L1731.57 570.31L1741.74 601.245H1448.05L1466.88 582.76L1458.59 535.98Z" fill="#D5D5D5"/>
<path d="M1219.5 602L1192.5 574.837L1272.21 516.362L1260.92 463.546L1307.23 349.991L1357.68 325.091L1465.75 356.027L1351.66 601.623L1219.5 602Z" fill="#D5D5D5"/>
<path d="M1351.66 601.623L1323.49 465.055L1343.83 450.342L1340.44 394.884L1442.1 400.543L1557.32 360.931L1577.2 453.36L1458.59 535.98L1466.88 582.76L1448.05 601.245L1351.66 601.623Z" fill="#7F7F7F"/>
<path d="M1530.21 598.605L1538.11 558.992L1664.63 496.745L1647.99 354.895L1686.09 510.326L1550.54 568.047L1530.21 598.605Z" fill="#7F7F7F"/>
<path d="M1731.57 570.31L1666.89 565.783L1637.52 598.605L1678.18 577.101L1731.57 570.31Z" fill="#7F7F7F"/>
<path d="M1351.66 601.623L1323.49 465.055L1343.83 450.342L1340.44 394.884L1414.99 398.28L1410.47 342.823L1337.05 345.086L1286.22 462.791L1351.66 601.623Z" fill="#4B4B4B"/>
<path d="M1577.2 453.36L1594.14 441.665L1594.9 323.205L1516.2 320.942L1529.38 370.363L1557.32 360.931L1577.2 453.36Z" fill="#4B4B4B"/>
<path d="M1347.52 455.623L1338.48 462.414L1352.04 477.127L1342.25 492.217L1398.35 510.326L1456.33 477.882L1484.2 447.324L1409.27 463.923L1366.34 456.755L1399.1 478.259L1385.92 483.54L1347.52 455.623Z" fill="#4B4B4B"/>
<path d="M1417.55 516.362L1537.29 430.724L1529.38 370.363L1557.32 360.931L1577.2 453.36L1474.41 525.039L1443.91 510.326L1417.55 516.362Z" fill="#4B4B4B"/>
<path d="M1272.21 516.362L1287.35 574.837L1277.18 602L1272.21 516.362Z" fill="#7F7F7F"/>
<path d="M1530.89 480.372L1574.26 548.806L1597.91 536.206L1552.8 465.055L1530.89 480.372Z" fill="white"/>
<path d="M1562.97 457.132L1609.28 528.434L1632.55 518.098L1586.08 441.137L1562.97 457.132Z" fill="white"/>
<path d="M1600.92 366.967L1622.98 356.404L1649.34 373.003L1655.67 388.848L1712.9 357.687L1661.92 339.805L1648.14 356.102L1626.98 340.484L1600.47 352.33L1600.92 366.967Z" fill="#4B4B4B"/>
<path d="M1320.26 401.977L1304.22 393.074L1285.39 406.655L1280.95 419.784L1239.38 393.526L1276.05 379.115L1286.14 392.696L1301.28 379.87L1320.48 389.829L1320.26 401.977Z" fill="#4B4B4B"/>
<path d="M1302.18 450.568L1286.14 441.665L1267.32 455.246L1262.87 468.375L1221.3 442.117L1257.98 427.631L1268.07 441.287L1283.21 428.461L1302.41 438.42L1302.18 450.568Z" fill="#4B4B4B"/>
<path d="M1602.95 429.592L1631.57 415.483L1656.65 427.782L1670.5 447.474L1730.97 416.766L1675.55 398.657L1659.96 411.484L1637.67 399.11L1601.82 411.786L1602.95 429.592Z" fill="#4B4B4B"/>
<path d="M1466.88 582.76L1385.62 573.706L1448.05 601.245L1466.88 582.76Z" fill="#4B4B4B"/>
<path d="M1599.87 340.257L1623.51 330.373L1641.06 339.201L1638.95 335.051L1622.98 327.506L1599.79 336.937L1599.87 340.257Z" fill="#4B4B4B"/>
<path d="M1601.3 403.184L1635.94 391.866L1653.18 399.11L1652.73 395.262L1635.94 388.848L1601.15 400.015L1601.3 403.184Z" fill="#4B4B4B"/>
<path d="M1295.03 379.794L1302.71 373.758L1321.39 381.303L1322.67 378.436L1302.56 370.513L1296.53 376.021L1295.03 379.794Z" fill="#4B4B4B"/>
<path d="M1274.47 430.271L1283.73 423.179L1300 430.875L1301.43 427.857L1284.03 420.161L1275.98 426.725L1274.47 430.271Z" fill="#4B4B4B"/>
<path d="M1319.58 285.479L1309.11 176.904L1378.47 95.6421L1486.91 88.0215L1564.85 156.305L1571.48 237.19L1558.3 268.88L1581.26 263.674L1593.31 305.021L1541.43 351.047L1523.13 349.01L1490.3 399.11L1438.18 438.269L1396.77 433.742L1348.72 383.491L1336.6 307.888L1319.58 285.479Z" fill="#D5D5D5"/>
<path d="M1529.53 283.593L1542.86 350.896L1516.8 421.745L1467.63 482.409L1475.16 505.044L1435.55 482.635L1431.41 466.262L1396.84 493.726L1417.17 517.117H1381.78L1395.64 540.205L1367.47 521.644L1346.09 474.411L1327.56 492.972L1323.8 467.318L1312.5 477.882L1303.84 423.707L1342.7 390.357L1340.44 329.241L1353.92 381.303L1377.71 407.334L1396.84 394.884L1446.62 402.807L1461.3 382.435L1470.87 317.395L1481.94 319.885L1491.5 301.022L1499.11 333.014L1529.53 283.593Z" fill="white"/>
<path d="M1566.28 157.211L1568.54 197.2L1558 206.783L1516.2 209.424L1511.68 230.852L1496.47 237.265L1509.27 196.144L1500.31 190.108L1433.82 282.386L1446.47 329.09L1475.01 292.27L1491.12 300.343L1499.11 333.014L1543.39 357.309L1577.35 336.937L1596.25 298.91L1586.84 271.521L1577.2 252.507L1593.46 244.961L1587.36 178.337L1566.28 157.211Z" fill="#7F7F7F"/>
<path d="M1521.1 326.299L1515.45 290.534L1543.99 264.353L1578.63 276.425L1586.24 304.191L1559.65 339.654L1521.1 326.299Z" fill="white"/>
<path d="M1547.45 270.54L1525.09 292.723L1529.53 322.979L1559.05 333.995L1580.14 303.663L1574.26 280.575L1547.45 270.54Z" fill="#626262"/>
<path d="M1577.2 252.507L1583.45 264.805L1542.26 253.488L1508.22 271.747L1491.12 300.343L1488.41 274.916L1502.5 248.885L1539.4 235.681L1577.2 252.507Z" fill="#626262"/>
<path d="M1347.97 195.314L1368.68 164.002L1391.27 152.684L1395.79 135.783L1455.81 90.0587L1486.98 88.0215L1564.1 156.079L1609.28 162.87L1646.55 135.783L1629.61 133.519L1612.67 124.465L1638.65 104.093L1621.7 102.961L1578.78 81.4572L1599.11 47.5038L1582.17 35.0542L1583.3 50.8991L1542.63 59.9534L1543.76 48.6356H1496.32L1485.02 56.558L1490.67 26L1447.75 52.0309L1386.3 56.1053L1371.24 90.0587L1310.99 110.431L1306.48 158.72L1347.97 195.314Z" fill="white"/>
<path d="M1470.72 273.784L1439.09 254.544L1403.69 257.788L1395.19 278.085H1374.55L1347.74 258.769L1312.35 263.9L1293.15 287.969L1307.53 323.733L1334.79 336.032L1357.76 326.072L1374.02 287.969L1387.81 295.514L1385.02 302.079L1420.49 334.146L1449.18 329.845L1476.89 290.308L1470.72 273.784Z" fill="#626262"/>
<path d="M1301.81 289.403L1314.68 269.559L1341.94 277.557L1354.9 310.529L1335.24 329.392L1312.8 320.489L1301.81 289.403Z" fill="#00D4F1"/>
<path d="M1396.99 285.63L1401.28 305.398L1426.21 327.959L1447.75 312.415L1446.32 282.31L1415.22 264.881L1396.99 285.63Z" fill="#00D4F1"/>
<path d="M1368.6 382.209L1433.52 375.418L1449.71 387.867H1442.63L1433.52 381.68L1368.6 387.867V382.209Z" fill="#7F7F7F"/>
<path d="M1503.78 102.131L1449.56 148.911L1522.6 116.467L1503.78 102.131Z" fill="white"/>
<path d="M1534.65 129.294L1491.73 160.229L1550.47 142.875L1534.65 129.294Z" fill="white"/>
<path d="M1290.66 274.916L1307.98 254.544L1439.01 243.226L1480.43 264.353L1484.2 258.316L1442.03 231.154L1302.71 247.753L1289.91 267.371L1290.66 274.916Z" fill="#626262"/>
<path d="M1320.78 265.107L1326.05 249.262L1336.6 248.508L1332.08 265.107H1320.78Z" fill="#626262"/>
<path d="M1411.9 259.826L1417.17 241.717L1426.96 239.454L1423.2 258.316L1411.9 259.826Z" fill="#626262"/>
</g>
<g clip-path="url(#clip4_1584_11)">
<path d="M595 68.0898L663.012 0H856.886L872 15.1311V536.072L806.147 602H621.989L595 574.98V68.0898Z" fill="#FAFF00"/>
<path d="M994.644 368.904L1059.69 247.324L1068.83 217.645L1101.53 235.276L1012.99 404.166L994.644 368.904Z" fill="#626262"/>
<path d="M1014.61 344.368L1019.99 353.11L1033.1 352.595L1024.92 342.311L1014.61 344.368Z" fill="white"/>
<path d="M1025.58 324.312L1030.96 333.054L1044.07 332.54L1035.82 322.255L1025.58 324.312Z" fill="white"/>
<path d="M1036.56 302.788L1041.94 311.53L1055.05 311.016L1046.87 300.731L1036.56 302.788Z" fill="white"/>
<path d="M1047.32 281.557L1052.69 290.299L1065.81 289.785L1057.56 279.5L1047.32 281.557Z" fill="white"/>
<path d="M1058.44 263.265L1063.82 271.934L1076.93 271.493L1068.75 261.135L1058.44 263.265Z" fill="white"/>
<path d="M1066.98 244.238L1072.36 252.907L1085.48 252.466L1077.3 242.108L1066.98 244.238Z" fill="white"/>
<path d="M1025.58 474.616L1090.71 353.11L1099.77 323.431L1132.47 340.988L1043.93 509.952L1025.58 474.616Z" fill="#626262"/>
<path d="M1045.62 450.153L1051 458.822L1064.11 458.381L1055.93 448.023L1045.62 450.153Z" fill="white"/>
<path d="M1056.52 430.098L1061.9 438.767L1075.01 438.252L1066.84 427.968L1056.52 430.098Z" fill="white"/>
<path d="M1067.57 408.574L1072.95 417.242L1086.06 416.801L1077.89 406.443L1067.57 408.574Z" fill="white"/>
<path d="M1078.26 387.343L1083.63 396.012L1096.75 395.497L1088.57 385.213L1078.26 387.343Z" fill="white"/>
<path d="M1089.38 368.978L1094.76 377.72L1107.94 377.205L1099.69 366.921L1089.38 368.978Z" fill="white"/>
<path d="M1097.93 349.951L1103.3 358.693L1116.49 358.179L1108.24 347.894L1097.93 349.951Z" fill="white"/>
<path d="M1068.83 217.645L1101.53 235.276L1107.06 225.432L1073.91 207.434L1068.83 217.645Z" fill="#484D49"/>
<path d="M1099.77 323.357L1132.47 340.915L1138 331.071L1104.85 313.073L1099.77 323.357Z" fill="#484D49"/>
<path d="M768.56 428.556L834.123 327.177L761.93 121.483L794.343 97.2403L879.797 76.6707L974.68 135.735L987.645 220.363L957.884 330.116L936.521 339.666L938.362 415.112L1004.88 445.966L1086.95 524.13L1099.99 601.927H656.512L725.833 493.937L826.757 435.461L768.56 428.556Z" fill="#484D49"/>
<path d="M1018.66 363.174L1031.99 463.891L1096.67 526.04L1109.49 602L655.923 601.853L727.159 491.292L764.729 470.649L779.315 433.698L832.282 431.421L824.326 514.286L937.331 340.033L1018.66 363.174Z" fill="#D8D8D8"/>
<path d="M764.729 470.649L819.095 516.343L751.469 478.143L764.729 470.649Z" fill="#626262"/>
<path d="M1042.38 473.588L1031.99 463.891L824.62 518.547L767.528 601.927H802.226L862.411 510.76L1042.38 473.588Z" fill="#626262"/>
<path d="M975.785 350.979L937.257 432.229L863.369 508.336L893.278 500.402L950.517 443.468L993.023 356.048L975.785 350.979Z" fill="white"/>
<path d="M810.034 508.629L812.023 447.435L799.5 448.023L798.616 498.859L810.034 508.629Z" fill="white"/>
<path d="M923.85 602L963.114 546.977L934.679 601.927L923.85 602Z" fill="#626262"/>
<path d="M1059.54 490.337L1013.58 536.178L1063.96 494.672L1059.54 490.337Z" fill="#626262"/>
<path d="M856.665 601.927L884.291 561.522L863.295 601.927H856.665Z" fill="#626262"/>
<path d="M1100.06 545.361L1046.28 569.603L1028.46 602H1047.68L1056.6 581.357L1103.01 560.788L1100.06 545.361Z" fill="white"/>
<path d="M720.971 602L764.14 533.607L727.895 602H720.971Z" fill="#626262"/>
<path d="M684.579 557.335L692.756 576.949L678.317 601.927H667.415L681.338 577.684L677.875 567.767L684.579 557.335Z" fill="white"/>
<path d="M645.683 601.927L667.341 601.853L681.338 577.684L674.855 559.025L645.683 601.927Z" fill="#626262"/>
<path d="M1047.68 602L1128.05 601.927L1116.27 554.176L1056.6 581.357L1047.68 602Z" fill="#626262"/>
<path d="M727.159 491.292L748.522 514.947L732.094 488.648L727.159 491.292Z" fill="#626262"/>
<path d="M916.262 125.891L929.891 229.619L850.477 300.364L858.728 328.941L812.981 351.934L733.568 397.701L686.347 405.856L668.741 380.878L704.911 315.57L684.579 218.012L742.481 124.935L872.725 91.3632L916.262 125.891Z" fill="#D8D8D8"/>
<path d="M762.224 429.364L759.793 449.125L821.379 447.141L935.047 338.05L930.848 309.473L947.423 260.547L939.394 252.613L886.943 349.73L813.497 423.119L799.647 411.512L791.47 423.634L776.221 424.956L760.456 414.965L762.224 429.364Z" fill="#626262"/>
<path d="M747.123 376.544L765.171 399.464L788.155 408.868L778.505 357.811L747.123 376.544Z" fill="white"/>
<path d="M705.943 402.403L717.95 412.32L740.05 416.508L733.568 397.701L705.943 402.403Z" fill="white"/>
<path d="M706.606 380.952L709.258 366.48L720.529 367.802L743.365 363.247L706.606 380.952Z" fill="#626262"/>
<path d="M794.564 297.499L796.037 251.217L857.328 209.27L841.858 255.992L804.141 280.529L794.564 297.499Z" fill="#626262"/>
<path d="M803.699 273.917L805.172 257.021L832.134 238.288L827.051 259.886L803.699 273.917Z" fill="#484D49"/>
<path d="M791.691 157.994L794.785 184.22L846.352 183.926L864.769 154.1L863.885 128.168L792.575 91.1428L764.876 135.294L791.691 157.994Z" fill="#484D49"/>
<path d="M770.991 136.249L790.365 137.571L795.153 97.3871L732.315 58.2317L692.314 6.44078L675.297 6L713.309 80.197L770.991 136.249Z" fill="#98BE80"/>
<path d="M734.157 138.012L712.278 126.405L684.579 170.556L703.585 187.085L734.157 138.012Z" fill="#484D49"/>
<path d="M690.694 171.511L710.068 172.833L714.856 132.649L652.018 93.4937L612.017 41.7027L595 41.2619L633.012 115.459L690.694 171.511Z" fill="#98BE80"/>
<path d="M769.444 322.035L810.476 307.269L849.004 272.815L822.189 316.746L769.444 322.035Z" fill="#626262"/>
<path d="M931.364 136.983L942.414 101.648L985.877 84.7516L992.508 101.648L931.364 136.983Z" fill="#484D49"/>
<path d="M987.351 88.4982L1049.23 64.1822L1044.07 72.9977L991.182 98.4156L987.351 88.4982Z" fill="#626262"/>
<path d="M925.691 197.222L1002.82 180.987L996.928 212.576L928.638 219.922L925.691 197.222Z" fill="#626262"/>
<path d="M1000.83 191.492L1012.4 190.537L1042.16 115.826L1061.02 123.687L1043.34 209.638L996.928 212.576L1000.83 191.492Z" fill="#484D49"/>
<path d="M1046.95 125.229L972.396 135.441L962.304 152.337L978.732 177.314L1004.29 168.499L1011.66 156.01L1041.05 140.656L1046.95 125.229Z" fill="#626262"/>
<path d="M985.362 141.318L975.564 147.856L977.185 159.096L992.729 160.418L998.401 149.178L985.362 141.318Z" fill="#484D49"/>
<path d="M905.212 117.075L942.414 101.648L934.311 127.36L917.735 136.543L916.262 125.891L905.212 117.075Z" fill="#626262"/>
<path d="M770.033 287.508L781.083 219.188L835.597 204.495L790.66 230.942L770.033 287.508Z" fill="#626262"/>
<path d="M681.927 369.198L697.545 363.541L725.833 314.101L709.552 216.617L755.3 121.483L742.481 124.935L698.576 217.425L713.825 313.44L681.927 369.198Z" fill="white"/>
<path d="M689.22 240.492L700.491 294.634L684.358 246.81L689.22 240.492Z" fill="#626262"/>
<path d="M668.741 380.878L682.369 388.372L675.076 389.767L668.741 380.878Z" fill="#626262"/>
<path d="M886.943 349.73L893.425 304.771L884.585 291.181L906.685 266.938L900.792 255.552L906.317 250.409L915.525 269.509L893.057 292.283L901.16 304.037L894.899 336.36L886.943 349.73Z" fill="#626262"/>
<path d="M868.6 284.275L882.375 308.445L876.114 361.337L869.336 367.655L875.377 311.016L863.222 289.344L868.6 284.275Z" fill="#626262"/>
<path d="M1014.61 211.474L1001.35 257.755L973.354 271.713L971.144 280.529L1008.71 262.163L1023.82 210.372L1014.61 211.474Z" fill="#484D49"/>
</g>
<defs>
<clipPath id="clip0_1584_11">
<rect width="277" height="602" fill="white" transform="translate(893)"/>
</clipPath>
<clipPath id="clip1_1584_11">
<rect width="277" height="602" fill="white" transform="translate(298)"/>
</clipPath>
<clipPath id="clip2_1584_11">
<rect width="277" height="602" fill="white"/>
</clipPath>
<clipPath id="clip3_1584_11">
<rect width="277" height="602" fill="white" transform="translate(1193)"/>
</clipPath>
<clipPath id="clip4_1584_11">
<rect width="277" height="602" fill="white" transform="translate(595)"/>
</clipPath>
</defs>
</svg>
