<svg width="320" height="287" viewBox="0 0 320 287" fill="none" xmlns="http://www.w3.org/2000/svg">
<path d="M0 16.4363L10.3045 6H55.9879L67.3229 17.4799H310.726L320 26.8726V273.5L306.5 287H13.5L0 273.5V16.4363Z" fill="#2A2A2A"/>
<path d="M178 10.5H79L72 17.5H185L178 10.5Z" fill="white"/>
<path d="M152 3C152 4.65685 150.657 6 149 6C147.343 6 146 4.65685 146 3C146 1.34315 147.343 0 149 0C150.657 0 152 1.34315 152 3Z" fill="white"/>
<path d="M250 11C250 12.6569 248.657 14 247 14C245.343 14 244 12.6569 244 11C244 9.34315 245.343 8 247 8C248.657 8 250 9.34315 250 11Z" fill="white"/>
<path fill-rule="evenodd" clip-rule="evenodd" d="M184.293 3.5H149.5V2.5H184.707L192.707 10.5H245.5V11.5H192.293L184.293 3.5Z" fill="white"/>
<path d="M264 7H267V17H264V7Z" fill="white"/>
<path d="M271 7H274V17H271V7Z" fill="white"/>
<path d="M278 7H281V17H278V7Z" fill="white"/>
<path d="M285 7H288V17H285V7Z" fill="white"/>
<path d="M292 7H295V17H292V7Z" fill="white"/>
</svg>
