<svg width="4037" height="1570" viewBox="0 0 4037 1570" fill="none" xmlns="http://www.w3.org/2000/svg">
<g clip-path="url(#clip0_2098_1025)">
<path d="M1994.72 362.982L1998.09 366.35H2002.85H2621.87L2647.5 391.985V1383.04L2513.21 1516.5H1441.55L1390.5 1465.77V716.263L1445.13 661.632L1448.5 658.263V653.5V517.5V512.737L1445.13 509.368L1390.5 454.737V397.56L1529.41 259.5H1891.24L1994.72 362.982Z" fill="#BEBEBE" stroke="#FAFF00" stroke-width="23"/>
<path d="M2006 348L1917 259H2173L2262 348H2006Z" fill="#FAFF00"/>
<path d="M2271 348L2182 259H2432L2521 348H2271Z" fill="#FAFF00"/>
<path d="M2075.05 319V309.064C2075.05 308.128 2075.28 307.288 2075.74 306.544C2076.19 305.8 2076.79 305.212 2077.54 304.78C2078.28 304.324 2079.11 304.096 2080.02 304.096H2095.57C2095.69 304.096 2095.79 304.06 2095.86 303.988C2095.96 303.892 2096 303.784 2096 303.664V298.228C2096 298.108 2095.96 298.012 2095.86 297.94C2095.79 297.844 2095.69 297.796 2095.57 297.796H2080.2C2080.08 297.796 2079.97 297.844 2079.88 297.94C2079.8 298.012 2079.77 298.108 2079.77 298.228V299.992H2075.05V298.048C2075.05 297.112 2075.28 296.272 2075.74 295.528C2076.19 294.784 2076.79 294.196 2077.54 293.764C2078.28 293.308 2079.11 293.08 2080.02 293.08H2095.75C2096.66 293.08 2097.49 293.308 2098.24 293.764C2099 294.196 2099.6 294.784 2100.04 295.528C2100.49 296.272 2100.72 297.112 2100.72 298.048V303.88C2100.72 304.768 2100.49 305.596 2100.04 306.364C2099.6 307.108 2099 307.708 2098.24 308.164C2097.49 308.62 2096.66 308.848 2095.75 308.848H2080.2C2080.08 308.848 2079.97 308.896 2079.88 308.992C2079.8 309.064 2079.77 309.16 2079.77 309.28V313.852C2079.77 313.972 2079.8 314.08 2079.88 314.176C2079.97 314.248 2080.08 314.284 2080.2 314.284H2100.72V319H2075.05ZM2104.83 319V314.284H2109.54V319H2104.83ZM2118.06 319C2117.15 319 2116.32 318.772 2115.58 318.316C2114.83 317.86 2114.23 317.26 2113.78 316.516C2113.32 315.772 2113.09 314.944 2113.09 314.032V312.34H2117.81V313.852C2117.81 313.972 2117.84 314.08 2117.92 314.176C2118.01 314.248 2118.12 314.284 2118.24 314.284H2133.61C2133.73 314.284 2133.83 314.248 2133.9 314.176C2134 314.08 2134.04 313.972 2134.04 313.852V308.596C2134.04 308.476 2134 308.38 2133.9 308.308C2133.83 308.212 2133.73 308.164 2133.61 308.164H2113.09V293.08H2138.76V297.796H2118.24C2118.12 297.796 2118.01 297.844 2117.92 297.94C2117.84 298.012 2117.81 298.108 2117.81 298.228V302.98C2117.81 303.1 2117.84 303.208 2117.92 303.304C2118.01 303.376 2118.12 303.412 2118.24 303.412H2133.79C2134.7 303.412 2135.53 303.64 2136.28 304.096C2137.04 304.528 2137.64 305.128 2138.08 305.896C2138.53 306.64 2138.76 307.468 2138.76 308.38V314.032C2138.76 314.944 2138.53 315.772 2138.08 316.516C2137.62 317.26 2137.02 317.86 2136.28 318.316C2135.53 318.772 2134.7 319 2133.79 319H2118.06ZM2147.94 319C2147.03 319 2146.2 318.772 2145.46 318.316C2144.71 317.86 2144.11 317.26 2143.66 316.516C2143.2 315.772 2142.97 314.944 2142.97 314.032V308.38C2142.97 307.948 2143.05 307.516 2143.19 307.084C2143.33 306.628 2143.51 306.196 2143.73 305.788C2143.51 305.38 2143.33 304.96 2143.19 304.528C2143.05 304.072 2142.97 303.616 2142.97 303.16V298.048C2142.97 297.112 2143.2 296.272 2143.66 295.528C2144.11 294.784 2144.71 294.196 2145.46 293.764C2146.2 293.308 2147.03 293.08 2147.94 293.08H2163.67C2164.47 293.08 2165.21 293.26 2165.91 293.62C2166.6 293.98 2167.19 294.472 2167.67 295.096C2168.17 295.72 2168.5 296.404 2168.64 297.148V303.16C2168.64 304.048 2168.39 304.924 2167.89 305.788C2168.39 306.58 2168.64 307.444 2168.64 308.38V314.032C2168.64 314.944 2168.41 315.772 2167.96 316.516C2167.5 317.26 2166.9 317.86 2166.16 318.316C2165.41 318.772 2164.59 319 2163.67 319H2147.94ZM2148.12 314.284H2163.49C2163.61 314.284 2163.71 314.248 2163.78 314.176C2163.88 314.08 2163.93 313.972 2163.93 313.852V308.596C2163.93 308.476 2163.88 308.38 2163.78 308.308C2163.71 308.212 2163.61 308.164 2163.49 308.164H2148.12C2148 308.164 2147.89 308.212 2147.8 308.308C2147.73 308.38 2147.69 308.476 2147.69 308.596V313.852C2147.69 313.972 2147.73 314.08 2147.8 314.176C2147.89 314.248 2148 314.284 2148.12 314.284ZM2148.12 303.808H2163.49C2163.61 303.808 2163.71 303.76 2163.78 303.664C2163.88 303.568 2163.93 303.472 2163.93 303.376V298.264C2163.93 298.144 2163.88 298.048 2163.78 297.976C2163.71 297.88 2163.61 297.832 2163.49 297.832H2148.12C2148 297.832 2147.89 297.88 2147.8 297.976C2147.73 298.048 2147.69 298.144 2147.69 298.264V303.376C2147.69 303.472 2147.73 303.568 2147.8 303.664C2147.89 303.76 2148 303.808 2148.12 303.808Z" fill="black"/>
<path d="M2333.05 319V309.064C2333.05 308.128 2333.28 307.288 2333.74 306.544C2334.19 305.8 2334.79 305.212 2335.54 304.78C2336.28 304.324 2337.11 304.096 2338.02 304.096H2353.57C2353.69 304.096 2353.79 304.06 2353.86 303.988C2353.96 303.892 2354 303.784 2354 303.664V298.228C2354 298.108 2353.96 298.012 2353.86 297.94C2353.79 297.844 2353.69 297.796 2353.57 297.796H2338.2C2338.08 297.796 2337.97 297.844 2337.88 297.94C2337.8 298.012 2337.77 298.108 2337.77 298.228V299.992H2333.05V298.048C2333.05 297.112 2333.28 296.272 2333.74 295.528C2334.19 294.784 2334.79 294.196 2335.54 293.764C2336.28 293.308 2337.11 293.08 2338.02 293.08H2353.75C2354.66 293.08 2355.49 293.308 2356.24 293.764C2357 294.196 2357.6 294.784 2358.04 295.528C2358.49 296.272 2358.72 297.112 2358.72 298.048V303.88C2358.72 304.768 2358.49 305.596 2358.04 306.364C2357.6 307.108 2357 307.708 2356.24 308.164C2355.49 308.62 2354.66 308.848 2353.75 308.848H2338.2C2338.08 308.848 2337.97 308.896 2337.88 308.992C2337.8 309.064 2337.77 309.16 2337.77 309.28V313.852C2337.77 313.972 2337.8 314.08 2337.88 314.176C2337.97 314.248 2338.08 314.284 2338.2 314.284H2358.72V319H2333.05ZM2362.83 319V314.284H2367.54V319H2362.83ZM2376.06 319C2375.15 319 2374.32 318.772 2373.58 318.316C2372.83 317.86 2372.23 317.26 2371.78 316.516C2371.32 315.772 2371.09 314.944 2371.09 314.032V298.048C2371.09 297.112 2371.32 296.272 2371.78 295.528C2372.23 294.784 2372.83 294.196 2373.58 293.764C2374.32 293.308 2375.15 293.08 2376.06 293.08H2392.66V297.796H2376.24C2376.12 297.796 2376.01 297.844 2375.92 297.94C2375.84 298.012 2375.81 298.108 2375.81 298.228V302.944C2375.81 303.064 2375.84 303.172 2375.92 303.268C2376.01 303.34 2376.12 303.376 2376.24 303.376H2391.79C2392.7 303.376 2393.53 303.604 2394.28 304.06C2395.04 304.492 2395.64 305.092 2396.08 305.86C2396.53 306.604 2396.76 307.432 2396.76 308.344V314.032C2396.76 314.944 2396.53 315.772 2396.08 316.516C2395.62 317.26 2395.02 317.86 2394.28 318.316C2393.53 318.772 2392.7 319 2391.79 319H2376.06ZM2376.24 314.284H2391.61C2391.73 314.284 2391.83 314.248 2391.9 314.176C2392 314.08 2392.04 313.972 2392.04 313.852V308.56C2392.04 308.44 2392 308.344 2391.9 308.272C2391.83 308.176 2391.73 308.128 2391.61 308.128H2375.81V313.852C2375.81 313.972 2375.84 314.08 2375.92 314.176C2376.01 314.248 2376.12 314.284 2376.24 314.284ZM2405.59 319C2404.68 319 2403.85 318.772 2403.11 318.316C2402.36 317.86 2401.76 317.26 2401.31 316.516C2400.85 315.772 2400.62 314.944 2400.62 314.032V312.34H2405.34V313.852C2405.34 313.972 2405.37 314.08 2405.45 314.176C2405.54 314.248 2405.65 314.284 2405.77 314.284H2421.14C2421.26 314.284 2421.36 314.248 2421.43 314.176C2421.53 314.08 2421.57 313.972 2421.57 313.852V308.596C2421.57 308.476 2421.53 308.38 2421.43 308.308C2421.36 308.212 2421.26 308.164 2421.14 308.164H2400.62V293.08H2426.29V297.796H2405.77C2405.65 297.796 2405.54 297.844 2405.45 297.94C2405.37 298.012 2405.34 298.108 2405.34 298.228V302.98C2405.34 303.1 2405.37 303.208 2405.45 303.304C2405.54 303.376 2405.65 303.412 2405.77 303.412H2421.32C2422.23 303.412 2423.06 303.64 2423.81 304.096C2424.57 304.528 2425.17 305.128 2425.61 305.896C2426.06 306.64 2426.29 307.468 2426.29 308.38V314.032C2426.29 314.944 2426.06 315.772 2425.61 316.516C2425.15 317.26 2424.55 317.86 2423.81 318.316C2423.06 318.772 2422.23 319 2421.32 319H2405.59Z" fill="black"/>
<path d="M2269 299.608L2275.44 281H2281.2L2283.23 284.101H2295.77L2298.14 281H2303.9L2310 299.608L2303.9 317.429L2289.67 332L2275.44 317.429L2269 299.608Z" fill="black"/>
<path d="M2283 296L2297 310M2283 310L2297 296" stroke="white" stroke-width="4" stroke-linejoin="bevel"/>
<path d="M2010 290.064L2017.62 281H2048.11L2055.73 290.064V312.725L2048.11 321.79V330.442H2041.18V321.79H2036.5V330.442H2029.75V321.79H2024.55V330.442H2017.62V321.79L2010 312.725V290.064Z" fill="black"/>
<path d="M2024.55 306.957L2015.2 300.777V298.305L2030.27 300.777L2027.67 306.957H2024.55Z" fill="white"/>
<path d="M2040.47 306.957L2049.5 300.777V298.305L2034.95 300.777L2037.46 306.957H2040.47Z" fill="white"/>
<path d="M1422 524.5L1388 490.5V679L1422 645V524.5Z" fill="#FF0C01"/>
<path d="M619.719 351.982L623.087 355.35H627.85H1246.87L1272.5 380.985V1372.04L1138.21 1505.5H66.5485L15.5 1454.77V705.263L70.1317 650.632L73.5 647.263V642.5V506.5V501.737L70.1317 498.368L15.5 443.737V386.56L154.413 248.5H516.237L619.719 351.982Z" fill="#BEBEBE" stroke="#FAFF00" stroke-width="23"/>
<path d="M631 337L542 248H798L887 337H631Z" fill="#FAFF00"/>
<path d="M896 337L807 248H1057L1146 337H896Z" fill="#FAFF00"/>
<path d="M700.052 308V298.064C700.052 297.128 700.28 296.288 700.736 295.544C701.192 294.8 701.792 294.212 702.536 293.78C703.28 293.324 704.108 293.096 705.02 293.096H720.572C720.692 293.096 720.788 293.06 720.86 292.988C720.956 292.892 721.004 292.784 721.004 292.664V287.228C721.004 287.108 720.956 287.012 720.86 286.94C720.788 286.844 720.692 286.796 720.572 286.796H705.2C705.08 286.796 704.972 286.844 704.876 286.94C704.804 287.012 704.768 287.108 704.768 287.228V288.992H700.052V287.048C700.052 286.112 700.28 285.272 700.736 284.528C701.192 283.784 701.792 283.196 702.536 282.764C703.28 282.308 704.108 282.08 705.02 282.08H720.752C721.664 282.08 722.492 282.308 723.236 282.764C724.004 283.196 724.604 283.784 725.036 284.528C725.492 285.272 725.72 286.112 725.72 287.048V292.88C725.72 293.768 725.492 294.596 725.036 295.364C724.604 296.108 724.004 296.708 723.236 297.164C722.492 297.62 721.664 297.848 720.752 297.848H705.2C705.08 297.848 704.972 297.896 704.876 297.992C704.804 298.064 704.768 298.16 704.768 298.28V302.852C704.768 302.972 704.804 303.08 704.876 303.176C704.972 303.248 705.08 303.284 705.2 303.284H725.72V308H700.052ZM729.827 308V303.284H734.543V308H729.827ZM743.059 308C742.147 308 741.319 307.772 740.575 307.316C739.831 306.86 739.231 306.26 738.775 305.516C738.319 304.772 738.091 303.944 738.091 303.032V301.34H742.807V302.852C742.807 302.972 742.843 303.08 742.915 303.176C743.011 303.248 743.119 303.284 743.239 303.284H758.611C758.731 303.284 758.827 303.248 758.899 303.176C758.995 303.08 759.043 302.972 759.043 302.852V297.596C759.043 297.476 758.995 297.38 758.899 297.308C758.827 297.212 758.731 297.164 758.611 297.164H738.091V282.08H763.759V286.796H743.239C743.119 286.796 743.011 286.844 742.915 286.94C742.843 287.012 742.807 287.108 742.807 287.228V291.98C742.807 292.1 742.843 292.208 742.915 292.304C743.011 292.376 743.119 292.412 743.239 292.412H758.791C759.703 292.412 760.531 292.64 761.275 293.096C762.043 293.528 762.643 294.128 763.075 294.896C763.531 295.64 763.759 296.468 763.759 297.38V303.032C763.759 303.944 763.531 304.772 763.075 305.516C762.619 306.26 762.019 306.86 761.275 307.316C760.531 307.772 759.703 308 758.791 308H743.059ZM772.942 308C772.03 308 771.202 307.772 770.458 307.316C769.714 306.86 769.114 306.26 768.658 305.516C768.202 304.772 767.974 303.944 767.974 303.032V297.38C767.974 296.948 768.046 296.516 768.19 296.084C768.334 295.628 768.514 295.196 768.73 294.788C768.514 294.38 768.334 293.96 768.19 293.528C768.046 293.072 767.974 292.616 767.974 292.16V287.048C767.974 286.112 768.202 285.272 768.658 284.528C769.114 283.784 769.714 283.196 770.458 282.764C771.202 282.308 772.03 282.08 772.942 282.08H788.674C789.466 282.08 790.21 282.26 790.906 282.62C791.602 282.98 792.19 283.472 792.67 284.096C793.174 284.72 793.498 285.404 793.642 286.148V292.16C793.642 293.048 793.39 293.924 792.886 294.788C793.39 295.58 793.642 296.444 793.642 297.38V303.032C793.642 303.944 793.414 304.772 792.958 305.516C792.502 306.26 791.902 306.86 791.158 307.316C790.414 307.772 789.586 308 788.674 308H772.942ZM773.122 303.284H788.494C788.614 303.284 788.71 303.248 788.782 303.176C788.878 303.08 788.926 302.972 788.926 302.852V297.596C788.926 297.476 788.878 297.38 788.782 297.308C788.71 297.212 788.614 297.164 788.494 297.164H773.122C773.002 297.164 772.894 297.212 772.798 297.308C772.726 297.38 772.69 297.476 772.69 297.596V302.852C772.69 302.972 772.726 303.08 772.798 303.176C772.894 303.248 773.002 303.284 773.122 303.284ZM773.122 292.808H788.494C788.614 292.808 788.71 292.76 788.782 292.664C788.878 292.568 788.926 292.472 788.926 292.376V287.264C788.926 287.144 788.878 287.048 788.782 286.976C788.71 286.88 788.614 286.832 788.494 286.832H773.122C773.002 286.832 772.894 286.88 772.798 286.976C772.726 287.048 772.69 287.144 772.69 287.264V292.376C772.69 292.472 772.726 292.568 772.798 292.664C772.894 292.76 773.002 292.808 773.122 292.808Z" fill="black"/>
<path d="M958.052 308V298.064C958.052 297.128 958.28 296.288 958.736 295.544C959.192 294.8 959.792 294.212 960.536 293.78C961.28 293.324 962.108 293.096 963.02 293.096H978.572C978.692 293.096 978.788 293.06 978.86 292.988C978.956 292.892 979.004 292.784 979.004 292.664V287.228C979.004 287.108 978.956 287.012 978.86 286.94C978.788 286.844 978.692 286.796 978.572 286.796H963.2C963.08 286.796 962.972 286.844 962.876 286.94C962.804 287.012 962.768 287.108 962.768 287.228V288.992H958.052V287.048C958.052 286.112 958.28 285.272 958.736 284.528C959.192 283.784 959.792 283.196 960.536 282.764C961.28 282.308 962.108 282.08 963.02 282.08H978.752C979.664 282.08 980.492 282.308 981.236 282.764C982.004 283.196 982.604 283.784 983.036 284.528C983.492 285.272 983.72 286.112 983.72 287.048V292.88C983.72 293.768 983.492 294.596 983.036 295.364C982.604 296.108 982.004 296.708 981.236 297.164C980.492 297.62 979.664 297.848 978.752 297.848H963.2C963.08 297.848 962.972 297.896 962.876 297.992C962.804 298.064 962.768 298.16 962.768 298.28V302.852C962.768 302.972 962.804 303.08 962.876 303.176C962.972 303.248 963.08 303.284 963.2 303.284H983.72V308H958.052ZM987.827 308V303.284H992.543V308H987.827ZM1001.06 308C1000.15 308 999.319 307.772 998.575 307.316C997.831 306.86 997.231 306.26 996.775 305.516C996.319 304.772 996.091 303.944 996.091 303.032V287.048C996.091 286.112 996.319 285.272 996.775 284.528C997.231 283.784 997.831 283.196 998.575 282.764C999.319 282.308 1000.15 282.08 1001.06 282.08H1017.66V286.796H1001.24C1001.12 286.796 1001.01 286.844 1000.92 286.94C1000.84 287.012 1000.81 287.108 1000.81 287.228V291.944C1000.81 292.064 1000.84 292.172 1000.92 292.268C1001.01 292.34 1001.12 292.376 1001.24 292.376H1016.79C1017.7 292.376 1018.53 292.604 1019.28 293.06C1020.04 293.492 1020.64 294.092 1021.08 294.86C1021.53 295.604 1021.76 296.432 1021.76 297.344V303.032C1021.76 303.944 1021.53 304.772 1021.08 305.516C1020.62 306.26 1020.02 306.86 1019.28 307.316C1018.53 307.772 1017.7 308 1016.79 308H1001.06ZM1001.24 303.284H1016.61C1016.73 303.284 1016.83 303.248 1016.9 303.176C1017 303.08 1017.04 302.972 1017.04 302.852V297.56C1017.04 297.44 1017 297.344 1016.9 297.272C1016.83 297.176 1016.73 297.128 1016.61 297.128H1000.81V302.852C1000.81 302.972 1000.84 303.08 1000.92 303.176C1001.01 303.248 1001.12 303.284 1001.24 303.284ZM1030.59 308C1029.68 308 1028.85 307.772 1028.11 307.316C1027.36 306.86 1026.76 306.26 1026.31 305.516C1025.85 304.772 1025.62 303.944 1025.62 303.032V301.34H1030.34V302.852C1030.34 302.972 1030.37 303.08 1030.45 303.176C1030.54 303.248 1030.65 303.284 1030.77 303.284H1046.14C1046.26 303.284 1046.36 303.248 1046.43 303.176C1046.53 303.08 1046.57 302.972 1046.57 302.852V297.596C1046.57 297.476 1046.53 297.38 1046.43 297.308C1046.36 297.212 1046.26 297.164 1046.14 297.164H1025.62V282.08H1051.29V286.796H1030.77C1030.65 286.796 1030.54 286.844 1030.45 286.94C1030.37 287.012 1030.34 287.108 1030.34 287.228V291.98C1030.34 292.1 1030.37 292.208 1030.45 292.304C1030.54 292.376 1030.65 292.412 1030.77 292.412H1046.32C1047.23 292.412 1048.06 292.64 1048.81 293.096C1049.57 293.528 1050.17 294.128 1050.61 294.896C1051.06 295.64 1051.29 296.468 1051.29 297.38V303.032C1051.29 303.944 1051.06 304.772 1050.61 305.516C1050.15 306.26 1049.55 306.86 1048.81 307.316C1048.06 307.772 1047.23 308 1046.32 308H1030.59Z" fill="black"/>
<path d="M894 288.608L900.438 270H906.198L908.231 273.101H920.769L923.14 270H928.901L935 288.608L928.901 306.429L914.669 321L900.438 306.429L894 288.608Z" fill="black"/>
<path d="M908 285L922 299M908 299L922 285" stroke="white" stroke-width="4" stroke-linejoin="bevel"/>
<path d="M635 279.064L642.622 270H673.112L680.734 279.064V301.725L673.112 310.79V319.442H666.182V310.79H661.505V319.442H654.749V310.79H649.552V319.442H642.622V310.79L635 301.725V279.064Z" fill="black"/>
<path d="M649.552 295.957L640.197 289.777V287.305L655.269 289.777L652.67 295.957H649.552Z" fill="white"/>
<path d="M665.466 295.957L674.498 289.777V287.305L659.946 289.777L662.455 295.957H665.466Z" fill="white"/>
<path d="M47 513.5L13 479.5V668L47 634V513.5Z" fill="#C6C6C6"/>
<path d="M3368.72 351.982L3372.09 355.35H3376.85H3995.87L4021.5 380.985V1372.04L3887.21 1505.5H2815.55L2764.5 1454.77V705.263L2819.13 650.632L2822.5 647.263V642.5V506.5V501.737L2819.13 498.368L2764.5 443.737V386.56L2903.41 248.5H3265.24L3368.72 351.982Z" fill="#BEBEBE" stroke="#FAFF00" stroke-width="23"/>
<path d="M3380 337L3291 248H3547L3636 337H3380Z" fill="#FAFF00"/>
<path d="M3645 337L3556 248H3806L3895 337H3645Z" fill="#FAFF00"/>
<path d="M3449.05 308V298.064C3449.05 297.128 3449.28 296.288 3449.74 295.544C3450.19 294.8 3450.79 294.212 3451.54 293.78C3452.28 293.324 3453.11 293.096 3454.02 293.096H3469.57C3469.69 293.096 3469.79 293.06 3469.86 292.988C3469.96 292.892 3470 292.784 3470 292.664V287.228C3470 287.108 3469.96 287.012 3469.86 286.94C3469.79 286.844 3469.69 286.796 3469.57 286.796H3454.2C3454.08 286.796 3453.97 286.844 3453.88 286.94C3453.8 287.012 3453.77 287.108 3453.77 287.228V288.992H3449.05V287.048C3449.05 286.112 3449.28 285.272 3449.74 284.528C3450.19 283.784 3450.79 283.196 3451.54 282.764C3452.28 282.308 3453.11 282.08 3454.02 282.08H3469.75C3470.66 282.08 3471.49 282.308 3472.24 282.764C3473 283.196 3473.6 283.784 3474.04 284.528C3474.49 285.272 3474.72 286.112 3474.72 287.048V292.88C3474.72 293.768 3474.49 294.596 3474.04 295.364C3473.6 296.108 3473 296.708 3472.24 297.164C3471.49 297.62 3470.66 297.848 3469.75 297.848H3454.2C3454.08 297.848 3453.97 297.896 3453.88 297.992C3453.8 298.064 3453.77 298.16 3453.77 298.28V302.852C3453.77 302.972 3453.8 303.08 3453.88 303.176C3453.97 303.248 3454.08 303.284 3454.2 303.284H3474.72V308H3449.05ZM3478.83 308V303.284H3483.54V308H3478.83ZM3492.06 308C3491.15 308 3490.32 307.772 3489.58 307.316C3488.83 306.86 3488.23 306.26 3487.78 305.516C3487.32 304.772 3487.09 303.944 3487.09 303.032V301.34H3491.81V302.852C3491.81 302.972 3491.84 303.08 3491.92 303.176C3492.01 303.248 3492.12 303.284 3492.24 303.284H3507.61C3507.73 303.284 3507.83 303.248 3507.9 303.176C3508 303.08 3508.04 302.972 3508.04 302.852V297.596C3508.04 297.476 3508 297.38 3507.9 297.308C3507.83 297.212 3507.73 297.164 3507.61 297.164H3487.09V282.08H3512.76V286.796H3492.24C3492.12 286.796 3492.01 286.844 3491.92 286.94C3491.84 287.012 3491.81 287.108 3491.81 287.228V291.98C3491.81 292.1 3491.84 292.208 3491.92 292.304C3492.01 292.376 3492.12 292.412 3492.24 292.412H3507.79C3508.7 292.412 3509.53 292.64 3510.28 293.096C3511.04 293.528 3511.64 294.128 3512.08 294.896C3512.53 295.64 3512.76 296.468 3512.76 297.38V303.032C3512.76 303.944 3512.53 304.772 3512.08 305.516C3511.62 306.26 3511.02 306.86 3510.28 307.316C3509.53 307.772 3508.7 308 3507.79 308H3492.06ZM3521.94 308C3521.03 308 3520.2 307.772 3519.46 307.316C3518.71 306.86 3518.11 306.26 3517.66 305.516C3517.2 304.772 3516.97 303.944 3516.97 303.032V297.38C3516.97 296.948 3517.05 296.516 3517.19 296.084C3517.33 295.628 3517.51 295.196 3517.73 294.788C3517.51 294.38 3517.33 293.96 3517.19 293.528C3517.05 293.072 3516.97 292.616 3516.97 292.16V287.048C3516.97 286.112 3517.2 285.272 3517.66 284.528C3518.11 283.784 3518.71 283.196 3519.46 282.764C3520.2 282.308 3521.03 282.08 3521.94 282.08H3537.67C3538.47 282.08 3539.21 282.26 3539.91 282.62C3540.6 282.98 3541.19 283.472 3541.67 284.096C3542.17 284.72 3542.5 285.404 3542.64 286.148V292.16C3542.64 293.048 3542.39 293.924 3541.89 294.788C3542.39 295.58 3542.64 296.444 3542.64 297.38V303.032C3542.64 303.944 3542.41 304.772 3541.96 305.516C3541.5 306.26 3540.9 306.86 3540.16 307.316C3539.41 307.772 3538.59 308 3537.67 308H3521.94ZM3522.12 303.284H3537.49C3537.61 303.284 3537.71 303.248 3537.78 303.176C3537.88 303.08 3537.93 302.972 3537.93 302.852V297.596C3537.93 297.476 3537.88 297.38 3537.78 297.308C3537.71 297.212 3537.61 297.164 3537.49 297.164H3522.12C3522 297.164 3521.89 297.212 3521.8 297.308C3521.73 297.38 3521.69 297.476 3521.69 297.596V302.852C3521.69 302.972 3521.73 303.08 3521.8 303.176C3521.89 303.248 3522 303.284 3522.12 303.284ZM3522.12 292.808H3537.49C3537.61 292.808 3537.71 292.76 3537.78 292.664C3537.88 292.568 3537.93 292.472 3537.93 292.376V287.264C3537.93 287.144 3537.88 287.048 3537.78 286.976C3537.71 286.88 3537.61 286.832 3537.49 286.832H3522.12C3522 286.832 3521.89 286.88 3521.8 286.976C3521.73 287.048 3521.69 287.144 3521.69 287.264V292.376C3521.69 292.472 3521.73 292.568 3521.8 292.664C3521.89 292.76 3522 292.808 3522.12 292.808Z" fill="black"/>
<path d="M3707.05 308V298.064C3707.05 297.128 3707.28 296.288 3707.74 295.544C3708.19 294.8 3708.79 294.212 3709.54 293.78C3710.28 293.324 3711.11 293.096 3712.02 293.096H3727.57C3727.69 293.096 3727.79 293.06 3727.86 292.988C3727.96 292.892 3728 292.784 3728 292.664V287.228C3728 287.108 3727.96 287.012 3727.86 286.94C3727.79 286.844 3727.69 286.796 3727.57 286.796H3712.2C3712.08 286.796 3711.97 286.844 3711.88 286.94C3711.8 287.012 3711.77 287.108 3711.77 287.228V288.992H3707.05V287.048C3707.05 286.112 3707.28 285.272 3707.74 284.528C3708.19 283.784 3708.79 283.196 3709.54 282.764C3710.28 282.308 3711.11 282.08 3712.02 282.08H3727.75C3728.66 282.08 3729.49 282.308 3730.24 282.764C3731 283.196 3731.6 283.784 3732.04 284.528C3732.49 285.272 3732.72 286.112 3732.72 287.048V292.88C3732.72 293.768 3732.49 294.596 3732.04 295.364C3731.6 296.108 3731 296.708 3730.24 297.164C3729.49 297.62 3728.66 297.848 3727.75 297.848H3712.2C3712.08 297.848 3711.97 297.896 3711.88 297.992C3711.8 298.064 3711.77 298.16 3711.77 298.28V302.852C3711.77 302.972 3711.8 303.08 3711.88 303.176C3711.97 303.248 3712.08 303.284 3712.2 303.284H3732.72V308H3707.05ZM3736.83 308V303.284H3741.54V308H3736.83ZM3750.06 308C3749.15 308 3748.32 307.772 3747.58 307.316C3746.83 306.86 3746.23 306.26 3745.78 305.516C3745.32 304.772 3745.09 303.944 3745.09 303.032V287.048C3745.09 286.112 3745.32 285.272 3745.78 284.528C3746.23 283.784 3746.83 283.196 3747.58 282.764C3748.32 282.308 3749.15 282.08 3750.06 282.08H3766.66V286.796H3750.24C3750.12 286.796 3750.01 286.844 3749.92 286.94C3749.84 287.012 3749.81 287.108 3749.81 287.228V291.944C3749.81 292.064 3749.84 292.172 3749.92 292.268C3750.01 292.34 3750.12 292.376 3750.24 292.376H3765.79C3766.7 292.376 3767.53 292.604 3768.28 293.06C3769.04 293.492 3769.64 294.092 3770.08 294.86C3770.53 295.604 3770.76 296.432 3770.76 297.344V303.032C3770.76 303.944 3770.53 304.772 3770.08 305.516C3769.62 306.26 3769.02 306.86 3768.28 307.316C3767.53 307.772 3766.7 308 3765.79 308H3750.06ZM3750.24 303.284H3765.61C3765.73 303.284 3765.83 303.248 3765.9 303.176C3766 303.08 3766.04 302.972 3766.04 302.852V297.56C3766.04 297.44 3766 297.344 3765.9 297.272C3765.83 297.176 3765.73 297.128 3765.61 297.128H3749.81V302.852C3749.81 302.972 3749.84 303.08 3749.92 303.176C3750.01 303.248 3750.12 303.284 3750.24 303.284ZM3779.59 308C3778.68 308 3777.85 307.772 3777.11 307.316C3776.36 306.86 3775.76 306.26 3775.31 305.516C3774.85 304.772 3774.62 303.944 3774.62 303.032V301.34H3779.34V302.852C3779.34 302.972 3779.37 303.08 3779.45 303.176C3779.54 303.248 3779.65 303.284 3779.77 303.284H3795.14C3795.26 303.284 3795.36 303.248 3795.43 303.176C3795.53 303.08 3795.57 302.972 3795.57 302.852V297.596C3795.57 297.476 3795.53 297.38 3795.43 297.308C3795.36 297.212 3795.26 297.164 3795.14 297.164H3774.62V282.08H3800.29V286.796H3779.77C3779.65 286.796 3779.54 286.844 3779.45 286.94C3779.37 287.012 3779.34 287.108 3779.34 287.228V291.98C3779.34 292.1 3779.37 292.208 3779.45 292.304C3779.54 292.376 3779.65 292.412 3779.77 292.412H3795.32C3796.23 292.412 3797.06 292.64 3797.81 293.096C3798.57 293.528 3799.17 294.128 3799.61 294.896C3800.06 295.64 3800.29 296.468 3800.29 297.38V303.032C3800.29 303.944 3800.06 304.772 3799.61 305.516C3799.15 306.26 3798.55 306.86 3797.81 307.316C3797.06 307.772 3796.23 308 3795.32 308H3779.59Z" fill="black"/>
<path d="M3643 288.608L3649.44 270H3655.2L3657.23 273.101H3669.77L3672.14 270H3677.9L3684 288.608L3677.9 306.429L3663.67 321L3649.44 306.429L3643 288.608Z" fill="black"/>
<path d="M3657 285L3671 299M3657 299L3671 285" stroke="white" stroke-width="4" stroke-linejoin="bevel"/>
<path d="M3384 279.064L3391.62 270H3422.11L3429.73 279.064V301.725L3422.11 310.79V319.442H3415.18V310.79H3410.5V319.442H3403.75V310.79H3398.55V319.442H3391.62V310.79L3384 301.725V279.064Z" fill="black"/>
<path d="M3398.55 295.957L3389.2 289.777V287.305L3404.27 289.777L3401.67 295.957H3398.55Z" fill="white"/>
<path d="M3414.47 295.957L3423.5 289.777V287.305L3408.95 289.777L3411.46 295.957H3414.47Z" fill="white"/>
<path d="M2796 513.5L2762 479.5V668L2796 634V513.5Z" fill="#FF0C01"/>
<circle cx="3820.21" cy="727.21" r="265" transform="rotate(-14.2898 3820.21 727.21)" fill="url(#paint0_radial_2098_1025)"/>
<path d="M1707.74 1321.9L1597 1516L2499 1508L2539 1448.39L2410.78 1292.83L2247.58 1164.16L2164.53 1106L1980.94 1191.78L1843.25 1220.86L1707.74 1321.9Z" fill="#7F7F7F"/>
<path d="M332.738 1310.9L222 1505L1124 1497L1164 1437.39L1035.78 1281.83L872.585 1153.16L789.531 1095L605.94 1180.78L468.246 1209.86L332.738 1310.9Z" fill="#7F7F7F"/>
<path d="M3081.74 1310.9L2971 1505L3873 1497L3913 1437.39L3784.78 1281.83L3621.58 1153.16L3538.53 1095L3354.94 1180.78L3217.25 1209.86L3081.74 1310.9Z" fill="#7F7F7F"/>
<path d="M3069.62 1264.62L3111.9 1098.15L3085.68 1084.84L3015.12 1248.84L3074.15 1469.1C3098.72 1447.97 3122.6 1427.38 3145.67 1406.11L3069.62 1264.62Z" fill="#4B4B4B"/>
<path d="M3808.81 1043.67L3781.36 1060.55L3847.93 1222.08L3766.12 1381.27C3794.26 1410.91 3823.22 1438.5 3854.38 1463.75L3930.57 1245L3808.81 1043.67Z" fill="#4B4B4B"/>
<path d="M3605.93 641.708L3823.64 813.39L3805.1 850.032L3626.66 769.475L3605.93 641.708Z" fill="#4B4B4B"/>
<path d="M3252.6 641.708L3034.89 813.39L3053.42 850.032L3231.87 769.475L3252.6 641.708Z" fill="#4B4B4B"/>
<path d="M3352.12 1097.74V1185.02L3164.06 1294.26L3034.89 1496H3861.25L3836.95 1350.67L3684.03 1204.65L3560.08 1147.01V971.76L3352.12 1097.74Z" fill="#D5D5D5"/>
<path d="M3894.33 1420.11L3850.13 1429.58L3844.23 1394.58L3868.38 1403.23L3825.56 1280.27L3756.37 1275.33L3674.7 1203L3690.07 1196.14L3573.12 1113.25L3373.94 1232.37L3269.76 1209.18L3232.56 1243.9L3224.87 1213.43L3104.9 1309.22L3115.88 1330.22L3074.84 1358.76L3079.09 1402.41L3034.89 1440.69L3038.46 1462.38L3012.38 1495.86H3447.66L3448.07 1496V1495.86H3499.68H3540.86V1496L3885 1495.86L3894.33 1420.11Z" fill="#D5D5D5"/>
<path d="M3868.38 1403.23L3733.72 1366.31H3645.32L3742.51 1354.65L3861.25 1382.51L3868.38 1403.23Z" fill="#AAAAAA"/>
<path d="M3079.09 1402.41L3147.59 1457.3L3074.84 1358.76L3079.09 1402.41Z" fill="#AAAAAA"/>
<path d="M3115.88 1330.22L3135.23 1358.76L3257.4 1330.22L3269.76 1407.35L3461.11 1394.99L3266.74 1431.09L3235.44 1354.65L3132.49 1378.94L3115.88 1330.22Z" fill="#AAAAAA"/>
<path d="M3396.04 1339.41L3690.07 1196.14V1216.59L3511.62 1304.56L3396.04 1339.41Z" fill="#AAAAAA"/>
<path d="M3850.13 1429.58L3680.19 1463.06L3592.34 1452.08H3680.19L3848.34 1418.6L3850.13 1429.58Z" fill="#AAAAAA"/>
<path d="M3038.46 1462.38L3147.59 1483.65L3034.89 1440.69L3038.46 1462.38Z" fill="#AAAAAA"/>
<path d="M3257.4 1330.22L3373.94 1304.56L3235.44 1354.65L3257.4 1330.22Z" fill="#AAAAAA"/>
<path d="M3164.06 1294.26L3218.28 1463.34L3328.65 1426.28L3333.59 1190.79L3177.79 1258.58L3164.06 1294.26Z" fill="white"/>
<path d="M3544.29 1147.01H3560.08L3725.49 1222.9L3742.51 1260.37L3565.43 1469.93L3446.01 1426.01L3544.29 1147.01Z" fill="white"/>
<path d="M3227.2 1389.09L3252.6 1496H3327.41L3300.23 1366.31L3227.2 1389.09Z" fill="#4B4B4B"/>
<path d="M3506.68 1366.31L3449.58 1496H3531.94L3573.67 1391.01L3506.68 1366.31Z" fill="#4B4B4B"/>
<path d="M3218.28 1463.34L3328.65 1426.28L3333.59 1190.79L3343.47 1437.67L3230.5 1473.63L3218.28 1463.34Z" fill="#4B4B4B"/>
<path d="M3445.46 1425.74L3562 1468.28L3742.51 1260.37L3564.47 1489.28L3448.07 1448.65L3445.46 1425.74Z" fill="#4B4B4B"/>
<path d="M3592.34 1163.89L3610.46 1129.58L3680.19 1157.03L3655.34 1190.79L3592.34 1163.89Z" fill="#4B4B4B"/>
<path d="M3208.26 1245.27L3198.38 1217.41L3257.4 1190.79L3264.13 1220.98L3208.26 1245.27Z" fill="#4B4B4B"/>
<path d="M3909.84 1410.64L3920.5 1452.08L3885 1495.86L3733.72 1496L3801.26 1434.66L3909.84 1410.64Z" fill="white"/>
<path d="M2994.95 1419.15L3087.46 1440.83L3122.6 1495.86L2955 1496L2994.95 1419.15Z" fill="white"/>
<path d="M3651.91 783.198L3627.75 625.103L3457.95 532.606L3263.17 554.289L3158.84 706.758L3162.82 897.516L3192.89 1043.26L3297.21 1110.92L3269.76 1184.48L3365.71 1185.02L3451.77 1116.68L3473.33 1170.89L3560.08 1121.07L3562.96 1017.46L3562.69 1017.73L3610.18 951.724L3651.91 783.198Z" fill="#4B4B4B"/>
<path d="M3597.55 882.969L3441.21 940.745L3457.81 855.11L3420.75 795.412L3459.46 661.333L3733.72 487.044L3629.95 478.81L3326.45 648.707L3194.4 668.606L3270.85 494.18L3199.2 527.803L3117.25 712.385V816.821L3100.37 889.83L3134.41 967.368L3130.02 1014.85L3170.37 1088.41L3215.54 1096.51L3253.01 1144.81L3323.29 1141.79L3333.59 1125.6L3346.9 1140.7L3366.53 1139.87L3373.94 1084.43L3462.89 1056.43L3604.97 898.476L3597.55 882.969Z" fill="white"/>
<path d="M3264.13 910.004L3318.08 987.13L3414.58 991.385L3422.81 911.239L3374.08 864.716L3264.13 910.004Z" fill="#4B4B4B"/>
<path d="M3499.68 1112.7L3474.56 1151.81L3352.67 1233.88L3292.96 1227.16L3269.76 1184.48L3367.08 1182.42L3448.07 1115.31L3463.31 1071.53L3483.76 1052.59L3499.68 1112.7Z" fill="white"/>
<path d="M3288.01 1219.61L3359.94 1222.9L3473.33 1152.36L3560.08 1121.07L3365.16 1254.19L3286.23 1244.86L3288.01 1219.61Z" fill="#4B4B4B"/>
<path d="M3523.02 721.579L3526.17 767.142L3666.6 811.606L3686.92 760.28L3649.58 649.531L3523.02 721.579Z" fill="#D5D5D5"/>
<path d="M3227.48 958.036L3232.28 1043.26H3306.13L3245.46 958.036H3227.48Z" fill="#4B4B4B"/>
<path d="M3220.34 911.239V988.228L3153.49 1004.7L3127 929.629L3140.72 890.791L3220.34 911.239Z" fill="#4B4B4B"/>
<path d="M3492.41 706.758L3469.76 756.163L3501.05 798.569L3552.8 791.844L3562.96 735.029L3537.98 703.464L3492.41 706.758Z" fill="#626262"/>
<path d="M3324.25 941.019L3338.67 902.868L3375.45 893.124L3404.14 918.787L3400.16 954.743L3361.73 970.662L3324.25 941.019Z" fill="#FF4800"/>
<path d="M3295.29 653.373L3326.45 648.707L3416.63 409.094L3481.15 438.462V545.232L3496.52 553.603L3498.45 422.955L3398.93 380L3295.29 653.373Z" fill="#626262"/>
<path d="M3195.22 668.469L3313.55 396.743L3441.21 438.462V534.39L3422.81 536.449L3423.36 452.735L3327.55 422.543L3222.12 664.352L3195.22 668.469Z" fill="#626262"/>
<path d="M3640.38 829.721L3680.19 878.028V991.385L3628.3 1152.36L3617.73 1144.81L3669.21 991.385L3670.17 883.929L3636.68 844.68L3640.38 829.721Z" fill="#4B4B4B"/>
<path d="M3646.42 805.293L3666.6 811.606L3733.72 890.791V1053L3651.09 1168.42L3640.66 1161.01L3720.96 1049.98L3724.39 896.28L3646.42 805.293Z" fill="#4B4B4B"/>
<path d="M3733.72 487.044L3284.44 771.396L3164.06 785.12L3117.25 712.385V730.637L3158.84 811.88L3291.72 798.569L3733.72 487.044Z" fill="#D5D5D5"/>
<path d="M3215.54 1096.51L3199.75 1074.14H3162.55L3170.37 1088.41L3215.54 1096.51Z" fill="#D5D5D5"/>
<path d="M3373.94 1084.43L3366.53 1139.87L3390.28 1079.22L3462.89 1056.43L3604.97 898.476L3601.81 893.124L3451.91 1037.22L3377.79 1058.22L3373.94 1084.43Z" fill="#D5D5D5"/>
<path d="M3516.43 796.647L3607.16 869.657L3613.2 988.64L3567.35 1019.52L3516.43 996.874L3504.9 1009.64L3568.45 1040.1L3629.95 999.482L3622.26 859.913L3536.47 793.903L3516.43 796.647Z" fill="#D5D5D5"/>
<path d="M3242.99 1203.28L3207.99 1129.58L3215.54 1096.51L3203.18 1094.31L3195.22 1129.58L3237.77 1217.96L3242.99 1203.28Z" fill="#4B4B4B"/>
<path d="M3224.87 1213.43L3175.04 1144.68L3182.18 1090.47L3170.37 1088.41L3164.06 1150.85L3215.54 1220.71L3224.87 1213.43Z" fill="#4B4B4B"/>
<path d="M3138.94 1031.18L3127 1040.1L3094.05 1004.7L3115.88 925.1L3107.64 906.299L3074.84 1004.7L3127 1063.85L3148.27 1048.06L3138.94 1031.18Z" fill="#D5D5D5"/>
<path d="M3617.73 1084.43V1067.14L3560.08 1035.99L3540.72 1134.25L3617.73 1084.43Z" fill="white"/>
<path d="M3165.16 882.969L3158.84 906.299L3181.22 913.847L3188.08 893.124L3165.16 882.969Z" fill="#D5D5D5"/>
<path d="M3297.07 884.478L3307.09 902.182L3337.43 888.595L3325.63 867.873L3297.07 884.478Z" fill="#D5D5D5"/>
<path d="M3637.22 681.644L3663.03 761.241L3693.09 716.913L3678.95 673.959L3637.22 681.644Z" fill="white"/>
<path d="M3158.84 811.88L3134.55 820.801L3164.06 785.12L3158.84 811.88Z" fill="#D5D5D5"/>
<path d="M3291.72 798.569L3356.24 801.176L3284.44 771.396L3291.72 798.569Z" fill="#D5D5D5"/>
<circle cx="3352.5" cy="928.5" r="146.5" fill="url(#paint1_radial_2098_1025)"/>
<circle cx="3160.5" cy="941.847" r="146.5" fill="url(#paint2_radial_2098_1025)"/>
<path d="M3375.16 926.882L2776 1019" stroke="#FF0000" stroke-width="11"/>
<path d="M3183.17 940.227L2776 999" stroke="#FF0000" stroke-width="11"/>
<path d="M3051.8 1045.87L3012.4 1290.96L2995.85 1288.11L2978.13 1038.3L2963.91 1044.44L2961.35 1293.44L2935.49 1299.06L2899.75 1184.11L2903.62 1062.15L2882.47 1062.47L2876.57 1168.8L2907.68 1310.46L2892 1360.3L2864.55 1289.71L2873.56 1194.86L2857.87 1204.27L2842.48 1299.05L2878.39 1404.74L2922.2 1484.7L2966.89 1431.33L3032.38 1407.32L3101.43 1415.31L3081.64 1319.48L3119.28 1208.35L3112.14 1113.28L3105.01 1114.22L3099.15 1210.42L3057.84 1304.56L3042.51 1297.94L3070.9 1053.96L3051.8 1045.87Z" fill="#676767"/>
<path d="M3101.43 1415.31L3032.38 1407.32L2966.89 1431.33L2922.2 1484.7L2950.71 1508.47L3109 1494L3076.47 1477.63L3101.43 1415.31Z" fill="white"/>
<path d="M3010.62 1274.33L3053.97 1278.68L3063.88 1187.21L3022.41 1182.72L3010.62 1274.33Z" fill="white"/>
<path d="M2945.65 1274.31L3006.8 1268.1L2999.8 1160.77L2944.71 1160.03L2945.65 1274.31Z" fill="white"/>
<path d="M3060.36 1279.75L3097.35 1299.44L3124.74 1215.94L3091.08 1204.73L3060.36 1279.75Z" fill="white"/>
<path d="M2950.76 1137.94L3001.68 1135.09L2988.57 1016.79L2955.92 1019.72L2950.76 1137.94Z" fill="white"/>
<path d="M2882.66 1298.8L2936.03 1276.78L2912.48 1180.48L2858.49 1190.5L2882.66 1298.8Z" fill="white"/>
<path d="M2859.13 1164.33L2916.95 1163.54L2914.98 1045.52L2882.69 1046.07L2859.13 1164.33Z" fill="white"/>
<path d="M2817.24 1250.22L2877.77 1257.04L2881.98 1211.81L2878.13 1175.29L2850.43 1171.67L2817.24 1250.22Z" fill="white"/>
<path d="M2839.2 1377.19L2896.02 1335.73L2879.87 1267.53L2822.23 1274.71L2839.2 1377.19Z" fill="white"/>
<path d="M3021.58 1160.82L3068.68 1165.13L3077.82 1044.13L3045.86 1039.29L3021.58 1160.82Z" fill="white"/>
<path d="M3086.76 1197.26L3129.92 1193.98L3119.01 1111.84L3096.45 1109.05L3086.76 1197.26Z" fill="white"/>
<path d="M2941.18 1184.35L2941.02 1207.26L2973.66 1203.82L2977.71 1235.08L2987.21 1300.96L3009.9 1358.46L2997.82 1392.49L3001.88 1411.35L2940.54 1410.92L2932.2 1375.95L2913.4 1359.98L2895.74 1278.65L2902.99 1236.65L2928.9 1236.78L2923.29 1211.68L2902.65 1200.6L2860.08 1212.89L2859.9 1247.19L2868.71 1252.62L2894.23 1236.48L2886.87 1279.61L2906.32 1365.43L2924.48 1380.78L2931.65 1410.88L2929.27 1410.78L2903.24 1398.63L2918.17 1468.59L2933.3 1480.72L2994.24 1478.27L2997.22 1529.57L2984.63 1535.07L2919.55 1496.24L2906.86 1451.29L2879.03 1392.97L2889.02 1389.87L2877.2 1357.69L2849.25 1380.35L2862.31 1398.38L2870.67 1395.68L2898.76 1454.75L2911.97 1501.94L2983.84 1544.96L3006.16 1535.37L3002.87 1478.07L3049.92 1476.13L3066.5 1454.44L3081.14 1454.43L3113.63 1434.72L3103.02 1384.38L3090.77 1399.89L3058.81 1408.2L3054.65 1405.61L3041.56 1411.61L3010.77 1411.4L3006.84 1393.16L3019.29 1358.49L2994.3 1296.26L2985.94 1231.75L2982.16 1202.74L2985.29 1202.34L3002.73 1207.31L3002.77 1197.42L2977.28 1175.37L2941.18 1184.35ZM3058.81 1422.59L3069.95 1422.61L3072.13 1440.62L3063.89 1443.2L3058.81 1422.59Z" fill="black"/>
<path d="M1966.14 1103.74V1193.44L1772.86 1305.69L1640.11 1513H2489.41L2464.44 1363.65L2307.27 1213.6L2179.88 1154.37V974.282L1966.14 1103.74Z" fill="#D5D5D5"/>
<path d="M2523.41 1435.01L2477.98 1444.74L2471.91 1408.78L2496.74 1417.67L2452.73 1291.31L2381.62 1286.23L2297.68 1211.91L2313.48 1204.86L2193.28 1119.68L1988.58 1242.09L1881.5 1218.26L1843.26 1253.94L1835.36 1222.63L1712.06 1321.06L1723.35 1342.64L1681.16 1371.97L1685.54 1416.82L1640.11 1456.17L1643.78 1478.45L1616.97 1512.86H2064.34L2064.76 1513V1512.86H2117.8H2160.13V1513H2496.74L2523.41 1435.01Z" fill="#D5D5D5"/>
<path d="M2496.74 1417.67L2358.35 1379.73H2267.49L2367.37 1367.74L2489.41 1396.37L2496.74 1417.67Z" fill="#AAAAAA"/>
<path d="M1685.54 1416.82L1755.93 1473.23L1681.16 1371.97L1685.54 1416.82Z" fill="#AAAAAA"/>
<path d="M1723.35 1342.64L1743.24 1371.97L1868.8 1342.64L1881.5 1421.9L2078.16 1409.21L1878.39 1446.29L1846.23 1367.74L1740.42 1392.71L1723.35 1342.64Z" fill="#AAAAAA"/>
<path d="M2011.29 1352.09L2313.48 1204.86V1225.87L2130.08 1316.27L2011.29 1352.09Z" fill="#AAAAAA"/>
<path d="M2477.98 1444.74L2303.32 1479.15L2213.03 1467.87H2303.32L2476.15 1433.46L2477.98 1444.74Z" fill="#AAAAAA"/>
<path d="M1643.78 1478.45L1755.93 1500.31L1640.11 1456.17L1643.78 1478.45Z" fill="#AAAAAA"/>
<path d="M1868.8 1342.64L1988.58 1316.27L1846.23 1367.74L1868.8 1342.64Z" fill="#AAAAAA"/>
<path d="M1772.86 1305.69L1828.59 1479.44L1942.02 1441.36L1947.1 1199.36L1786.97 1269.03L1772.86 1305.69Z" fill="white"/>
<path d="M2163.66 1154.37H2179.88L2349.88 1232.36L2367.37 1270.86L2185.38 1486.21L2062.64 1441.08L2163.66 1154.37Z" fill="white"/>
<path d="M1837.76 1403.14L1863.86 1513H1940.75L1912.82 1379.73L1837.76 1403.14Z" fill="#4B4B4B"/>
<path d="M2125 1379.73L2066.31 1513H2150.96L2193.85 1405.12L2125 1379.73Z" fill="#4B4B4B"/>
<path d="M1828.59 1479.44L1942.02 1441.36L1947.1 1199.36L1957.26 1453.06L1841.15 1490.01L1828.59 1479.44Z" fill="#4B4B4B"/>
<path d="M2062.08 1440.79L2181.85 1484.51L2367.37 1270.86L2184.39 1506.09L2064.76 1464.35L2062.08 1440.79Z" fill="#4B4B4B"/>
<path d="M2213.03 1171.72L2231.66 1136.46L2303.32 1164.67L2277.79 1199.36L2213.03 1171.72Z" fill="#4B4B4B"/>
<path d="M1818.29 1255.35L1808.13 1226.72L1868.8 1199.36L1875.71 1230.38L1818.29 1255.35Z" fill="#4B4B4B"/>
<path d="M2539.35 1425.28L2552 1467.87L2496.74 1513H2358.35L2427.76 1449.96L2539.35 1425.28Z" fill="white"/>
<path d="M1599.05 1434.03L1694.14 1456.31L1730.26 1512.86L1558 1513L1599.05 1434.03Z" fill="white"/>
<path d="M2274.26 780.513L2249.43 618.051L2074.92 523L1874.72 545.282L1767.5 701.962L1771.59 897.987L1802.49 1047.76L1909.71 1117.28L1881.5 1192.87L1980.11 1193.44L2068.57 1123.21L2090.72 1178.91L2179.88 1127.72L2182.84 1021.24L2182.56 1021.53L2231.37 953.692L2274.26 780.513Z" fill="#4B4B4B"/>
<path d="M2218.39 883.038L2057.7 942.41L2074.78 854.41L2036.68 793.064L2076.47 655.282L2090.72 618.051L1984.06 609.59L1939.76 642.308L1804.04 662.756L1818.29 627.745L1744.65 662.296L1724.76 707.744V815.064L1707.4 890.09L1742.39 969.769L1737.88 1018.56L1779.35 1094.15L1825.77 1102.47L1864.28 1152.12L1936.52 1149.01L1947.1 1132.37L1960.78 1147.88L1980.96 1147.04L1988.58 1090.06L2080 1061.29L2226.01 898.974L2218.39 883.038Z" fill="white"/>
<path d="M1875.71 910.821L1931.16 990.077L2030.34 994.449L2038.8 912.09L1988.72 864.282L1875.71 910.821Z" fill="#4B4B4B"/>
<path d="M2117.8 1119.12L2091.99 1159.31L1966.71 1243.64L1905.34 1236.73L1881.5 1192.87L1981.52 1190.76L2064.76 1121.79L2080.42 1076.81L2101.44 1057.35L2117.8 1119.12Z" fill="white"/>
<path d="M1900.26 1228.97L1974.19 1232.36L2090.72 1159.87L2179.88 1127.72L1979.55 1264.51L1898.43 1254.92L1900.26 1228.97Z" fill="#4B4B4B"/>
<path d="M2141.79 717.192L2145.03 764.013L2289.36 809.705L2310.24 756.962L2271.86 643.154L2141.79 717.192Z" fill="#D5D5D5"/>
<path d="M1838.04 960.18L1842.98 1047.76H1918.88L1856.52 960.18H1838.04Z" fill="#4B4B4B"/>
<path d="M1830.71 912.09V991.205L1762 1008.13L1734.77 930.987L1748.88 891.077L1830.71 912.09Z" fill="#4B4B4B"/>
<path d="M2110.33 701.962L2087.05 752.731L2119.22 796.308L2172.4 789.397L2182.84 731.013L2157.17 698.577L2110.33 701.962Z" fill="#626262"/>
<path d="M1937.5 942.692L1952.32 903.487L1990.13 893.474L2019.61 919.846L2015.52 956.795L1976.02 973.154L1937.5 942.692Z" fill="#FF0000"/>
<path d="M2262.41 828.321L2303.32 877.962V994.449L2250 1159.87L2239.13 1152.12L2292.04 994.449L2293.03 884.026L2258.6 843.692L2262.41 828.321Z" fill="#4B4B4B"/>
<path d="M2268.62 803.218L2289.36 809.705L2358.35 891.077V1057.77L2273.42 1176.37L2262.69 1168.76L2345.23 1054.67L2348.75 896.718L2268.62 803.218Z" fill="#4B4B4B"/>
<path d="M2090.72 618.051L1896.59 768.385L1772.86 782.487L1724.76 707.744V726.5L1767.5 809.987L1904.07 796.308L2090.72 618.051Z" fill="#D5D5D5"/>
<path d="M1825.77 1102.47L1809.55 1079.49H1771.31L1779.35 1094.15L1825.77 1102.47Z" fill="#D5D5D5"/>
<path d="M1988.58 1090.06L1980.96 1147.04L2005.36 1084.71L2080 1061.29L2226.01 898.974L2222.77 893.474L2068.71 1041.55L1992.53 1063.13L1988.58 1090.06Z" fill="#D5D5D5"/>
<path d="M2135.02 794.333L2228.27 869.359L2234.48 991.628L2187.36 1023.36L2135.02 1000.09L2123.17 1013.21L2188.49 1044.51L2251.69 1002.77L2243.79 859.346L2155.61 791.513L2135.02 794.333Z" fill="#D5D5D5"/>
<path d="M1853.99 1212.19L1818.01 1136.46L1825.77 1102.47L1813.07 1100.22L1804.89 1136.46L1848.62 1227.28L1853.99 1212.19Z" fill="#4B4B4B"/>
<path d="M1835.36 1222.63L1784.15 1151.97L1791.49 1096.27L1779.35 1094.15L1772.86 1158.32L1825.77 1230.1L1835.36 1222.63Z" fill="#4B4B4B"/>
<path d="M1747.05 1035.35L1734.77 1044.51L1700.91 1008.13L1723.35 926.333L1714.88 907.013L1681.16 1008.13L1734.77 1068.91L1756.64 1052.69L1747.05 1035.35Z" fill="#D5D5D5"/>
<path d="M2239.13 1090.06V1072.29L2179.88 1040.28L2159.99 1141.26L2239.13 1090.06Z" fill="white"/>
<path d="M1773.99 883.038L1767.5 907.013L1790.5 914.769L1797.55 893.474L1773.99 883.038Z" fill="#D5D5D5"/>
<path d="M1909.57 884.59L1919.87 902.782L1951.05 888.821L1938.92 867.526L1909.57 884.59Z" fill="#D5D5D5"/>
<path d="M2259.17 676.154L2285.69 757.949L2316.59 712.397L2302.05 668.256L2259.17 676.154Z" fill="white"/>
<path d="M1767.5 809.987L1742.53 819.154L1772.86 782.487L1767.5 809.987Z" fill="#D5D5D5"/>
<path d="M1904.07 796.308L1970.38 798.987L1896.59 768.385L1904.07 796.308Z" fill="#D5D5D5"/>
<path d="M591.144 1092.74V1182.44L397.865 1294.69L259.109 1502H1114.41L1089.44 1352.65L932.275 1202.6L804.88 1143.37V963.282L591.144 1092.74Z" fill="#D5D5D5"/>
<path d="M1148.41 1424.01L1102.98 1433.74L1096.92 1397.78L1121.75 1406.67L1077.73 1280.31L1006.62 1275.23L922.682 1200.91L938.483 1193.86L818.283 1108.68L613.576 1231.09L506.496 1207.26L468.264 1242.94L460.363 1211.63L337.059 1310.06L348.346 1331.64L300.163 1360.97L304.536 1405.82L259.109 1445.17L262.777 1467.45L235.972 1501.86H689.336L689.759 1502V1501.86H742.805H785.129V1502H1121.75L1148.41 1424.01Z" fill="#D5D5D5"/>
<path d="M1121.75 1406.67L983.346 1368.73H892.491L992.375 1356.74L1114.41 1385.37L1121.75 1406.67Z" fill="#AAAAAA"/>
<path d="M304.536 1405.82L380.935 1462.23L300.163 1360.97L304.536 1405.82Z" fill="#AAAAAA"/>
<path d="M348.346 1331.64L368.238 1360.97L493.799 1331.64L506.496 1410.9L703.162 1398.21L503.393 1435.29L471.226 1356.74L365.417 1381.71L348.346 1331.64Z" fill="#AAAAAA"/>
<path d="M636.29 1341.09L938.483 1193.86V1214.87L755.079 1305.27L636.29 1341.09Z" fill="#AAAAAA"/>
<path d="M1102.98 1433.74L928.325 1468.15L838.034 1456.87H928.325L1101.15 1422.46L1102.98 1433.74Z" fill="#AAAAAA"/>
<path d="M262.777 1467.45L380.935 1489.31L259.109 1445.17L262.777 1467.45Z" fill="#AAAAAA"/>
<path d="M493.799 1331.64L613.576 1305.27L471.226 1356.74L493.799 1331.64Z" fill="#AAAAAA"/>
<path d="M397.865 1294.69L453.591 1468.44L567.02 1430.36L572.098 1188.36L411.973 1258.03L397.865 1294.69Z" fill="white"/>
<path d="M788.656 1143.37H804.88L974.881 1221.36L992.375 1259.86L810.382 1475.21L687.643 1430.08L788.656 1143.37Z" fill="white"/>
<path d="M462.762 1392.14L488.861 1502H565.75L537.816 1368.73L462.762 1392.14Z" fill="#4B4B4B"/>
<path d="M750 1368.73L691.311 1502H775.959L818.847 1394.12L750 1368.73Z" fill="#4B4B4B"/>
<path d="M453.591 1468.44L567.02 1430.36L572.098 1188.36L582.256 1442.06L466.148 1479.01L453.591 1468.44Z" fill="#4B4B4B"/>
<path d="M687.078 1429.79L806.855 1473.51L992.375 1259.86L809.395 1495.09L689.759 1453.35L687.078 1429.79Z" fill="#4B4B4B"/>
<path d="M443.293 1244.35L433.135 1215.72L493.799 1188.36L500.712 1219.38L443.293 1244.35Z" fill="#4B4B4B"/>
<path d="M899.263 769.513L874.432 607.051L699.917 512L499.724 534.282L392.504 690.962L396.595 886.987L427.492 1036.76L534.712 1106.28L506.496 1181.87L605.111 1182.44L693.568 1112.21L715.718 1167.91L804.88 1116.72L807.843 1010.24L807.561 1010.53L856.374 942.692L899.263 769.513Z" fill="#4B4B4B"/>
<path d="M689.759 979.077L682.705 931.41L699.776 843.41L661.684 782.064L655.335 755.41L644.613 727.5L606.5 675L563.916 651.756L488.861 644.282L429.044 651.756L398.993 675L373.881 696.744L359.773 741.731L349.757 804.064L332.404 879.09L367.392 958.769L362.877 1007.56L404.355 1083.15L450.77 1091.47L489.285 1141.12L561.517 1138.01L572.098 1121.37L585.783 1136.88L605.958 1136.04L613.576 1079.06L701.743 1033.51L699.917 1002.21L689.759 979.077Z" fill="white"/>
<path d="M500.712 899.821L556.156 979.077L655.335 983.449L663.8 901.09L613.717 853.282L500.712 899.821Z" fill="#4B4B4B"/>
<path d="M742.805 1108.12L716.987 1148.31L591.708 1232.64L530.339 1225.73L506.496 1181.87L606.522 1179.76L689.759 1110.79L705.419 1065.81L726.44 1046.35L742.805 1108.12Z" fill="white"/>
<path d="M525.26 1217.97L599.186 1221.36L715.718 1148.87L804.88 1116.72L604.547 1253.51L523.426 1243.92L525.26 1217.97Z" fill="#4B4B4B"/>
<path d="M463.044 949.18L467.982 1036.76H543.882L481.525 949.18H463.044Z" fill="#4B4B4B"/>
<path d="M455.708 901.09V980.205L387.002 997.128L359.773 919.987L373.881 880.077L455.708 901.09Z" fill="#4B4B4B"/>
<path d="M735.328 690.962L712.05 741.731L744.216 785.308L797.403 778.397L807.843 720.013L782.166 687.577L735.328 690.962Z" fill="#626262"/>
<path d="M562.505 931.692L577.318 892.487L615.128 882.474L644.613 908.846L640.522 945.795L601.02 962.154L562.505 931.692Z" fill="#767676"/>
<path d="M450.77 1091.47L434.546 1068.49H396.313L404.355 1083.15L450.77 1091.47Z" fill="#D5D5D5"/>
<path d="M613.576 1079.06L605.958 1136.04L630.364 1073.71L701.743 1033.51L699.917 1002.21L701.743 1019.5L693.709 1030.55L617.526 1052.13L613.576 1079.06Z" fill="#D5D5D5"/>
<path d="M760.017 783.333L853.27 858.359L859.478 980.628L812.357 1012.36L760.017 989.09L748.166 1002.21L813.486 1033.51L876.69 991.769L868.789 848.346L780.614 780.513L760.017 783.333Z" fill="#D5D5D5"/>
<path d="M864.134 1079.06V1061.29L804.88 1029.28L784.988 1130.26L864.134 1079.06Z" fill="white"/>
<path d="M392.504 798.987L367.533 808.154L397.865 771.487L392.504 798.987Z" fill="#D5D5D5"/>
<path d="M529.069 785.308L595.377 787.987L521.592 757.385L529.069 785.308Z" fill="#D5D5D5"/>
<path d="M3672.32 842.697L3679.64 942.143L3740.36 1024.61L3841.61 1031.31C3841.61 1031.31 3936.48 981.411 3936.53 976.572C3936.59 971.734 3960.7 868.785 3960.7 868.785L3892.74 757.928L3773.21 753.317L3672.32 842.697Z" fill="white"/>
<path d="M3668.61 817.428L3698.44 819.639L3680.4 866.85L3656.84 846.318L3668.61 817.428Z" fill="#484A49"/>
<path d="M3832.42 792.589L3864.61 822.986L3884.39 792.057L3864.04 770.868L3832.42 792.589Z" fill="#484A49"/>
<path d="M3901.73 772.364L3920.14 757.543L3939.44 779.001L3919.32 801.011L3901.73 772.364Z" fill="#484A49"/>
<path d="M3891.43 955.418L3926.98 970.644L3916.93 995.558L3879.83 991.338L3891.43 955.418Z" fill="#484A49"/>
<path d="M3715 990.064L3699.28 1024.3L3727.13 1040.85L3740.51 1024.57L3715 990.064Z" fill="#484A49"/>
<path d="M3949.43 918.612L3975.02 928.175L3974.31 955.05L3941.2 955.121L3949.43 918.612Z" fill="#484A49"/>
<path d="M3733.69 876.594L3727.76 911.393L3756.34 947.21L3804.71 935.695L3811.98 896.053L3784.21 864.692L3733.69 876.594Z" fill="#484A49"/>
<path d="M3775.17 964.927L3782.65 973.473L3792.02 971.731L3793.97 960.459L3775.17 964.927Z" fill="#FF0000"/>
<path d="M3668.61 817.428L3739.44 661.736L3747.29 659.736L3684.53 818.681L3668.61 817.428Z" fill="#D5D5D5"/>
<path d="M3754.95 769.386L3792.67 665.545L3784.82 667.545L3731.35 790.353L3754.95 769.386Z" fill="#787878"/>
<path d="M3864.04 770.869L4031.48 626.428L4039.22 634.104L3875.89 783.289L3864.04 770.869Z" fill="#D5D5D5"/>
<path d="M3920.14 757.542L4064.97 637.353L4072.14 642.764L3931.35 769.965L3920.14 757.542Z" fill="#787878"/>
<path d="M3727.13 1040.85L3872.1 1122.6L3879.47 1114.93L3740.51 1024.57L3727.13 1040.85Z" fill="#D5D5D5"/>
<path d="M3916.93 995.557L4155.1 991.177L4152.67 981.021L3926.98 970.643L3916.93 995.557Z" fill="#D5D5D5"/>
<path d="M3974.31 955.052L4126.06 954.191L4130.16 941.247L3975.02 928.176L3974.31 955.052Z" fill="#787878"/>
<path d="M3148.5 950.5L3157 926.5H3207V972L3169 976.5L3148.5 950.5Z" fill="#FF0000"/>
<path d="M765 86L804.316 107.333V150L765 86Z" fill="white"/>
<path d="M804.316 101.333L765 80L804.316 16V101.333Z" fill="white"/>
<path fill-rule="evenodd" clip-rule="evenodd" d="M808.684 16L848 80L808.684 101.333V16Z" fill="#FAFF00"/>
<path fill-rule="evenodd" clip-rule="evenodd" d="M808.684 107.333L848 86L808.684 150V107.333Z" fill="#FAFF00"/>
<path d="M2151 86L2190.32 107.333V150L2151 86Z" fill="white"/>
<path d="M2190.32 101.333L2151 80L2190.32 16V101.333Z" fill="white"/>
<path fill-rule="evenodd" clip-rule="evenodd" d="M2194.68 16L2234 80L2194.68 101.333V16Z" fill="#FAFF00"/>
<path fill-rule="evenodd" clip-rule="evenodd" d="M2194.68 107.333L2234 86L2194.68 150V107.333Z" fill="#FAFF00"/>
<path d="M3461 86L3500.32 107.333V150L3461 86Z" fill="white"/>
<path d="M3500.32 101.333L3461 80L3500.32 16V101.333Z" fill="white"/>
<path fill-rule="evenodd" clip-rule="evenodd" d="M3504.68 16L3544 80L3504.68 101.333V16Z" fill="#FAFF00"/>
<path fill-rule="evenodd" clip-rule="evenodd" d="M3504.68 107.333L3544 86L3504.68 150V107.333Z" fill="#FAFF00"/>
<path d="M460.984 130C457.571 130 454.456 129.061 451.64 127.184C448.824 125.221 446.563 122.747 444.856 119.76C443.149 116.688 442.296 113.488 442.296 110.16V56.912C442.296 53.4987 443.149 50.3413 444.856 47.44C446.563 44.5387 448.824 42.2347 451.64 40.528C454.456 38.736 457.571 37.84 460.984 37.84H514.104C517.517 37.84 520.632 38.736 523.448 40.528C526.264 42.2347 528.525 44.5387 530.232 47.44C531.939 50.3413 532.792 53.4987 532.792 56.912V110.16C532.792 113.488 531.939 116.688 530.232 119.76C528.525 122.747 526.264 125.221 523.448 127.184C520.632 129.061 517.517 130 514.104 130H460.984ZM472.376 109.136H513.208V74.832L472.376 109.136ZM461.88 92.24L502.712 57.936H461.88V92.24ZM548.662 130V110.416H568.246V130H548.662ZM597.609 130C594.196 130 591.081 129.061 588.265 127.184C585.449 125.221 583.188 122.747 581.481 119.76C579.774 116.688 578.921 113.488 578.921 110.16V56.912C578.921 53.4987 579.774 50.3413 581.481 47.44C583.188 44.5387 585.449 42.2347 588.265 40.528C591.081 38.736 594.196 37.84 597.609 37.84H650.729C654.142 37.84 657.257 38.736 660.073 40.528C662.889 42.2347 665.15 44.5387 666.857 47.44C668.564 50.3413 669.417 53.4987 669.417 56.912V110.16C669.417 113.488 668.564 116.688 666.857 119.76C665.15 122.747 662.889 125.221 660.073 127.184C657.257 129.061 654.142 130 650.729 130H597.609ZM609.001 109.136H649.833V74.832L609.001 109.136ZM598.505 92.24L639.337 57.936H598.505V92.24ZM708.711 130V67.664L704.487 72.912H678.503L707.943 37.84H728.295V130H708.711Z" fill="#FAFF00"/>
<path d="M1799.98 130C1796.57 130 1793.46 129.061 1790.64 127.184C1787.82 125.221 1785.56 122.747 1783.86 119.76C1782.15 116.688 1781.3 113.488 1781.3 110.16V56.912C1781.3 53.4987 1782.15 50.3413 1783.86 47.44C1785.56 44.5387 1787.82 42.2347 1790.64 40.528C1793.46 38.736 1796.57 37.84 1799.98 37.84H1853.1C1856.52 37.84 1859.63 38.736 1862.45 40.528C1865.26 42.2347 1867.53 44.5387 1869.23 47.44C1870.94 50.3413 1871.79 53.4987 1871.79 56.912V110.16C1871.79 113.488 1870.94 116.688 1869.23 119.76C1867.53 122.747 1865.26 125.221 1862.45 127.184C1859.63 129.061 1856.52 130 1853.1 130H1799.98ZM1811.38 109.136H1852.21V74.832L1811.38 109.136ZM1800.88 92.24L1841.71 57.936H1800.88V92.24ZM1887.66 130V110.416H1907.25V130H1887.66ZM1936.61 130C1933.2 130 1930.08 129.061 1927.27 127.184C1924.45 125.221 1922.19 122.747 1920.48 119.76C1918.77 116.688 1917.92 113.488 1917.92 110.16V56.912C1917.92 53.4987 1918.77 50.3413 1920.48 47.44C1922.19 44.5387 1924.45 42.2347 1927.27 40.528C1930.08 38.736 1933.2 37.84 1936.61 37.84H1989.73C1993.14 37.84 1996.26 38.736 1999.07 40.528C2001.89 42.2347 2004.15 44.5387 2005.86 47.44C2007.56 50.3413 2008.42 53.4987 2008.42 56.912V110.16C2008.42 113.488 2007.56 116.688 2005.86 119.76C2004.15 122.747 2001.89 125.221 1999.07 127.184C1996.26 129.061 1993.14 130 1989.73 130H1936.61ZM1948 109.136H1988.83V74.832L1948 109.136ZM1937.51 92.24L1978.34 57.936H1937.51V92.24ZM2043.36 130C2039.95 130 2036.83 129.147 2034.02 127.44C2031.2 125.733 2028.94 123.472 2027.23 120.656C2025.52 117.84 2024.67 114.768 2024.67 111.44V104.272H2044.26V110.416H2095.58V93.136H2024.67V37.84H2115.17V57.424H2044.26V73.424H2096.48C2099.89 73.424 2103.01 74.2773 2105.82 75.984C2108.64 77.6053 2110.9 79.824 2112.61 82.64C2114.31 85.456 2115.17 88.5707 2115.17 91.984V111.44C2115.17 114.768 2114.31 117.84 2112.61 120.656C2110.9 123.472 2108.64 125.733 2105.82 127.44C2103.01 129.147 2099.89 130 2096.48 130H2043.36Z" fill="#FAFF00"/>
<path d="M3232.98 130C3229.57 130 3226.46 129.061 3223.64 127.184C3220.82 125.221 3218.56 122.747 3216.86 119.76C3215.15 116.688 3214.3 113.488 3214.3 110.16V56.912C3214.3 53.4987 3215.15 50.3413 3216.86 47.44C3218.56 44.5387 3220.82 42.2347 3223.64 40.528C3226.46 38.736 3229.57 37.84 3232.98 37.84H3286.1C3289.52 37.84 3292.63 38.736 3295.45 40.528C3298.26 42.2347 3300.53 44.5387 3302.23 47.44C3303.94 50.3413 3304.79 53.4987 3304.79 56.912V110.16C3304.79 113.488 3303.94 116.688 3302.23 119.76C3300.53 122.747 3298.26 125.221 3295.45 127.184C3292.63 129.061 3289.52 130 3286.1 130H3232.98ZM3244.38 109.136H3285.21V74.832L3244.38 109.136ZM3233.88 92.24L3274.71 57.936H3233.88V92.24ZM3320.66 130V110.416H3340.25V130H3320.66ZM3373.96 130V67.664L3369.74 72.912H3343.75L3373.19 37.84H3393.55V130H3373.96Z" fill="#FAFF00"/>
</g>
<defs>
<radialGradient id="paint0_radial_2098_1025" cx="0" cy="0" r="1" gradientUnits="userSpaceOnUse" gradientTransform="translate(3820.21 727.21) rotate(90) scale(265)">
<stop stop-color="#BEBEBE"/>
<stop offset="1" stop-color="#BEBEBE" stop-opacity="0"/>
</radialGradient>
<radialGradient id="paint1_radial_2098_1025" cx="0" cy="0" r="1" gradientUnits="userSpaceOnUse" gradientTransform="translate(3352.5 928.5) rotate(90) scale(146.5)">
<stop stop-color="#FF0000"/>
<stop offset="1" stop-color="#FF0000" stop-opacity="0"/>
</radialGradient>
<radialGradient id="paint2_radial_2098_1025" cx="0" cy="0" r="1" gradientUnits="userSpaceOnUse" gradientTransform="translate(3160.5 941.847) rotate(90) scale(146.5)">
<stop stop-color="#FF0000"/>
<stop offset="1" stop-color="#FF0000" stop-opacity="0"/>
</radialGradient>
<clipPath id="clip0_2098_1025">
<rect width="4037" height="1570" fill="white"/>
</clipPath>
</defs>
</svg>
