<svg width="1643" height="284" viewBox="0 0 1643 284" fill="none" xmlns="http://www.w3.org/2000/svg">
<g clip-path="url(#clip0_1554_900)">
<mask id="mask0_1554_900" style="mask-type:alpha" maskUnits="userSpaceOnUse" x="350" y="0" width="1023" height="283">
<path d="M710.5 260.5H350V0.5H1372.5V260.5H939.5L917 283H733L710.5 260.5Z" fill="#D9D9D9"/>
</mask>
<g mask="url(#mask0_1554_900)">
<path d="M1117.05 153.842L1126.68 190.309L1155.85 201.072L1203.99 246.307L1211.87 276H993L1027.49 231.778L1076.07 200.407L1075.31 182.205L1117.05 153.842Z" fill="#D5D5D5"/>
<path d="M1107.36 191.037L1085.45 207.466L1104.76 209.429L1116.77 186.131L1121.17 170.018L1107.36 191.037Z" fill="#7F7F7F"/>
<path d="M1019.1 236.051L1067.3 204.776L1113.06 191.67L1121.17 170.018L1126.68 190.309L1155.85 201.072L1203.99 246.307L1212 275.968H993L1019.1 236.051Z" fill="#4B4B4B"/>
<path d="M1124.11 204.776L1154.84 214.905L1142.8 236.114L1034.17 260.489L1035.6 248.143L1124.11 204.776Z" fill="#626262"/>
<path d="M1031.16 275.968L1142.8 254.791L1150.69 276L1031.16 275.968Z" fill="#626262"/>
<path d="M1036.2 234.722L1031.16 216.488L1056.44 211.803L1051.65 214.905L1035.6 219.337L1038.86 232.632L1036.2 234.722Z" fill="#D5D5D5"/>
<path d="M1164.72 209.429L1191.89 212.5L1180.87 239.153L1178.3 234.595L1186.98 214.905L1167.25 211.803L1164.72 209.429Z" fill="#D5D5D5"/>
<path d="M1067.3 204.776L1020.24 211.803L1016.75 220.287L1024.04 242.129L1027.2 239.153L1020.55 220.287L1023.4 214.905L1062.71 207.72L1067.3 204.776Z" fill="#D5D5D5"/>
<path d="M1155.85 201.072L1197.27 204.776L1204.87 211.803L1188.88 252.069L1185.71 248.27L1200.76 211.803L1195.37 207.466L1158.86 203.889L1155.85 201.072Z" fill="#D5D5D5"/>
<path d="M1035.56 143.364L1031.16 97.8124L1060.33 63.7197L1105.94 60.5225L1138.71 89.1705L1141.5 123.105L1135.96 136.4L1145.62 134.216L1150.69 151.563L1128.87 170.873L1121.17 170.018L1107.36 191.037L1085.45 207.466L1068.03 205.567L1047.82 184.485L1042.72 152.766L1035.56 143.364Z" fill="#D5D5D5"/>
<path d="M1135.96 136.4L1121.17 170.018L1107.36 191.037L1074.08 216.646L1049.31 193.696L1042.12 164.162L1063.09 157.609L1101.47 164.447L1135.96 136.4Z" fill="#7F7F7F"/>
<path d="M1050.96 176.318L1090.92 176.412L1091.94 179.99L1050.96 179.863V176.318Z" fill="#C1C1C1"/>
<path d="M1053.17 184.01L1088.14 184.136L1089.02 187.713L1053.17 187.555V184.01Z" fill="#C1C1C1"/>
<path d="M1055.87 191.67L1085.57 191.86L1086.36 195.437L1055.87 195.247V191.67Z" fill="#C1C1C1"/>
<path d="M1138.71 89.1705L1125.73 77.838L1116.51 90.5001L1118.26 109.018L1128.55 128.486L1129.82 151.247L1141.5 123.105L1138.71 89.1705Z" fill="#C1C1C1"/>
<path d="M1125.73 77.838L1128.01 65.1758L1113.03 50.0446L1061 49L1031.16 77.838L1027.71 93.4123L1051.27 129.404L1045.7 106.866L1048.36 103.795L1054.12 107.024L1076.2 100.63L1078.19 107.752L1103.31 95.5649L1108.18 103.131L1125.73 77.838Z" fill="#92A3D3"/>
<path d="M1148.41 97.4642L1147.55 85.4352L1138.68 75.6221L1125.73 77.838L1138.71 89.1705L1140.39 109.493L1149.32 118.61L1143.69 104.903L1148.41 97.4642Z" fill="#92A3D3"/>
<path d="M1079.36 150.139L1113.98 136.4L1107.46 142.193L1109.71 145.422L1079.36 150.139Z" fill="black"/>
<path d="M1060.36 149.062L1036.99 140.325L1042.25 145.675L1041.61 147.954L1060.36 149.062Z" fill="black"/>
<path d="M1060.71 143.269L1042.15 132.538L1034.14 122.725L1038.13 136.084L1060.71 143.269Z" fill="#0D0D0D"/>
<path d="M1079.36 143.586L1103.91 129.848L1115.56 116.774L1109.64 132.918L1079.36 143.586Z" fill="#0D0D0D"/>
<path d="M713.611 148.454L709.204 102.932L738.405 68.8625L784.06 65.6674L816.874 94.2962L819.664 128.208L814.116 141.494L823.786 139.311L828.858 156.647L807.014 175.944L799.31 175.089L785.486 196.094L763.546 212.512L746.109 210.614L725.881 189.546L720.777 157.849L713.611 148.454Z" fill="#D5D5D5"/>
<path d="M776.07 203.149H785.486L811.453 156.362L815.733 145.132L814.116 141.494L778.384 177.241L776.07 203.149Z" fill="#7F7F7F"/>
<path d="M785.486 203.149L787.23 177.241L815.733 145.132L811.453 156.362L785.486 203.149Z" fill="#626262"/>
<path d="M738.436 202.611L723.535 175.058L716.687 175.089L729.971 202.611H738.436Z" fill="#7F7F7F"/>
<path d="M720.777 157.849L716.687 175.089L723.535 175.058L720.777 157.849Z" fill="#626262"/>
<path d="M738.436 202.611L743.192 212.512L773.914 213.556L776.07 203.149L738.436 202.611Z" fill="#7F7F7F"/>
<path d="M773.914 213.556L780.065 203.149H776.07L773.914 213.556Z" fill="#626262"/>
<path d="M737.549 182.871L736.534 185.687L769.031 187.964V180.594L737.549 182.871Z" fill="white"/>
<path d="M826.1 147.283L835.548 98.4403L852.352 75.7587L832.536 71.4881L849.34 63.5163L793.508 45.738L768.873 50.0086L776.704 39L748.455 47.5728L729.242 65.3511L734.061 47.5728L714.848 73.3229L702.229 112.138L713.611 148.454L711.297 124.57L720.586 91.7655L723.44 108.563L738.943 114.099L795.315 83.7305L810.311 96.6055L800.261 117.547L804.319 132.795L801.909 167.75L807.299 159.146L809.709 142.601L823.786 139.311L826.1 147.283Z" fill="#FE7272"/>
<path d="M720.65 146.144L733.966 148.074L732.571 151.522L724.296 153.99L720.65 146.144Z" fill="white"/>
<path d="M786.12 140.988L785.011 138.362L717.226 138.109L713.643 148.327L723.313 160.822L734.505 161.708L742.019 143.645L745.792 143.708L755.937 163.29L777.909 161.677L789.481 148.517L786.12 140.988ZM730.32 157.153L724.232 157.058L716.94 147.188L718.843 143.55H735.805L730.32 157.153ZM775.341 157.153L760.471 158.482L753.655 143.582L781.301 143.519L783.045 147.821L775.341 157.153Z" fill="#7F7F7F"/>
<path d="M755.842 148.39L772.773 146.208L768.429 154.654L757.586 152.218L755.842 148.39Z" fill="white"/>
<path d="M720.65 146.144L733.554 148.96L734.188 147.568L720.65 146.144Z" fill="black"/>
<path d="M756.128 148.96L772.773 146.208L755.589 147.821L756.128 148.96Z" fill="black"/>
<path d="M795.188 158.924L804.826 195.367L834.026 206.122L882.218 251.327L890.112 281H671L705.527 236.807L754.162 205.458L753.401 187.268L795.188 158.924Z" fill="#D5D5D5"/>
<path d="M785.486 196.094L763.546 212.512L782.886 214.474L794.903 191.191L799.31 175.089L785.486 196.094Z" fill="#7F7F7F"/>
<path d="M891 280.968L883.106 251.327L837.387 200.998L802.702 187.427L762.31 234.055L751.245 201.251L704.829 229.721L671.888 280.968H891Z" fill="#4B4B4B"/>
<path d="M771.98 280.968L855.713 182.27L799.31 175.089L788.34 203.876L737.866 261.703L744.175 268.599L734.41 280.968H771.98Z" fill="#626262"/>
<path d="M742.368 206.692L734.41 198.404L671.634 217.416L691.259 250.821L704.829 229.721L742.368 206.692Z" fill="#626262"/>
<path d="M855.078 246.076L848.864 248.164L849.118 249.303H809.455L804.287 242.913L801.592 246.076L806.95 252.245H849.784L850.291 254.491L855.839 255.598L859.327 250.79L855.078 246.076Z" fill="#7F7F7F"/>
<path d="M874.165 259.014L867.507 260.375V261.83H808.409L803.304 269.422H781.713L778.987 272.617H806.697L811.357 264.74H867.507V266.227L871.628 268.125L876.86 264.329L874.165 259.014Z" fill="#7F7F7F"/>
<path d="M627.913 253.262L570.962 213.637L570.646 163.867L609.878 162.916L610.827 154.04L558.939 154.991L548.815 175.597L533.628 236.461L508 257.7L513.22 267.686L508.949 280.683H632.342L624.432 272.916L627.913 253.262Z" fill="#D5D5D5"/>
<path d="M729 280.683L728.367 252.153L706.22 245.02L710.966 222.83L691.508 175.121L670.309 164.66L624.907 177.657L672.84 280.842L729 280.683Z" fill="#D5D5D5"/>
<path d="M672.84 280.842L684.673 223.464L676.131 217.282L677.555 193.983L634.842 196.36L586.434 179.718L578.081 218.55L627.913 253.262L624.432 272.916L632.342 280.683L672.84 280.842Z" fill="#7F7F7F"/>
<path d="M597.824 279.573L594.502 262.931L541.348 236.778L548.34 177.182L532.331 242.484L589.281 266.735L597.824 279.573Z" fill="#7F7F7F"/>
<path d="M513.22 267.686L540.399 265.784L552.738 279.573L535.653 270.539L513.22 267.686Z" fill="#7F7F7F"/>
<path d="M672.84 280.842L684.673 223.464L676.131 217.282L677.555 193.983L646.232 195.409L648.13 172.11L678.978 173.061L700.335 222.513L672.84 280.842Z" fill="#4B4B4B"/>
<path d="M578.081 218.55L570.962 213.637L570.646 163.867L603.709 162.916L598.172 183.68L586.434 179.718L578.081 218.55Z" fill="#4B4B4B"/>
<path d="M674.581 219.501L678.377 222.354L672.682 228.536L676.795 234.876L653.224 242.484L628.862 228.853L617.155 216.014L648.636 222.988L666.671 219.977L652.908 229.012L658.445 231.231L674.581 219.501Z" fill="#4B4B4B"/>
<path d="M645.156 245.02L594.85 209.04L598.172 183.68L586.434 179.718L578.081 218.55L621.268 248.666L634.082 242.484L645.156 245.02Z" fill="#4B4B4B"/>
<path d="M706.22 245.02L699.86 269.588L704.132 281L706.22 245.02Z" fill="#7F7F7F"/>
<path d="M597.539 229.899L579.315 258.651L569.38 253.357L588.332 223.464L597.539 229.899Z" fill="white"/>
<path d="M584.061 220.135L564.603 250.092L554.826 245.749L574.347 213.415L584.061 220.135Z" fill="white"/>
<path d="M568.115 182.254L558.844 177.816L547.77 184.79L545.113 191.447L521.067 178.354L542.487 170.841L548.277 177.689L557.167 171.127L568.304 176.104L568.115 182.254Z" fill="#4B4B4B"/>
<path d="M686.034 196.963L692.773 193.222L700.683 198.928L702.55 204.444L720.014 193.412L704.606 187.357L700.367 193.063L694.007 187.674L685.939 191.859L686.034 196.963Z" fill="#4B4B4B"/>
<path d="M693.627 217.378L700.367 213.637L708.276 219.343L710.143 224.859L727.608 213.827L712.2 207.741L707.96 213.478L701.6 208.089L693.532 212.274L693.627 217.378Z" fill="#4B4B4B"/>
<path d="M567.26 208.565L555.237 202.637L544.701 207.804L538.88 216.078L513.474 203.176L536.76 195.568L543.309 200.957L552.675 195.758L567.735 201.084L567.26 208.565Z" fill="#4B4B4B"/>
<path d="M624.432 272.916L658.571 269.112L632.342 280.683L624.432 272.916Z" fill="#4B4B4B"/>
<path d="M568.557 171.032L558.623 166.879L551.251 170.588L552.137 168.844L558.844 165.674L568.589 169.637L568.557 171.032Z" fill="#4B4B4B"/>
<path d="M567.956 197.47L553.402 192.715L546.157 195.758L546.347 194.141L553.402 191.447L568.02 196.138L567.956 197.47Z" fill="#4B4B4B"/>
<path d="M696.633 187.643L693.406 185.107L685.559 188.277L685.021 187.072L693.469 183.743L696 186.058L696.633 187.643Z" fill="#4B4B4B"/>
<path d="M705.271 208.85L701.379 205.87L694.545 209.104L693.944 207.836L701.252 204.602L704.638 207.36L705.271 208.85Z" fill="#4B4B4B"/>
<path d="M686.319 148.017L690.717 102.401L661.577 68.2594L616.016 65.0576L583.27 93.7464L580.485 127.729L586.022 141.043L576.372 138.856L571.31 156.228L593.109 175.565L600.798 174.709L614.593 195.758L636.487 212.21L653.888 210.308L674.074 189.196L679.168 157.432L686.319 148.017Z" fill="#D5D5D5"/>
<path d="M598.108 147.225L592.508 175.501L603.456 205.268L624.116 230.755L620.952 240.265L637.594 230.85L639.334 223.971L653.857 235.51L645.314 245.337H660.185L654.363 255.037L666.196 247.239L675.182 227.395L682.965 235.193L684.547 224.415L689.293 228.853L692.931 206.092L676.605 192.081L677.555 166.403L671.891 188.277L661.893 199.213L653.857 193.983L632.943 197.311L626.774 188.752L622.755 161.427L618.104 162.473L614.086 154.548L610.891 167.988L598.108 147.225Z" fill="white"/>
<path d="M582.669 94.1268L581.719 110.928L586.149 114.954L603.709 116.063L605.607 125.066L611.998 127.761L606.619 110.484L610.385 107.948L638.322 146.718L633.007 166.34L621.015 150.87L614.245 154.262L610.891 167.988L592.287 178.196L578.018 169.637L570.076 153.66L574.031 142.153L578.081 134.164L571.247 130.994L573.81 103.003L582.669 94.1268Z" fill="#7F7F7F"/>
<path d="M601.652 165.167L604.025 150.141L592.034 139.141L577.48 144.213L574.284 155.879L585.453 170.778L601.652 165.167Z" fill="white"/>
<path d="M590.578 141.741L599.975 151.061L598.108 163.772L585.706 168.401L576.847 155.657L579.315 145.957L590.578 141.741Z" fill="#626262"/>
<path d="M578.081 134.164L575.455 139.331L592.761 134.576L607.062 142.248L614.245 154.262L615.384 143.579L609.467 132.643L593.964 127.095L578.081 134.164Z" fill="#626262"/>
<path d="M674.391 110.135L665.69 96.9798L656.198 92.2248L654.3 85.1239L629.083 65.9135L615.985 65.0576L583.586 93.6513L564.603 96.5043L548.941 85.1239L556.06 84.1729L563.179 80.3689L552.263 71.8098L559.382 71.3343L577.416 62.2997L568.874 48.0346L575.993 42.804L575.518 49.4611L592.603 53.2651L592.129 48.5101H612.061L616.807 51.8386L614.434 39L632.469 49.9366L658.286 51.6484L664.614 65.9135L689.926 74.4726L691.824 94.7608L674.391 110.135Z" fill="white"/>
<path d="M622.819 143.104L636.107 135.02L650.978 136.383L654.553 144.911H663.222L674.486 136.795L689.356 138.951L697.424 149.063L691.381 164.089L679.928 169.256L670.278 165.072L663.444 149.063L657.654 152.233L658.824 154.991L643.922 168.464L631.868 166.657L620.224 150.046L622.819 143.104Z" fill="#626262"/>
<path d="M693.786 149.666L688.375 141.329L676.922 144.689L671.48 158.542L679.738 166.467L689.166 162.726L693.786 149.666Z" fill="#F76383"/>
<path d="M653.794 148.081L651.99 156.386L641.518 165.865L632.469 159.334L633.07 146.686L646.137 139.363L653.794 148.081Z" fill="#F76383"/>
<path d="M665.722 188.657L638.449 185.804L631.646 191.035H634.62L638.449 188.435L665.722 191.035V188.657Z" fill="#7F7F7F"/>
<path d="M608.929 70.9856L631.709 90.6398L601.019 77.0086L608.929 70.9856Z" fill="white"/>
<path d="M595.957 82.3977L613.991 95.3948L589.313 88.1037L595.957 82.3977Z" fill="white"/>
<path d="M698.468 143.579L691.191 135.02L636.139 130.265L618.737 139.141L617.155 136.605L634.873 125.193L693.406 132.167L698.785 140.409L698.468 143.579Z" fill="#626262"/>
<path d="M685.812 139.458L683.598 132.801L679.168 132.484L681.067 139.458H685.812Z" fill="#626262"/>
<path d="M647.529 137.239L645.314 129.631L641.201 128.68L642.783 136.605L647.529 137.239Z" fill="#626262"/>
<path d="M859.388 228.509L869.122 190.025L863.085 186.947L846.842 224.861L860.431 275.782C866.088 270.896 871.586 266.137 876.896 261.219L859.388 228.509Z" fill="#4B4B4B"/>
<path d="M1029.57 177.429L1023.25 181.332L1038.57 218.674L1019.74 255.477C1026.22 262.33 1032.89 268.707 1040.06 274.544L1057.6 223.972L1029.57 177.429Z" fill="#4B4B4B"/>
<path d="M982.859 84.5025L1032.98 124.192L1028.71 132.663L987.631 114.04L982.859 84.5025Z" fill="#4B4B4B"/>
<path d="M901.514 84.5025L851.393 124.192L855.659 132.663L896.742 114.04L901.514 84.5025Z" fill="#4B4B4B"/>
<path d="M924.426 189.93V210.108L881.13 235.362L851.393 282H1041.64L1036.05 248.402L1000.84 214.645L972.303 201.319V160.805L924.426 189.93Z" fill="#D5D5D5"/>
<path d="M1049.26 264.455L1039.08 266.644L1037.72 258.554L1043.28 260.553L1033.42 232.126L1017.49 230.984L998.691 214.264L1002.23 212.678L975.306 193.515L929.45 221.053L905.464 215.692L896.9 223.718L895.13 216.675L867.51 238.82L870.038 243.674L860.589 250.273L861.569 260.363L851.393 269.214L852.214 274.227L846.21 281.968H946.421L946.516 282V281.968H958.398H967.879V282H1052.83L1049.26 264.455Z" fill="#D5D5D5"/>
<path d="M1043.28 260.553L1012.28 252.018H991.928L1014.3 249.322L1041.64 255.762L1043.28 260.553Z" fill="#AAAAAA"/>
<path d="M861.569 260.363L877.338 273.053L860.589 250.273L861.569 260.363Z" fill="#AAAAAA"/>
<path d="M870.038 243.674L874.494 250.273L902.62 243.674L905.464 261.505L949.518 258.649L904.769 266.993L897.564 249.322L873.862 254.937L870.038 243.674Z" fill="#AAAAAA"/>
<path d="M934.539 245.8L1002.23 212.678V217.405L961.148 237.742L934.539 245.8Z" fill="#AAAAAA"/>
<path d="M1039.08 266.644L999.955 274.386L979.73 271.848H999.955L1038.67 264.106L1039.08 266.644Z" fill="#AAAAAA"/>
<path d="M852.214 274.227L877.338 279.145L851.393 269.214L852.214 274.227Z" fill="#AAAAAA"/>
<path d="M902.62 243.674L929.45 237.742L897.564 249.322L902.62 243.674Z" fill="#AAAAAA"/>
<path d="M881.13 235.362L893.613 274.449L919.022 265.883L920.159 211.44L884.291 227.113L881.13 235.362Z" fill="white"/>
<path d="M968.669 201.319H972.303L1010.38 218.864L1014.3 227.526L973.536 275.972L946.042 265.82L968.669 201.319Z" fill="white"/>
<path d="M895.667 257.285L901.514 282H918.737L912.48 252.018L895.667 257.285Z" fill="#4B4B4B"/>
<path d="M960.01 252.018L946.863 282H965.825L975.432 257.729L960.01 252.018Z" fill="#4B4B4B"/>
<path d="M893.613 274.449L919.022 265.883L920.159 211.44L922.435 268.516L896.426 276.829L893.613 274.449Z" fill="#4B4B4B"/>
<path d="M945.915 265.756L972.746 275.591L1014.3 227.526L973.315 280.445L946.516 271.054L945.915 265.756Z" fill="#4B4B4B"/>
<path d="M979.73 205.222L983.901 197.29L999.955 203.636L994.235 211.44L979.73 205.222Z" fill="#4B4B4B"/>
<path d="M891.306 224.036L889.031 217.595L902.62 211.44L904.169 218.42L891.306 224.036Z" fill="#4B4B4B"/>
<path d="M1052.83 262.266L1060 282H1012.28L1027.83 267.818L1052.83 262.266Z" fill="white"/>
<path d="M842.196 264.233L863.496 269.246L871.586 281.968L833 282L842.196 264.233Z" fill="white"/>
<path d="M993.445 117.213L987.883 80.6636L948.791 59.2799L903.947 64.2927L879.93 99.5408L880.846 143.641L887.767 177.334L911.785 192.975L905.464 209.981L927.554 210.108L947.369 194.308L952.331 206.84L972.303 195.323L972.967 171.37L972.904 171.433L983.838 156.173L993.445 117.213Z" fill="#4B4B4B"/>
<path d="M980.931 140.278L944.936 153.635L948.76 133.837L940.227 120.036L949.139 89.0394L1012.28 48.7467L988.389 46.8431L918.516 86.1205L888.115 90.7209L905.717 50.3964L889.221 58.1695L870.354 100.842V124.985L866.467 141.864L874.304 159.79L873.293 170.767L882.584 187.772L892.981 189.644L901.609 200.812L917.789 200.114L920.159 196.37L923.225 199.86L927.744 199.67L929.45 186.852L949.929 180.38L982.637 143.863L980.931 140.278Z" fill="white"/>
<path d="M904.169 146.528L916.588 164.358L938.805 165.342L940.701 146.813L929.482 136.058L904.169 146.528Z" fill="#4B4B4B"/>
<path d="M958.398 193.388L952.615 202.43L924.552 221.402L910.805 219.848L905.464 209.981L927.87 209.505L946.516 193.991L950.024 183.87L954.732 179.492L958.398 193.388Z" fill="white"/>
<path d="M909.667 218.103L926.227 218.864L952.331 202.557L972.303 195.323L927.428 226.098L909.257 223.94L909.667 218.103Z" fill="#4B4B4B"/>
<path d="M963.771 102.967L964.497 113.501L996.827 123.78L1001.5 111.914L992.908 86.3109L963.771 102.967Z" fill="#D5D5D5"/>
<path d="M895.731 157.632L896.837 177.334H913.839L899.871 157.632H895.731Z" fill="#4B4B4B"/>
<path d="M894.087 146.813V164.612L878.697 168.419L872.598 151.065L875.758 142.086L894.087 146.813Z" fill="#4B4B4B"/>
<path d="M956.723 99.5408L951.509 110.962L958.714 120.766L970.628 119.211L972.967 106.077L967.215 98.7794L956.723 99.5408Z" fill="#626262"/>
<path d="M918.01 153.698L921.329 144.878L929.798 142.625L936.403 148.558L935.487 156.871L926.638 160.551L918.01 153.698Z" fill="#FF4800"/>
<path d="M911.342 87.1992L918.516 86.1205L939.279 30.726L954.132 37.5155V62.1987L957.671 64.134L958.114 33.9304L935.202 24L911.342 87.1992Z" fill="#626262"/>
<path d="M888.304 90.6891L915.545 27.8706L944.936 37.5155V59.6923L940.701 60.1682L940.827 40.8151L918.769 33.8352L894.498 89.7374L888.304 90.6891Z" fill="#626262"/>
<path d="M990.791 127.968L999.955 139.136V165.342L988.01 202.557L985.576 200.812L997.427 165.342L997.648 140.5L989.937 131.426L990.791 127.968Z" fill="#4B4B4B"/>
<path d="M992.181 122.32L996.827 123.78L1012.28 142.086V179.587L993.256 206.269L990.854 204.556L1009.34 178.889L1010.13 143.355L992.181 122.32Z" fill="#4B4B4B"/>
<path d="M1012.28 48.7467L908.846 114.484L881.13 117.657L870.354 100.842V105.061L879.93 123.843L910.521 120.766L1012.28 48.7467Z" fill="#D5D5D5"/>
<path d="M892.981 189.644L889.347 184.473H880.783L882.584 187.772L892.981 189.644Z" fill="#D5D5D5"/>
<path d="M929.45 186.852L927.744 199.67L933.211 185.647L949.929 180.38L982.637 143.863L981.91 142.625L947.401 175.938L930.335 180.792L929.45 186.852Z" fill="#D5D5D5"/>
<path d="M962.254 120.322L983.143 137.2L984.533 164.707L973.978 171.846L962.254 166.611L959.599 169.561L974.231 176.605L988.389 167.213L986.619 134.948L966.868 119.687L962.254 120.322Z" fill="#D5D5D5"/>
<path d="M899.302 214.327L891.243 197.29L892.981 189.644L890.137 189.137L888.304 197.29L898.101 217.722L899.302 214.327Z" fill="#4B4B4B"/>
<path d="M895.13 216.675L883.659 200.78L885.302 188.248L882.584 187.772L881.13 202.208L892.981 218.357L895.13 216.675Z" fill="#4B4B4B"/>
<path d="M875.347 174.542L872.598 176.605L865.013 168.419L870.038 150.018L868.142 145.671L860.589 168.419L872.598 182.093L877.496 178.445L875.347 174.542Z" fill="#D5D5D5"/>
<path d="M985.576 186.852V182.855L972.303 175.653L967.847 198.369L985.576 186.852Z" fill="white"/>
<path d="M881.383 140.278L879.93 145.671L885.081 147.416L886.661 142.625L881.383 140.278Z" fill="#D5D5D5"/>
<path d="M911.753 140.627L914.06 144.719L921.044 141.578L918.326 136.788L911.753 140.627Z" fill="#D5D5D5"/>
<path d="M990.064 93.7349L996.005 112.136L1002.93 101.889L999.671 91.9582L990.064 93.7349Z" fill="white"/>
<path d="M879.93 123.843L874.336 125.906L881.13 117.657L879.93 123.843Z" fill="#D5D5D5"/>
<path d="M910.521 120.766L925.374 121.369L908.846 114.484L910.521 120.766Z" fill="#D5D5D5"/>
<path d="M403.425 226.223L398.49 221.625L399.028 219.501L395.169 211.954L384.982 212.715L383.717 205.168L370.937 186.523L371.791 180.055L364.8 174.664L355.404 175.552L353.38 179.072L379.446 221.118L377.896 227.809L386.786 241.571L403.425 226.223Z" fill="#4B4B4B"/>
<path d="M534.36 246.01L536.923 239.763L539.105 239.541L544.768 233.263L540.497 223.972L547.109 220.135L560.047 201.617L566.406 200.127L569 191.692L564.856 183.194L560.87 182.496L530.722 221.721L523.921 222.608L514.178 235.768L534.36 246.01Z" fill="#4B4B4B"/>
<path d="M560.174 281.873L539.011 245.471L474.223 206.532L481.088 190.392L438.634 142.384L433.984 197.082L368.627 248.991L359.295 281.905L560.174 281.873Z" fill="#D5D5D5"/>
<path d="M475.931 202.473L436.293 170.922L468.371 214.681L475.963 209.608L475.931 202.473Z" fill="#7F7F7F"/>
<path d="M491.211 214.998L477.45 230.694L477.924 236.878L464.163 237.353L462.74 232.121L418.61 209.766L446.606 204.059L493.109 208.339L491.211 214.998Z" fill="#4B4B4B"/>
<path d="M536.448 281.905L514.652 255.269L499.784 221.974L490.705 216.298L503.896 254.001L441.26 256.855L418.325 209.449L408.677 217.218L427.025 260.66L394.789 281.937L536.448 281.905Z" fill="#606060"/>
<path d="M467.2 245.439L477.64 246.39L487.763 254.001L485.548 265.099L465.935 267.001L458.343 255.903L467.2 245.439ZM469.415 262.245L480.803 260.66L482.385 255.903L476.691 249.244L469.731 248.927L464.353 256.537L469.415 262.245Z" fill="white"/>
<path d="M406.715 273.248L406.399 265.765L411.587 257.679L420.919 257.869L424.557 271.504L416.269 278.227L406.715 273.248ZM420.255 269.633L417.756 261.769L413.675 261.23L408.803 266.082L409.278 271.029L416.079 273.882L420.255 269.633Z" fill="white"/>
<path d="M528.223 263.513L525.977 268.555L519.429 272.075L512.533 268.682L514.367 258.44L522.782 256.918L528.223 263.513ZM516.898 261.199L516.139 267.255L518.986 269.031L524.237 267.541L525.534 264.116L521.422 259.867L516.898 261.199Z" fill="white"/>
<path d="M466.789 254.825L408.677 217.218L411.429 214.935L468.687 251.781L466.789 254.825Z" fill="#4B4B4B"/>
<path d="M477.64 252.098L497.253 220.389L499.784 221.974L480.171 255.269L477.64 252.098Z" fill="#4B4B4B"/>
<path d="M477.956 259.708L483.334 281.588L477.64 281.905L473.527 259.708H477.956Z" fill="#4B4B4B"/>
<path d="M396.055 220.769L413.422 247.342L405.83 254.952L377.675 236.243L396.055 220.769Z" fill="#606060"/>
<path d="M369.766 241.634L399.186 263.513L394.757 272.392L353 266.684L369.766 241.634Z" fill="#606060"/>
<path d="M408.044 245.312L407.949 247.849L405.292 249.118L403.204 246.898L405.292 244.805L408.044 245.312Z" fill="white"/>
<path d="M393.207 263.387L394.346 265.543L392.638 267.826L389.917 266.906L390.202 263.862L393.207 263.387Z" fill="white"/>
<path d="M412.568 263.513L379.478 240.239L376.821 242.585L410.48 266.241L412.568 263.513Z" fill="#4B4B4B"/>
<path d="M414.149 272.709L409.309 282H405.608L411.619 271.219L414.149 272.709Z" fill="#4B4B4B"/>
<path d="M468.687 260.66L419.116 268.365L418.072 264.972L466.789 257.901L468.687 260.66Z" fill="#4B4B4B"/>
<path d="M535.12 269.126L563.053 267.319L541.446 241.507L530.975 263.292L535.12 269.126Z" fill="#606060"/>
<path d="M532.019 233.897L524.427 250.037L516.518 244.868L514.684 223.813L532.019 233.897Z" fill="#606060"/>
<path d="M517.436 263.767L481.214 256.442L480.329 259.201L517.088 266.367L517.436 263.767Z" fill="#4B4B4B"/>
<path d="M520.884 268.143L524.68 281.905H527.844L522.782 267.097L520.884 268.143Z" fill="#4B4B4B"/>
<path d="M523.731 263.609L535.974 243.568L534.012 242.427L522.244 262.118L523.731 263.609Z" fill="#4B4B4B"/>
<path d="M519.65 242.11L519.998 244.107L522.434 244.805L524.047 242.807L521.991 241.38L519.65 242.11Z" fill="white"/>
<path d="M535.309 261.991L534.582 263.831L536.227 265.448L538.41 264.433L537.84 262.023L535.309 261.991Z" fill="white"/>
<path d="M432.94 167.212L472.388 209.544L487.794 209.893L514.178 170.415V155.036L520.757 137.279L522.055 106.394L499.373 75.0333L466.694 64.4107L427.974 79.0287L415.889 111.499L417.787 133.283L409.562 135.091L406.083 145.269L424.462 168.164L432.94 167.212Z" fill="#D5D5D5"/>
<path d="M479.822 148.092L465.65 141.655L454.104 151.77L478.937 154.529L479.822 148.092Z" fill="white"/>
<path d="M483.967 149.867L465.302 141.116L454.104 144.604H460.842L454.104 151.77L465.302 145.238L483.967 149.867Z" fill="black"/>
<path d="M499.373 155.004L515.19 154.56L511.583 146.855L500.163 150.375L499.373 155.004Z" fill="white"/>
<path d="M497.253 150.945L510.982 147.901L515.19 154.56L513.26 147.774L517.594 148.092L512.343 144.604L497.253 150.945Z" fill="black"/>
<path d="M498.677 144.413L500.828 140.418L520.757 136.391L498.677 144.413Z" fill="black"/>
<path d="M487.035 144.033L454.736 134.33L484.631 139.72L487.035 144.033Z" fill="black"/>
<path d="M498.518 184.557L491.243 180.974L487.035 182.084L483.334 180.974H467.042L477.703 193.594L487.858 194.102L498.518 184.557Z" fill="#626262"/>
<path d="M493.71 185.223L474.223 184.494L478.905 188.204H491.717L493.71 185.223Z" fill="white"/>
<path d="M400.863 88.5098L421.109 77.3481L422.754 62.1594L438.445 49L457.647 53.0271L460.62 65.3303L488.712 67.1694L504.339 58.5445L518.037 65.4572L520.979 81.3118L514.462 97.103L519.366 105.887L477.418 107.504L440.564 134.044L425.664 125.546L409.499 160.997L399.661 171.588L406.589 184.906L426.961 196.036L460.526 201.458L493.046 202.822L514.114 170.7V155.48L520.884 137.501L521.896 110.453L536.765 137.025L545.559 187.538L527.622 216.584L512.691 211.225L445.499 209.766L426.392 214.047L387.165 190.582L385.773 148.536L400.863 88.5098Z" fill="#606060"/>
<path d="M519.903 105.887L521.928 110.04L521.896 110.453L519.366 105.887H519.903Z" fill="#606060"/>
<path d="M421.109 77.3481L426.866 80.3922L428.132 63.1106L442.684 50.1098L438.445 49L422.754 62.1594L421.109 77.3481Z" fill="#4B4B4B"/>
<path d="M507.408 60.0983L497.538 68.6915L493.457 64.5376L504.339 58.5445L507.408 60.0983Z" fill="#4B4B4B"/>
<path d="M545.939 134.837L536.353 108.265L519.619 106.013L533.633 131.381L545.939 134.837Z" fill="#606060"/>
<path d="M440.564 134.044L477.418 107.504L518.986 105.855L536.353 108.265L489.376 60.3837L462.803 58.8933L437.243 84.8949L412.156 89.5562L404.09 106.299L404.564 125.071L412.473 131.603L425.664 125.546L440.564 134.044Z" fill="white"/>
<path d="M426.961 196.036L421.552 185.984L408.17 177.137L409.499 160.997L399.661 171.588L406.589 184.906L426.961 196.036Z" fill="#4B4B4B"/>
<path d="M512.691 211.225L492.919 202.632L460.526 201.458L445.499 209.766L512.691 211.225Z" fill="#4B4B4B"/>
<path d="M492.919 202.632L521.612 202.885L545.559 187.538L536.765 137.025L521.928 110.04L520.884 137.501L514.114 155.48V170.7L492.919 202.632Z" fill="#4B4B4B"/>
<path d="M454.23 65.0132L459.292 77.3798L453.914 83.7217L436.515 80.2337L454.23 65.0132Z" fill="#606060"/>
<path d="M427.341 103.381L419.116 107.821L411.207 104.016L413.105 113.528L422.596 115.748L434.301 105.284L432.086 97.9909L427.657 97.0396L427.341 103.381Z" fill="#D5D5D5"/>
<path d="M424.494 100.528L420.698 103.064L415.953 101.479L418.8 97.3567L424.177 97.0396L424.494 100.528Z" fill="#606060"/>
<path d="M492.919 202.632L490.515 200.19L501.903 188.997L499.278 187.411L507.598 179.801L514.114 170.7L513.988 165.532H508.768L514.114 155.48L514.462 128.432L498.803 111.784L494.533 130.334L485.042 147.933L482.67 127.481L476.026 120.346L452.775 135.566L449.453 158.873L456.571 169.337L445.183 170.764L449.801 183.701L468.529 201.839L460.526 201.458L444.424 198.827L426.613 196.068L421.552 185.984L408.17 177.137L409.499 160.997L425.664 125.546L440.564 134.044L477.418 107.504L519.903 105.887L521.928 110.04L530.596 137.945L523.953 155.543L523.004 186.46L515.063 202.727L492.919 202.632Z" fill="#00E1FF"/>
<path d="M426.392 111.943L440.944 118.475L470.68 99.6715L527.211 98.8153L523.605 95.6444L469.415 96.2786L441.355 114.48L427.879 108.772L426.392 111.943Z" fill="#D5D5D5"/>
<path d="M412.473 131.603L401.496 157.382L392.638 169.432L396.244 188.458L445.499 209.766L447.903 208.339L398.554 186.555L395.169 170.066L403.837 158.873L416.301 129.859L412.473 131.603Z" fill="#D5D5D5"/>
<path d="M539.137 197.939L526.863 208.054L508.926 209.544L512.691 211.225L527.622 210.242L536.701 201.902L539.137 197.939Z" fill="#D5D5D5"/>
<path d="M501.619 216.806L502.821 176.567L494.627 163.471L477.576 161.917L462.993 175.362L456.888 214.681L501.619 216.806Z" fill="#606060"/>
<path d="M495.513 182.56L473.021 181.133L472.104 184.557L495.228 185.984L495.513 182.56Z" fill="#4B4B4B"/>
<path d="M494.912 189.726L472.42 188.299L471.503 191.724L494.627 193.151L494.912 189.726Z" fill="#4B4B4B"/>
<path d="M494.311 197.431L471.787 196.004L470.902 199.429L493.995 200.856L494.311 197.431Z" fill="#4B4B4B"/>
<path d="M493.077 205.137L470.585 203.71L469.668 207.166L492.793 208.593L493.077 205.137Z" fill="#4B4B4B"/>
<path d="M436.831 143.018L429.808 165.595L434.395 183.289L443.221 188.775L428.923 190.899L425.569 166.515L421.014 178.089L418.578 162.551L436.831 143.018Z" fill="white"/>
<path d="M519.239 170.764L515.917 185.413L506.49 192.104L518.638 190.899L519.239 170.764Z" fill="white"/>
<path d="M466.884 86.5755L464.037 89.4294L469.415 92.6003L470.997 91.649L466.884 86.5755Z" fill="#606060"/>
<path d="M1287.22 175.487L1315.25 123.061L1319.19 110.263L1333.29 117.866L1295.13 190.692L1287.22 175.487Z" fill="#626262"/>
<path d="M1295.83 164.907L1298.14 168.676L1303.79 168.455L1300.27 164.02L1295.83 164.907Z" fill="white"/>
<path d="M1300.56 156.259L1302.87 160.028L1308.52 159.807L1304.97 155.372L1300.56 156.259Z" fill="white"/>
<path d="M1305.29 146.977L1307.6 150.747L1313.25 150.525L1309.73 146.09L1305.29 146.977Z" fill="white"/>
<path d="M1309.92 137.823L1312.24 141.592L1317.89 141.37L1314.33 136.936L1309.92 137.823Z" fill="white"/>
<path d="M1314.71 129.935L1317.03 133.673L1322.68 133.483L1319.16 129.016L1314.71 129.935Z" fill="white"/>
<path d="M1318.4 121.73L1320.71 125.468L1326.37 125.278L1322.84 120.812L1318.4 121.73Z" fill="white"/>
<path d="M1300.56 221.071L1328.62 168.676L1332.52 155.879L1346.62 163.45L1308.46 236.308L1300.56 221.071Z" fill="#626262"/>
<path d="M1309.19 210.523L1311.51 214.26L1317.16 214.07L1313.63 209.604L1309.19 210.523Z" fill="white"/>
<path d="M1313.89 201.875L1316.21 205.612L1321.86 205.391L1318.33 200.956L1313.89 201.875Z" fill="white"/>
<path d="M1318.65 192.593L1320.97 196.331L1326.62 196.141L1323.1 191.674L1318.65 192.593Z" fill="white"/>
<path d="M1323.25 183.438L1325.57 187.176L1331.22 186.954L1327.7 182.52L1323.25 183.438Z" fill="white"/>
<path d="M1328.05 175.519L1330.37 179.288L1336.05 179.067L1332.49 174.632L1328.05 175.519Z" fill="white"/>
<path d="M1331.73 167.314L1334.05 171.084L1339.73 170.862L1336.17 166.427L1331.73 167.314Z" fill="white"/>
<path d="M1319.19 110.263L1333.29 117.866L1335.67 113.621L1321.38 105.86L1319.19 110.263Z" fill="#484D49"/>
<path d="M1332.52 155.847L1346.62 163.418L1349 159.173L1334.71 151.412L1332.52 155.847Z" fill="#484D49"/>
<path d="M1189.79 201.209L1218.05 157.494L1186.94 68.7971L1200.9 58.3435L1237.73 49.4738L1278.62 74.9426L1284.21 111.435L1271.38 158.761L1262.17 162.879L1262.97 195.412L1291.63 208.717L1327 242.422L1332.62 275.968H1141.51L1171.38 229.402L1214.87 204.187L1189.79 201.209Z" fill="#484D49"/>
<path d="M1297.57 173.016L1303.32 216.446L1331.19 243.245L1336.71 276L1141.25 275.937L1171.95 228.262L1188.14 219.361L1194.43 203.427L1217.25 202.445L1213.83 238.177L1262.52 163.038L1297.57 173.016Z" fill="#D8D8D8"/>
<path d="M1188.14 219.361L1211.57 239.064L1182.43 222.592L1188.14 219.361Z" fill="#626262"/>
<path d="M1307.79 220.628L1303.32 216.446L1213.95 240.014L1189.35 275.968H1204.3L1230.24 236.656L1307.79 220.628Z" fill="#626262"/>
<path d="M1279.1 167.758L1262.49 202.793L1230.65 235.611L1243.54 232.19L1268.21 207.64L1286.52 169.944L1279.1 167.758Z" fill="white"/>
<path d="M1207.67 235.738L1208.52 209.35L1203.13 209.604L1202.75 231.525L1207.67 235.738Z" fill="white"/>
<path d="M1256.71 276L1273.63 252.274L1261.38 275.968L1256.71 276Z" fill="#626262"/>
<path d="M1315.19 227.85L1295.38 247.617L1317.1 229.719L1315.19 227.85Z" fill="#626262"/>
<path d="M1227.76 275.968L1239.67 258.546L1230.62 275.968H1227.76Z" fill="#626262"/>
<path d="M1332.65 251.577L1309.48 262.03L1301.79 276H1310.08L1313.92 267.099L1333.92 258.229L1332.65 251.577Z" fill="white"/>
<path d="M1169.29 276L1187.89 246.508L1172.27 276H1169.29Z" fill="#626262"/>
<path d="M1153.6 256.74L1157.13 265.198L1150.9 275.968H1146.21L1152.21 265.515L1150.71 261.238L1153.6 256.74Z" fill="white"/>
<path d="M1136.84 275.968L1146.17 275.937L1152.21 265.515L1149.41 257.469L1136.84 275.968Z" fill="#626262"/>
<path d="M1310.08 276L1344.71 275.968L1339.63 255.378L1313.92 267.099L1310.08 276Z" fill="#626262"/>
<path d="M1171.95 228.262L1181.16 238.462L1174.08 227.122L1171.95 228.262Z" fill="#626262"/>
<path d="M1253.44 70.6978L1259.32 115.426L1225.1 145.932L1228.65 158.255L1208.94 168.17L1174.71 187.905L1154.37 191.421L1146.78 180.651L1162.37 152.489L1153.6 110.421L1178.56 70.2859L1234.68 55.8093L1253.44 70.6978Z" fill="#D8D8D8"/>
<path d="M1187.06 201.558L1186.02 210.079L1212.56 209.224L1261.54 162.183L1259.73 149.86L1266.87 128.763L1263.41 125.342L1240.81 167.219L1209.16 198.865L1203.19 193.86L1199.67 199.087L1193.1 199.657L1186.3 195.349L1187.06 201.558Z" fill="#626262"/>
<path d="M1180.56 178.782L1188.33 188.665L1198.24 192.72L1194.08 170.704L1180.56 178.782Z" fill="white"/>
<path d="M1162.81 189.932L1167.98 194.209L1177.51 196.014L1174.71 187.905L1162.81 189.932Z" fill="white"/>
<path d="M1163.1 180.682L1164.24 174.442L1169.1 175.012L1178.94 173.048L1163.1 180.682Z" fill="#626262"/>
<path d="M1201 144.697L1201.63 124.74L1228.05 106.652L1221.38 126.799L1205.13 137.379L1201 144.697Z" fill="#626262"/>
<path d="M1204.94 134.528L1205.57 127.242L1217.19 119.164L1215 128.478L1204.94 134.528Z" fill="#484D49"/>
<path d="M1199.76 84.5408L1201.1 95.8498L1223.32 95.7231L1231.25 82.862L1230.87 71.6798L1200.14 55.7143L1188.21 74.7525L1199.76 84.5408Z" fill="#484D49"/>
<path d="M1190.84 75.1643L1199.19 75.7345L1201.25 58.4069L1174.17 41.5227L1156.94 19.1901L1149.6 19L1165.98 50.9944L1190.84 75.1643Z" fill="#FFA9E0"/>
<path d="M1174.97 75.9246L1165.54 70.9195L1153.6 89.9577L1161.79 97.0852L1174.97 75.9246Z" fill="#484D49"/>
<path d="M1156.24 90.3695L1164.59 90.9397L1166.65 73.6121L1139.57 56.728L1122.33 34.3953L1115 34.2052L1131.38 66.1996L1156.24 90.3695Z" fill="#FFA9E0"/>
<path d="M1190.17 155.277L1207.86 148.91L1224.46 134.053L1212.9 152.996L1190.17 155.277Z" fill="#626262"/>
<path d="M1259.95 75.4811L1264.71 60.2442L1283.44 52.9583L1286.3 60.2442L1259.95 75.4811Z" fill="#484D49"/>
<path d="M1284.08 54.5739L1310.75 44.0886L1308.52 47.8899L1285.73 58.8503L1284.08 54.5739Z" fill="#626262"/>
<path d="M1257.51 101.457L1290.75 94.4559L1288.21 108.077L1258.78 111.245L1257.51 101.457Z" fill="#626262"/>
<path d="M1289.89 98.9858L1294.87 98.574L1307.7 66.358L1315.83 69.7475L1308.21 106.81L1288.21 108.077L1289.89 98.9858Z" fill="#484D49"/>
<path d="M1309.76 70.4127L1277.63 74.8158L1273.29 82.1017L1280.37 92.8721L1291.38 89.0708L1294.56 83.6856L1307.22 77.065L1309.76 70.4127Z" fill="#626262"/>
<path d="M1283.22 77.3501L1279 80.1694L1279.7 85.016L1286.4 85.5862L1288.84 80.7395L1283.22 77.3501Z" fill="#484D49"/>
<path d="M1248.68 66.8965L1264.71 60.2442L1261.22 71.3313L1254.08 75.291L1253.44 70.6978L1248.68 66.8965Z" fill="#626262"/>
<path d="M1190.43 140.388L1195.19 110.928L1218.68 104.593L1199.32 115.997L1190.43 140.388Z" fill="#626262"/>
<path d="M1152.46 175.614L1159.19 173.175L1171.38 151.856L1164.37 109.82L1184.08 68.7971L1178.56 70.2859L1159.63 110.168L1166.21 151.571L1152.46 175.614Z" fill="white"/>
<path d="M1155.6 120.115L1160.46 143.461L1153.51 122.839L1155.6 120.115Z" fill="#626262"/>
<path d="M1146.78 180.651L1152.65 183.882L1149.51 184.484L1146.78 180.651Z" fill="#626262"/>
<path d="M1240.81 167.219L1243.6 147.833L1239.79 141.972L1249.32 131.519L1246.78 126.609L1249.16 124.391L1253.13 132.627L1243.44 142.447L1246.94 147.516L1244.24 161.454L1240.81 167.219Z" fill="#626262"/>
<path d="M1232.9 138.995L1238.84 149.417L1236.14 172.224L1233.22 174.949L1235.83 150.525L1230.59 141.18L1232.9 138.995Z" fill="#626262"/>
<path d="M1295.83 107.602L1290.11 127.559L1278.05 133.578L1277.1 137.379L1293.29 129.46L1299.79 107.127L1295.83 107.602Z" fill="#484D49"/>
</g>
<path d="M8 261H714L737.5 284.5H917.5L941 261H1688.5" stroke="white" stroke-width="6"/>
<path d="M1096.93 283L1109 271H1093.91L1081.84 283H1096.93Z" fill="#FAFF00"/>
<path d="M1075.81 283L1087.88 271H1051.67L1039.6 283H1075.81Z" fill="#FAFF00"/>
<path d="M1033.57 283L1045.64 271H1030.55L1018.48 283H1033.57Z" fill="#FAFF00"/>
<path d="M1012.45 283L1024.52 271H1009.43L997.362 283H1012.45Z" fill="#FAFF00"/>
<path d="M991.328 283L1003.4 271H988.31L976.241 283H991.328Z" fill="#FAFF00"/>
<path d="M970.207 283L982.276 271H967.19L955.121 283H970.207Z" fill="#FAFF00"/>
<path d="M949.086 283L961.155 271H946.069L934 283H949.086Z" fill="#FAFF00"/>
<path d="M1096.93 283L1109 271H1093.91L1081.84 283H1096.93Z" fill="#FAFF00"/>
<path d="M1075.81 283L1087.88 271H1051.67L1039.6 283H1075.81Z" fill="#FAFF00"/>
<path d="M1033.57 283L1045.64 271H1030.55L1018.48 283H1033.57Z" fill="#FAFF00"/>
<path d="M1012.45 283L1024.52 271H1009.43L997.362 283H1012.45Z" fill="#FAFF00"/>
<path d="M991.328 283L1003.4 271H988.31L976.241 283H991.328Z" fill="#FAFF00"/>
<path d="M970.207 283L982.276 271H967.19L955.121 283H970.207Z" fill="#FAFF00"/>
<path d="M949.086 283L961.155 271H946.069L934 283H949.086Z" fill="#FAFF00"/>
<path d="M556.069 283L544 271H559.086L571.155 283H556.069Z" fill="#FAFF00"/>
<path d="M577.19 283L565.121 271H601.328L613.397 283H577.19Z" fill="#FAFF00"/>
<path d="M619.431 283L607.362 271H622.448L634.517 283H619.431Z" fill="#FAFF00"/>
<path d="M640.552 283L628.483 271H643.569L655.638 283H640.552Z" fill="#FAFF00"/>
<path d="M661.672 283L649.603 271H664.69L676.759 283H661.672Z" fill="#FAFF00"/>
<path d="M682.793 283L670.724 271H685.81L697.879 283H682.793Z" fill="#FAFF00"/>
<path d="M703.914 283L691.845 271H706.931L719 283H703.914Z" fill="#FAFF00"/>
</g>
<defs>
<clipPath id="clip0_1554_900">
<rect width="1643" height="284" fill="white"/>
</clipPath>
</defs>
</svg>
