<svg width="466" height="466" viewBox="0 0 466 466" fill="none" xmlns="http://www.w3.org/2000/svg">
<path d="M345.728 3L358 15.2561L340.783 33H286.385L271 18L286.019 3H345.728Z" fill="#00B3FF"/>
<path d="M0 52.7074L53.0333 0H255.39L286.234 30.8439H342.037L357.509 15.3712H430.686L466 50.6854V414.966L414.65 466H21.0449L0 445.084V168.743L11.832 156.911V88.8312L0 76.9992V52.7074Z" fill="#BEBEBE"/>
<path fill-rule="evenodd" clip-rule="evenodd" d="M286.234 30.8439L255.39 0H53.0333L0 52.7074V76.9992L11.832 88.8312V156.911L0 168.743V445.084L21.0449 466H414.65L466 414.966V50.6854L430.686 15.3712H357.509L342.037 30.8439H286.234ZM360.978 23.7447L345.505 39.2173H282.765L251.921 8.37344H56.4865L8.37344 56.1909V73.5308L20.2055 85.3628V160.379L8.37344 172.211V441.601L24.4982 457.627H411.197L457.627 411.482V54.1537L427.218 23.7447H360.978Z" fill="#FAFF00"/>
<path d="M118.674 386.989L78 458L409.308 455.073L424 433.266L376.903 376.351L316.962 329.277L286.456 308L219.022 339.383L168.447 350.021L118.674 386.989Z" fill="#7F7F7F"/>
<path d="M213.872 306.939V339.827L142.899 380.987L94.1505 457H406.016L396.847 402.24L339.136 347.221L292.356 325.503V259.47L213.872 306.939Z" fill="#D5D5D5"/>
<path d="M418.501 428.405L401.82 431.973L399.593 418.787L408.71 422.044L392.547 375.713L366.437 373.851L335.613 346.6L341.416 344.015L297.278 312.782L222.109 357.666L182.789 348.927L168.75 362.01L165.849 350.53L120.571 386.624L124.715 394.535L109.226 405.291L110.832 421.734L94.1505 436.161L95.4974 444.331L85.6545 456.948H249.928L250.083 457V456.948H269.562H285.104V457H408.71L418.501 428.405Z" fill="#D5D5D5"/>
<path d="M408.71 422.044L357.89 408.135H324.527L361.205 403.739L406.016 414.236L408.71 422.044Z" fill="#AAAAAA"/>
<path d="M110.832 421.734L136.682 442.418L109.226 405.291L110.832 421.734Z" fill="#AAAAAA"/>
<path d="M124.715 394.535L132.02 405.291L178.126 394.535L182.789 423.596L255.005 418.942L181.649 432.541L169.838 403.739L130.984 412.892L124.715 394.535Z" fill="#AAAAAA"/>
<path d="M230.449 398L341.416 344.015V351.72L274.069 384.865L230.449 398Z" fill="#AAAAAA"/>
<path d="M401.82 431.973L337.686 444.59L304.53 440.453H337.686L401.147 427.836L401.82 431.973Z" fill="#AAAAAA"/>
<path d="M95.4974 444.331L136.682 452.346L94.1505 436.161L95.4974 444.331Z" fill="#AAAAAA"/>
<path d="M178.126 394.535L222.109 384.865L169.838 403.739L178.126 394.535Z" fill="#AAAAAA"/>
<path d="M142.899 380.987L163.362 444.693L205.013 430.732L206.878 341.998L148.079 367.543L142.899 380.987Z" fill="white"/>
<path d="M286.399 325.503H292.356L354.781 354.098L361.205 368.215L294.377 447.175L249.306 430.628L286.399 325.503Z" fill="white"/>
<path d="M166.729 416.718L176.313 457H204.547L194.289 408.135L166.729 416.718Z" fill="#4B4B4B"/>
<path d="M272.204 408.135L250.653 457H281.736L297.485 417.442L272.204 408.135Z" fill="#4B4B4B"/>
<path d="M163.362 444.693L205.013 430.732L206.878 341.998L210.608 435.024L167.973 448.571L163.362 444.693Z" fill="#4B4B4B"/>
<path d="M249.099 430.525L293.082 446.555L361.205 368.215L294.014 454.466L250.083 439.16L249.099 430.525Z" fill="#4B4B4B"/>
<path d="M304.53 331.863L311.369 318.936L337.686 329.278L328.309 341.998L304.53 331.863Z" fill="#4B4B4B"/>
<path d="M159.58 362.527L155.85 352.03L178.126 341.998L180.665 353.374L159.58 362.527Z" fill="#4B4B4B"/>
<path d="M424.355 424.837L429 440.453L408.71 457H357.89L383.378 433.886L424.355 424.837Z" fill="white"/>
<path d="M79.0752 428.043L113.992 436.213L127.254 456.948L64 457L79.0752 428.043Z" fill="white"/>
<path d="M327.014 188.421L317.896 128.852L253.813 94L180.302 102.17L140.93 159.619L142.433 231.495L153.778 286.411L193.15 311.903L182.789 339.62L219 339.827L251.482 314.075L259.616 334.5L292.356 315.73L293.444 276.689L293.341 276.793L311.265 251.921L327.014 188.421Z" fill="#4B4B4B"/>
<path d="M306.499 226.014L247.493 247.784L253.762 215.517L239.774 193.024L254.383 142.503L259.616 128.852L220.451 125.749L204.184 137.746L154.348 145.244L159.58 132.406L132.538 145.075L125.233 161.739V201.09L118.861 228.6L131.709 257.815L130.051 275.707L145.282 303.423L162.326 306.474L176.469 324.676L202.993 323.538L206.878 317.436L211.903 323.124L219.311 322.814L222.109 301.924L255.678 291.375L309.296 231.857L306.499 226.014Z" fill="white"/>
<path d="M180.665 236.201L201.024 265.262L237.443 266.865L240.551 236.666L222.161 219.137L180.665 236.201Z" fill="#4B4B4B"/>
<path d="M269.562 312.576L260.082 327.313L214.079 358.235L191.544 355.701L182.789 339.62L219.518 338.844L250.083 313.558L255.834 297.063L263.553 289.927L269.562 312.576Z" fill="white"/>
<path d="M189.679 352.857L216.825 354.098L259.616 327.52L292.356 315.73L218.793 365.888L189.005 362.372L189.679 352.857Z" fill="#4B4B4B"/>
<path d="M278.369 165.204L279.56 182.371L332.557 199.125L340.224 179.786L326.133 138.056L278.369 165.204Z" fill="#D5D5D5"/>
<path d="M166.833 254.299L168.646 286.411H196.517L173.619 254.299H166.833Z" fill="#4B4B4B"/>
<path d="M164.139 236.666V265.675L138.91 271.88L128.912 243.595L134.092 228.962L164.139 236.666Z" fill="#4B4B4B"/>
<path d="M266.816 159.619L258.269 178.235L270.08 194.213L289.611 191.679L293.444 170.271L284.016 158.378L266.816 159.619Z" fill="#626262"/>
<path d="M203.355 247.887L208.795 233.512L222.679 229.841L233.506 239.51L232.003 253.058L217.498 259.056L203.355 247.887Z" fill="#00B3FF"/>
<path d="M322.662 205.951L337.686 224.153V266.865L318.103 327.52L314.114 324.676L333.541 266.865L333.904 226.376L321.263 211.587L322.662 205.951Z" fill="#4B4B4B"/>
<path d="M324.942 196.747L332.557 199.125L357.89 228.962V290.082L326.703 333.57L322.766 330.777L353.072 288.944L354.367 231.03L324.942 196.747Z" fill="#4B4B4B"/>
<path d="M259.616 128.852L188.332 183.974L142.899 189.145L125.233 161.739V168.617L140.93 199.229L191.078 194.213L259.616 128.852Z" fill="#D5D5D5"/>
<path d="M162.326 306.474L156.368 298.045H142.329L145.282 303.423L162.326 306.474Z" fill="#D5D5D5"/>
<path d="M222.109 301.924L219.311 322.814L228.273 299.959L255.678 291.375L309.296 231.857L308.105 229.841L251.534 284.136L223.559 292.047L222.109 301.924Z" fill="#D5D5D5"/>
<path d="M275.882 193.489L310.125 220.998L312.405 265.83L295.102 277.465L275.882 268.933L271.531 273.742L295.516 285.221L318.725 269.915L315.824 217.327L283.446 192.455L275.882 193.489Z" fill="#D5D5D5"/>
<path d="M172.687 346.704L159.477 318.936L162.326 306.474L157.663 305.647L154.659 318.936L170.718 352.237L172.687 346.704Z" fill="#4B4B4B"/>
<path d="M165.849 350.53L147.043 324.624L149.737 304.199L145.282 303.423L142.899 326.951L162.326 353.271L165.849 350.53Z" fill="#4B4B4B"/>
<path d="M133.419 281.86L128.912 285.221L116.478 271.88L124.715 241.889L121.607 234.805L109.226 271.88L128.912 294.167L136.941 288.221L133.419 281.86Z" fill="#D5D5D5"/>
<path d="M314.114 301.924V295.408L292.356 283.67L285.052 320.694L314.114 301.924Z" fill="white"/>
<path d="M143.313 226.014L140.93 234.805L149.375 237.649L151.965 229.841L143.313 226.014Z" fill="#D5D5D5"/>
<path d="M193.098 226.583L196.88 233.253L208.329 228.134L203.873 220.326L193.098 226.583Z" fill="#D5D5D5"/>
<path d="M321.471 150.156L331.21 180.148L342.555 163.446L337.219 147.261L321.471 150.156Z" fill="white"/>
<path d="M140.93 199.229L131.761 202.59L142.899 189.145L140.93 199.229Z" fill="#D5D5D5"/>
<path d="M191.078 194.213L215.426 195.195L188.332 183.974L191.078 194.213Z" fill="#D5D5D5"/>
<path fill-rule="evenodd" clip-rule="evenodd" d="M289.025 17L293 13.2836L289.488 10L282 17L289.488 24L293 20.7164L289.025 17Z" fill="white"/>
<path fill-rule="evenodd" clip-rule="evenodd" d="M338.975 17L335 13.2836L338.512 10L346 17L338.512 24L335 20.7164L338.975 17Z" fill="white"/>
</svg>
