<svg width="381" height="542" viewBox="0 0 381 542" fill="none" xmlns="http://www.w3.org/2000/svg">
<path d="M83.7047 193.43L129.978 130.588L189.321 122.855L246.371 143.903L279.585 205.59L277.598 221.451L307.894 211.407L322.171 242.994L283.962 286.292L269.589 285.399L268.517 293.959L205.82 367.96L173.976 370.043L128.025 333.699L110.622 270.71L95.0551 251.729L83.7047 193.43Z" fill="#AEAEAE"/>
<path d="M217.933 209.628L186.952 238.659L186.78 241.44L237.288 220.725L254.083 191.321L217.933 209.628Z" fill="black"/>
<path d="M125.737 227.501L144.905 245.691L144.686 249.229L109.756 239.703L88.1227 220.345L125.737 227.501Z" fill="black"/>
<path d="M215.338 235.093L194.002 247.723L197.703 257.594L231.904 262.508L258.934 231.71L215.338 235.093Z" fill="black"/>
<path d="M123.534 246.647L99.3821 247.431L116.311 273.093L146.874 267.125L147.486 257.268L123.534 246.647Z" fill="black"/>
<path d="M121.652 317.826L165.29 264.716L253.637 296.588L260.255 333.027L188.53 384.901L130.447 347.804L121.652 317.826Z" fill="#5E5E5E"/>
<path d="M242.589 315.185L253.51 290.491L279.543 292.107L276.641 338.865L262.837 344.605L242.589 315.185Z" fill="#7E7E7E"/>
<path d="M129.035 329.702L117.732 307.434L109.644 306.932L108.53 324.877L115.111 349.643L127.749 350.427L129.035 329.702Z" fill="#7E7E7E"/>
<path d="M307.278 213.145L285.72 221.194L282.954 228.634L276.709 280.513L271.708 258.89L275.035 205.308L263.189 208.124L261.214 170.451L252.638 173.724L253.689 156.79L235.268 151.08L195.557 153.181L199.019 158.724L146.447 155.461L156.243 161.143L116.63 169.848L84.4625 193.477L95.86 251.018L110.401 270.189L109.946 277.519L85.4328 247.326L77.4551 208.265L36.7626 205.739L69.3273 187.97L22.8534 147.788L73.0146 128.575L10.5128 101.352L106.734 75.8638L85.7554 74.5615L163.288 47.6595L99.1621 26.1717L198.278 11.2658L271.709 70.8821L273.811 37.0139L333.45 130.788L312.907 224.658L307.278 213.145Z" fill="white"/>
</svg>
