<svg width="381" height="542" viewBox="0 0 381 542" fill="none" xmlns="http://www.w3.org/2000/svg">
<path d="M126.315 250.879L147.091 259.527L146.558 268.121L119.406 272.271L108.008 251.519L126.315 250.879Z" fill="#FAFF00"/>
<path d="M217.092 239.515L195.124 250.077L197.986 257.105L231.507 260.708L248.7 237.164L217.092 239.515Z" fill="#FAFF00"/>
<path d="M223.64 268.925L225.419 259.099L222.381 259.24L217.308 272.466L237.658 273.555L238.662 286.5L242.011 271.121L223.64 268.925Z" fill="#FAFF00"/>
<path d="M237.3 239.469L230.142 247.107L227.406 245.001L229.687 241.648L226.38 240.38L226.368 235.712L211.686 229.895L224.376 232.15L222.674 221.673L229.878 215.047L207.558 202.073L235.07 213.183L227.121 221.264L229.057 236.805L237.3 239.469Z" fill="#FAFF00"/>
<path d="M139.137 282.106L129.682 270.129L124.916 270.098L134.371 282.075L124.799 288.209L132.214 320.667L129.552 290.146L139.137 282.106Z" fill="#FAFF00"/>
<path d="M118.908 240.985L129.762 257.737L124.996 257.706L106.582 230.896L110.948 219.009L110.88 229.494L117.027 237.16L127.085 229.599L120.972 216.691L132.983 201.993L125.262 216.719L132.795 231.066L118.908 240.985Z" fill="#FAFF00"/>
</svg>
