<svg width="559" height="737" viewBox="0 0 559 737" fill="none" xmlns="http://www.w3.org/2000/svg">
<g clip-path="url(#clip0_360_171)">
<path d="M164.963 247.596C148.572 244.143 114.754 245.007 110.613 276.085C105.437 314.932 188.834 306.415 183.658 404.829C179.517 483.56 109.5 448.074 151 532M164.963 206.159C145.121 213.065 110.096 234.647 128.73 265.725C152.023 304.573 251.574 411.466 167.347 476.008C128.644 505.666 67 502.5 101 562.5" stroke="#FAFF00" stroke-width="8"/>
<path d="M111.5 549L218.4 483.422H275.149L476.348 604.658L569.211 750.342H251.873H0L12 651.5L111.5 549Z" fill="white"/>
<path d="M208.252 531.872L226.333 432.431L252.164 416.729L288.328 453.366L270.246 539.722L241.832 550.19L208.252 531.872Z" fill="white"/>
<path d="M219.612 432.25L227.296 381.236L257.905 385.846L297.777 467.501L255.813 469.006L219.612 432.25Z" fill="#787878"/>
<path d="M154.868 198.91L169.697 191.331L177.111 219.121L162.283 224.174L154.868 198.91Z" fill="#E9E9E9"/>
<path d="M162.283 234.279L177.111 231.753L184.526 259.543H162.283V234.279Z" fill="#E9E9E9"/>
<path d="M519.911 174.612L455.843 50.4309L314.656 12.0692L189.513 65.4591L157.865 178.962L172.22 256.891L151.474 256.891L128.78 307.098L189.513 375.919L212.36 374.501L214.064 388.107L320.109 498.146L370.726 501.456L443.764 443.688L471.425 343.569L496.169 313.4L519.911 174.612Z" fill="white"/>
<path d="M435.233 330.351L445.514 182.433H435.233L424.951 330.351L368.404 473.079H378.685L435.233 330.351Z" fill="#D9D9D9"/>
<path d="M432.689 327.649L465.937 322.574L466.322 327.719L430.695 335.559L331.408 322.296L330.638 312.006L432.689 327.649Z" fill="#D9D9D9"/>
</g>
<defs>
<clipPath id="clip0_360_171">
<rect width="559" height="737" fill="white"/>
</clipPath>
</defs>
</svg>