<svg width="381" height="542" viewBox="0 0 381 542" fill="none" xmlns="http://www.w3.org/2000/svg">
<path d="M126.315 250.879L147.091 259.527L146.558 268.121L119.406 272.271L108.008 251.519L126.315 250.879Z" fill="#FAFF00"/>
<path d="M217.092 239.515L195.124 250.077L197.986 257.105L231.507 260.708L248.7 237.164L217.092 239.515Z" fill="#FAFF00"/>
<path d="M134 245L127 253.5L130 255L142 245L123 233L129 220L117.5 233L134 245Z" fill="#FAFF00"/>
<path d="M105 266L116 262.5L117.5 266L113.5 268L116 271L113.5 275.5L124.5 289L113.5 280L109.5 291L99 293.5L113.5 318L93 292.5L105 289L111.5 273L105 266Z" fill="#FAFF00"/>
<path d="M205 232.5L215 245H220L210 232.5L220 226L212 192L215 224L205 232.5Z" fill="#FAFF00"/>
<path d="M226.5 275.5L215 258H220L239.5 286L235 298.5V287.5L228.5 279.5L218 287.5L224.5 301L212 316.5L220 301L212 286L226.5 275.5Z" fill="#FAFF00"/>
</svg>
