<svg width="381" height="542" viewBox="0 0 381 542" fill="none" xmlns="http://www.w3.org/2000/svg">
<path d="M126.315 250.879L147.091 259.527L146.558 268.121L119.406 272.271L108.008 251.519L126.315 250.879Z" fill="white"/>
<path d="M217.092 239.515L195.124 250.077L197.986 257.105L231.507 260.708L248.7 237.164L217.092 239.515Z" fill="white"/>
<path d="M111 216L125.5 252.5L134.5 256L125.5 230L138 213L123.5 227.5L117.5 216L125.5 200L111 190L133 174L129.5 158.5H151.5L157 134.5L149.5 156.5H127.5L129.5 172.5L105 187.5L81.5 172.5L78.5 134.5V174L117.5 200L111 216Z" fill="white"/>
<path d="M95.5 266.5L117.5 262L119.5 266.5L102 268L123.5 287L107 292L123.5 300.5L141 292L147 304L139.5 295.5L125.5 304L102.5 293L85 298L88.5 330.5L81.5 295.5L117.5 287L95.5 266.5Z" fill="white"/>
<path d="M223 270.5L219 255.5L229 252.5V270.5L215 286.5L219 289L246.5 276.5L259 255.5L250.5 279.5L223 292L255 308.5L238.5 331.5L250.5 308.5L207 289L223 270.5Z" fill="white"/>
<path d="M195 220L215 243H221.5L201.5 222L227.5 217.5L225 205.5L233.5 197.5L223 203L219 187.5L225 178.5L231 172.5L241.5 182L256 161.5L241.5 178.5L232 169.5L225 173.5L195 162.5L223 176L215 189L223 215.5L195 220Z" fill="white"/>
</svg>
