<svg width="600" height="600" viewBox="0 0 600 600" fill="none" xmlns="http://www.w3.org/2000/svg">
<path fill-rule="evenodd" clip-rule="evenodd" d="M455.861 0H507.644L600 92.3461V144.19L444.174 300L600 455.808V507.653L507.644 599.999H455.861L300.001 444.157L144.142 600L0.00193185 599.999V455.81L155.828 300.001L0 144.191V92.3468L92.3573 0.000692843L144.141 0.000691838L300.001 155.843L455.861 0ZM464.55 21.0885L300.001 185.62L135.452 21.0892H101.046L21.0243 101.102V135.436L185.608 300L21.0262 464.564V578.91L135.453 578.911L300.001 414.381L464.55 578.91H498.955L578.976 498.898V464.563L414.394 300L578.976 135.436V101.101L498.955 21.0885H464.55Z" fill="white"/>
</svg>
